<?xml version="1.0"?>
<svg xmlns="http://www.w3.org/2000/svg" width="405" height="443" viewBox="0 0 405 443" transform="translate(0.5, 0.5)">
  <desc>Chysl 0.2.9 piechart</desc>
  <g stroke="black" fill="white" font-family="sans-serif" font-size="14">
    <text x="202" y="30" stroke="none" fill="black" font-size="30" text-anchor="middle">Day</text>
    <g transform="translate(202, 240)">
      <circle r="200.0" />
      <g stroke="black" stroke-width="1">
        <path d="M 0 0 L 0. -200 A 200 200 0 0 1 173.2051 100 Z" fill="gray" />
        <path d="M 0 0 L 173.2051 100 A 200 200 0 0 1 141.4214 141.4214 Z" fill="lightgreen" />
        <path d="M 0 0 L 141.4214 141.4214 A 200 200 0 0 1 51.7638 193.1852 Z" fill="lightblue" />
        <path d="M 0 0 L 51.7638 193.1852 A 200 200 0 0 1 0. 200 Z" fill="navy" />
        <path d="M 0 0 L 0. 200 A 200 200 0 0 1 -51.7638 193.1852 Z" fill="lightgreen" />
        <path d="M 0 0 L -51.7638 193.1852 A 200 200 0 0 1 -71.6736 186.7161 Z" fill="gray" />
        <path d="M 0 0 L -71.6736 186.7161 A 200 200 0 0 1 -200 0. Z" fill="pink" />
        <path d="M 0 0 L -200 0. A 200 200 0 0 1 -193.1852 -51.7638 Z" fill="lightgreen" />
        <path d="M 0 0 L -193.1852 -51.7638 A 200 200 0 0 1 -100 -173.2051 Z" fill="orange" />
        <path d="M 0 0 L -100 -173.2051 A 200 200 0 0 1 -0. -200 Z" fill="navy" />
      </g>
      <g stroke="none" fill="black" text-anchor="middle">
        <text x="121.2436" y="-70" fill="white">Sleep</text>
        <text x="111.0695" y="85.2266" fill="black">Breakfast</text>
        <text x="70" y="121.2436" fill="black">Gym</text>
        <text x="18.2737" y="138.8023" fill="white">Read</text>
        <text x="-18.2737" y="138.8023" fill="black">Lunch</text>
        <text x="-43.2624" y="133.1479" fill="white">Shuteye</text>
        <text x="-115.3777" y="79.2969" fill="black">Write</text>
        <text x="-138.8023" y="-18.2737" fill="black">Dinner</text>
        <text x="-111.0695" y="-85.2266" fill="black">TV</text>
        <text x="-36.2347" y="-135.2296" fill="white">Read</text>
      </g>
    </g>
  </g>
</svg>