<?xml version="1.0"?>
<svg xmlns="http://www.w3.org/2000/svg" width="609" height="848.2" viewBox="0 0 609 848.2" transform="translate(0.5, 0.5)">
  <title>Dimension tick ranges</title>
  <g class="layout">
    <g fill="black" font-family="sans-serif" font-size="22" text-anchor="middle" transform="translate(180.272,0)">
      <text y="22" x="123.728">Dimension tick ranges</text>
    </g>
    <g transform="translate(0,35.2)">
      <g class="layout">
        <g fill="black" font-family="sans-serif" font-size="16" text-anchor="middle" transform="translate(257.488,0)">
          <text y="16" x="46.512">1 - 1.00001</text>
        </g>
        <g transform="translate(0,26.6)">
          <g class="legend" font-family="sans-serif" font-size="12" text-anchor="end" transform="translate(0, 0)" />
        </g>
        <g transform="translate(6,25.6)">
          <rect x="0.5" y="0.5" width="601" height="21" stroke="black" fill="none" class="frame" stroke-width="1" />
        </g>
        <g transform="translate(7,26.6)">
          <g class="plot" clip-path="url(#id13)">
            <defs>
              <clipPath id="id13">
                <rect width="600" height="20" />
              </clipPath>
            </defs>
            <path d="M 0 0 V 20 M 120 0 V 20 M 240 0 V 20 M 360 0 V 20 M 480 0 V 20 M 600 0 V 20" stroke="lightgray" class="x-grid" />
            <g stroke="black" stroke-width="1" class="period">
              <rect x="0" y="1" width="600" height="18" fill="white" />
            </g>
            <g class="labels" font-family="sans-serif" font-size="12" text-anchor="middle" />
          </g>
        </g>
        <g transform="translate(7,47.6)">
          <g class="x-axis-labels" font-family="sans-serif" font-size="12" text-anchor="middle" stroke="none" fill="black">
            <text x="0" y="12" text-anchor="start">1.000000</text>
            <text x="120" y="12">1.000002</text>
            <text x="240" y="12">1.000004</text>
            <text x="360" y="12">1.000006</text>
            <text x="480" y="12">1.000008</text>
            <text x="600" y="12" text-anchor="end">1.000010</text>
          </g>
        </g>
      </g>
    </g>
    <g transform="translate(0,118.4)">
      <g class="layout">
        <g fill="black" font-family="sans-serif" font-size="16" text-anchor="middle" transform="translate(262.58,0)">
          <text y="16" x="41.42">1 - 1.0001</text>
        </g>
        <g transform="translate(0,26.6)">
          <g class="legend" font-family="sans-serif" font-size="12" text-anchor="end" transform="translate(0, 0)" />
        </g>
        <g transform="translate(6,25.6)">
          <rect x="0.5" y="0.5" width="601" height="21" stroke="black" fill="none" class="frame" stroke-width="1" />
        </g>
        <g transform="translate(7,26.6)">
          <g class="plot" clip-path="url(#id14)">
            <defs>
              <clipPath id="id14">
                <rect width="600" height="20" />
              </clipPath>
            </defs>
            <path d="M 0 0 V 20 M 300 0 V 20 M 600 0 V 20" stroke="lightgray" class="x-grid" />
            <g stroke="black" stroke-width="1" class="period">
              <rect x="0" y="1" width="600" height="18" fill="white" />
            </g>
            <g class="labels" font-family="sans-serif" font-size="12" text-anchor="middle" />
          </g>
        </g>
        <g transform="translate(7,47.6)">
          <g class="x-axis-labels" font-family="sans-serif" font-size="12" text-anchor="middle" stroke="none" fill="black">
            <text x="0" y="12" text-anchor="start">1.00000</text>
            <text x="300" y="12">1.00005</text>
            <text x="600" y="12" text-anchor="end">1.00010</text>
          </g>
        </g>
      </g>
    </g>
    <g transform="translate(0,201.6)">
      <g class="layout">
        <g fill="black" font-family="sans-serif" font-size="16" text-anchor="middle" transform="translate(262.58,0)">
          <text y="16" x="41.42">1 - 1.0002</text>
        </g>
        <g transform="translate(0,26.6)">
          <g class="legend" font-family="sans-serif" font-size="12" text-anchor="end" transform="translate(0, 0)" />
        </g>
        <g transform="translate(6,25.6)">
          <rect x="0.5" y="0.5" width="601" height="21" stroke="black" fill="none" class="frame" stroke-width="1" />
        </g>
        <g transform="translate(7,26.6)">
          <g class="plot" clip-path="url(#id15)">
            <defs>
              <clipPath id="id15">
                <rect width="600" height="20" />
              </clipPath>
            </defs>
            <path d="M 0 0 V 20 M 150 0 V 20 M 300 0 V 20 M 450 0 V 20 M 600 0 V 20" stroke="lightgray" class="x-grid" />
            <g stroke="black" stroke-width="1" class="period">
              <rect x="0" y="1" width="600" height="18" fill="white" />
            </g>
            <g class="labels" font-family="sans-serif" font-size="12" text-anchor="middle" />
          </g>
        </g>
        <g transform="translate(7,47.6)">
          <g class="x-axis-labels" font-family="sans-serif" font-size="12" text-anchor="middle" stroke="none" fill="black">
            <text x="0" y="12" text-anchor="start">1.00000</text>
            <text x="150" y="12">1.00005</text>
            <text x="300" y="12">1.00010</text>
            <text x="450" y="12">1.00015</text>
            <text x="600" y="12" text-anchor="end">1.00020</text>
          </g>
        </g>
      </g>
    </g>
    <g transform="translate(0,284.8)">
      <g class="layout">
        <g fill="black" font-family="sans-serif" font-size="16" text-anchor="middle" transform="translate(277.856,0)">
          <text y="16" x="26.144">1 - 1.1</text>
        </g>
        <g transform="translate(0,26.6)">
          <g class="legend" font-family="sans-serif" font-size="12" text-anchor="end" transform="translate(0, 0)" />
        </g>
        <g transform="translate(6,25.6)">
          <rect x="0.5" y="0.5" width="601" height="21" stroke="black" fill="none" class="frame" stroke-width="1" />
        </g>
        <g transform="translate(7,26.6)">
          <g class="plot" clip-path="url(#id16)">
            <defs>
              <clipPath id="id16">
                <rect width="600" height="20" />
              </clipPath>
            </defs>
            <path d="M 0 0 V 20 M 120 0 V 20 M 240 0 V 20 M 360 0 V 20 M 480 0 V 20 M 600 0 V 20" stroke="lightgray" class="x-grid" />
            <g stroke="black" stroke-width="1" class="period">
              <rect x="0" y="1" width="600" height="18" fill="white" />
            </g>
            <g class="labels" font-family="sans-serif" font-size="12" text-anchor="middle" />
          </g>
        </g>
        <g transform="translate(7,47.6)">
          <g class="x-axis-labels" font-family="sans-serif" font-size="12" text-anchor="middle" stroke="none" fill="black">
            <text x="0" y="12" text-anchor="start">1.00</text>
            <text x="120" y="12">1.02</text>
            <text x="240" y="12">1.04</text>
            <text x="360" y="12">1.06</text>
            <text x="480" y="12">1.08</text>
            <text x="600" y="12" text-anchor="end">1.10</text>
          </g>
        </g>
      </g>
    </g>
    <g transform="translate(0,368)">
      <g class="layout">
        <g fill="black" font-family="sans-serif" font-size="16" text-anchor="middle" transform="translate(285.456,0)">
          <text y="16" x="18.544">1 - 2</text>
        </g>
        <g transform="translate(0,26.6)">
          <g class="legend" font-family="sans-serif" font-size="12" text-anchor="end" transform="translate(0, 0)" />
        </g>
        <g transform="translate(6,25.6)">
          <rect x="0.5" y="0.5" width="601" height="21" stroke="black" fill="none" class="frame" stroke-width="1" />
        </g>
        <g transform="translate(7,26.6)">
          <g class="plot" clip-path="url(#id17)">
            <defs>
              <clipPath id="id17">
                <rect width="600" height="20" />
              </clipPath>
            </defs>
            <path d="M 0 0 V 20 M 120 0 V 20 M 240 0 V 20 M 360 0 V 20 M 480 0 V 20 M 600 0 V 20" stroke="lightgray" class="x-grid" />
            <g stroke="black" stroke-width="1" class="period">
              <rect x="0" y="1" width="600" height="18" fill="white" />
            </g>
            <g class="labels" font-family="sans-serif" font-size="12" text-anchor="middle" />
          </g>
        </g>
        <g transform="translate(7,47.6)">
          <g class="x-axis-labels" font-family="sans-serif" font-size="12" text-anchor="middle" stroke="none" fill="black">
            <text x="0" y="12" text-anchor="start">1.0</text>
            <text x="120" y="12">1.2</text>
            <text x="240" y="12">1.4</text>
            <text x="360" y="12">1.6</text>
            <text x="480" y="12">1.8</text>
            <text x="600" y="12" text-anchor="end">2.0</text>
          </g>
        </g>
      </g>
    </g>
    <g transform="translate(0,451.2)">
      <g class="layout">
        <g fill="black" font-family="sans-serif" font-size="16" text-anchor="middle" transform="translate(285.456,0)">
          <text y="16" x="18.544">1 - 5</text>
        </g>
        <g transform="translate(0,26.6)">
          <g class="legend" font-family="sans-serif" font-size="12" text-anchor="end" transform="translate(0, 0)" />
        </g>
        <g transform="translate(6,25.6)">
          <rect x="0.5" y="0.5" width="601" height="21" stroke="black" fill="none" class="frame" stroke-width="1" />
        </g>
        <g transform="translate(7,26.6)">
          <g class="plot" clip-path="url(#id18)">
            <defs>
              <clipPath id="id18">
                <rect width="600" height="20" />
              </clipPath>
            </defs>
            <path d="M 0 0 V 20 M 75 0 V 20 M 150 0 V 20 M 225 0 V 20 M 300 0 V 20 M 375 0 V 20 M 450 0 V 20 M 525 0 V 20 M 600 0 V 20" stroke="lightgray" class="x-grid" />
            <g stroke="black" stroke-width="1" class="period">
              <rect x="0" y="1" width="600" height="18" fill="white" />
            </g>
            <g class="labels" font-family="sans-serif" font-size="12" text-anchor="middle" />
          </g>
        </g>
        <g transform="translate(7,47.6)">
          <g class="x-axis-labels" font-family="sans-serif" font-size="12" text-anchor="middle" stroke="none" fill="black">
            <text x="0" y="12" text-anchor="start">1.0</text>
            <text x="75" y="12">1.5</text>
            <text x="150" y="12">2.0</text>
            <text x="225" y="12">2.5</text>
            <text x="300" y="12">3.0</text>
            <text x="375" y="12">3.5</text>
            <text x="450" y="12">4.0</text>
            <text x="525" y="12">4.5</text>
            <text x="600" y="12" text-anchor="end">5.0</text>
          </g>
        </g>
      </g>
    </g>
    <g transform="translate(0,534.4)">
      <g class="layout">
        <g fill="black" font-family="sans-serif" font-size="16" text-anchor="middle" transform="translate(280.364,0)">
          <text y="16" x="23.636">1 - 10</text>
        </g>
        <g transform="translate(0,26.6)">
          <g class="legend" font-family="sans-serif" font-size="12" text-anchor="end" transform="translate(0, 0)" />
        </g>
        <g transform="translate(6,25.6)">
          <rect x="0.5" y="0.5" width="601" height="21" stroke="black" fill="none" class="frame" stroke-width="1" />
        </g>
        <g transform="translate(7,26.6)">
          <g class="plot" clip-path="url(#id19)">
            <defs>
              <clipPath id="id19">
                <rect width="600" height="20" />
              </clipPath>
            </defs>
            <path d="M 0 0 V 20 M 66.667 0 V 20 M 133.333 0 V 20 M 200 0 V 20 M 266.667 0 V 20 M 333.333 0 V 20 M 400 0 V 20 M 466.667 0 V 20 M 533.333 0 V 20 M 600 0 V 20" stroke="lightgray" class="x-grid" />
            <g stroke="black" stroke-width="1" class="period">
              <rect x="0" y="1" width="600" height="18" fill="white" />
            </g>
            <g class="labels" font-family="sans-serif" font-size="12" text-anchor="middle" />
          </g>
        </g>
        <g transform="translate(7,47.6)">
          <g class="x-axis-labels" font-family="sans-serif" font-size="12" text-anchor="middle" stroke="none" fill="black">
            <text x="0" y="12" text-anchor="start">1</text>
            <text x="66.667" y="12">2</text>
            <text x="133.333" y="12">3</text>
            <text x="200" y="12">4</text>
            <text x="266.667" y="12">5</text>
            <text x="333.333" y="12">6</text>
            <text x="400" y="12">7</text>
            <text x="466.667" y="12">8</text>
            <text x="533.333" y="12">9</text>
            <text x="600" y="12" text-anchor="end">10</text>
          </g>
        </g>
      </g>
    </g>
    <g transform="translate(0,617.6)">
      <g class="layout">
        <g fill="black" font-family="sans-serif" font-size="16" text-anchor="middle" transform="translate(270.18,0)">
          <text y="16" x="33.82">1 - 2000</text>
        </g>
        <g transform="translate(0,26.6)">
          <g class="legend" font-family="sans-serif" font-size="12" text-anchor="end" transform="translate(0, 0)" />
        </g>
        <g transform="translate(6,25.6)">
          <rect x="0.5" y="0.5" width="601" height="21" stroke="black" fill="none" class="frame" stroke-width="1" />
        </g>
        <g transform="translate(7,26.6)">
          <g class="plot" clip-path="url(#id20)">
            <defs>
              <clipPath id="id20">
                <rect width="600" height="20" />
              </clipPath>
            </defs>
            <path d="M 0 0 V 20 M 60 0 V 20 M 120 0 V 20 M 180 0 V 20 M 240 0 V 20 M 300 0 V 20 M 360 0 V 20 M 420 0 V 20 M 480 0 V 20 M 540 0 V 20 M 600 0 V 20" stroke="lightgray" class="x-grid" />
            <g stroke="black" stroke-width="1" class="period">
              <rect x="0.3" y="1" width="599.7" height="18" fill="white" />
            </g>
            <g class="labels" font-family="sans-serif" font-size="12" text-anchor="middle" />
          </g>
        </g>
        <g transform="translate(7,47.6)">
          <g class="x-axis-labels" font-family="sans-serif" font-size="12" text-anchor="middle" stroke="none" fill="black">
            <text x="0" y="12" text-anchor="start">0</text>
            <text x="60" y="12">200</text>
            <text x="120" y="12">400</text>
            <text x="180" y="12">600</text>
            <text x="240" y="12">800</text>
            <text x="300" y="12">1000</text>
            <text x="360" y="12">1200</text>
            <text x="420" y="12">1400</text>
            <text x="480" y="12">1600</text>
            <text x="540" y="12">1800</text>
            <text x="600" y="12" text-anchor="end">2000</text>
          </g>
        </g>
      </g>
    </g>
    <g transform="translate(0,700.8)">
      <g class="layout">
        <g fill="black" font-family="sans-serif" font-size="16" text-anchor="middle" transform="translate(249.812,0)">
          <text y="16" x="54.188">1 - 10000000</text>
        </g>
        <g transform="translate(0,26.6)">
          <g class="legend" font-family="sans-serif" font-size="12" text-anchor="end" transform="translate(0, 0)" />
        </g>
        <g transform="translate(6,25.6)">
          <rect x="0.5" y="0.5" width="601" height="21" stroke="black" fill="none" class="frame" stroke-width="1" />
        </g>
        <g transform="translate(7,26.6)">
          <g class="plot" clip-path="url(#id21)">
            <defs>
              <clipPath id="id21">
                <rect width="600" height="20" />
              </clipPath>
            </defs>
            <path d="M 0 0 V 20 M 120 0 V 20 M 240 0 V 20 M 360 0 V 20 M 480 0 V 20 M 600 0 V 20" stroke="lightgray" class="x-grid" />
            <g stroke="black" stroke-width="1" class="period">
              <rect x="0" y="1" width="600" height="18" fill="white" />
            </g>
            <g class="labels" font-family="sans-serif" font-size="12" text-anchor="middle" />
          </g>
        </g>
        <g transform="translate(7,47.6)">
          <g class="x-axis-labels" font-family="sans-serif" font-size="12" text-anchor="middle" stroke="none" fill="black">
            <text x="0" y="12" text-anchor="start">0</text>
            <text x="120" y="12">2</text>
            <text x="240" y="12">4</text>
            <text x="360" y="12">6</text>
            <text x="480" y="12">8</text>
            <text x="600" y="12" text-anchor="end">10</text>
          </g>
        </g>
      </g>
    </g>
    <g transform="translate(0,784)">
      <g class="layout">
        <g fill="black" font-family="sans-serif" font-size="16" text-anchor="middle" transform="translate(234.536,0)">
          <text y="16" x="69.464">1 - 10000000000</text>
        </g>
        <g transform="translate(0,26.6)">
          <g class="legend" font-family="sans-serif" font-size="12" text-anchor="end" transform="translate(0, 0)" />
        </g>
        <g transform="translate(6,25.6)">
          <rect x="0.5" y="0.5" width="601" height="21" stroke="black" fill="none" class="frame" stroke-width="1" />
        </g>
        <g transform="translate(7,26.6)">
          <g class="plot" clip-path="url(#id22)">
            <defs>
              <clipPath id="id22">
                <rect width="600" height="20" />
              </clipPath>
            </defs>
            <path d="M 0 0 V 20 M 120 0 V 20 M 240 0 V 20 M 360 0 V 20 M 480 0 V 20 M 600 0 V 20" stroke="lightgray" class="x-grid" />
            <g stroke="black" stroke-width="1" class="period">
              <rect x="0" y="1" width="600" height="18" fill="white" />
            </g>
            <g class="labels" font-family="sans-serif" font-size="12" text-anchor="middle" />
          </g>
        </g>
        <g transform="translate(7,47.6)">
          <g class="x-axis-labels" font-family="sans-serif" font-size="12" text-anchor="middle" stroke="none" fill="black">
            <text x="0" y="12" text-anchor="start">0</text>
            <text x="120" y="12">2</text>
            <text x="240" y="12">4</text>
            <text x="360" y="12">6</text>
            <text x="480" y="12">8</text>
            <text x="600" y="12" text-anchor="end">10</text>
          </g>
        </g>
      </g>
    </g>
  </g>
</svg>