<?xml version="1.0"?>
<svg xmlns="http://www.w3.org/2000/svg" width="601" height="771.400" viewBox="0 0 601 771.400" transform="translate(0.5, 0.5)">
  <desc>Chysl 0.2.7 column</desc>
  <g stroke="black" fill="white" font-family="sans-serif" font-size="14">
    <text x="300" y="22" stroke="none" fill="black" font-size="22" text-anchor="middle">Dimension tick ranges</text>
    <g transform="translate(0, 28.400)">
      <g stroke="black" fill="white" font-family="sans-serif" font-size="14">
        <text x="300" y="18" stroke="none" fill="black" font-size="18" text-anchor="middle">1 - 1.00001</text>
        <rect x="49.140" y="23.600" width="549" height="22" stroke="black" stroke-width="1" />
        <g>
          <path d="M 49.140 23.600 V 45.600 M 158.912 23.600 V 45.600 M 268.684 23.600 V 45.600 M 378.456 23.600 V 45.600 M 488 23.600 V 45.600 M 598 23.600 V 45.600 M 49.140 23.600 H 600 M 49.140 45.600 H 600" stroke="gray" />
          <g text-anchor="middle" stroke="none" fill="black">
            <text x="49.140" y="59.600" text-anchor="start">1.000000</text>
            <text x="158.912" y="59.600">1.000002</text>
            <text x="268.684" y="59.600">1.000004</text>
            <text x="378.456" y="59.600">1.000006</text>
            <text x="488" y="59.600">1.000008</text>
            <text x="598" y="59.600" text-anchor="end">1.000010</text>
          </g>
        </g>
        <g>
          <g>
            <rect x="49.140" y="25.600" width="549" height="18" fill="white" />
          </g>
        </g>
        <g text-anchor="middle" stroke="none" fill="black">
          <text x="323.570" y="38.800" fill="black" text-anchor="middle">Period</text>
        </g>
        <g stroke="none" fill="black">
          <text x="2" y="38.800">Period</text>
        </g>
      </g>
    </g>
    <g transform="translate(0, 103.600)">
      <g stroke="black" fill="white" font-family="sans-serif" font-size="14">
        <text x="300" y="18" stroke="none" fill="black" font-size="18" text-anchor="middle">1 - 1.0001</text>
        <rect x="49.140" y="23.600" width="549" height="22" stroke="black" stroke-width="1" />
        <g>
          <path d="M 49.140 23.600 V 45.600 M 323.570 23.600 V 45.600 M 598 23.600 V 45.600 M 49.140 23.600 H 600 M 49.140 45.600 H 600" stroke="gray" />
          <g text-anchor="middle" stroke="none" fill="black">
            <text x="49.140" y="59.600" text-anchor="start">1.00000</text>
            <text x="323.570" y="59.600">1.00005</text>
            <text x="598" y="59.600" text-anchor="end">1.00010</text>
          </g>
        </g>
        <g>
          <g>
            <rect x="49.140" y="25.600" width="549" height="18" fill="white" />
          </g>
        </g>
        <g text-anchor="middle" stroke="none" fill="black">
          <text x="323.570" y="38.800" fill="black" text-anchor="middle">Period</text>
        </g>
        <g stroke="none" fill="black">
          <text x="2" y="38.800">Period</text>
        </g>
      </g>
    </g>
    <g transform="translate(0, 178.800)">
      <g stroke="black" fill="white" font-family="sans-serif" font-size="14">
        <text x="300" y="18" stroke="none" fill="black" font-size="18" text-anchor="middle">1 - 1.0002</text>
        <rect x="49.140" y="23.600" width="549" height="22" stroke="black" stroke-width="1" />
        <g>
          <path d="M 49.140 23.600 V 45.600 M 186.355 23.600 V 45.600 M 323.570 23.600 V 45.600 M 461 23.600 V 45.600 M 598 23.600 V 45.600 M 49.140 23.600 H 600 M 49.140 45.600 H 600" stroke="gray" />
          <g text-anchor="middle" stroke="none" fill="black">
            <text x="49.140" y="59.600" text-anchor="start">1.00000</text>
            <text x="186.355" y="59.600">1.00005</text>
            <text x="323.570" y="59.600">1.00010</text>
            <text x="461" y="59.600">1.00015</text>
            <text x="598" y="59.600" text-anchor="end">1.00020</text>
          </g>
        </g>
        <g>
          <g>
            <rect x="49.140" y="25.600" width="549" height="18" fill="white" />
          </g>
        </g>
        <g text-anchor="middle" stroke="none" fill="black">
          <text x="323.570" y="38.800" fill="black" text-anchor="middle">Period</text>
        </g>
        <g stroke="none" fill="black">
          <text x="2" y="38.800">Period</text>
        </g>
      </g>
    </g>
    <g transform="translate(0, 254)">
      <g stroke="black" fill="white" font-family="sans-serif" font-size="14">
        <text x="300" y="18" stroke="none" fill="black" font-size="18" text-anchor="middle">1 - 1.1</text>
        <rect x="49.140" y="23.600" width="549" height="22" stroke="black" stroke-width="1" />
        <g>
          <path d="M 49.140 23.600 V 45.600 M 158.912 23.600 V 45.600 M 268.684 23.600 V 45.600 M 378.456 23.600 V 45.600 M 488 23.600 V 45.600 M 598 23.600 V 45.600 M 49.140 23.600 H 600 M 49.140 45.600 H 600" stroke="gray" />
          <g text-anchor="middle" stroke="none" fill="black">
            <text x="49.140" y="59.600" text-anchor="start">1.00</text>
            <text x="158.912" y="59.600">1.02</text>
            <text x="268.684" y="59.600">1.04</text>
            <text x="378.456" y="59.600">1.06</text>
            <text x="488" y="59.600">1.08</text>
            <text x="598" y="59.600" text-anchor="end">1.10</text>
          </g>
        </g>
        <g>
          <g>
            <rect x="49.140" y="25.600" width="549" height="18" fill="white" />
          </g>
        </g>
        <g text-anchor="middle" stroke="none" fill="black">
          <text x="323.570" y="38.800" fill="black" text-anchor="middle">Period</text>
        </g>
        <g stroke="none" fill="black">
          <text x="2" y="38.800">Period</text>
        </g>
      </g>
    </g>
    <g transform="translate(0, 329.200)">
      <g stroke="black" fill="white" font-family="sans-serif" font-size="14">
        <text x="300" y="18" stroke="none" fill="black" font-size="18" text-anchor="middle">1 - 2</text>
        <rect x="49.140" y="23.600" width="549" height="22" stroke="black" stroke-width="1" />
        <g>
          <path d="M 49.140 23.600 V 45.600 M 158.912 23.600 V 45.600 M 268.684 23.600 V 45.600 M 378.456 23.600 V 45.600 M 488 23.600 V 45.600 M 598 23.600 V 45.600 M 49.140 23.600 H 600 M 49.140 45.600 H 600" stroke="gray" />
          <g text-anchor="middle" stroke="none" fill="black">
            <text x="49.140" y="59.600" text-anchor="start">1.0</text>
            <text x="158.912" y="59.600">1.2</text>
            <text x="268.684" y="59.600">1.4</text>
            <text x="378.456" y="59.600">1.6</text>
            <text x="488" y="59.600">1.8</text>
            <text x="598" y="59.600" text-anchor="end">2.0</text>
          </g>
        </g>
        <g>
          <g>
            <rect x="49.140" y="25.600" width="549" height="18" fill="white" />
          </g>
        </g>
        <g text-anchor="middle" stroke="none" fill="black">
          <text x="323.570" y="38.800" fill="black" text-anchor="middle">Period</text>
        </g>
        <g stroke="none" fill="black">
          <text x="2" y="38.800">Period</text>
        </g>
      </g>
    </g>
    <g transform="translate(0, 404.400)">
      <g stroke="black" fill="white" font-family="sans-serif" font-size="14">
        <text x="300" y="18" stroke="none" fill="black" font-size="18" text-anchor="middle">1 - 5</text>
        <rect x="49.140" y="23.600" width="549" height="22" stroke="black" stroke-width="1" />
        <g>
          <path d="M 49.140 23.600 V 45.600 M 117.748 23.600 V 45.600 M 186.355 23.600 V 45.600 M 255 23.600 V 45.600 M 323.570 23.600 V 45.600 M 392 23.600 V 45.600 M 461 23.600 V 45.600 M 529.393 23.600 V 45.600 M 598 23.600 V 45.600 M 49.140 23.600 H 600 M 49.140 45.600 H 600" stroke="gray" />
          <g text-anchor="middle" stroke="none" fill="black">
            <text x="49.140" y="59.600" text-anchor="start">1.0</text>
            <text x="117.748" y="59.600">1.5</text>
            <text x="186.355" y="59.600">2.0</text>
            <text x="255" y="59.600">2.5</text>
            <text x="323.570" y="59.600">3.0</text>
            <text x="392" y="59.600">3.5</text>
            <text x="461" y="59.600">4.0</text>
            <text x="529.393" y="59.600">4.5</text>
            <text x="598" y="59.600" text-anchor="end">5.0</text>
          </g>
        </g>
        <g>
          <g>
            <rect x="49.140" y="25.600" width="549" height="18" fill="white" />
          </g>
        </g>
        <g text-anchor="middle" stroke="none" fill="black">
          <text x="323.570" y="38.800" fill="black" text-anchor="middle">Period</text>
        </g>
        <g stroke="none" fill="black">
          <text x="2" y="38.800">Period</text>
        </g>
      </g>
    </g>
    <g transform="translate(0, 479.600)">
      <g stroke="black" fill="white" font-family="sans-serif" font-size="14">
        <text x="300" y="18" stroke="none" fill="black" font-size="18" text-anchor="middle">1 - 10</text>
        <rect x="49.140" y="23.600" width="549" height="22" stroke="black" stroke-width="1" />
        <g>
          <path d="M 49.140 23.600 V 45.600 M 110.124 23.600 V 45.600 M 171.109 23.600 V 45.600 M 232 23.600 V 45.600 M 293 23.600 V 45.600 M 354 23.600 V 45.600 M 415 23.600 V 45.600 M 476 23.600 V 45.600 M 537 23.600 V 45.600 M 598 23.600 V 45.600 M 49.140 23.600 H 600 M 49.140 45.600 H 600" stroke="gray" />
          <g text-anchor="middle" stroke="none" fill="black">
            <text x="49.140" y="59.600" text-anchor="start">1</text>
            <text x="110.124" y="59.600">2</text>
            <text x="171.109" y="59.600">3</text>
            <text x="232" y="59.600">4</text>
            <text x="293" y="59.600">5</text>
            <text x="354" y="59.600">6</text>
            <text x="415" y="59.600">7</text>
            <text x="476" y="59.600">8</text>
            <text x="537" y="59.600">9</text>
            <text x="598" y="59.600" text-anchor="end">10</text>
          </g>
        </g>
        <g>
          <g>
            <rect x="49.140" y="25.600" width="549" height="18" fill="white" />
          </g>
        </g>
        <g text-anchor="middle" stroke="none" fill="black">
          <text x="323.570" y="38.800" fill="black" text-anchor="middle">Period</text>
        </g>
        <g stroke="none" fill="black">
          <text x="2" y="38.800">Period</text>
        </g>
      </g>
    </g>
    <g transform="translate(0, 555)">
      <g stroke="black" fill="white" font-family="sans-serif" font-size="14">
        <text x="300" y="18" stroke="none" fill="black" font-size="18" text-anchor="middle">1 - 2000</text>
        <rect x="49.140" y="23.600" width="549" height="22" stroke="black" stroke-width="1" />
        <g>
          <path d="M 49.140 23.600 V 45.600 M 104 23.600 V 45.600 M 158.912 23.600 V 45.600 M 213.798 23.600 V 45.600 M 268.684 23.600 V 45.600 M 323.570 23.600 V 45.600 M 378.456 23.600 V 45.600 M 433.342 23.600 V 45.600 M 488 23.600 V 45.600 M 543 23.600 V 45.600 M 598 23.600 V 45.600 M 49.140 23.600 H 600 M 49.140 45.600 H 600" stroke="gray" />
          <g text-anchor="middle" stroke="none" fill="black">
            <text x="49.140" y="59.600" text-anchor="start">0</text>
            <text x="104" y="59.600">200</text>
            <text x="158.912" y="59.600">400</text>
            <text x="213.798" y="59.600">600</text>
            <text x="268.684" y="59.600">800</text>
            <text x="323.570" y="59.600">1000</text>
            <text x="378.456" y="59.600">1200</text>
            <text x="433.342" y="59.600">1400</text>
            <text x="488" y="59.600">1600</text>
            <text x="543" y="59.600">1800</text>
            <text x="598" y="59.600" text-anchor="end">2000</text>
          </g>
        </g>
        <g>
          <g>
            <rect x="49.414" y="25.600" width="548.586" height="18" fill="white" />
          </g>
        </g>
        <g text-anchor="middle" stroke="none" fill="black">
          <text x="323.707" y="38.800" fill="black" text-anchor="middle">Period</text>
        </g>
        <g stroke="none" fill="black">
          <text x="2" y="38.800">Period</text>
        </g>
      </g>
    </g>
    <g transform="translate(0, 630)">
      <g stroke="black" fill="white" font-family="sans-serif" font-size="14">
        <text x="300" y="18" stroke="none" fill="black" font-size="18" text-anchor="middle">1 - 10000000</text>
        <rect x="49.140" y="23.600" width="549" height="22" stroke="black" stroke-width="1" />
        <g>
          <path d="M 49.140 23.600 V 45.600 M 158.912 23.600 V 45.600 M 268.684 23.600 V 45.600 M 378.456 23.600 V 45.600 M 488 23.600 V 45.600 M 598 23.600 V 45.600 M 49.140 23.600 H 600 M 49.140 45.600 H 600" stroke="gray" />
          <g text-anchor="middle" stroke="none" fill="black">
            <text x="49.140" y="59.600" text-anchor="start">0</text>
            <text x="158.912" y="59.600">2</text>
            <text x="268.684" y="59.600">4</text>
            <text x="378.456" y="59.600">6</text>
            <text x="488" y="59.600">8</text>
            <text x="598" y="59.600" text-anchor="end">10</text>
          </g>
        </g>
        <g>
          <g>
            <rect x="49.140" y="25.600" width="549" height="18" fill="white" />
          </g>
        </g>
        <g text-anchor="middle" stroke="none" fill="black">
          <text x="323.570" y="38.800" fill="black" text-anchor="middle">Period</text>
        </g>
        <g stroke="none" fill="black">
          <text x="2" y="38.800">Period</text>
        </g>
      </g>
    </g>
    <g transform="translate(0, 705)">
      <g stroke="black" fill="white" font-family="sans-serif" font-size="14">
        <text x="300" y="18" stroke="none" fill="black" font-size="18" text-anchor="middle">1 - 10000000000</text>
        <rect x="49.140" y="23.600" width="549" height="22" stroke="black" stroke-width="1" />
        <g>
          <path d="M 49.140 23.600 V 45.600 M 158.912 23.600 V 45.600 M 268.684 23.600 V 45.600 M 378.456 23.600 V 45.600 M 488 23.600 V 45.600 M 598 23.600 V 45.600 M 49.140 23.600 H 600 M 49.140 45.600 H 600" stroke="gray" />
          <g text-anchor="middle" stroke="none" fill="black">
            <text x="49.140" y="59.600" text-anchor="start">0</text>
            <text x="158.912" y="59.600">2</text>
            <text x="268.684" y="59.600">4</text>
            <text x="378.456" y="59.600">6</text>
            <text x="488" y="59.600">8</text>
            <text x="598" y="59.600" text-anchor="end">10</text>
          </g>
        </g>
        <g>
          <g>
            <rect x="49.140" y="25.600" width="549" height="18" fill="white" />
          </g>
        </g>
        <g text-anchor="middle" stroke="none" fill="black">
          <text x="323.570" y="38.800" fill="black" text-anchor="middle">Period</text>
        </g>
        <g stroke="none" fill="black">
          <text x="2" y="38.800">Period</text>
        </g>
      </g>
    </g>
  </g>
</svg>