<?xml version="1.0"?>
<svg xmlns="http://www.w3.org/2000/svg" width="694.604" height="152.6" viewBox="0 0 694.604 152.6" transform="translate(0.5, 0.5)">
  <title>Earth</title>
  <defs>
    <clipPath id="id4">
      <rect width="600" height="100" />
    </clipPath>
  </defs>
  <g class="layout">
    <g transform="translate(44.802,71.2)">
      <g class="legend" font-family="sans-serif" font-size="12" text-anchor="end" transform="translate(42.802,-50)">
        <text y="13.6">Earth</text>
        <text y="33.6">Archean</text>
        <text y="53.6">Unicellular</text>
        <text y="73.6">Eukaryotes</text>
        <text y="93.6">Photosynthesis</text>
      </g>
    </g>
    <g transform="translate(391.604,71.2)">
      <rect x="-1" y="-1" width="602" height="102" stroke="black" fill="none" class="frame" stroke-width="2" transform="translate(-300,-50)" />
    </g>
    <g transform="translate(391.604,71.2)">
      <g class="area" clip-path="url(#id4)" transform="translate(-300,-50)">
        <path stroke="lightgray" class="x-grid" d="M 0 0 V 100 M 120 0 V 100 M 240 0 V 100 M 360 0 V 100 M 480 0 V 100 M 600 0 V 100" />
        <g stroke="black" stroke-width="1" class="period">
          <rect x="51.96" y="1" width="548.04" height="18" fill="skyblue" />
        </g>
        <g stroke="black" stroke-width="1" class="period">
          <rect x="125.5" y="21" width="151" height="18" fill="wheat" stroke="none" />
          <path d="M 125.5 21 H 277 m 0 18 H 125.5" />
          <defs>
            <linearGradient id="id5">
              <stop offset="0" stop-color="wheat" stop-opacity="0" />
              <stop offset="1" stop-color="wheat" stop-opacity="1" />
            </linearGradient>
            <linearGradient id="id6">
              <stop offset="0" stop-color="black" stop-opacity="0" />
              <stop offset="1" stop-color="black" stop-opacity="1" />
            </linearGradient>
          </defs>
          <rect x="108" y="21" width="18" height="18" fill="url(#id5)" stroke="none" />
          <path d="M 108 21 H 126 m 0 18 H 108" stroke="url(#id6)" />
          <defs>
            <linearGradient id="id7">
              <stop offset="0" stop-color="wheat" stop-opacity="1" />
              <stop offset="1" stop-color="wheat" stop-opacity="0" />
            </linearGradient>
            <linearGradient id="id8">
              <stop offset="0" stop-color="black" stop-opacity="1" />
              <stop offset="1" stop-color="black" stop-opacity="0" />
            </linearGradient>
          </defs>
          <rect x="276" y="21" width="48" height="18" fill="url(#id7)" stroke="none" />
          <path d="M 276 21 H 324 m 0 18 H 276" stroke="url(#id8)" />
        </g>
        <ellipse cx="96" cy="50" rx="3.6" ry="9" fill="black" stroke="none" class="event" />
        <g stroke="black" stroke-width="1" class="period">
          <rect x="181.9" y="41" width="418.6" height="18" fill="white" stroke="none" />
          <path d="M 181.9 41 H 601 m 0 18 H 181.9" />
          <defs>
            <linearGradient id="id9">
              <stop offset="0" stop-color="white" stop-opacity="0" />
              <stop offset="1" stop-color="white" stop-opacity="1" />
            </linearGradient>
            <linearGradient id="id10">
              <stop offset="0" stop-color="black" stop-opacity="0" />
              <stop offset="1" stop-color="black" stop-opacity="1" />
            </linearGradient>
          </defs>
          <rect x="96" y="41" width="86.4" height="18" fill="url(#id9)" stroke="none" />
          <path d="M 96 41 H 182.4 m 0 18 H 96" stroke="url(#id10)" />
          <line x1="600" y1="41" x2="600" y2="59" />
        </g>
        <g stroke="black" stroke-width="1" class="period">
          <rect x="402" y="61" width="198" height="18" fill="white" />
          <g stroke="black">
            <path d="M 378 65.5 v 9 m 0 -4.5 H 402" />
            <path d="M 426 65.5 v 9 m 0 -4.5 H 402" />
          </g>
        </g>
        <g stroke="black" stroke-width="1" class="period">
          <rect x="287.5" y="81" width="313" height="18" fill="springgreen" stroke="none" />
          <path d="M 287.5 81 H 601 m 0 18 H 287.5" />
          <defs>
            <linearGradient id="id11">
              <stop offset="0" stop-color="springgreen" stop-opacity="0" />
              <stop offset="1" stop-color="springgreen" stop-opacity="1" />
            </linearGradient>
            <linearGradient id="id12">
              <stop offset="0" stop-color="black" stop-opacity="0" />
              <stop offset="1" stop-color="black" stop-opacity="1" />
            </linearGradient>
          </defs>
          <rect x="192" y="81" width="96" height="18" fill="url(#id11)" stroke="none" />
          <path d="M 192 81 H 288 m 0 18 H 192" stroke="url(#id12)" />
          <line x1="600" y1="81" x2="600" y2="99" />
        </g>
        <g stroke="black" stroke-width="1" class="period">
          <path d="M 549.6 81 L 537.6 90 549.6 99 H 600 L 600 90 600 81 Z" fill="green" />
        </g>
        <g class="labels" font-family="sans-serif" font-size="12" text-anchor="middle">
          <text x="325.98" y="13.6" fill="black" class="period-label" text-anchor="middle">Earth</text>
          <text x="210" y="33.6" fill="black" class="period-label" text-anchor="middle">Archean</text>
          <text x="101.6" y="53.6" class="event-label" text-anchor="start">LUCA?</text>
          <text x="391.2" y="53.6" fill="black" class="period-label" text-anchor="middle">Unicellular organisms</text>
          <text x="501" y="73.6" fill="black" class="period-label" text-anchor="middle">Eukaryotes</text>
          <text x="396" y="93.6" fill="black" class="period-label" text-anchor="middle">Photosynthesis</text>
          <text x="535.6" y="93.6" fill="black" class="period-label" text-anchor="end">Plants</text>
        </g>
      </g>
    </g>
    <g transform="translate(391.604,137.4)">
      <g class="x-axis-labels" font-family="sans-serif" font-size="12" text-anchor="middle" stroke="none" fill="black" transform="translate(-300,-14.2)">
        <text x="0" y="10.8" text-anchor="start">5</text>
        <text x="120" y="10.8">4</text>
        <text x="240" y="10.8">3</text>
        <text x="360" y="10.8">2</text>
        <text x="480" y="10.8">1</text>
        <text x="600" y="10.8" text-anchor="end">0</text>
        <text x="300" y="24" class="x-axis-caption">Billion years ago</text>
      </g>
    </g>
    <g transform="translate(346.802,9.6)">
      <text y="4.8" fill="black" class="title" text-anchor="middle" font-family="sans-serif" font-size="16">Earth</text>
    </g>
  </g>
</svg>