<?xml version="1.0"?>
<svg xmlns="http://www.w3.org/2000/svg" width="698.604" height="161.8" viewBox="0 0 698.604 161.8" transform="translate(0.5, 0.5)">
  <title>Earth</title>
  <g class="layout">
    <g fill="black" font-family="sans-serif" font-size="16" text-anchor="middle" transform="translate(326.838,0)">
      <text y="16" x="21.964">Earth</text>
    </g>
    <g transform="translate(0,26.6)">
      <g class="legend" font-family="sans-serif" font-size="12" text-anchor="end" transform="translate(89.604, 0)">
        <text y="14.2">Earth</text>
        <text y="34.2">Archean</text>
        <text y="54.2">Unicellular</text>
        <text y="74.2">Eukaryotes</text>
        <text y="94.2">Photosynthesis</text>
      </g>
    </g>
    <g transform="translate(95.604,25.6)">
      <rect x="0.5" y="0.5" width="601" height="101" stroke="black" fill="none" class="frame" stroke-width="1" />
    </g>
    <g transform="translate(96.604,26.6)">
      <g class="plot" clip-path="url(#id4)">
        <defs>
          <clipPath id="id4">
            <rect width="600" height="100" />
          </clipPath>
        </defs>
        <path d="M 0 0 V 100 M 119.522 0 V 100 M 239.044 0 V 100 M 358.566 0 V 100 M 478.088 0 V 100 M 597.61 0 V 100" stroke="lightgray" class="x-grid" />
        <g stroke="black" stroke-width="1" class="period">
          <rect x="51.753" y="1" width="545.857" height="18" fill="skyblue" />
        </g>
        <g stroke="black" stroke-width="1" class="period">
          <rect x="125.248" y="21" width="149.902" height="18" fill="wheat" stroke="none" />
          <path d="M 125.248 21 H 275.4 m 0 18 H 125.248" />
          <defs>
            <linearGradient id="id5">
              <stop offset="0" stop-color="wheat" stop-opacity="0" />
              <stop offset="1" stop-color="wheat" stop-opacity="1" />
            </linearGradient>
            <linearGradient id="id6">
              <stop offset="0" stop-color="black" stop-opacity="0" />
              <stop offset="1" stop-color="black" stop-opacity="1" />
            </linearGradient>
          </defs>
          <rect x="107.57" y="21" width="17.928" height="18" fill="url(#id5)" stroke="none" />
          <path d="M 107.57 21 H 125.498 m 0 18 H 107.57" stroke="url(#id6)" />
          <defs>
            <linearGradient id="id7">
              <stop offset="0" stop-color="wheat" stop-opacity="1" />
              <stop offset="1" stop-color="wheat" stop-opacity="0" />
            </linearGradient>
            <linearGradient id="id8">
              <stop offset="0" stop-color="black" stop-opacity="1" />
              <stop offset="1" stop-color="black" stop-opacity="0" />
            </linearGradient>
          </defs>
          <rect x="274.9" y="21" width="47.809" height="18" fill="url(#id7)" stroke="none" />
          <path d="M 274.9 21 H 322.709 m 0 18 H 274.9" stroke="url(#id8)" />
        </g>
        <ellipse cx="95.618" cy="50" rx="3.6" ry="9" fill="black" stroke="none" class="event" />
        <g stroke="black" stroke-width="1" class="period">
          <rect x="181.423" y="41" width="416.436" height="18" fill="white" stroke="none" />
          <path d="M 181.423 41 H 598.11 m 0 18 H 181.423" />
          <defs>
            <linearGradient id="id9">
              <stop offset="0" stop-color="white" stop-opacity="0" />
              <stop offset="1" stop-color="white" stop-opacity="1" />
            </linearGradient>
            <linearGradient id="id10">
              <stop offset="0" stop-color="black" stop-opacity="0" />
              <stop offset="1" stop-color="black" stop-opacity="1" />
            </linearGradient>
          </defs>
          <rect x="95.618" y="41" width="86.056" height="18" fill="url(#id9)" stroke="none" />
          <path d="M 95.618 41 H 181.673 m 0 18 H 95.618" stroke="url(#id10)" />
          <line x1="597.61" y1="41" x2="597.61" y2="59" />
        </g>
        <g stroke="black" stroke-width="1" class="period">
          <rect x="400.398" y="61" width="197.211" height="18" fill="white" />
          <g stroke="black">
            <path d="M 376.494 65.5 v 9 m 0 -4.5 H 400.398" />
            <path d="M 424.303 65.5 v 9 m 0 -4.5 H 400.398" />
          </g>
        </g>
        <g stroke="black" stroke-width="1" class="period">
          <rect x="286.603" y="81" width="311.257" height="18" fill="springgreen" stroke="none" />
          <path d="M 286.603 81 H 598.11 m 0 18 H 286.603" />
          <defs>
            <linearGradient id="id11">
              <stop offset="0" stop-color="springgreen" stop-opacity="0" />
              <stop offset="1" stop-color="springgreen" stop-opacity="1" />
            </linearGradient>
            <linearGradient id="id12">
              <stop offset="0" stop-color="black" stop-opacity="0" />
              <stop offset="1" stop-color="black" stop-opacity="1" />
            </linearGradient>
          </defs>
          <rect x="191.235" y="81" width="95.618" height="18" fill="url(#id11)" stroke="none" />
          <path d="M 191.235 81 H 286.853 m 0 18 H 191.235" stroke="url(#id12)" />
          <line x1="597.61" y1="81" x2="597.61" y2="99" />
        </g>
        <g stroke="black" stroke-width="1" class="period">
          <path d="M 547.41 81 L 535.458 90 547.41 99 H 597.61 L 597.61 90 597.61 81 Z" fill="green" />
        </g>
        <g class="labels" font-family="sans-serif" font-size="12" text-anchor="middle">
          <text x="324.681" y="14.2" fill="black" class="period-label" text-anchor="middle">Earth</text>
          <text x="209.163" y="34.2" fill="black" class="period-label" text-anchor="middle">Archean</text>
          <text x="101.218" y="54.2" class="event-label" text-anchor="start">LUCA?</text>
          <text x="389.641" y="54.2" fill="black" class="period-label" text-anchor="middle">Unicellular organisms</text>
          <text x="499" y="74.2" fill="black" class="period-label" text-anchor="middle">Eukaryotes</text>
          <text x="394.422" y="94.2" fill="black" class="period-label" text-anchor="middle">Photosynthesis</text>
          <text x="533.458" y="94.2" fill="black" class="period-label" text-anchor="end">Plants</text>
        </g>
      </g>
    </g>
    <g transform="translate(96.604,127.6)">
      <g class="x-axis-labels" font-family="sans-serif" font-size="12" text-anchor="middle" stroke="none" fill="black">
        <text x="0" y="12" text-anchor="start">5</text>
        <text x="119.522" y="12">4</text>
        <text x="239.044" y="12">3</text>
        <text x="358.566" y="12">2</text>
        <text x="478.088" y="12">1</text>
        <text x="597.61" y="12">0</text>
        <text x="300" y="27.6" class="x-axis-caption">Billion years ago</text>
      </g>
    </g>
  </g>
</svg>