<?xml version="1.0"?>
<svg xmlns="http://www.w3.org/2000/svg" width="601" height="190.2" viewBox="0 0 601 190.2" transform="translate(0.5, 0.5)">
  <desc>timelines; Chysl 0.3.5</desc>
  <g stroke="black" fill="white" font-family="sans-serif" font-size="14">
    <text x="300" y="18" stroke="none" fill="black" font-size="18" text-anchor="middle">Earth</text>
    <path d="M 110.04 23.6 V 155.6 M 207.632 23.6 V 155.6 M 305.224 23.6 V 155.6 M 402.816 23.6 V 155.6 M 500.408 23.6 V 155.6 M 598 23.6 V 155.6" stroke="lightgray" />
    <rect x="110.04" y="23.6" width="487.96" height="132" stroke="black" fill="none" stroke-width="1" />
    <g>
      <g text-anchor="middle" stroke="none" fill="black" font-size="14">
        <text x="110.04" y="169.6" text-anchor="start">5</text>
        <text x="207.632" y="169.6">4</text>
        <text x="305.224" y="169.6">3</text>
        <text x="402.816" y="169.6">2</text>
        <text x="500.408" y="169.6">1</text>
        <text x="598" y="169.6" text-anchor="end">0</text>
        <text x="354.02" y="186.4">Billion years ago</text>
      </g>
    </g>
    <defs>
      <clipPath id="id4">
        <rect x="110.04" y="23.6" width="487.96" height="132" />
      </clipPath>
    </defs>
    <g clip-path="url(#id4)">
      <g>
        <rect x="152.297" y="25.6" width="445.703" height="18" fill="skyblue" />
      </g>
      <g>
        <rect x="212.012" y="47.6" width="122.99" height="18" stroke="none" fill="wheat" />
        <path d="M 212.012 47.6 H 335.502 m 0 18 H 212.012" stroke="black" />
        <defs>
          <linearGradient id="id5">
            <stop offset="0" stop-color="wheat" stop-opacity="0" />
            <stop offset="1" stop-color="wheat" stop-opacity="1" />
          </linearGradient>
          <linearGradient id="id6">
            <stop offset="0" stop-color="black" stop-opacity="0" />
            <stop offset="1" stop-color="black" stop-opacity="1" />
          </linearGradient>
        </defs>
        <rect x="197.873" y="47.6" width="14.639" height="18" stroke="none" fill="url(#id5)" />
        <path d="M 197.873 47.6 H 212.512 m 0 18 H 197.873" stroke="url(#id6)" />
        <defs>
          <linearGradient id="id7">
            <stop offset="0" stop-color="wheat" stop-opacity="1" />
            <stop offset="1" stop-color="wheat" stop-opacity="0" />
          </linearGradient>
          <linearGradient id="id8">
            <stop offset="0" stop-color="black" stop-opacity="1" />
            <stop offset="1" stop-color="black" stop-opacity="0" />
          </linearGradient>
        </defs>
        <rect x="334.502" y="47.6" width="39.037" height="18" stroke="none" fill="url(#id7)" />
        <path d="M 334.502 47.6 H 373.538 m 0 18 H 334.502" stroke="url(#id8)" />
      </g>
      <ellipse cx="188.114" cy="78.6" rx="3.6" ry="9" fill="black" stroke="none" />
      <g>
        <rect x="257.88" y="69.6" width="340.62" height="18" stroke="none" fill="white" />
        <path d="M 257.88 69.6 H 599 m 0 18 H 257.88" stroke="black" />
        <defs>
          <linearGradient id="id9">
            <stop offset="0" stop-color="white" stop-opacity="0" />
            <stop offset="1" stop-color="white" stop-opacity="1" />
          </linearGradient>
          <linearGradient id="id10">
            <stop offset="0" stop-color="black" stop-opacity="0" />
            <stop offset="1" stop-color="black" stop-opacity="1" />
          </linearGradient>
        </defs>
        <rect x="188.114" y="69.6" width="70.266" height="18" stroke="none" fill="url(#id9)" />
        <path d="M 188.114 69.6 H 258.38 m 0 18 H 188.114" stroke="url(#id10)" />
        <line x1="598" y1="69.6" x2="598" y2="87.6" stroke="black" />
      </g>
      <g>
        <rect x="436.973" y="91.6" width="161.027" height="18" fill="white" />
      </g>
      <g>
        <path d="M 295.465 113.6 L 256.428 122.6 295.465 131.6 H 436.973 L 436.973 122.6 436.973 113.6 Z" fill="lightgray" />
      </g>
      <g>
        <rect x="266.187" y="135.6" width="331.813" height="18" fill="springgreen" />
      </g>
      <g>
        <rect x="552.132" y="135.6" width="45.868" height="18" fill="green" />
      </g>
    </g>
    <g clip-path="url(#id4)" text-anchor="middle" stroke="none" fill="black">
      <text x="375.149" y="38.8" fill="black" text-anchor="middle">Earth</text>
      <text x="280.826" y="60.8" fill="black" text-anchor="middle">Archean</text>
      <text x="193.714" y="82.8" text-anchor="start">LUCA?</text>
      <text x="428.19" y="82.8" fill="black" text-anchor="middle">Unicellular organisms</text>
      <text x="517.487" y="104.8" fill="black" text-anchor="middle">Eukaryotes</text>
      <text x="356.46" y="126.8" fill="black" text-anchor="middle">Engineers</text>
      <text x="432.094" y="148.8" fill="black" text-anchor="middle">Photosynthesis</text>
      <text x="550.132" y="148.8" fill="black" text-anchor="end">Plants</text>
    </g>
    <g stroke="none" fill="black">
      <text x="2" y="38.8">Earth</text>
      <text x="2" y="60.8">Archean</text>
      <text x="2" y="82.8">Unicellular</text>
      <text x="2" y="104.8">Eukaryotes</text>
      <text x="2" y="126.8">Engineers</text>
      <text x="2" y="148.8">Photosynthesis</text>
    </g>
  </g>
</svg>