<?xml version="1.0"?>
<svg xmlns="http://www.w3.org/2000/svg" width="601" height="190.200" viewBox="0 0 601 190.200" transform="translate(0.5, 0.5)">
  <desc>Chysl 0.2.2 timelines</desc>
  <g stroke="black" fill="white" font-family="sans-serif" font-size="14">
    <text x="300" y="18" stroke="none" fill="black" font-size="18" text-anchor="middle">Earth</text>
    <g>
      <path d="M 110.040 23.600 V 155.600 M 207.632 23.600 V 155.600 M 305.224 23.600 V 155.600 M 402.816 23.600 V 155.600 M 500.408 23.600 V 155.600 M 598 23.600 V 155.600 M 110.040 23.600 H 600 M 110.040 155.600 H 600" stroke="gray" />
      <g text-anchor="middle" stroke="none" fill="black">
        <text x="110.040" y="169.600" text-anchor="start">5</text>
        <text x="207.632" y="169.600">4</text>
        <text x="305.224" y="169.600">3</text>
        <text x="402.816" y="169.600">2</text>
        <text x="500.408" y="169.600">1</text>
        <text x="598" y="169.600" text-anchor="end">0</text>
        <text x="354.020" y="186.4">Billion years ago</text>
      </g>
    </g>
    <g>
      <g>
        <rect x="152.297" y="25.600" width="445.703" height="18" fill="white" />
      </g>
      <g>
        <rect x="212.5116" y="47.600" width="121.990" height="18" stroke="none" fill="wheat" />
        <path d="M 212.512 47.600 H 334.502 m 0 18 H 212.512" stroke="black" />
        <defs>
          <linearGradient id="id3">
            <stop offset="0" stop-color="wheat" stop-opacity="0" />
            <stop offset="1" stop-color="wheat" stop-opacity="1" />
          </linearGradient>
          <linearGradient id="id4">
            <stop offset="0" stop-color="black" stop-opacity="0" />
            <stop offset="1" stop-color="black" stop-opacity="1" />
          </linearGradient>
        </defs>
        <rect x="197.87279999999998" y="47.600" width="14.639" height="18" stroke="none" fill="url(#id3)" />
        <path d="M 197.873 47.600 H 212.512 m 0 18 H 197.873" stroke="url(#id4)" />
        <defs>
          <linearGradient id="id5">
            <stop offset="0" stop-color="wheat" stop-opacity="1" />
            <stop offset="1" stop-color="wheat" stop-opacity="0" />
          </linearGradient>
          <linearGradient id="id6">
            <stop offset="0" stop-color="black" stop-opacity="1" />
            <stop offset="1" stop-color="black" stop-opacity="0" />
          </linearGradient>
        </defs>
        <rect x="334.502" y="47.600" width="39.037" height="18" stroke="none" fill="url(#id5)" />
        <path d="M 334.502 47.600 H 373.538 m 0 18 H 334.502" stroke="url(#id6)" />
      </g>
      <ellipse cx="188.114" cy="78.600" rx="3.6" ry="9.0" fill="black" stroke="none" stroke-width="2" />
      <g>
        <rect x="258.37984" y="69.600" width="339.620" height="18" stroke="none" fill="white" />
        <path d="M 258.380 69.600 H 598 m 0 18 H 258.380" stroke="black" />
        <defs>
          <linearGradient id="id7">
            <stop offset="0" stop-color="white" stop-opacity="0" />
            <stop offset="1" stop-color="white" stop-opacity="1" />
          </linearGradient>
          <linearGradient id="id8">
            <stop offset="0" stop-color="black" stop-opacity="0" />
            <stop offset="1" stop-color="black" stop-opacity="1" />
          </linearGradient>
        </defs>
        <rect x="188.11360000000002" y="69.600" width="70.266" height="18" stroke="none" fill="url(#id7)" />
        <path d="M 188.114 69.600 H 258.380 m 0 18 H 188.114" stroke="url(#id8)" />
        <line x1="598" y1="69.600" x2="598" y2="87.600" stroke="black" />
      </g>
      <g>
        <rect x="436.973" y="91.600" width="161.027" height="18" fill="white" />
      </g>
      <g>
        <path d="M 295.465 113.600 L 256.428 122.600 295.465 131.600 H 436.973 L 436.973 122.600 436.973 113.600 Z" fill="lightgray" />
      </g>
      <g>
        <rect x="266.187" y="135.600" width="331.813" height="18" fill="springgreen" />
      </g>
      <g>
        <rect x="552.132" y="135.600" width="45.868" height="18" fill="green" />
      </g>
    </g>
    <g text-anchor="middle" stroke="none" fill="black">
      <text x="375.149" y="38.800" fill="black" text-anchor="middle">Earth</text>
      <text x="280.826" y="60.800" fill="black" text-anchor="middle">Archean</text>
      <text x="193.714" y="82.800" text-anchor="start">LUCA?</text>
      <text x="428.190" y="82.800" fill="black" text-anchor="middle">Unicellular organisms</text>
      <text x="517.487" y="104.800" fill="black" text-anchor="middle">Eukaryotes</text>
      <text x="356.460" y="126.800" fill="black" text-anchor="middle">Engineers</text>
      <text x="432.094" y="148.800" fill="black" text-anchor="middle">Photosynthesis</text>
      <text x="550.132" y="148.800" fill="black" text-anchor="end">Plants</text>
    </g>
    <g stroke="none" fill="black">
      <text x="2" y="38.800">Earth</text>
      <text x="2" y="60.800">Archean</text>
      <text x="2" y="82.800">Unicellular</text>
      <text x="2" y="104.800">Eukaryotes</text>
      <text x="2" y="126.800">Engineers</text>
      <text x="2" y="148.800">Photosynthesis</text>
    </g>
  </g>
</svg>