<?xml version="1.0"?>
<svg xmlns="http://www.w3.org/2000/svg" width="601" height="617.8" viewBox="0 0 601 617.8" transform="translate(0.5, 0.5)">
  <desc>lines2d; Chysl 0.3.2</desc>
  <g stroke="black" fill="white" font-family="sans-serif" font-size="14">
    <text x="300" y="18" stroke="none" fill="black" font-size="18" text-anchor="middle">Random walks (source: db)</text>
    <g>
      <path d="M 20.76 600 V 23.6 M 92.915 600 V 23.6 M 165.07 600 V 23.6 M 237.225 600 V 23.6 M 309.38 600 V 23.6 M 381.535 600 V 23.6 M 453.69 600 V 23.6 M 525.845 600 V 23.6 M 598 600 V 23.6" stroke="gray" />
      <g text-anchor="middle" stroke="none" fill="black">
        <text x="20.76" y="614" text-anchor="start">-20</text>
        <text x="92.915" y="614">-15</text>
        <text x="165.07" y="614">-10</text>
        <text x="237.225" y="614">-5</text>
        <text x="309.38" y="614">0</text>
        <text x="381.535" y="614">5</text>
        <text x="453.69" y="614">10</text>
        <text x="525.845" y="614">15</text>
        <text x="598" y="614" text-anchor="end">20</text>
      </g>
    </g>
    <g>
      <path d="M 20.76 600 H 598 M 20.76 527.95 H 598 M 20.76 455.9 H 598 M 20.76 383.85 H 598 M 20.76 311.8 H 598 M 20.76 239.75 H 598 M 20.76 167.7 H 598 M 20.76 95.65 H 598 M 20.76 23.6 H 598" stroke="gray" />
      <g text-anchor="end" stroke="none" fill="black">
        <text x="18.76" y="600">-20</text>
        <text x="18.76" y="532.617">-15</text>
        <text x="18.76" y="460.567">-10</text>
        <text x="18.76" y="388.517">-5</text>
        <text x="18.76" y="316.467">0</text>
        <text x="18.76" y="244.417">5</text>
        <text x="18.76" y="172.367">10</text>
        <text x="18.76" y="100.317">15</text>
        <text x="18.76" y="37.6">20</text>
      </g>
    </g>
    <g>
      <polyline points="92.915 527.95,92.915 95.65,525.845 95.65,525.845 527.95,92.915 527.95" fill="none" stroke="black" opacity="0.25" stroke-width="10" stroke-linejoin="round" stroke-linecap="round" href="https://en.wikipedia.org/wiki/Random_walk" />
      <polyline points="306.973 325.917,316.36 331.72,312.562 340.549,314.467 350.299,303.622 352.232,305.414 361.617,306.95 365.799,320.171 377.578,334 380.111,334.099 390.251,340.419 399.186,335.846 412.918,331.214 399.445,345.033 392.398,330.702 379.71,341.403 371.905,332.135 383.447,329.668 372.336,331.922 365.518,324.204 364.838,330.248 355.476,339.112 363.191,349.883 371.365,358.596 369.777,349.529 367.223,350.055 354,336.823 363.684,350.772 354.11,340.678 361.917,341.808 371.803,336.721 384.792,342.83 396.937,357.106 384.817,365.442 376.966,361.625 371.816,369.165 372.37,356.51 368.735,351.481 365.563,349.196 352.521,340.584 344.772,346.315 343.142,334.194 352.798,347.681 360.561,337.97 366.662,339.041 366.097,324.706 380.415,324.593 389.498,327.695 380.896,316.032 380.747,313.322 372.376,326.449 374.776,319.039 363.869,305.395 368.755,302.358 378.035,307.551 377.509,300.305 380,305.843 385.054,293.367 386.192,284.566 382.696,275.961 393.214,287.332 398.105,281.338 397,286.919 392.074,295.531 399,293.421 402.914,293.902 400.78,297.634 413.231,293.917 407.221,280.505 400.124,285.871 402.954,284.404 409.746,291.251 410.311,284.472 423.875,280 411.742,285.084 408.122,297.607 421.65,300.564 430.643,297.589 439.813,293.235 428.245,299.74 418.265,287.488 424,295.689 437.249,286.734 449.3,295.899 457,293.714 471.027,282.564 470.624,290.972 475.205,285.758 488.439,274.202 498.569,265.724 496.556,261.651 482.788,255.42 472.52,243.638 471.724,245.066 467.191,242.472 466.499,250.491 476.54,251.403 474,259.534 483.694,257.068 497.396,261.76 486.789,257.533 477.674,262.094 491.593,261.235 504.685,255.844 496,245.034 494.137,232.24 505.381,245.29 517,235.885 504.33,230.368 512.501,218.721 512.522,205.989 520.59,197.969 513.525,188.217 511,180.762 496.753,194.923 484.537,206.47 483,218.906 478.959,209.075 472.263,219.156 486.256,210.351 478.063,218.087 476.317,207.186 483.082,199.559 469.232,191.631 472.975,197.087 468.273,198.882 463.93,209.417 452,198.116 465.542,210.053 453.718,206.242 456.608,211.579 458.871,200.353 466.098,194.687 464.19,185.198 457.601,198.757 460.92,200.786 457,209.387 453.272,209.864 446.917,196.118 434.242,207.624 428.657,199.012 425.037,185.392 428,177.177 426.22,169.974 437.971,178.456 445.139,180.179 459.072,182.011 450.736,190.236 455.682,179.511 452.526,173.927 458.699,165.56 461.774,170.819 464.611,175.046 458.045,184 456,198.154 455.945,199.227 451.382,212.83 445.562,224.861 455.4,222.61 449.534,229.326 440.023,222.583 445.363,220.064 448.465,208.308 451.642,212.418 444.741,204.622 441.263,211.869 451.191,197.851 461,203.016 449.074,199.762 454.492,203.435 459.79,190.136 467.131,193.037 468.347,188.619 471.455,178.145 463.748,174.509 458.273,176.466 446.742,185.022 457.339,183.62 471.428,190.982 479.187,204.738 487.101,204.975 487.343,214.422 484.6,225.421 489.798,213.804 498.856,200.709 492.88,206.079 485.54,214.186 496.343,201.606 491.759,187.208 496.454,189.738 492.061,193.075 479.11,206.773 484.57,201.434 498.363,190.497 500.145,194.587 507.762,183.026 502.432,188 502.421,177.633 511.156,170.94 501" fill="none" stroke="red" stroke-width="2" stroke-linejoin="round" stroke-linecap="round" />
      <polyline points="321.68 324.851,334.285 312.957,342.738 320.644,356.216 311.748,345.808 325.127,342.287 322.834,328.567 309.732,333.554 309.251,333.322 320.642,340.473 313.681,326.689 304.834,322.485 292.352,317.927 300.656,309.148 305.511,296.758 315.237,295.965 313.733,297.625 324.339,283.905 334.52,295.434 345,300.735 343.401,303.624 330.81,296.571 324.972,297.078 328.761,294.223 337.339,282.702 325.196,286.752 334.711,295.501 343.797,300.184 341.3,308.75 343.828,321.888 337.514,320.421 348.435,313.44 359.031,314.05 350.216,321.04 346.266,318.929 352.65,327.699 347.716,332.421 346.038,340.81 343.477,333.98 347.121,328.488 353.125,340 347.028,343.267 348.443,342.845 359.823,342.111 357.292,337.789 357.084,352.2 345.181,340 332.327,348.491 323.326,357.283 331.723,346.662 327.633,356.125 339.104,342.109 326.222,353.943 333.097,363.44 338.902,373.297 352.938,376.426 360.87,380.347 374.558,384.596 386.092,382.969 398.486,379.609 408.4,374.644 409.277,379.237 405.426,379.916 395.26,377.342 405.516,382.69 409.632,395.238 412.797,381.207 417.297,394.473 417.931,403.791 421.737,406.92 433.959,398.333 445.371,395.519 450.459,397.188 446.172,389.682 452.853,375.96 463.757,372.539 452.251,363.541 454.908,349.481 452.35,347.195 457.214,344 463.764,341.362 472.849,347.497 460.366,359.238 464.216,345.143 456.466,344.033 455.162,348.53 446.182,349.048 448.071,338.411 461.275,328.754 471.228,341.476 469.301,327.837 474.54,325.297 464.9,322.794 463.551,315.984 468.648,303.854 460.494,303.536 453.825,305.619 465.67,298.947 470.853,307.12 475.277,320.559 466.727,326.065 465.816,331.617 470.464,320.136 460.139,318.969 446.932,325.664 444.789,323.559 439.425,316.124 443.656,310.918 434.475,323.901 446.084,310.178 450.329,315.449 452.123,322.954 438.631,327.754 433.845,317.454 431.394,321.137 440.178,307.454 435.042,321.691 430.815,313.054 420.139,307.79 424.713,316.837 416.236,329.28 405.148,314.918 412.966,317.309 420.696,327.442 413.885,334.832 401.091,340.826 387.735,339.859 398.23,340.338 385.298,343.635 390.423,332.047 400.967,321.155 394.895,316.203 396.78,329.927 401.618,334.357 405.968,331.056 408.086,329.456 419.128,333.548 417.507,322.34 403.833,336.395 410.32,331.796 402.232,331.975 400.314,339.606 393.061,332.834 393.432,341.795 382.398,352.361 373.761,356.928 387.419,353.053 381.394,345.634 394,348.346 386.255,362.666 379.678,361.185 393.165,366.377 381.856,366.897 380.05,355.127 385.215,357.785 376.485,352.722 366.924,355.267 365.34,346.636 359.717,336.158 362,347.314 351.406,360.143 360.236,371.818 361.137,362.133 349.713,375.128 336.075,371.043 344,383.3 337.87,395.581 331.258,409.568 324.629,418.801 312.442,416.773 300.343,414.282 287.056,415.499 283,401.35 287.625,394.856 301.689,389.46 308.687,378.168 315.73,388.569 323.929,394.338 309.752,380.169 303.668,369.618 312.752,364.074 300.707,374.934 312.473,383.307 324.445,379.229 310.041,390.186 321.288,392.121 323.577,397.175 313.241,398.84 300.787,410.28 310.485,397.493 319.189,397.722 313.57,407.948 306.911,412.403 304,416.851 306.879,421.549 297.188,431.837 290.888,436.906 303.213,431.941 304.492,426.372 313.189" fill="none" stroke="green" stroke-width="2" stroke-linejoin="round" stroke-linecap="round" />
      <polyline points="305.763 302.189,299.044 289.637,284.796 291.886,291.183 284.542,277.096 295.633,264.709 293.755,253 296.742,246.726 308.199,243.109 310.057,245.371 314.516,232.929 319.446,238.531 333.752,239.161 347.6,249.673 356.342,250.643 368.119,252 359.679,263.974 351.33,275.337 365.516,284.162 378.513,294.857 364.209,301.139 361.144,307.87 373.054,318.36 384.945,310.819 391.571,316.233 394.638,312.94 394.581,320.251 384.787,330.211 391.033,317.293 402.725,306.18 395.644,294.18 388.252,279.801 382.866,272.508 378.688,280.02 374.234,267.725 388.046,264.339 376.316,263.314 383.153,262.467 373.917,254.013 384.771,266.091 386.959,264.469 392.408,257.093 381.977,265.824 389.065,272.317 377,269.943 363.127,258.133 353.393,268.258 360.533,261.817 367.105,251.328 358.139,257.054 349.839,261.155 356.715,249.239 363.676,257.561 377.52,258.526 382.666,252.422 387.429,255.067 396.97,245.226 386.896,252.571 390.937,245.32 388.5,257.803 380.197,256.16 376.318,252.098 370.286,252.615 383.913,257.635 373.204,257.194 383,251.519 391.867,261.331 385.082,255.482 390.772,244.697 392.494,258.437 385.09,271 397.356,283.29 385.458,292.261 396.175,302.907 382.397,309.844 381.977,305.31 371.071,308.154 376.171,296.097 390.08,301.927 395.97,291.312 401.531,290.217 391.529,289.471 402.228,298.951 397.199,300.278 385.718,297.544 388.971,284.693 383.329,288.207 370.433,274 372.944,272.195 375.384,259.014 366.317,245.823 362.277,240.413 364.449,250.166 372.974,250.498 379.697,253.676 378.424,258.506 390.082,262.334 385.408,249.859 371.886,259.983 363.439,268.25 363.435,280.238 373.378,287.272 359.641,274.652 355.353,288.31 365.677,290.017 354.21,283.198 362.568,289.482 354.086,302.231 349.689,289.354 340.433,283.177 338.602,289.552 324.822,291.035 335.06,291.374 333.477,298.65 342.38,300.14 355.359,314.138 369.118,315.322 378.496,308.821 381.314,301.694 388.198,296.172 388.222,309.346 396.603,299.898 409.777,311.894 401.619,321.434 411.719,319.743 406.777,320.648 400.081,311.822 388.479,314.476 385.254,316.959 386.9,302.891 396.591,302.348 408.641,305.091 417.574,310.42 420.312,314.968 427.172,304.133 422.436,313.528 430.765,300.155 420.142,307.464 412.45,315.854 414.835,328.873 405.971,336.254 393.272,348.033 391.398,335.231 388.805,335.108 402.727,329.747 393.498,333.349 381.097,340.735 390.155,346.89 403.213,357.551 409.142,371.146 422.178,378.143 433.667,388.622 424.52,388.976 422.699,380.893 426.606,370.743 429.675,360.293 425.809,360.089 429.978,355.652 416.953,368.577 403.141,364.611 415.188,354.877 404.8,350.575 414.972,363.726 422.953,365.467 425.444,355.023 429.126,363.346 427.887,373.673 441.834,362.353 443.791,366.455 446.343,360 437.284,370.174 433,359.566 426.041,362.671 419.273,369.471 417.449,366.136 407.725,378.416 394.717,372.745 403.032,363.873 397.82,377.274 405.343,375.81 404.042,373.399 402.64,369.673 400.139,383.471 392.526,396.831 394.797,386.714 403.381,378.964 395.604,370.973 393.838,383.304 396.107,375.716 384.94,389.542 397.388,398.853 383.72,392.977 387.806,384.082 395.966,391.861 397.646,386.356 401.55,398.115 387.233,392.908 393.94,386.251 385.755,398.049 394.608" fill="none" stroke="blue" stroke-width="2" stroke-linejoin="round" stroke-linecap="round" />
      <polyline points="297.972 316.621,307.503 306.609,320.493 308.912,307.311 322,316.158 325.61,306.644 331.898,295.102 319.9,293.086 319.76,284.426 319.106,277.317 306.452,287.858 300.153,289.712 293.51,277.726 297.492,288.727 289.102,283.407 292.437,273 306.824,286 315.917,294.676 325.183,293.381 323.908,284.286 330.217,273.874 344.517,270.068 334.736,262 336.674,258.917 336.241,250.669 349.286,245.77 335.472,248.086 336.855,242.153 330.607,232 327.332,231.987 339.766,232.015 344.419,217.885 345.873,209.34 357.203,214.723 355.661,211.571 349.768,222.445 353.642,223.205 342.373,216.463 343.769,216.069 347.789,217.815 339.503,228.545 342.02,222.292 334.303,228.163 340.813,226.528 348.098,227.21 356.497,214.824 363.28,202.907 369.054,197.952 374.511,210.352 366.906,203.465 355.234,202.951 369.208,202.068 381.196,195.566 367.912,196.48 353.934,194.807 358.737,187 366,194.832 363.397,205.249 364,215.938 352.44,203.645 347.591,191.372 351.823,180.617 348,169.769 359.878,176.578 354.739,186.563 342.956,192.707 333.482,186.599 334.703,187.906 337.65,186.817 338.18,187.321 351.477,177.172 343.644,187.716 352.081,176.523 359.751,187.456 361.385,201.289 361.488,190.209 353.848,179.234 348.191,193.554 341.144,202.61 343.289,189.978 351.194,200.336 342.87,202.481 351.463,201.839 342.275,190.554 330.658,178.382 324.275,164.478 314.046,159.136 312.563,145.969 307.754,160.322 313.454,170.079 323.504,156.706 318.685,150.09 312.493,137.539 323.061,132.229 322.52,124.728 333.286,113.52 337.133,100.886 335.932,87.302 335.348,82.017 348.619,68.224 346.255,74.339 355.473,76.389 367.432,75.401 358.309,66.427 359.325,78.061 366,86.216 378.184,79.695 370.214,90.309 376.239,87.745 381.095,78.865 386,88.654 383.869,98.574 381.831,103.69 380.25,95.384 380.523,90.895 388.334,85.583 376.236,98.94 362.75,100.229 369.22,96.336 375.081,109.675 364.598,117.97 364.019,117.542 357.224,128.792 350.981,141.703 348,151.492 344.936,152.921 335.676,151.379 325.768,144.386 312.08,151.072 320.861,156.39 326.947,144.758 337.554,142.837 324.634,135.261 323.395,133.522 332.893,139.156 338.538,126.033 328.462,133.597 341.526,132.222 346.743,136.733 352.114,142.487 365.205,154.258 360.974,151.323 351.804,158.263 357.183,146.425 353.189,144.246 342.599,134.143 333.065,144.066 341.566,137.012 338.281,130.794 338.665,131.737 341.758,120.878 347.981,129.856 339.358,118.352 333.79,129.303 330.602,142.604 328.032,141.691 330.874,144.11 326.234,158.323 336.333,153.28 325,158.654 330.518,160.464 343.119,150.371 356.417,160.347 366.904,156.666 371.822,162.342 384.123,148.17 393.577,150.137 397.792,137.903 403.959,131.117 397.415,137.278 411.249,146.949 422.583,144.055 424.781,130.484 436.083,137.463 430.661,145.8 417.146,157.012 422.89,161.544 418.295,153.673 410.808,165.495 408.183,173.619 414.496,183.565 419.371,177.909 417.523,181.126 418.506,190.702 411.17,191.437 400.115,188.575 403.302,202.44 408.657,191.856 398.431,197.318 403.59,206.184 398.453,204.815 397.592,217.801 396.43,206.369 398.182,200.706 384.955,198.897 387.836,206.562 380.181,194.431 375,206.953 372.671,200.52 360.207" fill="none" stroke="lime" stroke-width="2" stroke-linejoin="round" stroke-linecap="round" />
      <polyline points="296.818 312.095,288.097 310.518,285.246 299.531,272.916 300.539,266.808 311.805,276.755 307.501,272.476 306.575,270.959 319.261,266.045 332.695,254.476 322.628,262.598 328.495,248.677 317.502,236.203 324.88,246.264 322.741,244.496 314.644,256.565 312.415,268.733 324.839,269.295 319.466,279.286 320.164,283 326.251,289.642 324,303.784 323.176,294.909 314.73,293.495 325.367,306.839 325.504,297.254 334.108,290.161 321.804,299.184 335.208,304.977 340.155,303.175 333.153,297.2 339.146,309.635 330.845,319.194 323.84,332.463 316.5,339.558 322.52,345.466 309.924,347.51 303.641,338.136 304.643,339 298,339.535 305.606,353.558 306.08,342.543 296.25,338.668 283.249,325.117 275.704,330.301 269.498,316.929 269.373,317.053 275.158,305.18 271.892,301.312 257.902,293.638 261.051,298.21 271.592,288.112 283.448,298.151 275.208,287.14 281.523,291.839 294.263,279.158 303.23,287.142 310.482,294.275 320.182,298.146 315.157,302.163 324.545,301.167 331.675,296.063 336.511,307.876 345.558,304.863 337.434,292.729 329.43,304.417 325.977,316.69 327.278,324.731 312.979,324.591 314.328,337.655 308.686,337.782 311.685,344.05 298.072,344.156 299.113,344.37 312.343,353.716 305.886,357.395 300.197,366.301 302.114,368.376 309.585,370.021 305.242,371.832 314.018,365.431 327.283,363.137 325.031,358.912 320.151,355.565 321,346.956 320.078,338.778 328.123,336.727 324.175,337.15 332.02,339.185 326.184,330.891 337.112,341.504 341.659,343.272 342,343.609 347.345,333.544 341.628,338.71 329.053,338.642 318.957,338.732 304.899,329.121 310.659,336.91 312.909,338.736 301.774,330.47 314.29,316.543 310.873,329.404 318.38,329.56 320.461,329.37 311.146,340.505 308.712,339.719 296.977,338.089 302.647,337.461 298,329.802 290.932,326.156 303.612,331.869 292.515,343.681 278.626,330.626 264.974,342.189 253.717,328 248.787,319.257 237.232,312.778 250,315.297 244.449,316.253 247,303.785 240.56,289.593 238.28,277.979 239.565,280.348 246.878,287.692 253.908,298.257 257,303.653 258.404,298.453 270.137,301.677 283.061,300.768 285.762,294.769 292.925,294.397 281.94,302.885 287.496,305.62 283.734,312.036 280.127,299.428 290.405,307.757 297.255,309.731 310.129,312.074 316.241,298.852 330.221,291.308 329.761,298.589 343.287,298.801 348.038,301.895 342.23,289.893 349.509,300.542 344.792,290.928 343.695,287 353.655,284.289 352.778,288.822 341.739,282.296 327.666,278.479 323.413,275.459 324.884,280.861 317.917,268.401 331.674,264 336.936,262.43 324.11,256.685 331.969,254.695 336.785,252.148 336.044,240.985 328.655,244.827 321.349,243.111 330.697,250.108 319.965,261.42 313.564,250.611 319.528,256.104 332.782,249.844 336.045,258.398 349.673,251.87 345.723,237.575 351.236,244.385 352.242,251.383 359.577,257.542 369.468,261.274 361.119,248.649 367.433,243.774 356.368,231.333 358.925,245.628 370.683,258.767 383,260.019 384.453,265.312 390.629,264.493 380.057,254.756 368.668,243.072 378.052,235.107 376.956,229.631 377.811,216.919 383.53,202.635 394.425,207.204 392.775,206.114 406.453,213.575 418.038,219.317 420.723,230.064 432.326,225.773 445.529,238.397 442.203,233.742 451.967,245.027 456.134,234.227 457.036" fill="none" stroke="orange" stroke-width="2" stroke-linejoin="round" stroke-linecap="round" />
      <polyline points="305.438 302.617,292.748 294.937,303.972 307.606,309.156 301.094,316.599 290.48,315.655 286.244,318.167 287.939,307.597 286.705,308.371 291.154,315 280,315.253 283.497,315.521 276.652,309.797 267.281,314.437 261.439,317.19 273.907,321.425 263.339,326.285 253.481,316.05 254.781,322.334 241.903,310.306 250.41,302.772 257.495,307.043 260.078,319.262 255.031,324.908 243.323,335.323 256.919,333.117 252.6,339.573 240.96,331.053 241.087,342.588 250.135,329.391 252.315,320 265.75,316.941 261.85,321.109 251.577,314.807 258.019,326.448 270.836,329.206 281.311,336.67 292.367,346.378 298.378,358.826 294.588,366.626 303.149,371.585 298.636,368.705 297.054,369.764 287.208,384.137 278,384.091 289.492,387.909 275.867,379.677 286.392,370.734 298.223,371.086 306.826,382.221 295.551,392.934 294.616,391.446 289.815,388.725 287.974,376.096 286.552,377.839 294.704,368.609 296.509,380.159 282.3,386.189 287.241,381.255 274.965,374.521 272.142,380.928 278.433,393.244 285.632,407.441 279.695,408.237 277.468,419.557 267.164,406.368 272.403,392.198 274.646,398.133 277.836,399.947 287.535,391.445 292.378,384.379 286.248,392.465 291.759,402.211 296.059,411.803 290.25,411.811 282.511,420.147 290.567,431.646 295.122,419 280.949,433.221 276.243,420.047 290.305,428.17 284.79,438.035 271.543,441.708 262.532,437.837 265.23,441.21 270.765,445.669 259.735,444.158 248.493,451.765 255.385,439.295 260.688,442.059 258.345,432.308 253,427.069 256.36,415.894 250.309,408.66 258.872,420.076 263.667,428.953 276.403,429.069 272.204,434.971 273.233,425.517 271.978,436.58 277.899,433.886 273.177,429.602 268.868,427.219 278.552,426.587 291.181,414.466 293.194,409.887 284.471,397 288.896,399.954 286.876,403.416 284.663,416.823 292.621,417 304.859,424.618 303.462,438.06 314.545,439.157 321.227,436.846 308.895,429.047 319.485,426.267 326.081,434.061 319.944,427.23 310.175,419.58 322.759,410.068 320.542,417.949 314.279,408.15 317.369,417.361 313.505,425.083 323.519,433.804 333,420.258 333.58,424.477 329.722,424.077 338.876,426 339.625,411.608 346.455,408.261 339.758,421.915 326,423.875 330.226,434.192 321.586,447.475 328.643,461.841 325.977,466 333.636,478.205 343.877,483.693 331.592,492.431 339.853,506.283 330.018,520.587 321.354,533.55 329.475,525.248 337,524.543 346.229,536.191 336.61,531.626 343.636,521.116 352.087,514.566 357.446,520.444 370.123,522.136 361.209,514.669 357.396,507.849 346.021,507.866 349.861,520.065 349.471,516.69 358.491,505.415 363.88,491.677 353.308,503.147 343.488,502.635 347.714,496.508 358.171,490.385 363.655,490.481 372.587,491.189 372.645,480.815 370.385,492.525 363.041,493.729 370.332,499.972 377.86,510 384.273,501.185 376.251,492.835 382.61,498.515 385.978,495.462 374,506.074 359.84,507.767 363.357,510.36 366,523.807 372.796,533.232 364.524,526.853 356.451,532.412 347.893,532.888 358.194,532.384 345.082,544.133 350.287,548.422 363.866,554.785 361.488,551.572 368.079,539.539 375.61,537.478 377.781,527.501 372.168,513.364 381.429,507.131 390.75,516.155 377.737,515.297 382.489,525.201 375.074,529.54 362.875,517.244 360.224,510.545 346.765,498 335.68" fill="none" stroke="cyan" stroke-width="2" stroke-linejoin="round" stroke-linecap="round" />
      <polyline points="321.384 324.557,332.489 324.388,344.026 325.303,357.862 330.614,349 326.791,362.716 333.839,368.101 340.606,364.405 337.31,372.193 337.45,384.617 333,371.206 329.695,357.786 337.15,358.794 339.777,364.163 342.432,373.105 340.904,375.786 337.601,375.853 336.659,361.599 346.774,356.185 354.604,347.299 349.06,345.635 358.814,350.109 368.141,344.326 376.771,349.459 376.655,335.411 370.72,326.158 377.599,314.699 374.827,316.332 382,330.628 384.913,320.05 376.243,320.411 377.244,323.463 378,321.525 391.154,330.122 389.7,336.285 402.418,335.499 406.96,336.246 401.343,329.212 394.581,334.858 406.942,345.208 403.331,338.542 392,325.386 389.864,335.574 383.387,347.496 383.8,359.447 396.877,368.849 405.755,373.096 391.588,373.059 381.621,378.308 371.666,364 372.057,368.334 365.565,381 374.756,381.687 371.242,378.774 359.194,378.894 371.476,382.975 364.413,388.723 364.726,387.789 354.518,393.626 348.61,402.823 360.04,408.59 349.799,415.322 337,412.302 329.626,419.953 322.506,420.36 323.027,432.53 331.125,427.261 340.668,437.204 331,433.071 333.875,441.39 329.842,439.402 316.842,440.281 328.545,436.458 332.776,426.39 329.146,427.917 323.282,439.68 331.58,433.259 327.601,440.125 322.134,427.262 313.813,419.831 326.124,433.331 337.238,446.226 345.514,437.746 333.584,444.354 320.372,431.06 315.115,429.162 321.549,427.052 312.847,426.083 300.42,438.704 297.395,427.758 308,428.877 298.554,443.305 292.279,428.901 280.561,431.555 291.293,437.361 278.666,430.831 276.535,434.54 273.515,429.84 272.095,442 270.613,432.428 268.557,439.496 280.735,449.954 281.44,441.714 289.428,429.601 279.346,438.815 281.816,452.848 289.806,438.512 280.303,446.033 289.474,440.82 301.574,442.457 300.655,446.271 290.783,456.289 295.299,453.969 305.322,456.391 308.558,462.041 314.21,458 309.875,447.914 317.465,449.583 312.715,438.669 315.295,437.315 318,424.86 312.644,430.58 319.948,431.621 310.505,438.588 324.638,433.332 332.664,443.974 326.926,451.184 340.953,458.261 351.275,449.152 352.305,452.264 359.393,462.713 352.753,476.152 363,475.321 366.848,472.333 378.379,484 389.199,471.068 403.117,479.479 392.478,474.383 401.401,468.045 403.374,471.32 410.116,478.252 403.343,490.637 390.679,497.709 377.959,505.781 381.223,492.057 389.417,504.897 384.767,514.077 397.535,522.326 403.867,516.407 405.706,526.039 399.705,540.131 413.943,538.307 410.519,536.801 413.711,548.276 413.453,538.237 416.689,535.252 422.862,523.701 413.137,529.442 399.514,534.909 399.55,547.064 396.253,558.185 385.056,557.73 393.356,553.231 382.32,550.869 385.362,542.819 377.539,528.435 366.959,518.663 375.205,512.181 377.316,514.557 370.131,514.038 365.099,500.758 361.76,503.186 374,516.717 371.206,516.147 379.57,516.73 369.506,522.416 381.431,517.042 369.303,505.725 365.636,516.359 360.404,520.22 373.727,514 381.303,507.067 376.617,501.928 390.538,489 393.073,487.047 391.431,481.734 382.781,494.13 371.315,506.867 374.838,505.36 364.023,495.771 352.522,504.893 358.083,490.554 357.257,481.799 366.265,478.43 368.969,485.485 363.329,494.284 355.317,491.407 359.668,487.951 358.968,487.459 357" fill="none" stroke="gold" stroke-width="2" stroke-linejoin="round" stroke-linecap="round" />
      <polyline points="321.395 315.905,323.159 324.797,325.172 322.43,330.254 323.864,319.797 328.165,313.302 337.178,325.588 331.35,338.34 318.588,331.777 324.246,331.663 326.914,329.342 338.896,341.565 328.532,343.966 332.032,346.774 330.897,343.274 324.317,336.235 328.219,345.719 321.972,337.065 326.756,337.63 336.575,344.55 333.099,340.637 338,331.6 346.812,333.679 345.557,343.523 336.9,350.161 334.611,342.532 336.305,353.934 328.157,361 317.075,370.738 324.15,382.503 310.533,385.129 308.277,394.737 299.477,406.255 300.397,416.945 302.108,415.344 302.267,418.153 315.873,410.335 305.858,396.878 294.674,409.19 295.625,420.379 284,417.029 276.05,408.581 279.057,399.155 284.604,412.907 280.646,407.88 292.299,418.115 279.833,432.212 292.816,440.643 298.44,431.865 298.669,426.271 286.278,416.217 290.175,406.59 283.9,406.389 284.275,417.916 281.678,418.255 271.261,420.791 259.74,424.97 253.263,425.793 264.398,428.226 253.522,435.555 240.342,428.506 229.949,418.877 243.978,405.551 252.421,397.604 244.238,397.876 233.46,393.895 243.552,387.773 252.428,395.518 239.788,396.84 238.274,398.678 232.575,408.254 223.205,406.69 223.147,405.683 232.849,393.389 223.561,391.695 233,378.432 246.711,376.413 244.65,388.45 237.193,385.661 234.719,371.818 244.478,370.059 241.873,375.205 229.77,371.162 232.824,360.796 239.156,351.854 229.818,355.396 221.512,342.836 222.178,347.26 230.215,348.245 243.459,352.49 240.525,356.666 253.756,358 257.703,350.213 243.647,350.891 237.68,350.713 226.409,341.036 226.832,346.846 236.268,336.57 236.588,337.634 225.844,341.754 233.477,336.811 223.873,327.085 229.282,321.916 226.365,328.149 236.325,326.262 225.928,330.8 215.523,340.97 214.777,334.48 220.045,335.282 208.381,328.915 200.128,321.927 207.682,309.065 210.764,317.982 213.17,321.489 225.053,316.103 224.4,302.063 230.754,311.172 242.246,319.444 238.325,311.657 247.593,316.543 245.672,312.07 236.834,313.379 224.464,308.872 226.078,318.469 231.606,326.097 223.502,330.616 220.56,341.277 229.958,354.512 219.37,350.125 233.705,364.555 222.352,368.586 208.687,358.665 214.284,355.636 223.915,346.313 213.517,346.64 216.165,344 210.38,349.855 213.27,338.404 218.347,332.66 227.597,335.151 214.461,337.431 227.369,327.025 214.834,340.803 218.349,339.476 225.043,344.677 213.296,347.151 207.326,333.044 196.925,334.548 210.152,329.788 203.296,321.288 194.54,324.564 190.402,335.864 178.583,330.545 189.028,336.188 181.881,329.674 184.538,339.814 194.139,328.22 181.465,314.103 189.79,300.275 191.166,305.911 199.202,295.166 199.128,286.903 197.11,284.834 203.891,293.97 210.668,295.674 223.945,306.385 233.049,311.017 218.845,302.97 213.245,290.583 201.093,295.232 195.083,282 198.436,284.756 205.478,292.108 203.551,283.791 193,288 200.234,283.635 195.387,287.676 197.34,292.467 210,284.648 221.634,290.043 215.265,296 211.542,291.264 211.358,289.138 221.618,298.115 232.169,291.806 225.152,302.303 236.763,310.037 244.232,321.979 255.792,336.143 262.176,329.082 252.669,324.331 262.404,318.659 249.888,320.169 250.261,321.961 261.515,323.857 255.407,309.497 264.447,321.85 264.647,315.037 261.437,312 274.372" fill="none" stroke="dodgerblue" stroke-width="2" stroke-linejoin="round" stroke-linecap="round" />
      <polyline points="322.486 316.222,321.481 320.237,330.4 324.236,325.646 325.637,339.325 314.086,326.45 301.679,329.271 311.927,324.308 306.916,336.866 298.81,332.327 299.238,340.149 296.618,341.168 309.325,331.618 319.897,323.652 314.257,325.045 314.867,326.657 324.557,317.053 321.196,330.684 330.186,331.618 338.741,318.936 324.917,327 316.04,331.431 328.436,327.29 314.443,326.657 308.366,339.911 302.225,330.713 290.35,337.613 297.855,324.385 302.95,322.249 310.179,318.793 311.384,310.548 300.149,314.627 287.092,318.063 296.064,305.579 302.061,307.036 291.419,316.185 279.263,323.747 278.854,319.673 288.847,305.51 280.808,308.764 287.537,297.804 301.313,296.638 308.711,306.908 321.15,306.55 322.22,311.352 330.866,313.923 338.148,311.029 346.082,320.362 345.658,306.397 346.197,316.458 357.558,326.329 352.673,333.471 345.812,319.942 348.37,329.6 342.623,337 339.234,333.55 329.603,323.022 319.43,332.547 319.921,335.22 313.695,321.366 323.515,330.13 329.645,327.473 321.86,332.809 334.644,329.842 342.512,328.314 345.635,324.409 337.567,323.709 333.79,315.238 339.328,314.287 336.373,312.162 328.331,308.254 335.908,302.57 336.624,312.663 329.646,304.521 316.3,315.746 312.258,316.209 301.588,321.241 298.424,308.067 297.736,318 300.018,330.755 303.664,328.555 295,326.665 303.729,330.153 315.501,318.811 311.975,319.811 322.962,317.281 336.902,327.528 326.814,315.468 330.977,308.153 326.623,308.512 324.965,318.955 322.841,321.042 316.233,313.346 309.244,325.713 305.94,337.61 311.212,332.302 309.231,319.546 308.574,308.085 305.947,321 319.815,316.297 333.735,311.807 338.331,297.522 348.583,301.022 349.02,306.424 353.15,312.564 349.102,320.428 354.878,320.155 367.186,314.923 367.113,324.369 354.796,331.245 361.082,328.429 353.823,339.816 341.288,336.116 346.111,343.187 346.074,353 347.883,342.896 351.067,344.298 344.884,340.739 331.296,330.499 334.335,321.897 344.02,332.292 332.067,345.383 330.399,332.189 343.699,324.688 330.642,319.831 317.769,316.359 330.964,324.564 324.388,326.952 322.93,332.736 332.341,328.213 335.405,317.358 331.793,318.853 341.81,329.446 353.819,325.88 362.508,333.476 371.598,320.962 362.471,317.088 355.34,323.257 344.675,318.847 335.968,319.44 326.709,313 337.918,317 325.905,311.469 324.24,313.766 336.302,317.173 328.077,311.649 342.157,307.023 344.602,309.971 353.872,296.951 342.633,298.498 344.67,306.585 356.534,311.893 346.826,308.876 349.644,321.07 359.54,325 359.651,325 355.642,327.293 350.731,320.077 343.286,318.502 350.393,308.701 343.105,320.864 332.32,329.208 318.979,342.85 317.903,349.414 329.97,335.877 341.21,339.498 328.261,338.753 316.302,330 310.66,334 321.156,328.502 314.9,329.324 309.046,329.41 299.647,332 297.495,341.634 287.235,345.885 273.031,349.867 262.319,350.743 253.197,346.65 255.457,351.87 243.612,362 232.739,366.236 220.79,380.445 230.715,374.203 235.783,373.443 226.332,384.539 222.549,371.929 225.732,377.43 215.158,367.17 204.602,375.915 196.051,380.239 181.785,387.039 183.541,401 182.975,414.613 181.038,422.579 175.214,408.836 186.136,420 199.025,418.144 197.691,428.53 205.783,423.76 195.772" fill="none" stroke="gray" stroke-width="2" stroke-linejoin="round" stroke-linecap="round" />
    </g>
  </g>
</svg>