<?xml version="1.0"?>
<svg xmlns="http://www.w3.org/2000/svg" width="601" height="620.6" viewBox="0 0 601 620.6" transform="translate(0.5, 0.5)">
  <desc>lines2d; Chysl 0.3.4</desc>
  <g stroke="black" fill="white" font-family="sans-serif" font-size="14">
    <text x="300" y="18" stroke="none" fill="black" font-size="18" text-anchor="middle">Random walks (source: db)</text>
    <path d="M 26.92 23.6 V 600 M 98.305 23.6 V 600 M 169.69 23.6 V 600 M 241.075 23.6 V 600 M 312.46 23.6 V 600 M 383.845 23.6 V 600 M 455.23 23.6 V 600 M 526.615 23.6 V 600 M 598 23.6 V 600" stroke="lightgray" />
    <path d="M 26.92 600 H 598 M 26.92 527.95 H 598 M 26.92 455.9 H 598 M 26.92 383.85 H 598 M 26.92 311.8 H 598 M 26.92 239.75 H 598 M 26.92 167.7 H 598 M 26.92 95.65 H 598 M 26.92 23.6 H 598" stroke="lightgray" />
    <rect x="26.92" y="23.6" width="571.08" height="576.4" stroke="black" fill="none" stroke-width="1" />
    <g>
      <g text-anchor="middle" stroke="none" fill="black" font-size="14">
        <text x="26.92" y="614" text-anchor="start">-20</text>
        <text x="98.305" y="614">-15</text>
        <text x="169.69" y="614">-10</text>
        <text x="241.075" y="614">-5</text>
        <text x="312.46" y="614">0</text>
        <text x="383.845" y="614">5</text>
        <text x="455.23" y="614">10</text>
        <text x="526.615" y="614">15</text>
        <text x="598" y="614" text-anchor="end">20</text>
      </g>
    </g>
    <g>
      <g text-anchor="end" stroke="none" fill="black" font-size="14">
        <text x="24.92" y="600">-20</text>
        <text x="24.92" y="532.617">-15</text>
        <text x="24.92" y="460.567">-10</text>
        <text x="24.92" y="388.517">-5</text>
        <text x="24.92" y="316.467">0</text>
        <text x="24.92" y="244.417">5</text>
        <text x="24.92" y="172.367">10</text>
        <text x="24.92" y="100.317">15</text>
        <text x="24.92" y="34.1">20</text>
      </g>
    </g>
    <defs>
      <clipPath id="id17">
        <rect x="26.92" y="23.6" width="571.08" height="576.4" />
      </clipPath>
    </defs>
    <g clip-path="url(#id17)">
      <a href="https://en.wikipedia.org/wiki/Random_walk">
        <polyline points="98.305 527.95,98.305 95.65,526.615 95.65,526.615 527.95,98.305 527.95" fill="none" stroke="black" opacity="0.25" stroke-width="10" stroke-linejoin="round" stroke-linecap="round" />
      </a>
      <polyline points="310.079 325.917,319.365 331.72,315.608 340.549,317.493 350.299,306.764 352.232,308.536 361.617,310.056 365.799,323.136 377.578,336.803 380.111,336.915 390.251,343.168 399.186,338.643 412.918,334.061 399.445,347.733 392.398,333.554 379.71,344.141 371.905,334.972 383.447,332.531 372.336,334.761 365.518,327.126 364.838,333.105 355.476,341.875 363.191,352.531 371.365,361.151 369.777,352.18 367.223,352.701 354,339.61 363.684,353.41 354.11,343.424 361.917,344.542 371.803,339.509 384.792,345.554 396.937,359.676 384.817,367.924 376.966,364.147 371.816,371.607 372.37,359.087 368.735,354.112 365.563,351.851 352.521,343.331 344.772,349 343.142,337 352.798,350.352 360.561,340.745 366.662,341.805 366.097,327.623 380.415,327.51 389.498,330.58 380.896,319.041 380.747,316.36 372.376,329.347 374.776,322 363.869,308.518 368.755,305.513 378.035,310.651 377.509,303.482 380,308.961 385.054,296.617 386.192,287.91 382.696,279.398 393.214,290.647 398.105,284.717 397,290.239 392.074,298.759 399,296.671 402.914,297.147 400.78,300.839 413.231,297.162 407.221,283.894 400.124,289.202 402.954,287.75 409.746,294.524 410.311,287.818 423.875,283.394 411.742,288.423 408.122,300.812 421.65,303.738 430.643,300.795 439.813,296.487 428.245,302.923 418.265,290.802 424,298.916 437.249,290.056 449.3,299.123 457,296.962 471.027,285.93 470.624,294.248 475.205,289.09 488.439,277.657 498.569,269.27 496.556,265.241 482.788,259.076 472.52,247.42 471.724,248.832 467.191,246.266 466.499,254.199 476.54,255.102 474,263.146 483.694,260.707 497.396,265.348 486.789,261.166 477.674,265.678 491.593,264.828 504.685,259.495 496,248.801 494.137,236.143 505.381,249.054 517,239.749 504.33,234.291 512.501,222.768 512.522,210.173 520.59,202.238 513.525,192.59 511,185.215 496.753,199.224 484.537,210.648 483,222.951 478.959,213.225 472.263,223.199 486.256,214.488 478.063,222.141 476.317,211.357 483.082,203.81 469.232,195.967 472.975,201.365 468.273,203.141 463.93,213.563 452,202.383 465.542,214.193 453.718,210.423 456.608,215.703 458.871,204.596 466.098,199 464.19,189.603 457.601,203.018 460.92,205.025 457,213.534 453.272,214 446.917,200.407 434.242,211.789 428.657,203.269 425.037,189.796 428,181.668 426.22,174.542 437.971,182.933 445.139,184.638 459.072,186.45 450.736,194.588 455.682,183.977 452.526,178.452 458.699,170.175 461.774,175.377 464.611,179.559 458.045,188.421 456,202.421 455.945,203.483 451.382,216.941 445.562,228.843 455.4,226.616 449.534,233.26 440.023,226.589 445.363,224.097 448.465,212.467 451.642,216.533 444.741,208.819 441.263,216 451.191,202.121 461,207.231 449.074,204.012 454.492,207.645 459.79,194.488 467.131,197.359 468.347,192.987 471.455,182.626 463.748,179.029 458.273,180.964 446.742,189.429 457.339,188.042 471.428,195.326 479.187,208.934 487.101,209.169 487.343,218.516 484.6,229.397 489.798,217.904 498.856,204.949 492.88,210.261 485.54,218.282 496.343,205.836 491.759,191.592 496.454,194.095 492.061,197.396 479.11,210.948 484.57,205.666 498.363,194.845 500.145,198.892 507.762,187.454 502.432,192.372 502.421,182.119 511.156,175.498 501" fill="none" stroke="red" stroke-width="2" stroke-linejoin="round" stroke-linecap="round" />
      <polyline points="324.628 324.851,337.1 312.957,345.462 320.644,358.796 311.748,348.499 325.127,345 322.834,331.442 309.732,336.376 309.251,336.146 320.642,343.221 313.681,329.585 304.834,325.425 292.352,320.915 300.656,312.23 305.511,299.973 315.237,299.188 313.733,300.831 324.339,287.257 334.52,298.663 345,303.907 343.401,306.765 330.81,299.788 324.972,300.289 328.761,297.465 337.339,286.067 325.196,290.074 334.711,298.729 343.797,303.362 341.3,311.836 343.828,324.834 337.514,323.383 348.435,316.476 359.031,317.08 350.216,324 346.266,321.907 352.65,330.584 347.716,335.256 346.038,343.555 343.477,336.797 347.121,331.364 353.125,342.741 347.028,346 348.443,345.568 359.823,344.842 357.292,340.566 357.084,354.823 345.181,342.745 332.327,351.154 323.326,359.852 331.723,349.344 327.633,358.706 339.104,344.84 326.222,356.548 333.097,365.943 338.902,375.695 352.938,378.79 360.87,382.67 374.558,386.874 386.092,385.264 398.486,381.94 408.4,377.028 409.277,381.571 405.426,382.243 395.26,379.697 405.516,385 409.632,397.402 412.797,383.52 417.297,396.645 417.931,405.864 421.737,408.959 433.959,400.464 445.371,397.68 450.459,399.331 446.172,391.905 452.853,378.33 463.757,374.945 452.251,366.043 454.908,352.133 452.35,349.871 457.214,346.726 463.764,344.101 472.849,350.17 460.366,361.786 464.216,347.841 456.466,346.743 455.162,351.192 446.182,351.704 448.071,341.181 461.275,331.627 471.228,344.214 469.301,330.72 474.54,328.207 464.9,325.73 463.551,319 468.648,307 460.494,306.678 453.825,308.739 465.67,302.139 470.853,310.224 475.277,323.52 466.727,328.966 465.816,334.46 470.464,323.102 460.139,321.946 446.932,328.57 444.789,326.488 439.425,319.132 443.656,313.982 434.475,326.826 446.084,313.249 450.329,318.464 452.123,325.889 438.631,330.637 433.845,320.448 431.394,324.092 440.178,310.554 435.042,324.639 430.815,316.095 420.139,310.887 424.713,319.837 416.236,332.148 405.148,317.939 412.966,320.305 420.696,330.329 413.885,337.64 401.091,343.57 387.735,342.613 398.23,343.088 385.298,346.349 390.423,334.885 400.967,324.109 394.895,319.21 396.78,332.788 401.618,337.171 405.968,333.905 408.086,332.322 419.128,336.37 417.507,325.281 403.833,339.187 410.32,334.637 402.232,334.814 400.314,342.364 393.061,335.664 393.432,344.529 382.398,355 373.761,359.501 387.419,355.667 381.394,348.327 394,351 386.255,365.177 379.678,363.712 393.165,368.849 381.856,369.363 380.05,357.719 385.215,360.349 376.485,355.339 366.924,357.858 365.34,349.318 359.717,338.953 362,350 351.406,362.682 360.236,374.231 361.137,364.65 349.713,377.506 336.075,373.465 344,385.591 337.87,397.741 331.258,411.579 324.629,420.713 312.442,418.707 300.343,416.243 287.056,417.447 283,403.449 287.625,397.024 301.689,391.685 308.687,380.514 315.73,390.804 323.929,396.511 309.752,382.494 303.668,372.055 312.752,366.571 300.707,377.314 312.473,385.598 324.445,381.563 310.041,392.403 321.288,394.319 323.577,399.318 313.241,400.965 300.787,412.284 310.485,399.633 319.189,399.859 313.57,409.976 306.911,414.383 304,418.784 306.879,423.432 297.188,433.611 290.888,438.625 303.213,433.713 304.492,428.204 313.189" fill="none" stroke="green" stroke-width="2" stroke-linejoin="round" stroke-linecap="round" />
      <polyline points="308.881 302.189,302.234 289.637,288.138 291.886,294.457 284.542,280.521 295.633,268.265 293.755,256.693 296.742,250.475 308.199,246.897 310.057,249.134 314.516,236.825 319.446,242.367 333.752,243 347.6,253.39 356.342,254.35 368.119,255.701 359.679,267.539 351.33,278.78 365.516,287.511 378.513,298.092 364.209,304.307 361.144,310.966 373.054,321.344 384.945,313.884 391.571,319.24 394.638,315.982 394.581,323.215 384.787,333.069 391.033,320.288 402.725,309.294 395.644,297.422 388.252,283.197 382.866,275.981 378.688,283.414 374.234,271.25 388.046,267.9 376.316,266.886 383.153,266.048 373.917,257.684 384.771,269.633 386.959,268.028 392.408,260.731 381.977,269.369 389.065,275.793 377,273.444 363.127,261.76 353.393,271.776 360.533,265.404 367.105,255.028 358.139,260.692 349.839,264.75 356.715,252.961 363.676,261.194 377.52,262.149 382.666,256.11 387.429,258.726 396.97,249 386.896,256.257 390.937,249.084 388.5,261.433 380.197,259.808 376.318,255.789 370.286,256.301 383.913,261.268 373.204,260.831 383,255.217 391.867,264.924 385.082,259.137 390.772,248.467 392.494,262.061 385.09,274.498 397.356,286.648 385.458,295.524 396.175,306.056 382.397,312.919 381.977,308.434 371.071,311.247 376.171,299.318 390.08,305.086 395.97,294.585 401.531,293.501 391.529,292.763 402.228,302.143 397.199,303.456 385.718,300.75 388.971,288.037 383.329,291.513 370.433,277.459 372.944,275.672 375.384,262.632 366.317,249.582 362.277,244.229 364.449,253.878 372.974,254.207 379.697,257.35 378.424,262.128 390.082,265.916 385.408,253.574 371.886,263.59 363.439,271.769 363.435,283.629 373.378,290.588 359.641,278.103 355.353,291.615 365.677,293.303 354.21,286.557 362.568,292.774 354.086,305.387 349.689,292.648 340.433,286.536 338.602,292.843 324.822,294.311 335.06,294.646 333.477,301.844 342.38,303.318 355.359,317.167 369.118,318.339 378.496,311.907 381.314,304.856 388.198,299.393 388.222,312.426 396.603,303.079 409.777,314.947 401.619,324.386 411.719,322.713 406.777,323.607 400.081,314.876 388.479,317.502 385.254,319.958 386.9,306.04 396.591,305.503 408.641,308.216 417.574,313.488 420.312,318 427.172,307.269 422.436,316.564 430.765,303.333 420.142,310.565 412.45,318.865 414.835,331.745 405.971,339.047 393.272,350.7 391.398,338.036 388.805,337.913 402.727,332.61 393.498,336.173 381.097,343.48 390.155,349.57 403.213,360.117 409.142,373.567 422.178,380.49 433.667,390.856 424.52,391.206 422.699,383.209 426.606,373.168 429.675,362.83 425.809,362.628 429.978,358.238 416.953,371.025 403.141,367.101 415.188,357.472 404.8,353.216 414.972,366.226 422.953,367.949 425.444,357.615 429.126,365.85 427.887,376.067 441.834,364.868 443.791,368.926 446.343,362.53 437.284,372.605 433,362.11 426.041,365.182 419.273,371.91 417.449,368.61 407.725,380.759 394.717,375.149 403.032,366.372 397.82,379.629 405.343,378.181 404.042,375.796 402.64,372.109 400.139,385.76 392.526,398.978 394.797,388.969 403.381,381.301 395.604,373.396 393.838,385.595 396.107,378.088 384.94,391.767 397.388,400.979 383.72,395.165 387.806,386.365 395.966,394.061 397.646,388.615 401.55,400.248 387.233,395.097 393.94,388.511 385.755,400.183 394.608" fill="none" stroke="blue" stroke-width="2" stroke-linejoin="round" stroke-linecap="round" />
      <polyline points="301.174 316.621,310.603 306.609,323.455 308.912,310.413 322,319.166 325.61,309.753 331.898,298.334 319.9,296.34 319.76,287.772 319.106,280.739 306.452,291.168 300.153,293 293.51,281.144 297.492,292.027 289.102,286.764 292.437,276.466 306.824,289.317 315.917,297.913 325.183,296.632 323.908,287.633 330.217,277.333 344.517,273.568 334.736,265.576 336.674,262.536 336.241,254.376 349.286,249.529 335.472,251.82 336.855,245.95 330.607,235.905 327.332,235.893 339.766,235.92 344.419,221.942 345.873,213.487 357.203,218.813 355.661,215.695 349.768,226.452 353.642,227.204 342.373,220.534 343.769,220.145 347.789,221.872 339.503,232.488 342.02,226.302 334.303,232.11 340.813,230.492 348.098,231.167 356.497,218.913 363.28,207.123 369.054,202.221 374.511,214.489 366.906,207.675 355.234,207.167 369.208,206.293 381.196,199.861 367.912,200.765 353.934,199.11 358.737,191.383 366,199.135 363.397,209.44 364,220.015 352.44,207.853 347.591,195.711 351.823,185.071 348,174.339 359.878,181.075 354.739,190.954 342.956,197.032 333.482,190.989 334.703,192.283 337.65,191.205 338.18,191.703 351.477,181.663 343.644,192.094 352.081,181.021 359.751,191.838 361.385,205.523 361.488,194.561 353.848,183.702 348.191,197.87 341.144,206.83 343.289,194.332 351.194,204.58 342.87,206.701 351.463,206.066 342.275,194.902 330.658,182.86 324.275,169.104 314.046,163.819 312.563,150.793 307.754,165 313.454,174.645 323.504,161.415 318.685,154.87 312.493,142.453 323.061,137.2 322.52,129.778 333.286,118.69 337.133,106.191 335.932,92.751 335.348,87.524 348.619,73.878 346.255,79.927 355.473,81.956 367.432,80.978 358.309,72.1 359.325,83.61 366,91.678 378.184,85.226 370.214,95.727 376.239,93.19 381.095,84.405 386,94.089 383.869,103.903 381.831,108.965 380.25,100.748 380.523,96.306 388.334,91.051 376.236,104.265 362.75,105.541 369.22,101.69 375.081,114.886 364.598,123.093 364.019,122.669 357.224,133.8 350.981,146.572 348,156.257 344.936,157.671 335.676,156.145 325.768,149.226 312.08,155.841 320.861,161.102 326.947,149.595 337.554,147.694 324.634,140.199 323.395,138.478 332.893,144.053 338.538,131.07 328.462,138.553 341.526,137.192 346.743,141.656 352.114,147.348 365.205,159 360.974,156.09 351.804,162.955 357.183,151.244 353.189,149.088 342.599,139.093 333.065,148.91 341.566,141.932 338.281,135.78 338.665,136.713 341.758,125.969 347.981,134.852 339.358,123.471 333.79,134.305 330.602,147.463 328.032,146.56 330.874,148.953 326.234,163.015 336.333,158.026 325,163.343 330.518,165.133 343.119,155.147 356.417,165.018 366.904,161.376 371.822,166.991 384.123,152.97 393.577,154.916 397.792,142.813 403.959,136.099 397.415,142.195 411.249,151.763 422.583,148.899 424.781,135.473 436.083,142.378 430.661,150.625 417.146,161.718 422.89,166.201 418.295,158.415 410.808,170.11 408.183,178.148 414.496,187.987 419.371,182.392 417.523,185.575 418.506,195.049 411.17,195.776 400.115,192.945 403.302,206.661 408.657,196.19 398.431,201.594 403.59,210.365 398.453,209.011 397.592,221.858 396.43,210.549 398.182,204.946 384.955,203.156 387.836,210.739 380.181,198.738 375,211.126 372.671,204.762 360.207" fill="none" stroke="lime" stroke-width="2" stroke-linejoin="round" stroke-linecap="round" />
      <polyline points="300.032 312.095,291.405 310.518,288.583 299.531,276.385 300.539,270.342 311.805,280.183 307.501,275.95 306.575,274.449 319.261,269.587 332.695,258.142 322.628,266.177 328.495,252.405 317.502,240.064 324.88,250.018 322.741,248.268 314.644,260.209 312.415,272.246 324.839,272.803 319.466,282.688 320.164,286.369 326.251,292.933 324,306.923 323.176,298.143 314.73,296.745 325.367,309.946 325.504,300.464 334.108,293.447 321.804,302.373 335.208,308.104 340.155,306.321 333.153,300.41 339.146,312.713 330.845,322.169 323.84,335.297 316.5,342.316 322.52,348.16 309.924,350.183 303.641,340.909 304.643,341.749 298,342.293 305.606,356.167 306.08,345.269 296.25,341.435 283.249,328.029 275.704,333.158 269.498,319.928 269.373,320.051 275.158,308.305 271.892,304.478 257.902,296.886 261.051,301.409 271.592,291.419 283.448,301.351 275.208,290.457 281.523,295.106 294.263,282.56 303.23,290.459 310.482,297.516 320.182,301.346 315.157,305.32 324.545,304.335 331.675,299.285 336.511,310.972 345.558,308 337.434,296 329.43,307.55 325.977,319.692 327.278,327.647 312.979,327.508 314.328,340.433 308.686,340.559 311.685,346.76 298.072,346.865 299.113,347.077 312.343,356.323 305.886,359.963 300.197,368.774 302.114,370.827 309.585,372.453 305.242,374.246 314.018,367.913 327.283,365.643 325.031,361.463 320.151,358.152 321,349.635 320.078,341.545 328.123,339.516 324.175,339.934 332.02,341.946 326.184,333.741 337.112,344.241 341.659,346 342,346.324 347.345,336.366 341.628,341.477 329.053,341.41 318.957,341.499 304.899,332 310.659,339.696 312.909,341.503 301.774,333.325 314.29,319.547 310.873,332.27 318.38,332.425 320.461,332.237 311.146,343.253 308.712,342.475 296.977,340.863 302.647,340.241 298,332.664 290.932,329.057 303.612,334.709 292.515,346.395 278.626,333.479 264.974,344.919 253.717,330.868 248.787,322.231 237.232,315.822 250,318.314 244.449,319.26 247,306.924 240.56,292.885 238.28,281.394 239.565,283.738 246.878,291 253.908,301.456 257,306.794 258.404,301.65 270.137,304.839 283.061,303.94 285.762,298 292.925,297.637 281.94,306.034 287.496,308.74 283.734,315.088 280.127,302.614 290.405,310.854 297.255,312.808 310.129,315.125 316.241,302.044 330.221,294.581 329.761,301.784 343.287,302 348.038,305.055 342.23,293.181 349.509,303.716 344.792,294.205 343.695,290.312 353.655,287.637 352.778,292.121 341.739,285.665 327.666,281.888 323.413,278.901 324.884,284.245 317.917,271.918 331.674,267.556 336.936,266 324.11,260.327 331.969,258.359 336.785,255.839 336.044,244.795 328.655,248.596 321.349,246.898 330.697,253.821 319.965,265 313.564,254.318 319.528,259.753 332.782,253.559 336.045,262.022 349.673,255.564 345.723,241.421 351.236,248.159 352.242,255.082 359.577,261.175 369.468,264.867 361.119,252.377 367.433,247.554 356.368,235.246 358.925,249.388 370.683,262.387 383,263.626 384.453,268.862 390.629,268.052 380.057,258.419 368.668,246.86 378.052,238.98 376.956,233.562 377.811,220.986 383.53,206.854 394.425,211.375 392.775,210.296 406.453,217.677 418.038,223.358 420.723,234 432.326,229.745 445.529,242.234 442.203,237.629 451.967,248.794 456.134,238.109 457.036" fill="none" stroke="orange" stroke-width="2" stroke-linejoin="round" stroke-linecap="round" />
      <polyline points="308.56 302.617,296 294.937,307.109 307.606,312.239 301.094,319.602 290.48,318.668 286.244,321.154 287.939,310.696 286.705,311.462 291.154,318 280,318.27 283.497,318.535 276.652,312.873 267.281,317.463 261.439,320.187 273.907,324.377 263.339,329.185 253.481,319.059 254.781,325.275 241.903,313.376 250.41,305.922 257.495,310.148 260.078,322.236 255.031,327.822 243.323,338.126 256.919,335.944 252.6,342.331 240.96,333.902 241.087,345.313 250.135,332.257 252.315,322.966 265.75,319.941 261.85,324.064 251.577,317.829 258.019,329.346 270.836,332.075 281.311,339.459 292.367,349.063 298.378,361.378 294.588,369.095 303.149,374 298.636,371.152 297.054,372.2 287.208,386.419 278,386.374 289.492,390.151 275.867,382 286.392,373.159 298.223,373.508 306.826,384.524 295.551,395.122 294.616,393.651 289.815,390.958 287.974,378.464 286.552,380.189 294.704,371.057 296.509,382.483 282.3,388.449 287.241,383.568 274.965,376.906 272.142,383.244 278.433,395.429 285.632,409.474 279.695,410.262 277.468,421.461 267.164,408.413 272.403,394.394 274.646,400.266 277.836,402.061 287.535,393.65 292.378,386.658 286.248,394.659 291.759,404.3 296.059,413.79 290.25,413.798 282.511,422.045 290.567,433.421 295.122,420.926 280.949,435 276.243,421.946 290.305,430 284.79,439.742 271.543,443.376 262.532,439.546 265.23,442.883 270.765,447.295 259.735,445.8 248.493,453.326 255.385,441 260.688,443.723 258.345,434.076 253,428.893 256.36,417.838 250.309,410.68 258.872,421.975 263.667,430.757 276.403,430.871 272.204,436.711 273.233,427.357 271.978,438.303 277.899,435.637 273.177,431.399 268.868,429.042 278.552,428.417 291.181,416.424 293.194,411.894 284.471,399.142 288.896,402.067 286.876,405.492 284.663,418.756 292.621,418.93 304.859,426.468 303.462,439.767 314.545,440.852 321.227,438.565 308.895,430.85 319.485,428.099 326.081,435.81 319.944,429.052 310.175,421.484 322.759,412.074 320.542,419.87 314.279,410.176 317.369,419.288 313.505,426.929 323.519,435.556 333,422.155 333.58,426.329 329.722,425.933 338.876,427.847 339.625,413.597 346.455,410.285 339.758,423.794 326,425.733 330.226,435.941 321.586,449.081 328.643,463.294 325.977,467.425 333.636,479.484 343.877,484.913 331.592,493.557 339.853,507.262 330.018,521.413 321.354,534.238 329.475,526 337,525.327 346.229,536.85 336.61,532.334 343.636,521.936 352.087,515.457 357.446,521.272 370.123,522.945 361.209,515.559 357.396,508.811 346.021,508.828 349.861,520.897 349.471,517.558 358.491,506.403 363.88,492.812 353.308,504.159 343.488,503.653 347.714,497.591 358.171,491.533 363.655,491.628 372.587,492.329 372.645,482.066 370.385,493.65 363.041,494.841 370.332,501 377.86,510.963 384.273,502.218 376.251,493.957 382.61,499.577 385.978,496.557 374,507.055 359.84,508.73 363.357,511.295 366,524.599 372.796,533.923 364.524,527.612 356.451,533.112 347.893,533.582 358.194,533.085 345.082,544.708 350.287,548.951 363.866,555.247 361.488,552.067 368.079,540.163 375.61,538.124 377.781,528.253 372.168,514.267 381.429,508.101 390.75,517.028 377.737,516.18 382.489,526 375.074,530.27 362.875,518.106 360.224,511.478 346.765,499.051 335.68" fill="none" stroke="cyan" stroke-width="2" stroke-linejoin="round" stroke-linecap="round" />
      <polyline points="324.335 324.557,335.322 324.388,346.737 325.303,360.424 330.614,351.65 326.791,365.227 333.839,370.554 340.606,366.898 337.31,374.603 337.45,386.894 333,373.626 329.695,360.35 337.15,361.347 339.777,366.659 342.432,375.505 340.904,378.157 337.601,378.224 336.659,364.121 346.774,358.765 354.604,349.974 349.06,348.328 358.814,352.754 368.141,347.033 376.771,352.111 376.655,338.213 370.72,329.059 377.599,317.722 374.827,319.337 382,333.482 384.913,323.016 376.243,323.374 377.244,326.393 378,324.475 391.154,332.981 389.7,339.078 402.418,338.3 406.96,339.039 401.343,332.08 394.581,337.666 406.942,347.906 403.331,341.311 392,328.296 389.864,338.374 383.387,350.17 383.8,362 396.877,371.294 405.755,375.496 391.588,375.46 381.621,380.652 371.666,366.49 372.057,370.785 365.565,383.31 374.756,384 371.242,381.113 359.194,381.232 371.476,385.269 364.413,390.956 364.726,390.032 354.518,395.807 348.61,404.905 360.04,410.612 349.799,417.271 337,414.283 329.626,421.853 322.506,422.255 323.027,434.296 331.125,429.083 340.668,438.92 331,434.831 333.875,443.062 329.842,441.095 316.842,441.964 328.545,438.182 332.776,428.221 329.146,429.732 323.282,441.369 331.58,435 327.601,441.81 322.134,429.084 313.813,421.733 326.124,435.088 337.238,447.846 345.514,439.456 333.584,446 320.372,432.842 315.115,430.964 321.549,428.876 312.847,427.918 300.42,440.404 297.395,429.575 308,430.682 298.554,444.956 292.279,430.706 280.561,433.331 291.293,439.075 278.666,432.615 276.535,436.285 273.515,431.635 272.095,443.659 270.613,434.195 268.557,441.187 280.735,451.534 281.44,443.382 289.428,431.398 279.346,440.514 281.816,454.397 289.806,440.214 280.303,447.655 289.474,442.497 301.574,444.116 300.655,447.89 290.783,457.801 295.299,455.506 305.322,457.902 308.558,463.492 314.21,459.506 309.875,449.516 317.465,451.167 312.715,440.369 315.295,439.03 318,426.708 312.644,432.367 319.948,433.396 310.505,440.289 324.638,435.089 332.664,445.617 326.926,452.751 340.953,459.752 351.275,450.74 352.305,453.819 359.393,464.156 352.753,477.452 363,476.63 366.848,473.674 378.379,485.227 389.199,472.423 403.117,480.744 392.478,475.702 401.401,469.431 403.374,472.671 410.116,479.53 403.343,491.782 390.679,498.779 377.959,506.765 381.223,493.187 389.417,505.891 384.767,514.973 397.535,523.134 403.867,517.278 405.706,526.807 399.705,540.748 413.943,538.944 410.519,537.454 413.711,548.807 413.453,538.874 416.689,535.922 422.862,524.494 413.137,530.174 399.514,535.582 399.55,547.608 396.253,558.61 385.056,558.16 393.356,553.709 382.32,551.372 385.362,543.408 377.539,529.177 366.959,519.51 375.205,513.097 377.316,515.447 370.131,514.934 365.099,501.795 361.76,504.198 374,517.585 371.206,517 379.57,517.597 369.506,523.222 381.431,517.906 369.303,506.71 365.636,517.231 360.404,521.05 373.727,514.889 381.303,508.037 376.617,502.953 390.538,490.182 393.073,488.231 391.431,482.975 382.781,495.239 371.315,507.84 374.838,506.349 364.023,496.862 352.522,505.886 358.083,491.7 357.257,483.039 366.265,479.706 368.969,486.686 363.329,495.391 355.317,492.544 359.668,489.126 358.968,488.638 357" fill="none" stroke="gold" stroke-width="2" stroke-linejoin="round" stroke-linecap="round" />
      <polyline points="324.347 315.905,326.092 324.797,328.084 322.43,333.111 323.864,322.766 328.165,316.34 337.178,328.495 331.35,341.111 318.588,334.618 324.246,334.505 326.914,332.209 338.896,344.302 328.532,346.676 332.032,349.455 330.897,346 324.317,339.028 328.219,348.411 321.972,339.85 326.756,340.409 336.575,347.255 333.099,343.383 338,334.443 346.812,336.5 345.557,346.239 336.9,352.806 334.611,345.258 336.305,356.539 328.157,363.543 317.075,373.163 324.15,384.803 310.533,387.4 308.277,396.906 299.477,408.301 300.397,418.877 302.108,417.293 302.267,420.072 315.873,412.337 305.858,399.024 294.674,411.205 295.625,422.275 284,418.96 276.05,410.602 279.057,401.277 284.604,414.882 280.646,409.909 292.299,420.035 279.833,434 292.816,442.323 298.44,433.638 298.669,428.104 286.278,418.157 290.175,408.633 283.9,408.434 284.275,419.838 281.678,420.173 271.261,422.682 259.74,426.816 253.263,427.631 264.398,430.037 253.522,437.288 240.342,430.315 229.949,420.789 243.978,407.605 252.421,399.742 244.238,400 233.46,396.073 243.552,390 252.428,397.678 239.788,399 238.274,400.805 232.575,410.278 223.205,408.732 223.147,407.735 232.849,395.572 223.561,393.897 233,380.775 246.711,378.777 244.65,390.686 237.193,387.927 234.719,374.232 244.478,372.492 241.873,377.583 229.77,373.583 232.824,363.328 239.156,354.48 229.818,358 221.512,345.559 222.178,349.936 230.215,350.91 243.459,355.11 240.525,359.241 253.756,360.549 257.703,352.857 243.647,353.528 237.68,353.352 226.409,343.778 226.832,349.526 236.268,339.36 236.588,340.413 225.844,344.489 233.477,339.598 223.873,329.976 229.282,324.862 226.365,331.029 236.325,329.162 225.928,333.652 215.523,343.713 214.777,337.292 220.045,338.086 208.381,331.786 200.128,324.873 207.682,312.148 210.764,320.97 213.17,324.44 225.053,319.111 224.4,305.221 230.754,314.232 242.246,322.417 238.325,314.713 247.593,319.546 245.672,315.121 236.834,316.416 224.464,311.957 226.078,321.452 231.606,329 223.502,333.469 220.56,344 229.958,357.111 219.37,352.771 233.705,367.046 222.352,371.034 208.687,361.219 214.284,358.222 223.915,349 213.517,349.323 216.165,346.723 210.38,352.503 213.27,341.175 218.347,335.492 227.597,337.956 214.461,340.212 227.369,329.916 214.834,343.547 218.349,342.235 225.043,347.38 213.296,349.828 207.326,335.872 196.925,337.359 210.152,332.65 203.296,324.241 194.54,327.482 190.402,338.661 178.583,333.399 189.028,338.982 181.881,332.538 184.538,342.569 194.139,331.099 181.465,317.133 189.79,303.453 191.166,309.028 199.202,298.397 199.128,290.222 197.11,288.176 203.891,297.214 210.668,298.9 223.945,309.497 233.049,314.079 218.845,306.119 213.245,293.864 201.093,298.463 195.083,285.376 198.436,288.099 205.478,295.372 203.551,287.144 193,291.298 200.234,287 195.387,291 197.34,295.727 210,288 221.634,293.329 215.265,299.214 211.542,294.537 211.358,292.434 221.618,301.316 232.169,295.074 225.152,305.459 236.763,313.11 244.232,324.924 255.792,338.938 262.176,331.952 252.669,327.252 262.404,321.64 249.888,323.134 250.261,324.906 261.515,326.783 255.407,312.575 264.447,324.797 264.647,318.057 261.437,315.04 274.372" fill="none" stroke="dodgerblue" stroke-width="2" stroke-linejoin="round" stroke-linecap="round" />
      <polyline points="325.426 316.222,324.432 320.237,333.256 324.236,328.552 325.637,342.085 314.086,329.348 301.679,332.139 311.927,327.229 306.916,339.652 298.81,335.162 299.238,342.901 296.618,343.908 309.325,334.461 319.897,326.579 314.257,327.957 314.867,329.553 324.557,320.051 321.196,333.537 330.186,334.461 338.741,321.914 324.917,329.889 316.04,334.276 328.436,330.179 314.443,329.552 308.366,342.666 302.225,333.566 290.35,340.391 297.855,327.305 302.95,325.192 310.179,321.772 311.384,313.615 300.149,317.651 287.092,321.05 296.064,308.7 302.061,310.141 291.419,319.192 279.263,326.674 278.854,322.643 288.847,308.632 280.808,311.85 287.537,301 301.313,299.854 308.711,310 321.15,309.66 322.22,314.411 330.866,316.955 338.148,314.092 346.082,323.325 345.658,309.508 346.197,319.463 357.558,329.228 352.673,336.294 345.812,322.909 348.37,332.464 342.623,339.781 339.234,336.372 329.603,325.957 319.43,335.38 319.921,338.025 313.695,324.318 323.515,333 329.645,330.36 321.86,335.639 334.644,332.704 342.512,331.192 345.635,327.328 337.567,326.636 333.79,318.255 339.328,317.314 336.373,315.212 328.331,311.346 335.908,305.722 336.624,315.708 329.646,307.653 316.3,318.758 312.258,319.216 301.588,324.194 298.424,311.161 297.736,321 300.018,333.607 303.664,331.43 295,329.56 303.729,333 315.501,321.79 311.975,322.78 322.962,320.277 336.902,330.415 326.814,318.483 330.977,311.246 326.623,311.601 324.965,321.933 322.841,324 316.233,316.383 309.244,328.619 305.94,340.388 311.212,335.137 309.231,322.518 308.574,311.179 305.947,323.953 319.815,319.303 333.735,314.861 338.331,300.729 348.583,304.191 349.02,309.535 353.15,315.61 349.102,323.39 354.878,323.12 367.186,317.944 367.113,327.289 354.796,334.092 361.082,331.306 353.823,342.571 341.288,338.91 346.111,345.906 346.074,355.609 347.883,345.619 351.067,347 344.884,343.484 331.296,333.353 334.335,324.843 344.02,335.127 332.067,348.079 330.399,335.025 343.699,327.604 330.642,322.799 317.769,319.365 330.964,327.482 324.388,329.844 322.93,335.566 332.341,331.093 335.405,320.353 331.793,321.832 341.81,332.312 353.819,328.784 362.508,336.299 371.598,323.918 362.471,320.085 355.34,326.188 344.675,321.826 335.968,322.413 326.709,316.052 337.918,320 325.905,314.527 324.24,316.799 336.302,320.17 328.077,314.704 342.157,310.128 344.602,313.045 353.872,300.163 342.633,301.694 344.67,309.695 356.534,314.946 346.826,311.962 349.644,324.025 359.54,327.914 359.651,327.926 355.642,330.181 350.731,323.042 343.286,321.484 350.393,311.788 343.105,323.822 332.32,332.076 318.979,345.573 317.903,352.067 329.97,338.675 341.21,342.256 328.261,341.519 316.302,332.852 310.66,336.811 321.156,331.378 314.9,332.191 309.046,332.276 299.647,334.849 297.495,344.37 287.235,348.576 273.031,352.515 262.319,353.382 253.197,349.333 255.457,354.496 243.612,364.514 232.739,368.709 220.79,382.766 230.715,376.591 235.783,375.84 226.332,386.817 222.549,374.342 225.732,379.784 215.158,369.633 204.602,378.285 196.051,382.563 181.785,389.291 183.541,403.095 182.975,416.57 181.038,424.451 175.214,410.854 186.136,421.884 199.025,420.064 197.691,430.338 205.783,425.62 195.772" fill="none" stroke="gray" stroke-width="2" stroke-linejoin="round" stroke-linecap="round" />
    </g>
  </g>
</svg>