<?xml version="1.0"?>
<svg xmlns="http://www.w3.org/2000/svg" width="601" height="618" viewBox="0 0 601 618" transform="translate(0.5, 0.5)">
  <desc>lines2d; Chysl 0.3.1</desc>
  <g stroke="black" fill="white" font-family="sans-serif" font-size="14">
    <text x="300" y="18" stroke="none" fill="black" font-size="18" text-anchor="middle">Random walks (source: db)</text>
    <g>
      <path d="M 20.76 600 V 23.6 M 92.915 600 V 23.6 M 165 600 V 23.6 M 237.225 600 V 23.6 M 309.38 600 V 23.6 M 381.535 600 V 23.6 M 453.69 600 V 23.6 M 526 600 V 23.6 M 598 600 V 23.6" stroke="gray" />
      <g text-anchor="middle" stroke="none" fill="black">
        <text x="20.76" y="614" text-anchor="start">-20</text>
        <text x="92.915" y="614">-15</text>
        <text x="165" y="614">-10</text>
        <text x="237.225" y="614">-5</text>
        <text x="309.38" y="614">0</text>
        <text x="381.535" y="614">5</text>
        <text x="453.69" y="614">10</text>
        <text x="526" y="614">15</text>
        <text x="598" y="614" text-anchor="end">20</text>
      </g>
    </g>
    <g>
      <path d="M 20.76 600 H 598 M 20.76 528 H 598 M 20.76 456 H 598 M 20.76 384 H 598 M 20.76 311.8 H 598 M 20.76 239.75 H 598 M 20.76 167.7 H 598 M 20.76 95.65 H 598 M 20.76 23.6 H 598" stroke="gray" />
      <g text-anchor="end" stroke="none" fill="black">
        <text x="18.76" y="600">-20</text>
        <text x="18.76" y="532.6167">-15</text>
        <text x="18.76" y="460.5667">-10</text>
        <text x="18.76" y="388.5167">-5</text>
        <text x="18.76" y="316.4667">0</text>
        <text x="18.76" y="244.4167">5</text>
        <text x="18.76" y="172.3667">10</text>
        <text x="18.76" y="100.3167">15</text>
        <text x="18.76" y="37.6">20</text>
      </g>
    </g>
    <g>
      <polyline points="92.915 528,92.915 95.65,526 95.65,526 528,92.915 528" fill="none" stroke="black" stroke-width="2" stroke-linejoin="round" stroke-linecap="round" />
      <polyline points="307 326,316.3596 331.7201,312.5617 340.5488,314.4668 350.299,303.6224 352.2317,305.4141 361.6172,307 365.7989,320.1709 377.5778,334 380,334 390.2509,340.4188 399,336 413,331.2141 399.4452,345 392.3979,330.7018 379.7102,341.4029 372,332 383.4472,329.6678 372.336,332 365.5177,324.2044 365,330.2477 355.4759,339 363.1908,350 371.3647,358.5964 369.7772,349.5288 367.2235,350 354,336.8231 363.6844,350.7719 354,340.6781 362,341.8077 371.803,336.7211 384.7916,343 397,357 385,365.4419 377,361.625 372,369 372.3696,356.5102 368.7353,351.4813 365.5625,349.1962 352.5206,340.5837 344.7721,346.3146 343,334.1939 352.7981,347.6805 360.561,338 366.6623,339 366,324.7063 380.4152,324.5927 389.4977,327.6954 381,316 380.7471,313.3225 372.3762,326.4487 374.7764,319 364,305.3951 368.7548,302.3581 378,307.5514 377.5089,300.3053 380,305.8435 385,293.3666 386,284.5656 382.6956,276 393.2141,287.332 398,281.3375 397,287 392,295.5311 399,293.4206 403,294 400.7798,297.6338 413.2313,294 407.2205,280.5055 400,286 403,284.4039 409.746,291.2506 410.3107,284.4718 424,280 411.7418,285 408,297.6068 421.6499,300.5639 430.6432,297.5895 440,293.2351 428.2449,299.7404 418.2648,287.488 424,295.6894 437.2487,286.7342 449.2996,296 457,293.7144 471,282.564 470.6235,291 475,285.7579 488.4389,274.202 498.5687,265.724 496.5557,261.6514 483,255.4204 472.5196,243.6382 471.7241,245 467,242.4724 466.4994,250.4907 476.5403,251.4033 474,259.5336 483.6936,257 497.3955,261.7601 487,257.5326 477.6741,262 491.5931,261.2347 504.6849,255.8439 496,245 494,232.24 505.3813,245.2903 517,236 504.3299,230.3677 512.5006,218.7206 512.522,206 520.59,198 513.5249,188.2175 511,180.7622 497,195 484.5374,206.4702 483,219 479,209 472.2629,219.156 486.2564,210.3507 478,218 476.3169,207.1863 483,199.5585 469,191.6308 473,197 468.2725,198.8817 464,209.4165 452,198.1155 465.5415,210 453.7177,206.2422 456.6084,211.579 459,200.3525 466,194.6875 464,185.198 457.601,198.757 461,200.7865 457,209.3868 453.2721,209.8636 447,196.1182 434.2424,207.6236 428.6565,199 425,185.3924 428,177.1774 426.2201,170 438,178.4557 445,180.1791 459,182 450.7358,190.2362 455.6816,179.5112 452.5265,174 458.6993,165.5599 462,170.8188 464.6112,175 458,184 456,198.1542 456,199.2274 451.3825,212.8302 445.5624,224.8608 455.3997,222.6096 449.5344,229.3262 440,222.5828 445.3632,220 448.4651,208.3083 451.6422,212.4179 444.7407,204.6216 441.2628,211.8689 451,197.8513 461,203 449,199.7618 454.4922,203.4348 460,190.1355 467,193 468.3468,188.6186 471.4546,178.1451 463.748,174.5094 458.273,176.466 446.7417,185 457.3392,183.6201 471.4279,191 479,204.7378 487,205 487.3431,214.4222 484.6003,225.4215 490,213.8041 499,200.7089 493,206 485.5403,214.1856 496.3432,201.6062 492,187.2083 496.4544,189.7384 492,193 479,206.7733 484.5702,201.4336 498.3628,190.4967 500,194.5869 508,183 502.4322,188 502.4211,177.6335 511,171 501" fill="none" stroke="red" stroke-width="2" stroke-linejoin="round" stroke-linecap="round" />
      <polyline points="321.6796 325,334.2853 313,342.738 320.6441,356.2163 311.7484,345.8078 325,342.2865 322.8343,328.567 309.7321,333.5544 309.2513,333.3216 320.6425,340.473 313.6815,326.6893 304.8343,322.4849 292.3515,318 300.6557,309 305.5106,296.758 315.2374,296 313.7331,297.6254 324.3387,284 334.5202,295.4344 345,300.7352 343.4014,303.6235 330.8098,296.5715 325,297 328.7611,294.2231 337.339,282.7024 325.1956,286.7523 334.7105,295.5008 343.7967,300.184 341.2996,308.7496 344,322 337.5144,320.4212 348.4352,313.4395 359,314 350.2162,321 346.2657,319 352.6503,327.6994 347.716,332.4214 346,340.8102 343.4768,334 347,328.4883 353,340 347,343.267 348.4432,343 360,342 357.2921,337.7893 357,352.1999 345.1813,340 332.3269,348.4912 323.3264,357.2827 331.7231,346.662 327.6327,356 339,342 326.2217,354 333,363.4404 339,373.2973 353,376.4257 361,380.3469 374.5581,384.5962 386,383 398.4856,379.6093 408.3999,374.6443 409.2772,379.2366 405.4264,380 395.2602,377.342 405.5158,382.6896 409.6321,395.2379 413,381.2066 417.2969,394.473 418,403.7911 421.7368,407 434,398.3332 445.3706,395.5194 450.4593,397 446,389.6817 453,376 463.757,372.5385 452.2511,363.5415 455,349.4806 452.3496,347.1949 457,344 463.7644,341.3625 473,347.4972 460.3662,359.2384 464,345 456.4659,344 455,348.5297 446,349 448,338.4107 461.2751,328.7537 471,341.4761 469.301,328 474.5398,325.2966 465,322.7936 463.5509,316 468.648,304 460.4938,303.536 454,305.6189 465.6702,299 471,307 475.2773,320.5589 466.7268,326 466,331.617 470.4643,320 460,319 447,325.6642 445,323.5595 439.4246,316 443.6556,311 434.4747,324 446,310.1777 450.3294,315.4486 452,323 438.6311,327.7535 434,317.4544 431.3938,321 440,307.4538 435,321.6905 431,313 420,307.7898 424.7128,316.8367 416.2363,329.2804 405,315 413,317.3091 420.696,327.442 414,334.8318 401,340.8257 387.7352,340 398.2302,340.3379 385.2978,343.6346 390.4232,332 401,321 395,316.2027 396.7796,330 401.6176,334.3574 406,331 408,329.4562 419,333.5482 417.5069,322.3395 404,336.3955 410.3201,331.796 402.2319,332 400.3138,339.6062 393,333 393.4318,341.7946 382.3983,352.3615 373.7614,357 387.4189,353 381.3937,345.6336 394,348.346 386.2554,362.6656 379.6784,361.185 393,366.3775 382,367 380,355 385.2147,357.7854 376.4848,352.7217 367,355.2674 365.34,346.6359 359.7172,336 362,347.3139 351.4065,360 360.2356,372 361,362 349.7127,375 336,371 344,383.2998 338,395.5806 331.2583,409.5681 324.6292,419 312.4424,416.7727 300.3425,414.2823 287,415.4995 283,401.3503 287.6247,395 301.6889,389.4598 308.6865,378 315.73,388.5692 324,394.338 309.7519,380 303.6684,369.6175 312.752,364 300.7074,375 312.4729,383.3071 324.4454,379.2288 310,390 321.2883,392 323.5774,397 313.2408,399 300.7867,410.2803 310.4853,397.4933 319.1894,397.7216 313.5702,408 307,412.4028 304,417 307,421.5493 297.1882,432 291,437 303.2132,432 304.4925,426.372 313.1887" fill="none" stroke="green" stroke-width="2" stroke-linejoin="round" stroke-linecap="round" />
      <polyline points="305.7628 302.1892,299 289.6371,284.7958 292,291.183 284.5419,277 295.6332,264.7087 293.7554,253 296.7419,246.726 308.1985,243 310,245.3712 314.5163,233 319.4456,238.5308 333.7525,239.161 347.5998,249.6729 356.342,250.6432 368,252 359.6793,264 351.3297,275.3367 365.5155,284.1623 378.513,295 364.2089,301 361,308 373,318.3596 385,310.8192 391.5713,316.2332 394.6377,313 394.5805,320.2507 384.7867,330.2112 391,317.2928 402.7248,306.1796 395.6442,294.1803 388.2523,279.801 383,272.508 378.6883,280 374.234,267.7251 388,264.339 376.3164,263.3139 383,262.4669 374,254 384.7708,266 387,264.4685 392.4082,257 382,265.8238 389,272.3171 377,270 363,258.1327 353.3932,268.2576 360.5333,261.8166 367,251.328 358,257 350,261.1552 356.7149,249.2394 363.6759,257.5607 377.5199,258.5258 382.6665,252.4218 387.4288,255 397,245.2261 387,252.5709 391,245.3203 388.5002,257.8027 380.1967,256.1604 376.3184,252 370.2862,252.615 384,257.6353 373.2038,257.1943 383,251.5192 392,261.3308 385,255.482 390.7724,244.6967 392.494,258.437 385,271 397.3561,283.2896 385.4578,292.2609 396,303 382.3967,309.8435 382,305.3103 371,308 376,296 390,302 396,291.3117 401.5314,290.2165 391.5288,289.471 402.2277,299 397.1995,300.2784 385.7184,297.544 389,284.6935 383.3294,288.2066 370.4326,274 373,272.1948 375.3837,259 366.3167,245.8233 362.2768,240.4125 364.449,250.1663 373,250.4982 379.6975,253.6756 378.4236,258.5055 390,262.3343 385.4085,249.8587 372,260 363.4386,268.2498 363.435,280.2376 373.3775,287.2718 359.6407,274.652 355.3528,288.3098 365.6768,290 354.2104,283.1981 362.5679,289.4821 354,302.2308 349.6892,289.354 340.433,283.1767 338.6024,289.5519 324.8221,291 335,291.3736 333.4766,298.6496 342.3803,300 355.3595,314 369,315.322 378.4964,308.8209 381.3137,301.6945 388.1984,296.1719 388.2216,309.3458 396.6026,300 409.7765,312 401.6189,321.4341 411.7187,319.7434 406.7766,320.6477 400,311.8221 388.4787,314.476 385.2542,317 387,303 396.5914,302.3483 408.6408,305 417.5743,310.4195 420.3119,315 427,304 422.4362,313.528 430.7655,300.1549 420,307.4644 412.4503,316 415,329 406,336.2542 393.2718,348 391.3983,335.2315 388.8045,335 402.727,329.7469 393.4979,333.3487 381,340.7348 390,347 403.2134,357.551 409,371 422,378 433.6669,388.6219 424.5199,389 422.6992,381 426.6058,370.7428 429.6752,360.2931 426,360 430,355.6518 417,368.5768 403,364.6106 415,355 405,350.5751 415,363.7262 423,365.4673 425.4439,355 429,363.346 428,373.6727 442,362.3533 444,366.4553 446.3433,360 437.2836,370 433,359.5656 426,362.6708 419.2733,369.4712 417.4494,366 407.7251,378.4162 394.7168,372.7455 403,364 398,377.2735 405.3426,375.8095 404,373.3989 402.6398,369.6728 400,383.4708 392.5262,397 394.7967,386.7144 403.3813,379 395.6035,371 394,383.3042 396,375.7162 385,389.5423 397.3884,399 383.7197,393 387.8056,384 396,392 397.6463,386.3563 401.5501,398 387.2334,393 394,386.2509 385.7552,398 394.6082" fill="none" stroke="blue" stroke-width="2" stroke-linejoin="round" stroke-linecap="round" />
      <polyline points="298 316.6205,307.5028 306.6092,320.4931 309,307.3114 322,316 325.6099,306.6438 332,295 320,293 319.7598,284.426 319,277.3171 306.4525,288 300.1531,289.7122 293.5096,277.726 297.4922,288.727 289,283.4065 292.4373,273 306.8238,286 316,294.6763 325.1827,293.3813 324,284.2857 330.217,274 344.5171,270 334.7361,262 336.6738,259 336.2412,250.6694 349.2858,245.7701 335.4722,248 337,242.1529 330.6074,232 327.332,232 339.7661,232 344.4189,217.8854 346,209.3395 357.2027,214.7231 355.6613,211.5714 349.768,222.4447 353.6421,223.2048 342.3728,216.4629 343.7689,216 347.7889,217.8148 339.503,228.5453 342,222.2922 334.3027,228.163 340.8127,226.5281 348,227.2103 356.4969,214.8241 363.2799,203 369,198 374.5109,210.3519 367,203.4645 355.2336,203 369.2078,202 381.1956,195.5661 368,196.48 354,194.807 358.7373,187 366,194.8321 363.3967,205.2491 364,216 352.4403,203.6446 347.591,191.3718 351.8231,180.6169 348,169.7688 360,176.5777 354.7392,186.5632 343,192.7072 333.4818,186.5986 334.7028,188 337.6505,186.8168 338.1805,187.3205 351.4773,177.1722 343.6439,187.7159 352,176.5229 359.7506,187.4565 361.3854,201.2892 361.4881,190.209 354,179.2335 348.1912,193.5544 341,202.6103 343.2892,190 351.1937,200.3363 343,202.4805 351.4631,201.8385 342.2746,190.5536 330.6578,178.3819 324.2746,164.4775 314,159.1355 312.5631,146 307.7538,160.3223 313.454,170 323.504,156.7056 318.6851,150.0899 312.4931,137.539 323,132.2291 322.5196,124.7278 333.2862,113.5201 337,100.8857 336,87.3016 335.3476,82 348.6192,68.2244 346.2547,74.3391 355.4728,76.3892 367.4316,75.4007 358.3087,66.4269 359.3253,78.061 366,86.2164 378,79.695 370.2135,90.3093 376.2394,87.7449 381,78.8653 386,88.6536 384,98.5737 382,103.6896 380.2505,95.3843 380.5228,90.8948 388.3341,85.5827 376.2363,98.9397 362.7495,100.2293 369.2204,96.336 375,109.6748 364.5984,118 364,117.5419 357.2243,128.7924 351,141.7031 348,151.4917 345,152.9209 335.6764,151.3787 325.7682,144.3856 312,151 321,156.3898 327,144.7584 337.5537,142.8368 324.634,135.2612 323.3946,133.5216 333,139.1561 338.5378,126 328.462,133.5969 341.5262,132.2219 346.7427,136.7333 352,142.4867 365.205,154.2579 361,151.3232 351.8038,158.2626 357.1832,146.4253 353.1888,144.2458 342.5995,134.1433 333,144 341.5665,137 338.2811,130.794 338.6653,131.7371 341.758,120.8776 348,129.8563 339.3579,118.3524 333.7897,129.3034 330.6023,142.6035 328,141.6909 331,144.1097 326.2344,158.3229 336.333,153.2802 325,158.6544 330.5178,160.4642 343,150.3706 356.4165,160.3475 367,156.6664 372,162.3415 384,148.1701 393.577,150.1371 397.7916,137.903 404,131.1166 397.4152,137.2784 411.2487,147 422.5835,144 424.7814,130.4842 436,137.4631 430.6605,145.7998 417,157 423,161.5437 418.2949,153.673 411,165.4948 408,173.6193 414.496,183.5647 419.371,177.9089 417.5235,181.126 418.5061,190.7024 411,191.4371 400,188.5754 403.3022,202.4399 408.6573,191.8556 398.4307,197.3185 403.5904,206.1838 398.4529,204.8149 397.592,217.8009 396.4295,206.3693 398,200.7064 385,198.8967 388,206.5618 380,194.4313 375,207 372.6707,200.5204 360.2069" fill="none" stroke="lime" stroke-width="2" stroke-linejoin="round" stroke-linecap="round" />
      <polyline points="296.8181 312,288 310.5179,285.2459 299.531,273 300.5394,266.8076 311.8048,276.7553 307.5012,272.476 306.5754,271 319.261,266 332.6948,254.476 322.6275,262.5982 328.495,248.6767 317.5017,236.2027 325,246.264 322.7414,244.4957 314.6437,256.5652 312.4148,268.7326 325,269.2949 319.4659,279.2864 320.1642,283 326.2513,289.6421 324,303.7836 323.1759,295 314.7296,293.4952 325.367,306.8391 325.5037,297.2543 334,290.1614 321.8036,299.1842 335.208,305 340,303.1745 333,297.2003 339,309.6354 331,319.1942 324,332.4635 316.4998,339.5582 322.5196,345.4656 310,347.51 303.641,338 304.6432,339 298,339.5346 305.6056,353.5581 306,342.5425 296.2496,338.6677 283.249,325 275.7039,330.3008 269.4977,317 269.3734,317 275.1577,305.1799 272,301.3117 258,293.6376 261,298.2102 271.5918,288 283.4478,298.1513 275.2082,287 281.5232,291.8386 294.2629,279.1578 303.2299,287 310.4825,294.2748 320.1824,298 315,302.1634 324.5446,301.167 331.6745,296 336.5114,308 345.5585,305 337.4341,292.7289 329.4297,304.417 326,316.6897 327.2777,324.7306 313,324.5905 314.3282,337.6547 308.6861,337.7824 311.6852,344 298,344 299,344.3701 312.3427,353.7157 306,357.395 300.1967,366.3011 302,368.3762 309.5848,370 305.2416,372 314,365.431 327.2833,363 325,359 320,355.5647 321,347 320,338.7784 328,336.7273 324.1746,337 332,339.1845 326.1838,331 337,341.5037 341.6586,343.2715 342,343.6088 347.3448,333.5435 341.628,338.7096 329,338.6421 319,338.7321 305,329 310.6595,337 313,338.7365 301.7741,330.4702 314.2904,316.5435 311,329.404 318.3799,329.5601 320.4612,329.37 311,340.5048 308.7124,339.7185 297,338 302.6471,337.461 298,329.8015 291,326 303.612,332 292.5153,343.6815 278.6257,330.6256 265,342.1892 253.7166,328 248.7874,319.2569 237.232,312.7779 250,315.2972 244.4489,316.253 247,303.7847 240.5598,289.5934 238.2798,278 239.5649,280.3482 247,287.692 254,298.2569 257,303.6527 258.4039,298.4533 270.1373,301.6765 283,300.7683 285.7622,294.7692 293,294.3968 282,303 287.4961,305.6202 283.7336,312 280,299.4277 290.4048,307.7569 297.2546,309.7314 310,312 316.2411,299 330.2205,291.3077 329.7606,298.5886 343.2872,298.801 348,302 342.2303,290 349.5093,300.5418 344.7917,291 343.6948,287 353.6549,284.2889 352.7781,288.822 341.7394,282.2958 327.6661,278.4787 323.4133,275.4587 325,281 318,268.4006 331.6743,264 337,262.4303 324,256.685 332,254.6953 336.7851,252.1477 336,241 328.6553,244.8274 321.3486,243 330.6972,250 320,261.4202 313.5644,250.6106 319.5278,256 332.7817,249.8436 336,258.3983 349.6731,251.87 345.7234,237.5751 351.2358,244.3853 352.2419,251.3827 359.577,257.5419 369.4682,261.2741 361,248.6487 367.4331,243.774 356.3679,231.3333 359,245.6277 370.6834,258.7671 383,260 384.4531,265.3122 390.6288,264.493 380,254.7562 368.6681,243 378,235 377,229.6305 377.8107,217 383.5304,202.6351 394.4254,207.2043 392.7753,206.1137 406.4532,213.5746 418,219.3174 420.7229,230 432.326,225.7732 445.5295,238.3968 442,233.742 452,245 456,234.2275 457" fill="none" stroke="orange" stroke-width="2" stroke-linejoin="round" stroke-linecap="round" />
      <polyline points="305.4377 302.6171,292.7478 295,304 307.6063,309.1563 301,316.5986 290.4796,315.6553 286.2444,318.1674 288,307.5966 286.7051,308.3708 291.1544,315 280,315.2531 283.4974,315.5209 276.6522,309.797 267.2815,314.4368 261.4388,317.1903 274,321.4254 263.3388,326.2849 253.4812,316 254.7814,322.3336 242,310.3057 250.41,302.7715 257.4949,307 260,319.2618 255,325 243.3235,335.3225 257,333 252.5999,339.5731 241,331 241,342.5876 250.1352,329.3908 252.3151,320 265.7504,317 261.8498,321 251.5772,314.8071 258,326.4483 270.8365,329.2064 281.3114,336.6705 292.3668,346.3776 298.3781,359 294.5885,366.6257 303,371.5849 298.6356,368.7055 297,369.7643 287.2083,384 278,384 289.4924,388 276,379.6774 286.3916,370.7337 298.2231,371 306.8261,382.2209 295.5513,393 294.6155,391.4464 289.815,388.7251 288,376 286.5517,378 294.7039,368.6087 296.5092,380 282.3003,386 287.2411,381.2548 275,374.5206 272.1425,381 278.433,393.2435 285.6316,407.4406 279.6953,408.2371 277.4682,419.557 267.1642,406.3675 272.4029,392.1982 274.6455,398 277.8364,400 287.535,391.4454 292.3777,384.3787 286.2482,392.4652 291.7586,402.2108 296,412 290.2498,412 282.5107,420 290.5671,431.6456 295,419 281,433.2213 276.2434,420 290.3048,428 284.7899,438 271.543,441.708 262.532,438 265.23,441 270.7646,445.669 259.735,444 248.493,451.7654 255.3851,439.2946 260.6883,442 258.3449,432.3082 253,427 256.3601,416 250.3092,408.6597 259,420 263.6672,429 276.4027,429 272.204,435 273.2335,425.5167 272,436.5805 278,434 273.1766,429.6022 269,427.2193 278.5518,426.5874 291.1811,414.4658 293.1937,410 284.4713,397 289,400 287,403.4159 284.6635,417 292.6206,417 305,424.6178 303.462,438 314.5451,439 321.2271,437 309,429 319.4851,426.2666 326,434 320,427.23 310.1754,419.5798 322.7593,410 320.5416,418 314.2795,408 317.3694,417.3608 313.5051,425 323.5194,434 333,420.2584 333.5801,424.4771 329.7221,424 339,426 339.6253,411.6075 346.4549,408.2605 339.7581,422 326,424 330.2265,434 321.5858,447.475 328.6432,462 326,466 333.6357,478 344,483.6935 331.5917,492.4307 340,506.2834 330,520.5869 321.3536,533.5503 329.4749,525 337,524.5433 346.2294,536 336.6105,531.6261 343.6356,521 352,514.5665 357.4463,520.4443 370,522 361.2091,514.6693 357.3956,508 346,508 350,520 349.4713,516.6899 358.4906,505.4145 364,491.6771 353.3082,503 343.4876,502.6348 347.7135,496.5075 358,490.3848 363.6554,490.4811 372.5871,491 372.6447,481 370.3853,492.5246 363,493.7285 370.3318,500 378,510 384.2725,501 376.2512,493 382.6101,498.5153 386,495.4624 374,506 360,508 363.3572,510.3602 366,524 372.796,533 364.5239,527 356.4513,532.4123 348,533 358.194,532.3844 345,544 350.2866,548.4224 364,555 361.4884,551.5718 368,539.539 375.6096,537.4779 377.7814,527.5006 372,513.3638 381.4289,507 390.7497,516 377.7368,515.2974 382.4887,525 375,529.5399 363,517 360.2245,510.5452 346.7653,498 335.6798" fill="none" stroke="cyan" stroke-width="2" stroke-linejoin="round" stroke-linecap="round" />
      <polyline points="321.3835 324.5568,332.489 324.3881,344 325.3031,358 330.6139,349 326.7905,362.7157 334,368 340.6056,364.4055 337.3099,372.1929 337.4503,384.617 333,371.2059 329.6949,357.7864 337,358.7943 339.777,364 342.4321,373 341,375.786 337.6011,376 336.6586,361.5985 346.7735,356.1845 354.6037,347.2989 349,345.6353 358.8142,350 368,344.3264 376.7713,349.4585 376.6547,335.411 370.7203,326 377.5992,314.699 375,316.3316 382,330.6283 385,320 376.2429,320.4114 377.2435,323.4633 378,321.5249 391,330 389.7003,336.2852 402.4178,335.4986 407,336.2459 401.3427,329.2117 394.5813,335 407,345.208 403.3314,338.542 392,325.3865 390,335.574 383.387,347.4965 383.8002,359.447 397,369 405.7555,373 391.5876,373 381.6211,378.3077 371.6659,364 372,368.3344 365.5647,381 374.7558,381.6872 371.2418,378.7735 359.1939,379 371.4758,383 364.4134,388.723 364.7263,387.7887 354.5185,393.6265 348.6095,403 360,408.5905 349.7986,415.322 337,412.3017 329.6258,420 322.5062,420.3597 323,432.5302 331,427.2608 340.6682,437 331,433 334,441.3905 330,439.4025 317,440.2807 328.5447,436.4579 332.7759,426.3901 329,428 323.2825,439.6798 331.5804,433.2585 327.6008,440 322,427.2616 313.8127,420 326,433.3306 337.2378,446.2262 345.5136,437.746 333.5837,444.3537 320.3721,431 315,429 321.5488,427 313,426 300.42,438.7039 297.395,427.7584 308,429 298.5545,443.3049 292.2794,429 280.5606,431.5546 291.2926,437.3609 278.6658,431 276.5347,434.5405 273.5149,430 272,442 270.6131,432.428 268.5573,439.4956 280.7345,450 281.4396,441.7144 289.4275,429.6006 279.3459,439 281.8163,453 289.8059,438.5125 280.3034,446 289.4742,441 301.5743,442.4566 300.6546,446.2713 290.7833,456.2889 295.2985,454 305.3216,456.3911 308.5577,462 314.2102,458 310,448 317.4648,449.5833 312.7149,438.6686 315.2945,437.3148 318,425 312.644,430.5802 320,431.6207 310.5051,438.5878 324.6382,433.3321 332.6638,444 327,451 341,458.2608 351.2752,449 352.3048,452.2637 359.393,462.7127 352.7527,476 363,475.3205 367,472.3328 378.3792,484 389.1993,471 403,479.4793 392.4777,474.3832 401.4005,468 403.374,471.3196 410,478.2517 403.3429,490.6366 390.6794,497.7086 378,506 381.2227,492 389.4166,505 384.7666,514 397.5351,522.3265 404,516.4069 405.7061,526 399.7047,540 414,538.307 410.5191,537 413.7107,548.276 413.4526,538 416.6886,535 423,523.7007 413,529.4424 399.5143,535 399.55,547 396.253,558 385,558 393.3557,553 382.3198,551 385.362,543 377.5386,528.4348 367,518.6633 375.205,512 377.3163,514.5569 370,514 365,501 361.7605,503 374,516.7174 371.2056,516 379.5698,516.7297 369.5057,522.4156 381.4314,517 369.3025,505.725 365.6356,516.3594 360.4044,520 373.7272,514 381.3035,507 376.6165,502 390.5381,489 393,487 391.4309,481.7341 382.7805,494 371.3152,507 375,505.3604 364,496 352.5216,505 358,490.5536 357.2566,482 366.2654,478.4303 369,485.4851 363.3289,494.2842 355.3169,491.4067 359.6679,488 359,487.4586 357" fill="none" stroke="gold" stroke-width="2" stroke-linejoin="round" stroke-linecap="round" />
      <polyline points="321.3948 316,323 324.7966,325.1721 322.4302,330.2539 324,319.7975 328.1651,313.3022 337.1784,325.5882 331.3495,338.3399 318.5876,331.7765 324.2456,331.6631 327,329.3415 339,341.5651 328.5321,344 332,346.7738 331,343.2742 324.3165,336.2346 328.2195,345.7186 322,337 326.7562,337.63 336.575,344.5499 333,340.637 338,331.5998 346.8124,333.6792 345.5567,343.523 337,350 334.6106,342.5321 336.3055,354 328,361 317,370.738 324,382.5032 310.5333,385 308.2768,394.7372 299.4772,406.2547 300.3974,417 302,415.3442 302.2672,418 316,410.3347 306,397 294.6737,409 295.6248,420.3792 284,417 276,408.5806 279,399 284.6041,413 280.6455,408 292.2991,418 279.8328,432 292.816,440.6435 298.4397,432 298.6687,426.2709 286.278,416.2174 290.1748,406.59 284,406.3891 284.2746,418 281.678,418.2547 271.2608,421 259.7399,425 253.2634,426 264.3983,428.2255 253.5224,435.5549 240.3416,428.5063 230,419 244,405.5512 252.4206,397.6038 244.2382,398 233.4603,394 243.5524,387.7731 252.4282,395.5177 239.7877,397 238.2738,398.678 232.5755,408.2536 223.2047,406.6901 223.1475,405.6828 232.8493,393.3887 223.5613,391.6954 233,378.4321 246.7111,376.4127 244.65,388.4499 237.1934,385.6614 234.7188,372 244.4781,370 241.8734,375.2055 229.7699,371 232.8238,360.7962 239.1558,352 229.8175,355.3959 221.5118,343 222.1779,347.2604 230.2152,348.2451 243.459,352.4897 240.5247,356.6657 253.7557,358 257.7025,350.2127 243.6473,351 237.6796,350.7132 226.4092,341 226.8324,347 236.268,336.5699 236.5881,337.6341 225.8437,341.7544 233.4766,336.8107 223.8726,327 229.2817,322 226.3653,328 236.3252,326.2621 226,330.8004 215.5228,341 214.7769,334.4797 220,335.282 208.3806,329 200.1275,322 207.6815,309 210.764,318 213.1705,321.4888 225,316 224.4001,302 230.7544,311.1715 242.2462,319.4442 238.3251,311.657 247.5929,316.5426 245.6724,312 236.8339,313.3787 224.4641,309 226,318.4689 231.606,326 223.5021,330.6158 220.56,341.2768 230,354.5122 219.37,350 233.7045,364.5551 222.3522,368.5856 208.6875,358.6653 214.2838,355.6361 224,346.3131 213.5172,346.6404 216.1653,344 210.3803,350 213.2696,338.4043 218.3467,332.66 227.5969,335 214.4614,337.431 227.3688,327 214.8339,340.8028 218.3493,339.4758 225,344.6769 213.2959,347 207.3265,333 197,334.5478 210.1523,329.7877 203.2957,321.2884 194.5404,324.5639 190.4018,336 178.583,330.5453 189,336.1876 181.8813,329.6741 184.5378,339.8137 194.1388,328.2196 181.4655,314 189.7898,300.2754 191.166,306 199.2023,295.1656 199.1284,287 197.1096,284.8338 203.8908,294 210.668,295.6738 224,306.3848 233,311 218.8454,303 213.2454,290.5833 201,295.2317 195,282 198.4365,284.7562 205.4777,292 203.5507,283.791 193,288 200.2336,283.6352 195.3872,287.6759 197.3397,292.4666 210,284.6478 221.6341,290 215.265,296 211.5422,291.2642 211.3581,289 221.6184,298 232.1693,291.8063 225.1515,302.3035 236.7633,310 244.2325,322 255.7922,336 262.1763,329 252.6694,324.3312 262.404,318.6587 250,320.1689 250.2606,322 261.5149,324 255.4065,309.4966 264.447,322 264.6466,315 261.4375,312 274.3723" fill="none" stroke="dodgerblue" stroke-width="2" stroke-linejoin="round" stroke-linecap="round" />
      <polyline points="322.4857 316.2223,321.481 320.2368,330.3999 324.2362,325.6458 325.6368,339.325 314,326.4502 301.6785,329.2714 312,324.3085 307,337 298.8102,332.3266 299.2382,340 296.6179,341 309.3254,331.6182 320,323.6517 314.2571,325 315,326.6569 324.5569,317 321.1959,330.6841 330.1858,331.6182 338.7409,319 325,327 316,331.431 328.4365,327.2904 314.4433,326.6566 308.3665,340 302.2255,330.7133 290.3497,337.6126 298,324.3854 303,322.249 310.1794,318.7927 311.3841,310.5475 300,314.6265 287,318 296,305.5791 302,307 291.4191,316.1848 279.2634,323.7471 278.8537,319.6732 288.8472,305.5102 280.8076,308.7635 287.5371,297.8039 301.3126,296.6383 308.7114,307 321,306.5503 322.2198,311.3523 331,314 338,311 346,320.3618 345.6584,306.3965 346.1973,316.4583 357.5578,326.3292 352.6732,333.4708 345.8115,320 348.3704,329.6002 342.6234,337 339.234,333.5504 329.603,323 319.4305,332.5469 320,335.2205 313.6953,321.3658 323.5154,330 329.6448,327.4726 322,332.8095 334.6435,330 342.5121,328.3141 345.6346,324.4089 337.5672,323.7091 333.7898,315.2376 339.3277,314.2866 336.3731,312.1617 328.3306,308.2542 336,302.5698 336.624,312.6626 329.6464,304.5213 316.2999,315.7463 312.2582,316.2093 301.588,321.241 298.4244,308 297.7359,318 300,330.7551 303.6636,328.5548 295,326.6646 303.7294,330 315.5008,318.8107 312,319.8113 323,317.2812 337,327.5284 326.814,315.4683 331,308 326.623,308.5122 325,319 323,321 316.2326,313.3456 309.2443,325.7128 306,337.6095 311.2122,332.3019 309.2313,319.5463 308.5739,308 306,321 319.8151,316.2968 333.7348,311.8068 338.3307,297.5221 348.5832,301 349,306.4236 353,312.5644 349,320.428 355,320 367.1856,315 367,324.3693 354.7965,331.2455 361,328.429 353.8228,339.8161 341.2882,336 346,343.1865 346,353 348,343 351,344.298 345,340.739 331.2963,330.4989 334.3349,322 344,332.2918 332,345.3833 330.399,332.1888 343.6995,324.6876 330.6421,319.8308 317.769,316.359 331,324.5637 324.388,327 323,332.7357 332.3407,328.2135 335.4052,317.3577 331.7927,319 341.81,329.4461 353.8185,326 362.5085,333.4758 371.598,321 362.4711,317 355.3399,323.2566 344.6749,319 336,319.4401 326.7088,313 338,317 326,311.4689 324.2401,313.766 336.3019,317.173 328,311.6485 342,307 344.6018,310 354,297 342.6334,298.4978 344.6704,306.5848 356.5344,312 346.8263,309 349.6439,321 359.5401,325 359.6508,325 355.6418,327.2926 350.7309,320 343.2857,318.5016 350.3929,308.7009 343,321 332.3201,329.2078 319,343 318,349.4143 330,336 341.2104,339.4977 328.2614,338.7528 316.3022,330 310.6603,334 321,328.502 315,329.3236 309,329.4102 299.6472,332 297.495,341.6338 287.2355,346 273,350 262.3195,350.7429 253.1973,346.6503 255.4567,352 243.6119,362 232.7391,366.2358 220.7897,380.4446 230.7146,374.2032 235.7829,373.4433 226.3325,384.5392 222.549,372 225.7318,377.4302 215.1584,367 204.6023,376 196,380.2392 181.785,387 183.5412,401 183,414.6134 181,422.5793 175.2139,409 186.136,420 199,418 197.6908,428.5295 205.7832,423.7601 195.7717" fill="none" stroke="gray" stroke-width="2" stroke-linejoin="round" stroke-linecap="round" />
    </g>
  </g>
</svg>