<?xml version="1.0"?>
<svg xmlns="http://www.w3.org/2000/svg" width="625.292" height="644.2" viewBox="0 0 625.292 644.2" transform="translate(0.5, 0.5)">
  <title>Random walks (source: db)</title>
  <g class="layout">
    <g fill="black" font-family="sans-serif" font-size="16" text-anchor="middle" transform="translate(202.326,0)">
      <text y="16" x="109.82">Random walks (source: db)</text>
    </g>
    <g transform="translate(0,26.6)">
      <g class="y-axis-labels" font-family="sans-serif" font-size="12" text-anchor="end" stroke="none" fill="black" transform="translate(22.292,0)">
        <text x="-2" y="600">-20</text>
        <text x="-2" y="529">-15</text>
        <text x="-2" y="454">-10</text>
        <text x="-2" y="379">-5</text>
        <text x="-2" y="304">0</text>
        <text x="-2" y="229">5</text>
        <text x="-2" y="154">10</text>
        <text x="-2" y="79">15</text>
        <text x="-2" y="9">20</text>
      </g>
    </g>
    <g transform="translate(22.292,25.6)">
      <rect x="0.5" y="0.5" width="601" height="601" stroke="black" fill="none" class="frame" stroke-width="1" />
    </g>
    <g transform="translate(23.292,26.6)">
      <g class="plot" clip-path="url(#id17)">
        <defs>
          <clipPath id="id17">
            <rect width="600" height="600" />
          </clipPath>
        </defs>
        <path d="M 0 0 V 600 M 75 0 V 600 M 150 0 V 600 M 225 0 V 600 M 300 0 V 600 M 375 0 V 600 M 450 0 V 600 M 525 0 V 600 M 600 0 V 600" stroke="lightgray" class="x-grid" />
        <path d="M 0 600 H 600 M 0 525 H 600 M 0 450 H 600 M 0 375 H 600 M 0 300 H 600 M 0 225 H 600 M 0 150 H 600 M 0 75 H 600 M 0 0 H 600" stroke="lightgray" class="y-grid" />
        <g fill="none" stroke="black" class="graphics" stroke-width="1" stroke-linejoin="round" stroke-linecap="round">
          <a href="https://en.wikipedia.org/wiki/Random_walk">
            <polyline points="75 525,75 75,525 75,525 525,75 525" stroke-width="10" stroke="blue" opacity="0.25" />
          </a>
          <polyline points="297.499 314.695,307.255 320.736,303.307 329.926,305.287 340.075,294.015 342.087,295.878 351.857,297.474 356.21,311.216 368.471,325.576 371.107,325.694 381.663,332.263 390.964,327.509 405.258,322.695 391.234,337.059 383.898,322.163 370.691,333.286 362.566,323.652 374.581,321.088 363,323.43 355.917,315.409 355.209,321.691 345.464,330.904 353.495,342.1 362,351.157 360.351,341.732 357.693,342.279 343.933,328.525 354,343.024 344.043,332.532 352.169,333.706 362.46,328.419 375.98,334.769 388.623,349.608 376,358.272 367.834,354.305 362.473,362.143 363.05,349 359.266,343.761 355.964,341.386 342.388,332.434 334.322,338.391 332.625,325.792 342.677,339.811 350.757,329.717 357.109,330.831 356.52,315.931 371.425,315.813 380.879,319.038 371.925,306.914 371.77,304.098 363.056,317.742 365.555,310.04 354.201,295.858 359.287,292.701 368.947,298.099 368.399,290.568 371,296.324 376.253,283.355 377.438,274.207 373.798,265.264 384.748,277.083 389.839,270.852 388.691,276.653 383.561,285.605 390.763,283.411 394.844,283.912 392.623,287.791 405.584,283.927 399.327,270 391.94,275.564 394.887,274.039 401.956,281.156 402.544,274.11 416.664,269.462 404.034,274.746 400.266,287.763 414.348,290.836 423.709,287.745 433.254,283.219 421.213,289.98 410.824,277.245 416.799,285.77 430.585,276.461 443.129,286 451.162,283.717 465.746,272.127 465.326,280.866 470.096,275.446 483.871,263.435 494.416,254.623 492.32,250.39 478,243.913 467.3,231.666 466.472,233.15 461.753,230.454 461.033,238.789 471.485,239.737 468.843,248.188 478.932,245.626 493.194,250.502 482.154,246.108 472.666,250.849 487.154,249.956 500.782,244.353 491.763,233.117 489.802,219.818 501.507,233.383 513.615,223.607 500.413,217.872 508.918,205.766 508.94,192.533 517.339,184.196 510,174.06 507.34,166.311 492.526,181.03 479.81,193.033 478.199,205.958 474,195.74 467.033,206.219 481.599,197.066 473.07,205.108 471.253,193.777 478.295,185.848 463.878,177.608 467.774,183.279 462.879,185.145 458.359,196.095 445.94,184.348 460.036,196.756 447.728,192.796 450.737,198.343 453.092,186.674 460.616,180.785 458.63,170.922 451.771,185.015 455.225,187.125 451.138,196.064 447.264,196.56 440.649,182.272 427.456,194.231 421.641,185.28 417.873,171.124 420.942,162.585 419.105,155.098 431.336,163.914 438.798,165.705 453.302,167.609 444.624,176.158 449.773,165.011 446.488,159.206 452.914,150.509 456.114,155.975 459.068,160.369 452.233,169.679 450.109,184.389 450.047,185.504 445.298,199.643 439.239,212.148 449.479,209.808 443.374,216.79 433.473,209.78 439.032,207.162 442.261,194.943 445.568,199.215 438.384,191.111 434.763,198.644 445.098,184.074 455.294,189.442 442.894,186.06 448.535,189.878 454.049,176.054 461.69,179.07 462.956,174.477 466.191,163.591 458.169,159.812 452.47,161.845 440.467,170.739 451.498,169.281 466.164,176.934 474.241,191.232 482.478,191.478 482.731,201.298 479.875,212.731 485.286,200.656 494.715,187.044 488.494,192.626 480.854,201.052 492.099,187.977 487.327,173.011 492.215,175.641 487.642,179.109 474.16,193.348 479.844,187.797 494.201,176.429 496.056,180.681 504,168.664 498.437,173.83 498.426,163.059 507.519,156.102 496.935" stroke="red" />
          <polyline points="312.785 313.585,325.887 301.205,334.673 309.206,348.683 299.946,337.864 313.873,334.204 311.486,319.944 297.847,325.128 297.347,324.886 309.204,332.319 301.959,318 292.749,313.622 279.755,308.884 288.399,299.758 293.453,286.88 303.578,286.056 302,287.782 313.052,273.52 323.65,285.504 334.56,291 332.895,294.017 319.788,286.686 313.712,287.213 317.656,284.246 326.585,272.271 313.944,276.48 323.849,285.574 333.307,290.441 330.707,299.345 333.34,313 326.767,311.477 338.135,304.22 349.165,304.854 340,312.12 335.877,309.925 342.523,319.042 337.387,323.95 335.64,332.67 332.974,325.57 336.768,319.862 343.017,331.814 336.671,335.223 338.144,334.785 350,334.021 347.355,329.529 347.138,344.508 334.748,331.819 321.367,340.653 312,349.791 320.739,338.752 316.481,348.588 328.422,334.02 315,346.32 322.169,356.192 328.211,366.438 342.822,369.689 351.08,373.765 365.328,378.182 377.334,376.49 390.235,373 400.555,367.838 401.468,372.611 397.46,373.317 386.877,370.642 397.553,376.2 401.838,389.243 405.132,374.659 409.816,388.448 410.477,398.134 414.438,401.386 427.16,392.46 439.039,389.536 444.336,391.27 439.873,383.468 446.829,369.205 458.179,365.649 446.202,356.297 448.968,341.682 446.304,339.306 451.368,336 458.186,333.243 467.643,339.62 454.649,351.824 458.656,337.173 450.589,336.02 449.232,340.693 439.884,341.232 441.851,330.175 455.595,320.138 465.955,333.362 463.95,319.185 469.403,316.544 459.369,313.942 457.964,306.864 463.27,294.256 454.782,293.926 447.84,296.091 460.17,289.156 465.565,297.651 470.171,311.62 461.27,317.342 460.322,323.114 465.161,311.181 454.413,309.967 440.665,316.926 438.434,314.739 432.85,307 437.254,301.599 427.697,315.094 439.782,300.829 444.201,306.308 446.069,314.109 432.024,319.098 427.042,308.393 424.49,312.221 433.634,298 428.288,312.796 423.888,303.819 412.775,298.347 417.536,307.751 408.712,320.685 397.17,305.756 405.308,308.242 413.355,318.774 406.265,326.455 392.947,332.686 379.044,331.68 389.969,332.179 376.507,335.605 381.842,323.561 392.818,312.239 386.497,307.092 388.459,321.357 393.495,325.962 398.023,322.531 400.229,320.868 411.722,325.121 410.035,313.47 395.802,328.081 402.554,323.3 394.135,323.486 392.138,331.418 384.588,324.379 384.974,333.693 373.489,344.676 364.498,349.423 378.715,345.395 372.443,337.683 385.554,340.502 377.504,355.387 370.658,353.848 384.696,359.245 372.924,359.785 371.044,347.551 376.421,350.314 367.333,345.051 357.381,347.697 355.732,338.725 349.879,327.834 352.266,339.43 341.228,352.765 350.419,364.899 351.357,354.833 339.465,368.34 325.269,364.094 333.521,376.834 327.138,389.599 320.255,404.138 313.354,413.735 300.669,411.627 288.073,409.038 274.243,410.304 270.017,395.597 274.835,388.846 289.475,383.237 296.759,371.5 304.091,382.312 312.625,388.308 297.868,373.58 291.535,362.613 301,356.851 288.453,368.138 300.7,376.842 313.163,372.603 298.169,384 309.877,386 312.26,391.257 301.5,393 288.536,404.879 298.632,391.587 307.692,391.825 301.843,402.455 294.91,407.085 291.881,411.708 294.878,416.592 284.79,427.286 278.232,432.554 291.062,427.393 292.393,421.605 301.446" stroke="green" />
          <polyline points="296.24 290,289.257 276.93,274.446 279.271,281.085 271.626,266.443 283.171,253.567 281.217,241.409 284.325,234.876 296.251,231.116 298.186,233.467 302.828,220.534 307.959,226.357 322.851,227.012 337.266,237.939 346.366,238.947 358.625,240.366 349.84,252.804 341.148,264.614 355.915,273.788 369.444,284.905 354.555,291.434 351.365,298.431 363.762,309.334 376.14,301.496 383.037,307.123 386.229,303.7 386.17,311.299 375.975,321.653 382.477,308.225 394.648,296.673 387.277,284.201 379.583,269.255 373.975,261.674 369.627,269.483 365,256.703 379.368,253.183 367.158,252.118 374.274,251.237 364.661,242.45 375.958,255 378.236,253.318 383.909,245.652 373.05,254.726 380.428,261.476 367.857,259 353.428,246.732 343.296,257.256 350.729,250.561 357.57,239.659 348.236,245.61 339.596,249.874 346.754,237.488 354,246.138 368.411,247.141 373.768,240.796 378.725,243.545 388.657,233.317 378.17,240.951 382.377,233.415 379.841,246.389 371.197,244.682 367.16,240.459 360.881,241 375.065,246.215 363.918,245.757 374.117,239.858 383.345,250.056 376.282,243.977 382.206,232.766 384,247.048 376.291,260.115 389.059,272.881 376.674,282.206 387.83,293.272 373.487,300.482 373.05,295.77 361.697,298.726 367,286.193 381.485,292.253 387.616,281.219 393.405,280.081 383,279.306 394.13,289.16 388.896,290.54 376.945,287.697 380.331,274.34 374.458,278 361.033,263.227 363.647,261.349 366.187,247.648 356.749,233.937 352.543,228.313 354.805,238.452 363.679,238.797 370.677,242.099 369.351,247.12 381.487,251.099 376.622,238.132 362.546,248.655 353.753,257.248 353.749,269.709 364.099,277.02 349.799,263.903 345.336,278.099 356.083,279.873 344.147,272.786 352.847,279.318 344,292.569 339.441,279.184 329.805,272.764 327.9,279.39 313.555,280.932 324.212,281.284 322.564,288.846 331.832,290.395 345.343,304.946 359.664,306.176 369.427,299.419 372.36,292 379.526,286.271 379.551,299.964 388.275,290.144 402,302.613 393.496,312.529 404,310.772 398.865,311.712 391.895,302.538 379.818,305.297 376.462,307.878 378.175,293.255 388.263,292.691 400.806,295.541 410.105,301.081 412.955,305.809 420.096,294.546 415.166,304.312 423.836,290.411 412.778,298 404.771,306.73 407.254,320.261 398.027,327.934 384.808,340.177 382.857,326.871 380.157,326.742 394.65,321.17 385.043,324.914 372.135,332.591 381.564,339 395.156,350.07 401.328,364.201 414.897,371.475 426.857,382.366 417.335,382.734 415.44,374.332 419.506,363.782 422.701,352.921 418.677,352.709 423,348.096 409.458,361.531 395.081,357.408 407.621,347.291 396.808,342.819 407.396,356.489 415.704,358.299 418.297,347.442 422.13,356.094 420.84,366.828 435.359,355.062 437.395,359.326 440.052,352.606 430.621,363.191 426.145,352.164 418.918,355.392 411.874,362.461 409.975,359 399.853,371.758 386.312,365.864 394.968,356.642 389.542,370.57 397.373,369.049 396,366.543 394.559,362.67 391.956,377 384.031,390.899 386.395,380.384 395.331,372.327 387.235,364.021 385.397,376.839 387.759,368.952 376.135,383.323 389.093,393 374.864,386.893 379.118,377.647 387.612,385.733 389.361,380 393.425,392.234 378.522,386.822 385.503,379.902 377,392.165 386.199" stroke="blue" />
          <polyline points="288.142 305.018,298.049 294.597,311.551 297,297.85 310.619,307.045 314.375,297.156 320.921,285.159 308.432,283.064 308.286,274.062 307.605,266.673 294.434,277.63 287.876,279.557 280.961,267.098 285.106,278.533 276.372,273 279.845,262.183 294.82,275.685 304.285,284.717 313.931,283.37 312.604,273.916 319.171,263.094 334.057,259.138 323.875,250.741 325.892,247.548 325.442,238.974 339.021,233.882 324.641,236.289 326.081,230.122 319.577,219.569 316.168,219.555 329.111,219.584 333.954,204.898 335.468,196.015 347.262,201.611 345.657,198.335 339.523,209.637 343.555,210.427 331.825,203.419 333.278,203.01 337.462,204.824 328.837,215.978 331.457,209.478 323.424,215.581 330.201,213.881 337.785,214.59 346.527,201.716 353.588,189.329 359.598,184.179 365.279,197.067 357.363,189.908 345.212,189.375 359.758,188.457 372.237,181.699 358.409,182.648 343.859,180.91 348.859,172.792 356.435,180.936 353.709,191.763 354.321,202.874 342.304,190.096 337.256,177.339 341.662,166.16 337.684,154.884 350.047,161.961 344.697,172.341 332.431,178.727 322.57,172.377 323.841,173.737 326.909,172.604 327.461,173.128 341.302,162.579 333.148,173.539 341.931,161.904 349.914,173.269 351.616,187.647 351.723,176.13 343.77,164.722 337.881,179.608 330.546,189.02 332.778,175.89 341,186.657 332.343,188.886 341.287,188.218 331.722,176.488 319.63,163.837 313,149.384 302.338,143.832 300.794,130.146 295.788,145.065 301.722,155.206 312.183,141.306 307.167,134.429 300.722,121.383 311.722,115.864 311.159,108.067 322.366,96.418 326.37,83.285 325.12,69.165 324.512,63.673 338.327,49.336 335.865,55.692 345.461,57.823 357.909,56.795 348.413,47.467 349.471,59.56 356.433,68.037 369.102,61.259 360.805,72.292 367.078,69.626 372.132,60.396 377.243,70.571 375.02,80.882 372.898,86.199 371.253,77.567 371.537,72.9 379.668,67.379 367.075,81.262 353.036,82.603 359.771,78.556 365.872,92.421 354.96,101.043 354.357,100.598 347.284,112.292 340.785,125.712 337.692,135.886 334.493,137.372 324.854,135.769 314.54,128.5 300.291,135.45 309.432,140.978 315.767,128.888 326.808,126.89 313.359,119.016 312.069,117.208 321.956,123.064 327.833,109.424 317.344,117.286 330.943,115.857 336.373,120.546 341.964,126.526 355.592,138.762 351.187,135.711 341.642,142.924 347.241,130.62 343.083,128.355 332.061,117.854 322.136,128.168 331,120.836 327.565,114.373 327.965,115.353 331.185,104.065 337.662,113.398 328.686,101.44 322.89,112.823 319.572,126.648 316.897,125.699 319.855,128.213 315.025,142.987 325.537,137.745 313.725,143.331 319.484,145.213 332.602,134.721 346.443,145.091 357.36,141.265 362.48,147.164 375.284,132.434 385.125,134.478 389.512,121.762 395.933,114.708 389.121,121.113 403.521,131.165 415.319,128.156 417.607,114.05 429.372,121.305 423.727,129.97 409.66,141.624 415.639,146.335 410.855,138.154 403.062,150.442 400.329,158.886 406.901,169.224 411.975,163.345 410.052,166.689 411.075,176.643 403.439,177.407 391.93,174.432 395.249,188.843 400.823,177.842 390.178,183.52 395.549,192.735 390.201,191.312 389.305,204.81 388.095,192.928 389.918,187.041 376.151,185.161 379.149,193.128 371.181,180.519 365.782,193.534 363.363,186.848 350.389" stroke="lime" />
          <polyline points="286.943 300.307,277.878 298.665,274.914 287.229,262.098 288.278,255.749 300,266.089 295.525,261.641 294.561,260.064 307.766,254.956 321.75,242.931 311.271,251.374 317.379,236.903 305.935,223.937 313.616,234.395 311.389,232.557 302.96,245.103 300.64,257.75 313.573,258.334 307.98,268.72 308.707,272.588 315.043,279.484 312.688,294.183 311.842,284.958 303.05,283.489 314.123,297.359 314.265,287.396 323.222,280.024 310.413,289.402 324.366,295.423 329.516,293.55 322.227,287.34 328.466,300.265 319.825,310.201 312.533,324 304.892,331.368 311.159,337.508 298.047,339.633 291.507,329.89 292.55,330.772 285.65,331.344 293.552,345.92 294.046,334.47 283.813,330.443 270.28,316.357 262.426,321.746 255.966,307.847 255.836,307.976 261.857,295.634 258.458,291.614 243.895,283.637 247.173,288.39 258.146,277.894 270.487,288.329 261.91,276.883 268.484,281.767 281.745,268.586 291.079,276.885 298.629,284.299 308.726,288.323 303.494,292.499 313.266,291.463 320.688,286.158 325.723,298.437 335.141,295.305 326.684,282.692 318.352,294.841 314.758,307.598 316.111,315.956 301.227,315.81 302.632,329.39 296.759,329.522 299.881,336.037 285.71,336.147 286.793,336.37 300.565,346.084 293.844,349.908 287.922,359.165 289.918,361.322 297.694,363.032 293.173,364.914 302.309,358.261 316.117,355.876 313.773,351.485 308.693,348 309.589,339.057 308.617,330.558 317,328.426 312.881,328.865 321.048,330.98 314.973,322.359 326.348,333.39 331.081,335.228 331.428,335.578 337,325.116 331.049,330.486 317.959,330.416 307.45,330.509 292.816,320.52 298.813,328.616 301.155,330.514 289.564,321.922 302.592,307.446 299.035,320.814 306.849,320.976 309.016,320.778 299.319,332.352 296.786,331.535 284.57,329.841 290.472,329.188 285.631,321.227 278.278,317.438 291.477,323.376 279.926,335.654 265.467,322.083 251.257,334.103 239.538,319.341 234.407,310.266 222.379,303.532 235.665,306.15 229.891,307.144 232.543,294.184 225.843,279.433 223.47,267.361 224.807,269.823 232.42,277.457 239.738,288.438 242.954,294.047 244.418,288.642 256.631,292 270.085,291.049 272.896,284.813 280.352,284.426 268.917,293.249 274.701,296.092 270.784,302.761 267.03,289.655 277.729,298.313 284.859,300.365 298.261,302.8 304.623,289.057 319.175,281.215 318.696,288.783 332.776,289 337.722,292.22 331.676,279.745 339.253,290.813 334.342,280.82 333.201,276.73 343.569,273.92 342.656,278.631 331.165,271.848 316.516,267.88 312.089,264.741 313.62,270.356 306.367,257.405 320.688,252.822 326.165,251.199 312.814,245.227 321,243.159 326,240.511 325.237,228.908 317.545,232.902 309.94,231.118 319.671,238.391 308.5,250.149 301.837,238.913 308.044,244.624 321.841,238.116 325.237,247 339.424,240.222 335.312,225.364 341.05,232.443 342.098,239.716 349.733,246.118 360.029,250 351.338,236.874 357.911,231.807 346.393,218.876 349.054,233.734 361.294,247.391 374.107,248.693 375.628,254.195 382.056,253.343 371.052,243.222 359.197,231.078 368.965,222.799 367.823,217.106 368.713,203.894 374.667,189.046 386,193.796 384.291,192.662 398.529,200.417 410.588,206.386 413.383,217.557 425.461,213.097 439.205,226.218 435.743,221.38 445.906,233.11 450.243,221.884 451.183" stroke="orange" />
          <polyline points="295.902 290.441,282.712 282.446,294.378 295.635,299.767 288.855,307.503 277.807,306.523 273.398,309.134 275.162,298.146 273.878,298.951 278.509,305.832 266.897,306.105 270.539,306.383 263.413,300.433 253.659,305.256 247.577,308.118 260.555,312.52 249.555,317.571 239.293,306.933 240.647,313.464 227.241,300.962 236.096,293.131 243.471,297.571 246.16,310.271 240.906,316.14 228.72,326.965 242.872,324.673 238.376,331.384 226.259,322.528 226.392,334.517 235.81,320.8 238.08,311.038 252.065,307.859 248,312.192 237.311,305.641 244.017,317.741 257.359,320.608 268.263,328.367 279.771,338.456 286.029,351.395 282.084,359.503 291,364.658 286.297,361.665 284.65,362.765 274.401,377.704 264.807,377.657 276.779,381.625 262.595,373.069 273.551,363.773 285.867,364.139 294.822,375.713 283.086,386.848 282.112,385.302 277.115,382.474 275.199,369.347 273.718,371.159 282.204,361.564 284.083,373.569 269.292,379.837 274.436,374.709 261.656,367.709 258.719,374.369 265.267,387.17 272.76,401.927 266.581,402.755 264.263,414.521 253.537,400.812 259,386.084 261.324,392.252 264.646,394.138 274.742,385.301 279.783,377.956 273.402,386.361 279.138,396.491 283.615,406.461 277.567,406.47 269.512,415.135 277.898,427.086 282.639,413.959 267.886,428.724 263,415.031 277.625,423.474 271.884,433.727 258.095,437.546 248.715,433.522 251.523,437.028 257.284,441.663 245.803,440.092 234.101,448 241.275,435.037 246.796,437.911 244.356,427.775 238.799,422.33 242.29,410.714 236,403.194 244.905,415.061 249.896,424.288 263.153,424.408 258.783,430.543 259.854,420.716 258.548,432.216 264.711,429.415 259.795,424.962 255.31,422.486 265.391,421.829 278.537,409.229 280.632,404.469 271.552,391.072 276.158,394.145 274.056,397.744 271.752,411.679 280.035,411.861 292.775,419.781 291.321,433.754 302.858,434.894 309.813,432.491 296.977,424.385 308,421.495 314.866,429.597 308.478,422.497 298.309,414.545 311.408,404.658 309.1,412.849 302.581,402.664 305.797,412.238 301.775,420.265 312.199,429.33 322.065,415.25 322.672,419.635 318.656,419.219 328.184,421.23 328.965,406.258 336.074,402.779 329.103,416.972 314.769,419 319.181,429.734 310.187,443.54 317.533,458.472 314.757,462.813 322.73,475.482 333.39,481.186 320.602,490.268 329.202,504.667 318.964,519.535 309.945,533 318.399,524.379 326.226,523.647 335.839,535.754 325.826,531 333.139,520.084 341.936,513.277 347.515,519.386 360.711,521.145 351.432,513.384 347.462,506.295 335.622,506.312 339.62,519 339.214,515.484 348.602,503.764 354.212,489.485 343.208,501.407 333,500.875 337.384,494.506 348.27,488.142 353.979,488.242 363.276,489 363.336,478.195 361,490.366 353.339,491.617 360.928,498.107 368.765,508.556 375.44,499.368 367.09,490.688 373.709,496.593 377.215,493.419 364.765,504.449 350,506.21 353.668,508.905 356.402,522.882 363.493,532.678 354.883,526.047 346.479,531.826 337.571,532.32 348.294,531.797 334.645,544 340.062,548.468 354.198,555.081 351.723,551.741 358.583,539.234 366.422,537.092 368.683,526.721 362.839,512.027 372.48,505.548 382.182,514.928 368.636,514.036 373.583,524.331 365.864,528.841 353.166,516.06 350.407,509.097 336.397,496.04 324.858" stroke="cyan" />
          <polyline points="312.477 313.279,324.02 313.103,336 314.056,350.393 319.584,341.175 315.604,355.439 322.941,361.036 330,357.195 326.554,365.29 326.701,378.204 322.071,364.264 318.628,350.315 326.387,351.363 329.122,356.943 331.886,366.237 330.296,369.024 326.857,369.094 325.876,354.277 336.405,348.65 344.556,339.414 338.785,337.685 348.939,342.335 358.648,336.324 367.632,341.659 367.51,327.057 361.333,317.44 368.493,305.529 365.607,307.226 373.07,322.086 376.106,311.091 367.081,311.466 368.123,314.639 368.914,312.624 382.603,321.56 381.09,327.966 394.328,327.148 399.056,327.925 393.209,320.614 386.171,326.483 399.037,337.241 395.279,330.312 383.492,316.638 381.261,327.227 374.518,339.619 374.948,352.041 388.561,361.814 397.802,366.228 383.054,366.19 372.68,371.645 362.317,356.766 362.724,361.279 355.966,374.438 365.533,375.158 361.876,372.13 349.334,372.255 362.119,376.496 354.768,382.471 355.093,381.5 344.468,387.568 338.317,397.127 350.215,403.122 339.554,410.119 326.229,407 318.556,414.933 311.145,415.355 311.687,428 320.116,422.529 330.05,432.864 319.979,428.568 322.979,437.216 318.781,435.149 305.248,436.062 317.43,432.088 321.835,421.624 318.056,423.211 311.953,435.437 320.59,428.763 316.448,435.9 310.757,422.53 302.095,414.806 314.91,428.838 326.479,442.242 335.094,433.427 322.676,440.296 308.923,426.478 303.451,424.505 310.148,422.311 301.09,421.305 288.154,434.423 285,423.046 296.05,424.209 286.212,439.205 279.68,424.234 267.482,427 278.653,433.027 265.509,426.24 263.291,430.095 260.147,425.21 258.67,437.843 257.127,427.9 254.987,435.246 267.663,446.117 268.397,437.552 276.712,424.961 266.217,434.539 268.789,449.124 277.105,434.224 267.214,442.042 276.76,436.623 289.356,438.324 288.398,442.289 278.123,452.701 282.823,450.29 293.256,452.808 296.625,458.68 302.509,454.492 298,444 305.897,445.731 300.952,434.386 303.638,433 306.458,420.033 300.879,426 308.482,427.06 298.652,434.302 313.364,428.839 321.718,439.901 315.745,447.395 330.346,454.751 341.092,445.283 342.163,448.517 349.542,459.378 342.629,473.347 353.303,472.483 357.302,469.378 369.305,481.516 380.568,468.063 395.056,476.806 384,471.509 393.269,464.921 395.323,468.325 402.341,475.53 395.291,488.403 382.109,495.754 368.868,504.144 372.265,489.88 380.795,503.226 375.954,512.768 389.245,521.343 395.837,515.19 397.751,525.202 391.504,539.849 406.325,537.953 402.761,536.388 406.083,548.315 405.815,537.88 409.183,534.778 415.609,522.771 405.486,528.739 391.306,534.422 391.343,547.056 387.911,558.615 376.256,558.142 384.895,553.466 373.407,551 376.574,542.643 368.43,527.692 357.418,517.535 366,510.797 368.199,513.267 360.72,512.727 355.481,498.924 352,501.447 364.761,515.513 361.838,514.919 370.545,515.525 360.068,521.435 372.482,515.85 359.857,504.087 356.04,515.14 350.594,519.153 364.463,512.681 372.349,505.481 367.47,500.14 381.962,486.722 384.6,484.672 382.891,479.15 373.887,492.035 361.952,505.274 365.619,503.708 354.361,493.741 342.389,503.222 348.178,488.317 347.318,479.217 356.695,475.716 359.51,483.049 353.639,492.195 345.299,489.204 349.828,485.612 349.099,485.1 347.048" stroke="gold" />
          <polyline points="312.489 304.273,314.322 313.529,316.415 311.065,321.697 312.558,310.828 317.035,304.077 326.417,316.847 320.35,330.102 307.065,323.28 312.955,323.162 315.733,320.749 328.205,333.454 317.417,335.949 321.06,338.868 319.879,335.231 313.029,327.913 317.092,337.771 310.588,328.777 315.569,329.364 325.789,336.557 322.171,332.489 327.261,323.096 336.446,325.257 335.139,335.489 326.127,342.389 323.745,334.459 325.509,346.311 317.026,353.67 305.491,363.777 312.856,376 298.681,378.736 296.333,388.723 287.173,400.694 288.131,411.806 289.911,410.142 290.077,413.061 304.24,404.935 293.815,390.948 282.173,403.745 283.163,415.376 271.055,411.893 262.786,403.112 265.916,393.315 271.691,407.609 267.57,402.384 279.701,413.022 266.724,427.675 280.239,436.439 286.093,427.315 286.331,421.5 273.433,411.05 277.489,401.043 270.958,400.834 271.348,412.815 268.645,413.168 257.801,415.804 245.808,420.147 239.067,421 250.657,423.531 239.336,431.15 225.616,423.823 214.798,413.815 229.401,399.963 238.189,391.702 229.672,392 218.453,387.848 228.958,381.484 238.197,389.534 225.039,390.908 223.463,392.819 217.532,402.772 207.777,401.147 207.718,400.1 217.817,387.321 208.148,385.561 217.965,371.775 232.246,369.676 230.101,382.188 222.339,379.289 219.763,364.9 229.922,363.072 227.21,368.421 214.611,364.219 217.79,353.444 224.382,344.148 214.661,347.83 206.015,334.775 206.708,339.374 215.075,340.398 228.861,344.81 225.806,349.15 239.579,350.524 243.688,342.443 229.057,343.148 222.845,342.963 211.113,332.904 211.554,338.943 221.375,328.262 221.709,329.368 210.524,333.651 218.47,328.512 208.473,318.403 214.103,313.03 211.067,319.509 221.435,317.548 210.612,322.265 199.781,332.835 199,326.089 204.489,326.923 192.346,320.305 183.755,313.042 191.618,299.672 194.827,308.941 197.332,312.586 209.701,307 209.022,292.394 215.636,301.862 227.598,310.461 223.517,302.367 233.164,307.445 231.165,302.796 221.965,304.156 209.088,299.472 210.768,309.447 216.523,317.376 208.087,322.073 205.024,333.154 214.807,346.912 203.786,342.352 218.707,357.351 206.89,361.54 192.666,351.229 198.491,348.08 208.516,338.389 197.693,338.729 200.45,336 194.428,342.071 197.435,330.169 202.72,324.198 212.349,326.788 198.676,329.157 212.112,318.34 199.064,332.662 202.723,331.282 209.691,336.689 197.463,339.261 191.249,324.597 180.421,326.16 194.19,321.212 187.053,312.378 177.939,315.783 173.631,327.528 161.329,322 172.201,327.865 164.762,321.094 167.527,331.634 177.521,319.582 164.329,304.91 173,290.536 174.427,296.394 182.792,285.225 182.715,276.636 180.614,274.486 187.673,283.982 194.727,285.753 208.548,296.887 218.025,301.701 203.239,293.338 197.41,280.462 184.761,285.294 178.504,271.544 182,274.405 189.324,282.047 187.319,273.402 176.336,277.767 183.866,273.24 178.821,277.44 180.853,282.42 194.022,274.293 206.142,279.901 199.513,286.083 195.637,281.17 195.446,278.96 206.126,288.291 217.109,281.733 209.804,292.644 221.891,300.682 229.666,313.095 241.699,327.818 248.345,320.479 238.448,315.541 248.582,309.645 235.553,311.214 235.941,313.077 247.656,315.048 241.298,300.121 250.708,312.961 250.916,305.88 247.575,302.71 261.04" stroke="dodgerblue" />
          <polyline points="313.622 304.603,312.578 308.782,321.849 312.945,316.907 314.403,331.126 302.379,317.743 289.464,320.676 300.132,315.517 294.917,328.569 286.478,323.851 286.924,331.982 284.196,333.041 297.424,323.115 308.428,314.834 302.558,316.282 303.193,317.958 313.279,307.975 309.781,322.144 319.139,323.115 328.044,309.933 313.654,318.311 304.413,322.92 317.318,318.617 302.752,317.958 296.426,331.735 290.033,322.174 277.671,329.346 285.484,315.597 290.787,313.376 298.313,309.784 299.567,301.214 287.871,305.453 274.28,309.025 283.619,296.049 289.863,297.564 278.785,307.073 266.131,314.934 265.705,310.699 276.107,295.978 267.739,299.359 274.744,287.968 289.083,286.756 296.785,297.43 309.733,297.059 310.846,302.05 319.847,304.722 327.427,301.714 335.686,311.415 335.245,296.899 335.806,307.357 347.631,317.618 342.547,325.041 335.404,310.979 338.068,321.017 332.085,328.705 328.557,325.123 318.532,314.18 307.943,324.08 308.453,326.859 301.973,312.458 312.195,321.569 318.575,318.806 310.472,324.353 323.779,321.269 331.97,319.681 335.22,315.621 326.822,314.894 322.89,306.089 328.655,305.1 325.579,302.891 317.207,298.83 325.095,292.921 325.84,303.412 318.577,294.95 304.684,306.617 300.477,307.099 289.37,312.329 286.077,298.636 285.36,308.972 287.736,322.218 291.531,319.931 282.511,317.966 291.599,321.592 303.852,309.803 300.183,310.843 311.619,308.213 326.13,318.864 315.629,306.328 319.962,298.724 315.43,299.098 313.704,309.952 311.493,312.122 304.614,304.122 297.34,316.977 293.9,329.343 299.388,323.826 297.326,310.567 296.642,298.654 293.908,312.075 308.343,307.189 322.833,302.522 327.617,287.675 338.289,291.312 338.744,296.927 343.044,303.31 338.829,311.484 344.841,311.2 357.653,305.762 357.577,315.58 344.757,322.728 351.3,319.8 343.743,331.636 330.696,327.79 335.716,335.139 335.677,345.334 337.56,334.838 340.875,336.295 334.439,332.595 320.295,321.952 323.458,313 333.539,323.815 321.097,337.423 319.361,323.708 333.206,315.911 319.614,310.863 306.213,307.254 319.948,315.782 313.103,318.265 311.586,324.277 321.382,319.576 324.572,308.292 320.811,309.846 331.239,320.857 343.739,317.151 352.785,325.046 362.246,312.038 352.746,308 345.323,314.424 334.221,309.84 325.157,310.457 315.519,303.774 327.187,307.931 314.682,302.171 312.949,304.559 325.505,308.1 316.944,302.358 331.6,297.55 334.145,300.614 343.795,287.081 332.096,288.689 334.216,297.095 346.566,302.612 336.46,299.476 339.393,312.151 349.695,316.237 349.81,316.25 345.637,318.619 340.525,311.118 332.775,309.481 340.173,299.294 332.587,311.937 321.36,320.61 307.473,334.789 306.353,341.613 318.914,327.542 330.615,331.305 317.135,330.531 304.687,321.424 298.814,325.584 309.739,319.876 303.227,320.73 297.134,320.82 287.35,323.523 285.109,333.526 274.43,337.944 259.643,342.084 248.494,343 239,338.74 241.35,344.165 229.02,354.69 217.702,359.098 205.263,373.867 215.595,367.379 220.871,366.589 211.033,378.123 207.095,365 210.408,370.733 199.402,360.068 188.413,369.159 179.512,373.653 164.662,380.722 166.49,395.225 165.9,409.383 163.884,417.663 157.822,403.377 169.191,414.966 182.608,413.053 181.219,423.847 189.642,418.89 179.221" stroke="gray" />
        </g>
      </g>
    </g>
    <g transform="translate(23.292,627.6)">
      <g class="x-axis-labels" font-family="sans-serif" font-size="12" text-anchor="middle" stroke="none" fill="black">
        <text x="0" y="12" text-anchor="start">-20</text>
        <text x="75" y="12">-15</text>
        <text x="150" y="12">-10</text>
        <text x="225" y="12">-5</text>
        <text x="300" y="12">0</text>
        <text x="375" y="12">5</text>
        <text x="450" y="12">10</text>
        <text x="525" y="12">15</text>
        <text x="600" y="12" text-anchor="end">20</text>
      </g>
    </g>
  </g>
</svg>