<?xml version="1.0"?>
<svg xmlns="http://www.w3.org/2000/svg" width="625.292" height="644.2" viewBox="0 0 625.292 644.2" transform="translate(0.5, 0.5)">
  <title>Random walks (source: db)</title>
  <g class="layout">
    <g fill="black" font-family="sans-serif" font-size="16" text-anchor="middle" transform="translate(202.326,0)">
      <text y="16" x="109.82">Random walks (source: db)</text>
    </g>
    <g transform="translate(0,26.6)">
      <g class="y-axis-labels" font-family="sans-serif" font-size="12" text-anchor="end" stroke="none" fill="black" transform="translate(22.292,0)">
        <text x="-2" y="600">-20</text>
        <text x="-2" y="529">-15</text>
        <text x="-2" y="454">-10</text>
        <text x="-2" y="379">-5</text>
        <text x="-2" y="304">0</text>
        <text x="-2" y="229">5</text>
        <text x="-2" y="154">10</text>
        <text x="-2" y="79">15</text>
        <text x="-2" y="9">20</text>
      </g>
    </g>
    <g transform="translate(22.292,25.6)">
      <rect x="0.5" y="0.5" width="601" height="601" stroke="black" fill="none" class="frame" stroke-width="1" />
    </g>
    <g transform="translate(23.292,26.6)">
      <g class="plot" clip-path="url(#id17)">
        <defs>
          <clipPath id="id17">
            <rect width="600" height="600" />
          </clipPath>
        </defs>
        <path d="M 0 0 V 600 M 75 0 V 600 M 150 0 V 600 M 225 0 V 600 M 300 0 V 600 M 375 0 V 600 M 450 0 V 600 M 525 0 V 600 M 600 0 V 600" stroke="lightgray" class="x-grid" />
        <path d="M 0 600 H 600 M 0 525 H 600 M 0 450 H 600 M 0 375 H 600 M 0 300 H 600 M 0 225 H 600 M 0 150 H 600 M 0 75 H 600 M 0 0 H 600" stroke="lightgray" class="y-grid" />
        <g fill="none" stroke="black" class="graphics" stroke-width="1" stroke-linejoin="round" stroke-linecap="round">
          <a href="https://en.wikipedia.org/wiki/Random_walk">
            <polyline points="75 525,75 75,525 75,525 525,75 525" stroke-width="10" stroke="blue" opacity="0.25" />
          </a>
          <polyline points="297.499 314.695,307.255 320.736,303.307 329.926,305.287 340.075,294.015 342.087,295.878 351.857,297.474 356.21,311.216 368.471,325.576 371.107,325.694 381.663,332.263 390.964,327.509 405.258,322.695 391.234,337.059 383.898,322.163 370.691,333.286 362.566,323.652 374.581,321.088 363,323.43 355.917,315.409 355.209,321.691 345.464,330.904 353.495,342.1 362,351.157 360.351,341.732 357.693,342.279 343.933,328.525 354,343.024 344.043,332.532 352.169,333.706 362.46,328.419 375.98,334.769 388.623,349.608 376,358.272 367.834,354.305 362.473,362.143 363.05,349 359.266,343.761 355.964,341.386 342.388,332.434 334.322,338.391 332.625,325.792 342.677,339.811 350.757,329.717 357.109,330.831 356.52,315.931 371.425,315.813 380.879,319.038 371.925,306.914 371.77,304.098 363.056,317.742 365.555,310.04 354.201,295.858 359.287,292.701 368.947,298.099 368.399,290.568 371,296.324 376.253,283.355 377.438,274.207 373.798,265.264 384.748,277.083 389.839,270.852 388.691,276.653 383.561,285.605 390.763,283.411 394.844,283.912 392.623,287.791 405.584,283.927 399.327,270 391.94,275.564 394.887,274.039 401.956,281.156 402.544,274.11 416.664,269.462 404.034,274.746 400.266,287.763 414.348,290.836 423.709,287.745 433.254,283.219 421.213,289.98 410.824,277.245 416.799,285.77 430.585,276.461 443.129,286 451.162,283.717 465.746,272.127 465.326,280.866 470.096,275.446 483.871,263.435 494.416,254.623 492.32,250.39 478,243.913 467.3,231.666 466.472,233.15 461.753,230.454 461.033,238.789 471.485,239.737 468.843,248.188 478.932,245.626 493.194,250.502 482.154,246.108 472.666,250.849 487.154,249.956 500.782,244.353 491.763,233.117 489.802,219.818 501.507,233.383 513.615,223.607 500.413,217.872 508.918,205.766 508.94,192.533 517.339,184.196 510,174.06 507.34,166.311 492.526,181.03 479.81,193.033 478.199,205.958 474,195.74 467.033,206.219 481.599,197.066 473.07,205.108 471.253,193.777 478.295,185.848 463.878,177.608 467.774,183.279 462.879,185.145 458.359,196.095 445.94,184.348 460.036,196.756 447.728,192.796 450.737,198.343 453.092,186.674 460.616,180.785 458.63,170.922 451.771,185.015 455.225,187.125 451.138,196.064 447.264,196.56 440.649,182.272 427.456,194.231 421.641,185.28 417.873,171.124 420.942,162.585 419.105,155.098 431.336,163.914 438.798,165.705 453.302,167.609 444.624,176.158 449.773,165.011 446.488,159.206 452.914,150.509 456.114,155.975 459.068,160.369 452.233,169.679 450.109,184.389 450.047,185.504 445.298,199.643 439.239,212.148 449.479,209.808 443.374,216.79 433.473,209.78 439.032,207.162 442.261,194.943 445.568,199.215 438.384,191.111 434.763,198.644 445.098,184.074 455.294,189.442 442.894,186.06 448.535,189.878 454.049,176.054 461.69,179.07 462.956,174.477 466.191,163.591 458.169,159.812 452.47,161.845 440.467,170.739 451.498,169.281 466.164,176.934 474.241,191.232 482.478,191.478 482.731,201.298 479.875,212.731 485.286,200.656 494.715,187.044 488.494,192.626 480.854,201.052 492.099,187.977 487.327,173.011 492.215,175.641 487.642,179.109 474.16,193.348 479.844,187.797 494.201,176.429 496.056,180.681 504,168.664 498.437,173.83 498.426,163.059 507.519,156.102 496.935,168.886 510.52" stroke="red" />
          <polyline points="313.103 287.619,321.889 295.621,335.898 286.361,325.08 300.288,321.419 297.901,307.159 284.262,312.343 283.762,312.101 295.619,319.534 288.373,305.207 279.164,300.837 266.17,296.099 274.814,286.974 279.868,274.096 290,273.271 288.427,275 299.467,260.736 310.065,272.72 320.975,278.23 319.31,281.232 306.203,273.902 300.127,274.428 304.07,271.461 313,259.486 300.359,263.696 310.263,272.789 319.722,277.657 317.122,286.56 319.755,300.216 313.182,298.692 324.55,291.435 335.58,292.07 326.404,299.335 322.292,297.141 328.938,306.257 323.801,311.165 322.055,319.885 319.389,312.785 323.182,307.077 329.432,319.03 323.086,322.439 324.558,322 336.404,321.237 333.77,316.745 333.553,331.724 321.163,319.034 307.782,327.869 298.413,337 307.154,325.968 302.896,335.804 314.836,321.235 301.427,333.536 308.584,343.407 314.626,353.653 329.237,356.905 337.494,360.981 351.743,365.397 363.749,363.706 376.65,360.214 386.97,355.053 387.883,359.826 383.875,360.533 373.292,357.857 383.968,363.416 388.253,376.459 391.547,361.874 396.231,375.664 396.892,385.349 400.853,388.602 413.575,379.676 425.454,376.751 430.751,378.485 426.288,370.683 433.244,356.421 444.594,352.864 432.617,343.512 435.383,328.897 432.719,326.521 437.783,323.217 444.601,320.459 454.058,326.836 441.064,339.04 445.071,324.389 437,323.235 435.647,327.909 426.299,328.447 428.266,317.391 442,307.353 452.37,320.577 450.365,306.4 455.818,303.76 445.784,301.158 444.379,294.079 449.685,281.472 441.197,281.141 434.255,283.306 446.585,276.371 452,284.866 456.586,298.835 447.685,304.558 446.737,310.329 451.575,298.396 440.828,297.182 427.08,304.142 424.849,301.954 419.265,294.225 423.669,288.815 414.112,302.309 426.197,288.045 430.616,293.523 432.484,301.325 418.439,306.313 413.456,295.608 410.905,299.436 420.049,285.213 414.703,300 410.302,291.035 399.19,285.563 403.951,294.966 395.127,307.901 383.585,292.971 391.723,295.457 399.77,306 392.679,313.671 379.362,319.901 365.459,318.896 376.384,319.394 362.922,322.821 368.257,310.776 379.233,299.454 372.912,294.307 374.874,308.573 379.91,313.178 384.438,309.746 386.643,308.083 398.137,312.337 396.45,300.686 382.216,315.296 388.969,310.515 380.549,310.701 378.553,318.633 371,311.595 371.389,320.908 359.904,331.892 350.913,336.638 365.13,332.61 358.858,324.899 371.969,327.718 363.919,342.602 357.072,341.063 371.111,346.46 359.339,347 357.459,334.767 362.835,337.529 353.748,332.266 343.795,334.912 342.147,325.94 336.294,315.05 338.681,326.645 327.643,339.98 336.834,352.115 337.771,342.048 325.88,355.556 311.683,351.309 319.936,364.05 313.552,376.815 306.67,391.354 299.769,400.95 287.084,398.843 274.488,396.254 260.658,397.519 256.432,382.812 261.25,376.062 275.89,370.453 283.174,358.716 290.506,369.527 299.04,375.523 284.283,360.796 277.95,349.828 287.406,344.066 274.868,355.354 287.115,364.057 299.578,359.818 284.584,371.207 296.292,373.219 298.675,378.473 287.915,380.202 274.951,392.094 285.046,378.803 294.107,379.04 288.258,389.67 281.325,394.3 278.296,398.923 281.293,403.807 271.205,414.501 264.647,419.77 277.476,414.609 278.808,408.82 287.86,405.061 277.856,398.077 264.79" stroke="green" />
          <polyline points="285.19 302.341,291.829 294.696,277.187 306.242,264.311 304.287,252.152 307.396,245.619 319.321,241.86 321.256,244.211 325.898,231.278 331.029,237.101 345.922,237.756 360.336,248.682 369.436,249.691 381.695,251.11 372.91,263.547 364.219,275.358 379,284.531 392.515,295.648 377.625,302.178 374.435,309.174 386.832,320.077 399.21,312.239 406.108,317.867 409.3,314.444 409.24,322.043 399.045,332.396 405.548,318.968 417.718,307.417 410.348,294.944 402.653,280 397.046,272.418 392.697,280.226 388.061,267.446 402.439,263.926 390.228,262.861 397.345,261.981 387.731,253.193 399.029,265.747 401.306,264.061 406.979,256.395 396.121,265.47 403.499,272.219 390.928,269.751 376.498,257.475 366.367,268 373.799,261.305 380.64,250.402 371.307,256.354 362.666,260.617 369.824,248.231 377.07,256.881 391.481,257.884 396.838,251.539 401.796,254.288 411.728,244.06 401.241,251.694 405.448,244.158 402.911,257.132 394.267,255.425 390.23,251.203 383.951,251.74 398.136,256.958 387,256.5 397.187,250.601 406.415,260.8 399.353,254.72 405.276,243.51 407.068,257.792 399.361,270.858 412.129,283.624 399.744,292.949 410.9,304 396.558,311.225 396.121,306.513 384.768,309.469 390.077,296.936 404.555,303 410.686,291.963 416.476,290.824 406.064,290.049 417.201,299.904 411.966,301.283 400,298.441 403.401,285.083 397.528,288.735 384.104,273.97 386.717,272.092 389.257,258.392 379.819,244.681 375.614,239.057 377.875,249.195 386.75,249.54 393.748,252.843 392.422,257.863 404.558,261.843 399.693,248.875 385.617,259.398 376.823,268 376.819,280.452 387.169,287.763 372.87,274.646 368.406,288.842 379.153,290.616 367.217,283.529 375.917,290.061 367.088,303.312 362.511,289.928 352.876,283.507 350.97,290.133 336.626,291.675 347.282,292.027 345.635,299.59 354.903,301.139 368.413,315.689 382.735,316.92 392.498,310.162 395.43,302.755 402.597,297 402.621,310.708 411.345,300.887 425.058,313.356 416.567,323.273 427.08,321.515 421.936,322.455 414.966,313.282 402.889,316.04 399.532,318.621 401.245,304 411.333,303.434 423.876,306.285 433.175,311.824 436.025,316.552 443.166,305.29 438.236,315.055 446.907,301.155 435.848,308.752 427.842,317.473 430.324,331 421.097,338.677 407.878,350.92 405.928,337.614 403.228,337.486 417.72,331.913 408.113,335.657 395.205,343.334 404.634,349.733 418.227,360.814 424.398,374.945 437.968,382.218 449.927,393.11 440.405,393.478 438.51,385.076 442.577,374.526 445.772,363.664 441.748,363.452 446.087,358.84 432.528,372.274 418.151,368.152 430.691,358.035 419.878,353.563 430.467,367.232 438.774,369.042 441.367,358.186 445.201,366.837 443.91,377.571 458.429,365.805 460.466,370.069 463.122,363.349 453.692,373.934 449.216,362.908 442,366.135 434.944,373.204 433.045,369.737 422.923,382.502 409.382,376.607 418.038,367.385 412.612,381.314 420.443,379.792 419.089,377.286 417.629,373.413 415.026,387.756 407.102,401.642 409.465,391.127 418.401,383.071 410.305,374.765 408.467,387.582 410.829,379.695 399.205,394.066 412.163,403.745 397.935,397.637 402.188,388.391 410.682,396.476 412.432,390.755 416.495,402.977 401.592,397.565 408.573,390.645 400.054,402.909 409.269,391.051 414.287,400.957 403.866,414.46 406.263" stroke="blue" />
          <polyline points="286.299 313.625,295.494 317.382,285.605 323.927,273.607 311.438,271.513 311.292,262.511 310.612,255.122 297.44,266.078 290.883,268 283.967,255.547 288.113,266.981 279.379,261.451 282.851,250.632 297.826,264.134 307.292,273.165 316.937,271.819 315.61,262.365 322.177,251.542 337.063,247.587 326.882,239.19 328.899,236 328.448,227.423 342.027,222.331 327.648,224.738 329.087,218.571 322.584,208.017 319.174,208 332.117,208.033 336.961,193.347 338.475,184.464 350.268,190.06 348.663,186.784 342.529,198.086 346.562,198.876 334.831,191.868 336.284,191.459 340.469,193.273 331.844,204.427 334.464,197.927 326.43,204.029 333.207,202.33 340.791,203.039 349.533,190.165 356.594,177.777 362.605,172.627 368.285,185.516 360.369,178.357 348.218,177.824 362.765,176.905 375.243,170.147 361.416,171.097 346.866,169.358 351.865,161.24 359.441,169.384 356.716,180.212 357.327,191.323 345.311,178.544 340.263,165.788 344.668,154.609 340.691,143.333 353.053,150.41 347.704,160.789 335.438,167.176 325.576,160.826 326.847,162.185 329.915,161.053 330.467,161.577 344.308,151.028 336.154,161.988 344.937,150.353 352.92,161.718 354.622,176.096 354.729,164.579 346.776,153.171 340.888,168.056 333.552,177.469 335.785,164.339 344,175.105 335.349,177.334 344.293,176.667 334.729,164.937 322.636,152.285 316,137.833 305.344,132.28 303.801,118.595 298.794,133.514 304.728,143.655 315.19,129.754 310.173,122.878 303.728,109.832 314.728,104.313 314.165,96.516 325.372,84.866 329.376,71.734 328.126,57.614 327.518,52.121 341.333,37.785 338.872,44.14 348.467,46.271 360.916,45.244 351.419,35.916 352.477,48.009 359.44,56.486 372.109,49.707 363.812,60.74 370.084,58.075 375.138,48.845 380.249,59.019 378.026,69.331 375.904,74.648 374.259,66.015 374.543,61.349 382.674,55.827 370.081,69.711 356.042,71.051 362.778,67.005 368.878,80.869 357.967,89.492 357.363,89.047 350.29,100.741 343.791,114.16 340.698,124.335 337.499,125.821 327.86,124.218 317.546,116.949 303.298,123.899 312.439,129.426 318.773,117.336 329.815,115.339 316.366,107.465 315.076,105.656 324.963,111.513 330.839,97.873 320.351,105.735 333.95,104.305 339.38,109 344.971,114.975 358.598,127.21 354.193,124.16 344.648,131.373 350.248,119.069 346.09,116.803 335.067,106.303 325.142,116.617 334,109.285 330.572,102.821 330.972,103.802 334.191,92.514 340.669,101.847 331.693,89.889 325.896,101.272 322.578,115.096 319.903,114.148 322.862,116.662 318.032,131.436 328.544,126.194 316.731,131.78 322.49,133.661 335.608,123.17 349.45,133.54 360.366,129.714 365.486,135.613 378.291,120.882 388.132,122.927 392.519,110.211 398.939,103.157 392.127,109.561 406.527,119.614 418.326,116.605 420.614,102.499 432.378,109.753 426.733,118.419 412.666,130.073 418.645,134.783 413.862,126.602 406.068,138.89 403.336,147.335 409.907,157.673 415,151.794 413.058,155.138 414.081,165.092 406.445,165.855 394.937,162.881 398.255,177.292 403.829,166.29 393.184,171.969 398.555,181.184 393.207,179.761 392.311,193.259 391.101,181.376 392.925,175.49 379.157,173.609 382.155,181.577 374.187,168.968 368.789,181.983 366.369,175.297 353.395,162.24 353.702,153.175 352.061,150.211 340.624,137.395 341.674" stroke="lime" />
          <polyline points="293.651 311.727,304 307.247,299.543 306.283,297.966 319.488,292.858 333.472,280.833 323,289.275 329.1,274.805 317.657,261.839 325.337,272.297 323.111,270.459 314.682,283 312.362,295.652 325.295,296.236 319.701,306.622 320.428,310.489 326.765,317.386 324.409,332.085 323.563,322.86 314.771,321.391 325.844,335.261 326,325.298 334.943,317.925 322.135,327.304 336.088,333.325 341.237,331.452 333.949,325.242 340.188,338.167 331.547,348.103 324.255,361.895 316.614,369.27 322.88,375.41 309.769,377.535 303.229,367.791 304.272,368.674 297.371,369.245 305.274,383.822 305.768,372.372 295.535,368.344 282,354.259 274.148,359.647 267.687,345.748 267.558,345.877 273.579,333.536 270.18,329.515 255.617,321.539 258.895,326.292 269.867,315.795 282.209,326.23 273.632,314.785 280.205,319.669 293.466,306.488 302.801,314.787 310.35,322.201 320.447,326.225 315.216,330.401 325,329.365 332.41,324.06 337.445,336.339 346.862,333.206 338.405,320.594 330.073,332.743 326.48,345.5 327.833,353.858 312.949,353.712 314.353,367.291 308.48,367.424 311.602,373.939 297.431,374.049 298.515,374.271 312.287,384 305.566,387.81 299.643,397.067 301.64,399.224 309.416,400.933 304.895,402.816 314.03,396.163 327.839,393.778 325.494,389.386 320.415,385.907 321.31,376.959 320.338,368.459 328.713,366.327 324.603,366.767 332.769,368.881 326.694,360.261 338.07,371.292 342.803,373.13 343.15,373.48 348.722,363 342.771,368.388 329.681,368.318 319.171,368.411 304.538,358.421 310.534,366.517 312.876,368.416 301.285,359.824 314.314,345.348 310.756,358.715 318.571,358.878 320.737,358.68 311.041,370.254 308.508,369.437 296.292,367.743 302.194,367.09 297.353,359.128 290,355.34 303.198,361.278 291.647,373.556 277.189,360 262.979,372 251.26,357.242 246.129,348.168 234.101,341.434 247.386,344.052 241.613,345.046 244.265,332.086 237.565,317.335 235.191,305.263 236.529,307.725 244.141,315.359 251.46,326.34 254.676,331.949 256.139,326.544 268.353,329.895 281.806,328.95 284.618,322.715 292.073,322.328 280.639,331.151 286.423,334 282.506,340.662 278.752,327.557 289.45,336.215 296.581,338.267 309.982,340.702 316.345,326.958 330.896,319.117 330.418,326.685 344.498,326.906 349.444,330.121 343.398,317.647 350.975,328.715 346.064,318.722 344.922,314.632 355.29,311.821 354.378,316.533 342.887,309.75 328.237,305.782 323.81,302.643 325.342,308.258 318.089,295.307 332.41,290.723 337.887,289.101 324.535,283.129 332.716,281.061 337.73,278.413 336.959,266.81 329.267,270.804 321.661,269.019 331.393,276.293 320.221,288.051 313.558,276.815 319.766,282.525 333.562,276.018 336.959,284.91 351.145,278.124 347.034,263.266 352.772,270.344 353.819,277.618 361.455,284.02 371.751,287.899 363.06,274.776 369.633,269.709 358.114,256.778 360.776,271.636 373,285.293 385.829,286.594 387.349,292.096 393.778,291.245 382.773,281.124 370.918,268.98 380.686,260.701 379.545,255 380.435,241.795 386.389,226.948 397.73,231.697 396,230.564 410.25,238.319 422.309,244.288 425.104,255.459 437.182,251 450.926,264.12 447.464,259.281 457.628,271 461.965,259.786 462.904,255.688 453.346,242.498 445.351,254.164 458.539,259.553 451.76,267.289 440.711" stroke="orange" />
          <polyline points="299.02 295.591,301.631 297.355,290.643 296.071,291.448 300.702,298.328 289.091,298.601 292.732,298.88 285.606,292.93 275.852,297.753 269.77,300.615 282.749,305.017 271.748,310.068 261.487,299.43 262.84,305.961 249.434,293.459 258.29,285.628 265.665,290.068 268.353,302.768 263.1,308.637 250.913,319.462 265.065,317.17 260.569,323.88 248.453,315.024 248.585,327 258,313.297 260.273,303.535 274.258,300.356 270.198,304.688 259.505,298.138 266.211,310.238 279.553,313.105 290.456,320.863 301.964,330.953 308.222,343.892 304.277,352 313.188,357.154 308.49,354.161 306.844,355.262 296.595,370.201 287,370.153 298.972,374.122 284.789,365.566 295.745,356.27 308.06,356.636 317,368.21 305.279,379.345 304.305,377.799 299.308,374.97 297.392,361.843 295.911,363.655 304.397,354.061 306.276,366.066 291.486,372.334 296.629,367.206 283.85,360.206 280.912,366.866 287.46,379.667 294.953,394.424 288.774,395.252 286.456,407 275.73,393.308 281.183,378.58 283.518,384.749 286.839,386.635 296.935,377.798 301.976,370.453 295.595,378.858 301.331,389 305.808,398.958 299.761,398.967 291.705,407.632 300.091,419.583 304.832,406.456 290.079,421.221 285.181,407.528 299.818,415.971 294.077,426.224 280.288,430.042 270.908,426 273.717,429.525 279.478,434.16 268,432.589 256.294,440.496 263.469,427.534 269,430.407 266.55,420.272 261,414.826 264.484,403.211 258.185,395.691 267.099,407.558 272.09,416.784 285.347,416.905 280.976,423.04 282.048,413.213 280.741,424.713 286.904,421.912 282,417.459 277.504,415 287.584,414.326 300.73,401.726 302.825,396.966 293.746,383.569 298.351,386.642 296.249,390.24 293.946,404.176 302.229,404.358 314.968,412.278 313.514,426.251 325.051,427.39 332,425 319.17,416.882 330.193,414 337.059,422.093 330.671,415 320.502,407.042 333.601,397.155 331.293,405.346 324.774,395.161 328,404.735 323.968,412.762 334.393,421.827 344.258,407.747 344.865,412.132 340.849,411.716 350.378,413.727 351.158,398.755 358.267,395.276 351.296,409.469 336.962,411.506 341.374,422.23 332.38,436.037 339.726,450.969 336.951,455.31 344.923,468 355.584,473.683 342.795,482.765 351.395,497.164 341.158,512.031 332.138,525.506 340.592,516.876 348.42,516.144 358.032,528.25 348.02,523.506 355.332,512.581 364.13,505.774 369.709,511.883 382.905,513.641 373.625,505.88 369.656,498.791 357.816,498.809 361.813,511.489 361.407,508 370.796,496.261 376.405,482 365.401,493.904 355.178,493.371 359.577,487 370.463,480.638 376.172,480.739 385.469,481.474 385.529,470.692 383.177,482.863 375.532,484.114 383.122,490.603 390.958,501.053 397.633,491.865 389.283,483.185 395.903,489.09 399.408,485.916 386.958,496.946 372.2,498.706 375.861,501.401 378.595,515.379 385.687,525.175 377.076,518.544 368.673,524.323 359.765,524.817 370.487,524.294 356.838,536.506 362.256,540.964 376.391,547.578 373.916,544.238 380.776,531.731 388.615,529.588 390.876,519.218 385.033,504.523 394.673,498.045 404.376,507.425 390.83,506.533 395.776,516.828 388.058,521.337 375.36,508.557 372.6,501.594 358.59,488.536 347.051,501 360.33,512.557 360.154,524.549 361.107,538.93 366.635,529.711 362.655,544 370" stroke="cyan" />
          <polyline points="305.597 307.044,301.756 303.613,309.851 303.759,322.765 299.13,308.825 295.686,294.876 303.446,295.924 306.181,301.505 308.945,310.799 307.355,313.586 303.916,313.655 302.935,298.839 313.464,293.211 321.615,283.975 315.844,282.246 326,286.896 335.707,280.886 344.69,286.22 344.569,271.619 338.392,262 345.552,250.09 342.666,251.787 350.128,266.647 353.165,255.652 344.14,256.028 345.182,259.2 345.973,257.185 359.662,266.121 358.149,272.527 371.387,271.71 376.115,272.487 370.268,265.175 363.23,271.044 376.096,281.802 372.338,274.873 360.551,261.199 358.319,271.788 351.577,284.181 352,296.602 365.62,306.375 374.861,310.789 360.113,310.752 349.739,316.207 339.376,301.327 339.783,305.84 333.025,319 342.592,319.72 338.934,316.691 326.393,316.816 339.178,321.058 331.826,327.033 332.152,326.062 321.526,332.13 315.375,341.688 327.274,347.684 316.613,354.68 303.288,351.541 295.615,359.495 288.203,359.917 288.746,372.567 297.175,367.09 307.109,377.426 297.038,373.129 300.037,381.777 295.84,379.71 282.307,380.623 294.489,376.65 298.894,366.185 295.115,367.773 289,380 297.649,373.324 293.507,380.462 287.816,367.091 279.154,359.368 291.969,373.399 303.538,386.803 312.153,378 299.734,384.857 285.982,371.039 280.509,369.067 287.207,366.873 278.148,365.866 265.213,379 262.064,367.607 273.109,368.77 263.271,383.767 256.739,368.795 244.54,371.553 255.712,377.588 242.568,370.801 240.35,374.657 237.206,369.771 235.728,382.405 234.186,372.461 232.046,379.807 244.721,390.678 245.455,382.114 253.77,369.522 243.276,379.1 245.847,393.686 254.164,378.785 244.273,386.603 253.819,381.184 266.414,382.885 265.457,386.85 255.182,397.263 259.882,394.851 270.315,397.369 273.684,403.241 279.568,399.053 275.055,388.558 282.956,390.293 278,378.948 280.696,377.541 283.517,364.595 277.937,370.54 285.541,371.622 275.711,378.864 290.423,373.401 298.777,384.462 292.804,391.956 307.405,399.312 318.15,389.844 319.222,393.079 326.601,403.94 319.688,417.909 330.361,417.045 334.36,413.939 346.364,426.077 357.627,412.625 372.115,421.368 361.04,416.07 370.328,409.482 372.382,412.886 379.4,420.092 372.35,432.965 359.168,440.316 345.926,448.706 349.324,434.441 357.853,447.787 353,457.329 366.304,465.904 372.896,459.751 374.81,469.763 368.563,484.41 383.384,482.515 379.82,480.95 383.142,492.877 382.873,482.441 386.242,479.339 392.668,467.333 382.545,473.301 368.364,479 368.402,491.617 364.97,503.177 353.314,502.704 361.954,498.027 350.466,495.572 353.633,487.204 345.489,472.253 334.477,462.096 343.06,455.359 345.258,457.828 337.779,457.289 332.54,443.485 329.065,446 341.82,460.074 338.897,459.481 347.603,460.087 337.127,466 349.541,460.411 336.916,448.648 333.099,459.702 327.653,463.714 341.522,457.242 349.408,450.043 344.529,444.701 359.021,431.283 361.659,429.234 359.95,423.711 350.946,436.596 339,449.835 342.678,448.269 331.42,438.302 319.448,447.783 325.237,432.878 324.377,423.778 333.754,420.277 336.569,427.61 330.697,436.756 322.357,433.765 326.887,430.173 326.158,429.661 324.107,442.15 328.379,444 337.635,446.076 335.172,451.358 336.664,440.49 341.142,433.738 350.524,446.509 344.457" stroke="gold" />
          <polyline points="313.254 286.716,306.432 292.605,306.314 295.383,303.901 307.855,316.607 297.067,319.102 300.711,322.021 299.529,318.383 292.679,311.066 296.742,320.924 290.238,311.929 295.219,312.517 305.439,319.709 301.821,315.642 306.911,306.249 316.096,308.41 314.789,318.642 305.777,325.542 303.395,317.612 305.159,329.464 296.676,336.823 285.141,346.93 292.506,359.159 278.331,361.888 275.983,371.875 266.823,383.847 267.781,394.959 269.561,393.295 269.727,396.214 283.89,388.088 273.465,374.1 261.823,386.898 262.813,398.528 250.705,395.046 242.436,386.265 245.566,376.467 251.341,390.762 247.22,385.537 259.351,396.175 246.374,410.828 259.889,419.592 265.743,410.468 265.981,404.653 253.083,394.203 257.139,384.196 250.608,384 251,395.968 248.295,396.32 237.451,398.957 225.458,403.3 218.717,404.156 230.308,406.684 218.986,414.303 205.266,406.976 194.448,396.967 209.051,383.116 217.839,374.855 209.322,375.138 198.103,371 208.608,364.637 217.847,372.687 204.689,374.061 203.113,375.972 197.182,385.925 187.427,384.3 187.368,383.253 197.467,370.474 187.798,368.714 197.615,354.927 211.896,352.828 209.751,365.34 201.989,362.442 199.413,348.053 209.572,346.225 206.86,351.574 194.261,347.371 197.44,336.596 204.032,327.301 194.311,330.983 185.665,317.928 186.358,322.527 194.725,323.55 208.511,327.962 205.456,332.303 219.229,333.677 223.338,325.595 208.707,326.301 202.495,326.116 190.763,316.057 191.204,322.096 201.025,311.415 201.359,312.521 190.174,316.804 198.12,311.665 188.123,301.556 193.753,296.183 190.717,302.662 201.085,300.701 190.262,305.418 179.431,316 178.654,309.242 184.139,310.076 172,303.458 163.405,296.195 171.269,282.825 174.477,292.094 176.982,295.739 189.351,290.14 188.672,275.547 195.286,285.015 207.248,293.614 203.167,285.52 212.814,290.598 210.815,285.948 201.615,287.309 188.738,282.624 190.419,292.6 196.173,300.528 187.737,305.226 184.674,316.307 194.457,330.064 183.436,325.505 198.357,340.503 186.54,344.693 172.316,334.381 178.141,331.233 188.166,321.542 177.343,321.882 180.1,319.151 174.078,325.223 177.085,313.321 182.37,307.351 192,309.94 178.326,312.31 191.762,301.493 178.714,315.814 182.373,314.435 189.341,319.841 177.113,322.413 170.899,307.75 160.071,309.313 173.841,304.365 166.703,295.531 157.589,298.935 153.281,310.681 140.979,305.153 151.851,311.017 144.412,304.247 147.177,314.786 157.171,302.735 143.979,288.062 152.644,273.689 154.077,279.547 162.442,268.378 162.365,259.789 160.264,257.639 167.323,267.135 174.377,268.906 188.198,280.039 197.675,284.854 182.89,276.49 177.06,263.615 164.411,268.447 158.154,254.697 161.645,257.558 168.974,265.2 166.969,256.555 155.986,260.92 163.516,256.393 158.471,260.593 160.503,265.572 173.672,257.445 185.792,263.053 179.163,269.236 175.287,264.323 175.096,262.113 185.776,271.444 196.759,264.886 189.454,275.797 201.541,283.835 209.316,296.248 221.349,310.971 228,303.632 218.098,298.693 228.232,292.797 215.203,294.367 215.591,296.229 227.306,298.201 220.948,283.274 230.358,296.114 230.566,289.033 227.225,285.863 240.69,299.485 245.293,298.441 249.472,307.711 253.635,302.77 255.093,317 243.069,303.606 230.154,306.539 240.822,301.38 235.606" stroke="dodgerblue" />
          <polyline points="313.052 291.562,308.334 292,316.465 289.28,317.524 302.508,307.598 313.512,299.317 307.641,300.765 308.276,302.441 318.363,292.458 314.864,306.627 324.222,307.598 333.127,294.416 318.738,302.794 309.497,307.403 322.401,303.1 307.835,302.441 301.509,316.218 295.117,306.657 282.755,313.829 290.567,300.08 295.871,297.859 303.396,294.267 304.651,285.697 292.955,289.936 279.364,293.508 288.703,280.532 294.946,282.047 283.868,291.556 271.215,299.417 270.788,295.182 281.191,280.461 272.822,283.842 279.827,272.45 294.167,271.239 301.868,281.913 314.817,281.542 315.93,286.533 324.931,289.205 332.51,286.197 340.769,295.898 340.328,281.382 340.889,291.84 352.715,302.1 347.63,309.524 340.488,295.461 343.151,305.5 337.169,313.188 333.641,309.606 323.615,298.663 313.026,308.563 313.537,311.342 307.056,296.941 317.278,306.051 323.659,303.289 315.556,308.836 328.862,305.752 337.053,304.164 340.303,300.104 331.906,299.377 327.974,290.571 333.738,289.583 330.663,287.374 322.291,283.313 330.178,277.404 330.924,287.895 323.661,279.433 309.768,291.1 305.56,291.581 294.453,296.812 291.16,283.119 290.443,293.455 292.819,306.701 296.614,304.414 287.595,302.449 296.682,306.075 308.936,294.285 305.266,295.325 316.703,292.696 331.214,303.347 320.712,290.811 325.046,283.207 320.513,283.581 318.787,294.435 316.577,296.605 309.698,288.605 302.423,301.46 298.983,313.826 304.472,308.309 302.41,295.05 301.725,283.137 299,296.558 313.427,291.672 327.916,287 332.7,272.158 343.373,275.795 343.827,281.41 348.127,287.793 343.912,295.967 349.925,295.683 362.737,290.245 362.661,300.063 349.84,307.211 356.383,304.283 348.827,316.119 335.779,312.273 340.799,319.622 340.76,329.817 342.643,319.321 345.958,320.778 339.522,317.078 325.378,306.434 328.541,297.493 338.623,308.298 326.18,321.906 324.444,308.191 338.289,300.394 324.697,295.346 311.297,291.737 325.032,300.265 318.187,302.748 316.67,308.76 326.465,304.059 329.655,292.775 325.895,294.329 336.322,305.34 348.822,301.634 357.868,309.529 367.33,296.521 357.829,292.494 350.406,298.907 339.304,294.323 330.241,294.94 320.603,288.257 332.271,292.414 319.766,286.654 318.033,289.042 330.589,292.583 322.027,286.841 336.684,282.033 339.228,285.097 348.878,271.564 337.179,273.172 339.3,281.578 351.649,287.095 341.544,283.959 344.477,296.634 354.778,300.719 354.893,300.732 350.72,303.102 345.608,295.601 337.858,293.964 345.257,283.777 337.671,296.42 326.444,305.093 312.556,319.272 311.436,326.096 324,312.025 335.698,315.788 322.219,315 309.77,305.907 303.897,310.067 314.823,304.359 308.31,305.213 302.217,305.303 292.433,308 290.193,318 279.513,322.427 264.727,326.566 253.577,327.477 244.081,323.223 246.433,328.648 234.103,339.173 222.786,343.58 210.347,358.35 220.678,351.862 225.954,351.072 216.117,362.606 212.178,349.498 215.491,355.216 204.485,344.551 193.497,353.642 184.595,358.136 169.745,365.204 171.573,379.708 170.984,393.866 168.967,402.146 162.905,387.86 174.274,399.449 187.691,397.536 186.302,408.33 194.726,403.373 184.305,401.342 177.011,390.584 170.696,390.254 156.992,388 160.559,382.258 169.479,386.182 179.746,380.682 179.686,391.303 188.243,381 175.564" stroke="gray" />
        </g>
      </g>
    </g>
    <g transform="translate(23.292,627.6)">
      <g class="x-axis-labels" font-family="sans-serif" font-size="12" text-anchor="middle" stroke="none" fill="black">
        <text x="0" y="12" text-anchor="start">-20</text>
        <text x="75" y="12">-15</text>
        <text x="150" y="12">-10</text>
        <text x="225" y="12">-5</text>
        <text x="300" y="12">0</text>
        <text x="375" y="12">5</text>
        <text x="450" y="12">10</text>
        <text x="525" y="12">15</text>
        <text x="600" y="12" text-anchor="end">20</text>
      </g>
    </g>
  </g>
</svg>