<?xml version="1.0"?>
<svg xmlns="http://www.w3.org/2000/svg" width="601" height="618" viewBox="0 0 601 618" transform="translate(0.5, 0.5)">
  <desc>Chysl 0.2.11 plot2d</desc>
  <g stroke="black" fill="white" font-family="sans-serif" font-size="14">
    <text x="300" y="18" stroke="none" fill="black" font-size="18" text-anchor="middle">Random walks (source: db)</text>
    <g>
      <path d="M 20.76 600 V 23.6 M 92.915 600 V 23.6 M 165 600 V 23.6 M 237.225 600 V 23.6 M 309.38 600 V 23.6 M 381.535 600 V 23.6 M 453.69 600 V 23.6 M 526 600 V 23.6 M 598 600 V 23.6" stroke="gray" />
      <g text-anchor="middle" stroke="none" fill="black">
        <text x="20.76" y="614" text-anchor="start">-20</text>
        <text x="92.915" y="614">-15</text>
        <text x="165" y="614">-10</text>
        <text x="237.225" y="614">-5</text>
        <text x="309.38" y="614">0</text>
        <text x="381.535" y="614">5</text>
        <text x="453.69" y="614">10</text>
        <text x="526" y="614">15</text>
        <text x="598" y="614" text-anchor="end">20</text>
      </g>
    </g>
    <g>
      <path d="M 20.76 600 H 598 M 20.76 517.6571 H 598 M 20.76 435.3143 H 598 M 20.76 353 H 598 M 20.76 270.6286 H 598 M 20.76 188.2857 H 598 M 20.76 105.9429 H 598 M 20.76 23.6 H 598" stroke="gray" />
      <g text-anchor="end" stroke="none" fill="black">
        <text x="18.76" y="600">-20</text>
        <text x="18.76" y="522.3238">-15</text>
        <text x="18.76" y="440">-10</text>
        <text x="18.76" y="357.6381">-5</text>
        <text x="18.76" y="275.2952">0</text>
        <text x="18.76" y="193">5</text>
        <text x="18.76" y="110.6095">10</text>
        <text x="18.76" y="37.6">15</text>
      </g>
    </g>
    <g>
      <polyline points="307 286.7622,316.3596 293.3944,312.5617 303.4843,314.4668 314.6274,303.6224 316.8363,305.4141 327.5625,307 332.3416,320.1709 345.8032,334 348.6977,334 360.2868,340.4188 370.4983,336 386,331.2141 370.7946,345 362.7404,330.7018 348.2402,341.4029 339.3197,332 352.5111,329.6678 339.8126,332 332,324.2044 331.243,330.2477 320.5439,339 329.3609,350 338.7026,358.5964 337,349.5288 334,350 319,336.8231 330,350.7719 319,340.6781 328,341.8077 339.2034,336.7211 354,343 368,357 354,365.4419 345,361.625 339.2178,369 340,356.5102 335.6974,351.4813 332,349.1962 317.1664,340.5837 308.311,346.3146 306.448,334.1939 317.4835,347.6805 326.3554,338 333.3283,339 332.6823,324.7063 349,324.5927 359.426,327.6954 349.5954,316 349.4253,313.3225 340,326.4487 342.6016,319 330,305.3951 335.7198,302.3581 346.326,307.5514 345.7244,300.3053 348.5817,305.8435 354.3469,293.3666 355.6478,284.5656 351.6521,276 363.6733,287.332 369.2631,281.3375 368,287 362.3708,295.5311 370.2778,293.4206 374.7586,294 372.3197,297.6338 386.5501,294 379.6806,280.5055 371.5702,286 374.8049,284.4039 382.5669,291.2506 383.2123,284.4718 398.714,280 385,285 380.7108,297.6068 396,300.5639 406.4493,297.5895 417,293.2351 403.7085,299.7404 392.3026,287.488 399,295.6894 414,286.7342 427.771,296 436.59,293.7144 452.6022,282.564 452,291 457.3773,285.7579 472.5017,274.202 484,265.724 482,261.6514 466,255.4204 454.3082,243.6382 453.3989,245 448,242.4724 447.4279,250.4907 459,251.4033 456,259.5336 467,257 482.7377,261.7601 470.6159,257.5326 460,262 476,261.2347 491,255.8439 481,245 479,232.24 492,245.2903 505,236 490.6627,230.3677 500,218.7206 500,206 509,198 501,188.2175 498.2683,180.7622 482,195 468,206.4702 466.2742,219 461.6676,209 454,219.156 470,210.3507 460.6433,218 458.6479,207.1863 466.3798,199.5585 450.5507,191.6308 455,197 449.4543,198.8817 444.4915,209.4165 431,198.1155 446.3332,210 433,206.2422 436,211.579 438.7092,200.3525 447,194.6875 445,185.198 437.2583,198.757 441,200.7865 436.5636,209.3868 432.311,209.8636 425,196.1182 410.5627,207.6236 404,199 400,185.3924 403.4114,177.1774 401.3944,170 415,178.4557 423,180.1791 439,182 429.4123,190.2362 435,179.5112 431.4588,174 438.5134,165.5599 442,170.8188 445.27,175 437.7661,184 435.4345,198.1542 435.3662,199.2274 430,212.8302 423.4998,224.8608 434.7425,222.6096 428,229.3262 417,222.5828 423.2722,220 427,208.3083 430.4483,212.4179 422.5608,204.6216 418.586,211.8689 430,197.8513 441,203 427.5131,199.7618 433.7053,203.4348 439.7596,190.1355 448,193 449.5391,188.6186 453,178.1451 444.2835,174.5094 438,176.466 425,185 437,183.6201 453,191 462,204.7378 471,205 471.2493,214.4222 468,225.4215 474,213.8041 484.4068,200.7089 477.5767,206 469,214.1856 481.5351,201.6062 476.2954,187.2083 481.6622,189.7384 476.6416,193 462,206.7733 468,201.4336 484,190.4967 486,194.5869 494.5855,183 488.494,188 488.4813,177.6335 498.4642,171 487" fill="none" stroke="red" stroke-width="2" />
      <polyline points="321.6796 285.5438,334.2853 272,342.738 280.7361,356.2163 270.5696,345.8078 286,342.2865 283.2391,328.567 268.2652,333.5544 267.7158,333.3216 280.7342,340.473 272.7788,326.6893 262.6678,322.4849 248.4018,318 258,309 263.4407,296.758 274.557,296 272.8378,297.6254 285,284 296.5945,295.4344 308.5724,300.7352 306.7444,303.6235 292.3541,296.5715 285.6827,297 290,294.2231 299.816,282.7024 286,286.7523 296.812,295.5008 307.1963,300.184 304.3424,308.7496 307.2325,322 300,320.4212 312.4973,313.4395 324.6067,314 314.5328,321 310,319 317.3147,327.6994 311.6754,332.4214 309.758,340.8102 306.8306,334 311,328.4883 318,340 311,343.267 312.5065,343 325.5121,342 322.6196,337.7893 322.3814,352.1999 308.7786,340 294,348.4912 283.8016,357.2827 293.3978,346.662 288.7231,356 301.8327,342 287,354 295,363.4404 301.6021,373.2973 317.6434,376.4257 326.7091,380.3469 342.3522,384.5962 355.534,383 369.6978,379.6093 381,374.6443 382,379.2366 377.6302,380 366,377.342 377.7323,382.6896 382.4367,395.2379 386,381.2066 391.1965,394.473 392,403.7911 396.2707,407 410.2387,398.3332 423.2807,395.5194 429,397 424,389.6817 432,376 444.2938,372.5385 431,363.5415 434,349.4806 431.2567,347.1949 437,344 444.3022,341.3625 454.6848,347.4972 440.4186,359.2384 445,345 436,344 434.4708,348.5297 424,349 426.3674,338.4107 441.4573,328.7537 453,341.4761 450.6297,328 456.6169,325.2966 445.6003,322.7936 444,316 450,304 440.5643,303.536 433,305.6189 446.4802,299 452.4034,307 457.4598,320.5589 447.6878,326 446.6472,331.617 452,320 440,319 425,325.6642 422.6158,323.5595 416.4853,316 421.3207,311 411,324 424,310.1777 429,315.4486 431,323 415.5785,327.7535 410,317.4544 407.3072,321 417.3461,307.4538 411.4763,321.6905 406.6453,313 394.4451,307.7898 399.6717,316.8367 390,329.2804 377.3122,315 386.2467,317.3091 395,327.442 387.2969,334.8318 372.6755,340.8257 357.4116,340 369.4059,340.3379 354.626,343.6346 360.4836,332 372.5336,321 365.5943,316.2027 367.7481,330 373.2773,334.3574 378.2489,331 380.67,329.4562 393.2886,333.5482 391.4364,322.3395 375.8096,336.3955 383.223,331.796 374,332 371.7872,339.6062 363.4981,333 364,341.7946 351.3123,352.3615 341.4416,357 357,353 350,345.6336 364.5588,348.346 355.7205,362.6656 348.2038,361.185 363.6171,366.3775 350.6923,367 348.6284,355 354.531,357.7854 344.554,352.7217 333.627,355.2674 331.8172,346.6359 325.3911,336 328,347.3139 316,360 326,372 327,362 314,375 298.3711,371 307.4316,383.2998 300.423,395.5806 293,409.5681 285.2905,419 271.3628,416.7727 257.5343,414.2823 242.35,415.4995 237.7104,401.3503 243,395 259,389.4598 267,378 275,388.5692 284.4898,394.338 268.2879,380 261.3353,369.6175 271.7166,364 258,375 271.3976,383.3071 285,379.2288 268.6185,390 281.4724,392 284,397 272.2751,399 258,410.2803 269,397.4933 279,397.7216 272.6517,408 265,412.4028 261.7147,417 265,421.5493 254,432 246.7291,437 260.815,432 262.2771,426.372 272.2156" fill="none" stroke="green" stroke-width="2" />
      <polyline points="305.7628 259.6448,299 245.2995,284.7958 247.87,291.183 239.4765,277 252.1522,264.7087 250,253 253.4193,246.726 266.5126,243 268.6367,245.3712 273.733,233 279.3664,238.5308 295.7171,239.161 311.5426,249.6729 321.5337,250.6432 335,252 325.3477,264 315.8054,275.3367 332,284.1623 347,295 330.5245,301 327,308 340.6331,318.3596 354.2226,310.8192 361.7957,316.2332 365.3003,313 365.2349,320.2507 354,330.2112 361.1808,317.2928 374.5426,306.1796 366.4506,294.1803 358,279.801 352,272.508 347,280 342,267.7251 357.7673,264.339 344.3616,263.3139 352,262.4669 341.6198,254 354,266 356.5242,264.4685 362.7522,257 351,265.8238 359,272.3171 345,270 329.2875,258.1327 318.1636,268.2576 326.3238,261.8166 334,251.328 323.5876,257 314,261.1552 322,249.2394 330,257.5607 345.737,258.5258 351.6189,252.4218 357,255 368,245.2261 356.452,252.5709 361,245.3203 358.286,257.8027 348.7962,256.1604 344.3638,252 337.47,252.615 353,257.6353 340.8044,257.1943 352,251.5192 362,261.3308 354.3793,255.482 361,244.6967 363,258.437 354.3885,271 368.4069,283.2896 354.8089,292.2609 367,303 351.3105,309.8435 351,305.3103 338.3663,308 344.1953,296 360,302 367,291.3117 373,290.2165 361.7472,289.471 374,299 368.228,300.2784 355,297.544 359,284.6935 352.3765,288.2066 337.6373,274 340.507,272.1948 343.2957,259 333,245.8233 328.3163,240.4125 330.7989,250.1663 340.5422,250.4982 348.2257,253.6756 346.7698,258.5055 360,262.3343 354.7526,249.8587 339.2986,260 329.6441,268.2498 329.64,280.2376 341,287.2718 325.3037,274.652 320.4032,288.3098 332.202,290 319,283.1981 328.6491,289.4821 319,302.2308 314,289.354 303.352,283.1767 301.2599,289.5519 285.511,291 297.2109,291.3736 295.4019,298.6496 305.5775,300 320.4108,314 336,315.322 347,308.8209 350,301.6945 358,296.1719 358,309.3458 367.5459,300 382.6017,312 373.2788,321.4341 385,319.7434 379,320.6477 371.5211,311.8221 358.2614,314.476 354.5762,317 356.4573,303 367.533,302.3483 381.3037,305 391.5134,310.4195 394.6422,315 402.4822,304 397,313.528 406.5891,300.1549 394.4478,307.4644 385.6575,316 388.3829,329 378.2523,336.2542 363.7391,348 361.5981,335.2315 358.6337,335 374.5451,329.7469 364,333.3487 350,340.7348 360,347 375,357.551 382,371 396.7747,378 410,388.6219 399.4513,389 397.3705,381 402,370.7428 405.3431,360.2931 401,360 405.6887,355.6518 390.8029,368.5768 375,364.6106 388.7858,355 377,350.5751 388.5395,363.7262 397.6603,365.4673 400.5073,355 404.7158,363.346 403.2995,373.6727 419.2394,362.3533 421.4757,366.4553 424.3923,360 414,370 409,359.5656 401,362.6708 393.4552,369.4712 391.3707,366 380.2573,378.4162 365.3906,372.7455 375,364 369,377.2735 377.5344,375.8095 376,373.3989 374.4455,369.6728 371.5872,383.4708 363,397 365.4819,386.7144 375.2929,379 366.404,371 364.3862,383.3042 367,375.7162 354.2172,389.5423 368.4439,399 352.8225,393 357.4921,384 367,392 368.7387,386.3563 373.2001,398 357,393 364.5027,386.2509 355,398 365.2665" fill="none" stroke="blue" stroke-width="2" />
      <polyline points="298 276,307.5028 264.6962,320.4931 267.3279,307.3114 282.2867,316 286.4113,306.6438 293.5974,295 280,293 279.7255,284.426 279,277.3171 264.5171,288 257.3178,289.7122 249.7252,277.726 254.2768,288.727 244.6875,283.4065 248.4998,273 265,286 275.3334,294.6763 286,293.3813 284.4666,284.2857 291.6765,274 308,270 296.8413,262 299,259 298.5613,250.6694 313.4695,245.7701 297.6826,248 299.2631,242.1529 292,232 288.3794,232 302.5898,232 308,217.8854 309.5694,209.3395 322.5173,214.7231 320.7557,211.5714 314,222.4447 318.4481,223.2048 305.569,216.4629 307.1645,216 311.7587,217.8148 302.2891,228.5453 305.1658,222.2922 296.3459,228.163 303.786,226.5281 312,227.2103 321.7107,214.8241 329.4628,203 336,198 342.2982,210.3519 333.6072,203.4645 320.267,203 336.2375,202 350,195.5661 334.7563,196.48 318.7821,194.807 324.2712,187 332.5888,194.8321 329.5962,205.2491 330.2678,216 317,203.6446 311.5326,191.3718 316.3692,180.6169 312,169.7688 325.575,176.5777 319.7019,186.5632 306.235,192.7072 295.4078,186.5986 296.8032,188 300.172,186.8168 300.7777,187.3205 316,177.1722 307,187.7159 316.6645,176.5229 325.4293,187.4565 327.2976,201.2892 327.415,190.209 318.6836,179.2335 312.2185,193.5544 304.1649,202.6103 306.6162,190 315.6499,200.3363 306,202.4805 316,201.8385 305.4567,190.5536 292.1803,178.3819 285,164.4775 273.1951,159.1355 271.5007,146 266,160.3223 272.5188,170 284,156.7056 278.4973,150.0899 271.4207,137.539 283.4981,132.2291 283,124.7278 295.1843,113.5201 299.5802,100.8857 298.2077,87.3016 297.5401,82 312.7077,68.2244 310,74.3391 320.5403,76.3892 334.2075,75.4007 323.7814,66.4269 325,78.061 332.5871,86.2164 346.4965,79.695 337.3869,90.3093 344.2736,87.7449 349.8225,78.8653 355.434,88.6536 353,98.5737 350.6637,103.6896 349,95.3843 349,90.8948 358,85.5827 344.2701,98.9397 329,100.2293 336.2519,96.336 343,109.6748 331,118 330.3075,117.5419 322.5421,128.7924 315.4065,141.7031 312,151.4917 308.4986,152.9209 298,151.3787 286.5922,144.3856 271,151 281,156.3898 288,144.7584 300,142.8368 285.296,135.2612 284,133.5216 294.7345,139.1561 301.1861,126 289.6709,133.5969 304.6014,132.2219 310.5631,136.7333 316.7015,142.4867 331.6628,154.2579 326.8271,151.3232 316.3472,158.2626 322.4951,146.4253 318,144.2458 305.828,134.1433 295,144 304.6474,137 301,130.794 301.3318,131.7371 305,120.8776 312,129.8563 302,118.3524 295.7597,129.3034 292,142.6035 289.1794,141.6909 292.4279,144.1097 287,158.3229 298.6663,153.2802 285.6974,158.6544 292,160.4642 306.4221,150.3706 321.6189,160.3475 333.6043,156.6664 339.2252,162.3415 353.2836,148.1701 364,150.1371 369,137.903 376,131.1166 368.4745,137.2784 384.2842,147 397.2383,144 399.7502,130.4842 412.6664,137.4631 406.4691,145.7998 391,157 397.5887,161.5437 392.337,153.673 383.7805,165.4948 380.7808,173.6193 388,183.5647 393.5668,177.9089 391.4554,181.126 392.5784,190.7024 384.1945,191.4371 371.5595,188.5754 375.2025,202.4399 381.3226,191.8556 369.635,197.3185 375.5319,206.1838 369.6605,204.8149 368.6766,217.8009 367.3481,206.3693 369.3503,200.7064 354.2347,198.8967 357.5266,206.5618 348.7786,194.4313 343,207 340.1951,200.5204 326" fill="none" stroke="lime" stroke-width="2" />
      <polyline points="296.8181 271,288 269.1634,285.2459 256.6069,273 257.7594,266.8076 270.634,276.7553 265.7156,272.476 264.6576,271 279.1554,266 294.5083,254.476 283,262.5982 289.7086,248.6767 277.1447,236.2027 285.5774,246.264 283,244.4957 274,256.5652 271.3312,268.7326 285.5307,269.2949 279.3896,279.2864 280.1877,283 287.1444,289.6421 284.5586,303.7836 283.6296,295 274,293.4952 286,306.8391 286.2899,297.2543 296,290.1614 282,299.1842 297.3806,305 303,303.1745 295,297.2003 302,309.6354 292.3947,319.1942 284.3889,332.4635 276,339.5582 283,345.4656 268.4848,347.51 261.304,338 262.4493,339 255,339.5346 263.5492,353.5581 264,342.5425 252.8567,338.6677 238,325 229.3759,330.3008 222.2831,317 222.141,317 228.7516,305.1799 225,301.3117 209,293.6376 212.63,298.2102 224.6764,288 238.2261,298.1513 228.8094,287 236,291.8386 250.5861,279.1578 260.8342,287 269,294.2748 280.2084,298 274.4651,302.1634 285.1939,301.167 293.3423,296 299,308 309.2097,305 300,292.7289 290.7768,304.417 286.8314,316.6897 288.3173,324.7306 272,324.5905 273.518,337.6547 267,337.7824 270.4974,344 255,344 256.1287,344.3701 271.2488,353.7157 264,357.395 257.3677,366.3011 259.5594,368.3762 268,370 263.1333,372 273.1634,365.431 288.3238,363 285.7495,359 280.1727,355.5647 281.1561,347 280,338.7784 289.283,336.7273 284.771,337 293.7369,339.1845 287,331 299.5565,341.5037 304.7527,343.2715 305,343.6088 311.2512,333.5435 304.7177,338.7096 290.3463,338.6421 278.8076,338.7321 262.7412,329 269.3251,337 272,338.7365 259.1704,330.4702 273.4748,316.5435 269.5686,329.404 278.1484,329.5601 280.5271,329.37 270,340.5048 267,339.7185 253.6881,338 260.1681,337.461 254.8533,329.8015 246.7794,326 261.2708,332 248.5889,343.6815 232.7151,330.6256 217.1136,342.1892 204.2476,328 198.6141,319.2569 185.408,312.7779 200,315.2972 193.6559,316.253 196.5671,303.7847 189.2112,289.5934 186.6055,278 188,280.3482 196.4318,287.692 204.4666,298.2569 208,303.6527 209.6045,298.4533 223,301.6765 237.7842,300.7683 240.8711,294.7692 249,294.3968 236.5025,303 242.8526,305.6202 238.5526,312 234.4308,299.4277 246.1769,307.7569 254,309.7314 268.7189,312 275.7041,299 291.6806,291.3077 291.1549,298.5886 306.6139,298.801 312,302 305.406,290 313.7249,300.5418 308.3333,291 307,287 318.4628,284.2889 317.4607,288.822 304.8451,282.2958 288.7613,278.4787 284,275.4587 285.5821,281 277.619,268.4006 293.342,264 299.3557,262.4303 284.6966,256.685 293.6785,254.6953 299.1829,252.1477 298.3364,241 290,244.8274 281.5413,243 292.2254,250 280,261.4202 272.645,250.6106 279.4604,256 294.6076,249.8436 298.3366,258.3983 314,251.87 309.3982,237.5751 315.6981,244.3853 317,251.3827 325.2308,257.5419 336.5351,261.2741 327,248.6487 334.2093,243.774 321.5633,231.3333 324.4855,245.6277 338,258.7671 352,260 353.6607,265.3122 360.7186,264.493 348.6367,254.7562 335.6207,243 346.3451,235 345,229.6305 346,217 352.6062,202.6351 365,207.2043 363,206.1137 378.8037,213.5746 392,219.3174 395,230 408.3726,225.7732 423.4622,238.3968 419.6609,233.742 431,245 435.5815,234.2275 436.6129" fill="none" stroke="orange" stroke-width="2" />
      <polyline points="305.4377 260.1338,292.7478 251.3562,304 265.8357,309.1563 258.3927,316.5986 246.2624,315.6553 241.4222,318.1674 243.3586,307.5966 242,308.3708 247,315 234.2851,315.2531 238.2827,315.5209 230.4597,309.797 219.7503,314.4368 213,317.1903 227.322,321.4254 215.2444,326.2849 204,316 205.4645,322.3336 190.7462,310.3057 200.4686,302.7715 208.5656,307 211.5175,319.2618 205.7494,325 192.3697,335.3225 208,333 203,339.5731 189.6683,331 189.8136,342.5876 200.1545,329.3908 202.6459,320 218,317 213.5426,321 201.8025,314.8071 209.1648,326.4483 223.8131,329.2064 235.7845,336.6705 248.4192,346.3776 255.2893,359 251,366.6257 260.7419,371.5849 255.5835,368.7055 253.776,369.7643 242.5237,384 232,384 245.1341,388 229.5618,379.6774 241.5904,370.7337 255,371 265,382.2209 252,393 251,391.4464 245.5029,388.7251 243.399,376 241.7734,378 251,368.6087 253.1534,380 237,386 242.5612,381.2548 228.5309,374.5206 225.3057,381 232.4949,393.2435 240.7218,407.4406 234,408.2371 231.3923,419.557 219.6163,406.3675 225.6033,392.1982 228.1663,398 231.813,400 243,391.4454 248.4317,384.3787 241.4265,392.4652 247.7241,402.2108 252.639,412 246,412 237.1551,420 246.3624,431.6456 251.568,419 235.3705,433.2213 230,420 246,428 239.7599,438 224.6206,441.708 214.3223,438 217.4057,441 223.731,445.669 211.1257,444 198.2777,451.7654 206.1543,439.2946 212.2152,442 209.5371,432.3082 203.4354,427 207.2687,416 200.3534,408.6597 210.14,420 215.6196,429 230.1745,429 225.376,435 226.5526,425.5167 225.1177,436.5805 232,434 226.4875,429.6022 221.5635,427.2193 232.6307,426.5874 247,414.4658 249.3642,410 239.3958,397 244.4525,400 242.144,403.4159 239.6154,417 248.7092,417 262.6961,424.6178 261,438 273.7659,439 281.4024,437 267.3091,429 279.4116,426.2666 287,434 280,427.23 268.7719,419.5798 283.1535,410 280.619,418 273.4623,408 277,417.3608 272.5773,425 284,434 295,420.2584 295.5201,424.4771 291,424 301.5724,426 302.4289,411.6075 310.2342,408.2605 302.5807,422 286.8432,424 291.6874,434 281.8124,447.475 290,462 286.8307,466 295.5836,478 307.2881,483.6935 293.2477,492.4307 302.6891,506.2834 291.4497,520.5869 281.5469,533.5503 290.8284,525 299.4225,524.5433 310,536 299,531.6261 307,521 316.6708,514.5665 322.7958,520.4443 337.2838,522 327,514.6693 322.7379,508 309.7385,508 314,520 313.6815,516.6899 324,505.4145 330,491.6771 318,503 306.8429,502.6348 311.6726,496.5075 323.624,490.3848 330,490.4811 340,491 340,481 337.5832,492.5246 329.1892,493.7285 337.522,500 346,510 353.4543,501 344.2871,493 351.5544,498.5153 355.4035,495.4624 341.7343,506 325.5316,508 329.5511,510.3602 332.5521,524 340.3383,533 331,527 321.6586,532.4123 312,533 323.6503,532.3844 308.6654,544 314.6132,548.4224 330,555 327.4153,551.5718 335,539.539 343.5538,537.4779 346,527.5006 339.6201,513.3638 350.2044,507 361,516 346,515.2974 351.4157,525 343,529.5399 329,517 326,510.5452 310.5889,498 298" fill="none" stroke="cyan" stroke-width="2" />
      <polyline points="321.3835 285.2078,332.489 285,344 286,358 292,349 287.7606,362.7157 295.8158,368 303.5492,364.4055 299.7827,372.1929 300,384.617 295,371.2059 291,357.7864 299.5994,358.7943 302.6023,364 305.6367,373 304,375.786 300,376 299,361.5985 310.5983,356.1845 319.547,347.2989 313.211,345.6353 324.3591,350 335,344.3264 345,349.4585 344.7483,335.411 338,326 346,314.699 342.6593,316.3316 351,330.6283 354.1862,320 344.2776,320.4114 345.4212,323.4633 346.2898,321.5249 361.3189,330 359.6575,336.2852 374.1918,335.4986 379.3824,336.2459 373,329.2117 365.2358,335 379.362,345.208 375.2358,338.542 362.2947,325.3865 360,335.574 352.4423,347.4965 353,359.447 368,369 378,373 361.8144,373 350.4241,378.3077 339,364 339.4937,368.3344 332,381 342.5781,381.6872 338.562,378.7735 324.7931,379 338.8295,383 330.7582,388.723 331,387.7887 319.4497,393.6265 312.6966,403 325.7596,408.5905 314,415.322 299.4252,412.3017 291,420 283,420.3597 283.4597,432.5302 292.714,427.2608 303.6208,437 292.5641,433 296,441.3905 291.2483,439.4025 276.3908,440.2807 289.7654,436.4579 294.601,426.3901 290.4524,428 283.7514,439.6798 293.2347,433.2585 288.6866,440 282.4386,427.2616 273,420 287,433.3306 299.7004,446.2262 309.1583,437.746 295.5242,444.3537 280.4253,431 274.417,429 281.77,427 271.8248,426 257.6228,438.7039 254.1657,427.7584 266.2921,429 255.4908,443.3049 248.3194,429 235,431.5546 247.1916,437.3609 232.761,431 230.3254,434.5405 226.8742,430 225.2517,442 223.5578,432.428 221.2083,439.4956 235.1252,450 236,441.7144 245,429.6006 233.5381,439 236.3615,453 245.4924,438.5125 234.6325,446 245,441 259,442.4566 258,446.2713 246.6095,456.2889 251.7697,454 263.2247,456.3911 267,462 273.3831,458 268.4288,448 277,449.5833 271.6741,438.6686 274.6223,437.3148 277.7185,425 271.5931,430.5802 280,431.6207 269.1487,438.5878 285.3008,433.3321 294.4729,444 288,451 304,458.2608 315.7431,449 317,452.2637 325,462.7127 317.4317,476 329,475.3205 333.5402,472.3328 346.7191,484 359,471 375,479.4793 363,474.3832 373,468 375.2846,471.3196 383,478.2517 375.249,490.6366 360.7764,497.7086 346.2387,506 350,492 359.3333,505 354,514 368.6115,522.3265 376,516.4069 378,526 371,540 387.3636,538.307 383.4504,537 387,548.276 386.8029,538 390.5012,535 397.5566,523.7007 386.442,529.4424 371,535 371,547 367,558 354.3499,558 364,553 351.2227,551 354.6995,543 345.7584,528.4348 333.6679,518.6633 343,512 345.5044,514.5569 337.2931,514 331.5416,501 327.7262,503 341.73,516.7174 338.5207,516 348,516.7297 336.5779,522.4156 350.2073,517 336.3457,505.725 332,516.3594 326.1765,520 341.4025,514 350,507 344.7046,502 360.615,489 363.5117,487 361.6353,481.7341 351.7492,494 338.646,507 342.6717,505.3604 330.312,496 317.1676,505 323.5236,490.5536 322.579,482 333,478.4303 336,485.4851 329.5187,494.2842 320.3621,491.4067 325.3347,488 324.5344,487.4586 322.2825" fill="none" stroke="gold" stroke-width="2" />
      <polyline points="321.3948 275.3196,323 285.4819,325.1721 282.7773,330.2539 284.4157,319.7975 289.3316,313.3022 299.6324,325.5882 293,338.3399 278.3858,331.7765 284.8521,331.6631 288,329.3415 301.5954,341.5651 289.751,344 293.751,346.7738 292.4534,343.2742 285,336.2346 289.3937,345.7186 282.2533,337 287.7213,337.63 299,344.5499 295,340.637 300.5581,331.5998 310.6427,333.6792 309.2077,343.523 299.3138,350 296.6978,342.5321 298.6348,354 289.3218,361 276.6576,370.738 284.743,382.5032 269.1809,385 266.602,394.7372 256.5454,406.2547 257.597,417 259.5517,415.3442 259.7339,418 275.2834,410.3347 263.8379,397 251,409 252.1426,420.3792 238.8499,417 229.7709,408.5806 233.2076,399 239.5475,413 235,408 248.3419,418 234,432 249,440.6435 255.3597,432 255.6213,426.2709 241.4606,416.2174 246,406.59 238.7433,406.3891 239.1709,418 236.2034,418.2547 224.2981,421 211.1313,425 203.7296,426 216.4552,428.2255 204,435.5549 189,428.5063 177,419 193.1174,405.5512 202.7664,397.6038 193.415,398 181.0975,394 192.6314,387.7731 202.775,395.5177 188.3287,397 186.5987,398.678 180,408.2536 169.3768,406.6901 169.3114,405.6828 180.3992,393.3887 169.7843,391.6954 180.5622,378.4321 196.2413,376.4127 193.8857,388.4499 185.3639,385.6614 182.5358,372 193.6893,370 190.7125,375.2055 176.8799,371 180.3701,360.7962 187.6067,352 177,355.3959 167.442,343 168.2033,347.2604 177.3888,348.2451 192.5245,352.4897 189.171,356.6657 204.2922,358 208.8029,350.2127 192.7398,351 186,350.7132 173,341 173.5227,347 184.3063,336.5699 184.6721,337.6341 172.3928,341.7544 181.1161,336.8107 170.1401,327 176.3219,322 173,328 184.3717,326.2621 172.4887,330.8004 160.5975,341 159.745,334.4797 165.7663,335.282 152.435,329 143,322 151.636,309 155.1588,318 157.9091,321.4888 171.4892,316 170.743,302 178,311.1715 191.1385,319.4442 186.6573,311.657 197.249,316.5426 195,312 185,313.3787 170.8161,309 172.6608,318.4689 179,326 169.7167,330.6158 166.3542,341.2768 177.0947,354.5122 165,350 181.3766,364.5551 168.4025,368.5856 152.7857,358.6653 159.1815,355.6361 170.1883,346.3131 158.3054,346.6404 161.3317,344 154.7204,350 158,338.4043 163.8248,332.66 174.3965,335 159.3844,337.431 174.1358,327 159.8102,340.8028 163.8278,339.4758 171.4775,344.6769 158,347 151.2303,333 139.3424,334.5478 154.4598,329.7877 146.6237,321.2884 136.6176,324.5639 131.8878,336 118.3806,330.5453 130.3178,336.1876 122.1501,329.6741 125.1861,339.8137 136.1587,328.2196 121.6748,314 131.1884,300.2754 132.7611,306 142,295.1656 141.861,287 139.5539,284.8338 147.3038,294 155,295.6738 170.2228,306.3848 180.6273,311 164.3947,303 158,290.5833 144.1066,295.2317 137.238,282 141,284.7562 149.1174,292 146.9151,283.791 134.8576,288 143.1241,283.6352 137.5853,287.6759 139.8168,292.4666 154.2748,284.6478 167.5818,290 160.3029,296 156,291.2642 155.8379,289 167.5638,298 179.6221,291.8063 171.6017,302.3035 184.8723,310 193.4085,322 206.6197,336 214,329 203,324.3312 214.176,318.6587 199.8716,320.1689 200.2978,322 213.1598,324 206.1789,309.4966 216.5109,322 216.7389,315 213,312 227.8541" fill="none" stroke="dodgerblue" stroke-width="2" />
      <polyline points="322.4857 275.6826,321.481 280.2706,330.3999 284.8414,325.6458 286.4421,339.325 273.2407,326.4502 259,329.2714 270.7739,324.3085 265,337 255.7831,332.3266 256.2723,340 253.2776,341 267.8005,331.6182 280,323.6517 273.4367,325 274,326.6569 285.2079,317 281.3667,330.6841 291.6409,331.6182 301.4182,319 285.6197,327 275.4739,331.431 289.6417,327.2904 273.6495,326.6566 266.7046,340 259.6862,330.7133 246,337.6126 254.6912,324.3854 260.5141,322.249 268.7764,318.7927 270.1532,310.5475 257.3126,314.6265 242.3906,318 252.6442,305.5791 259.4986,307 247.3361,316.1848 233.4439,323.7471 233,319.6732 244.3968,305.5102 235.2087,308.7635 243,297.8039 258.643,296.6383 267,307 281.3146,306.5503 282.5369,311.3523 292.4188,314 300.7408,311 309.8079,320.3618 309.3239,306.3965 310,316.4583 323,326.3292 317.3408,333.4708 309.4989,320 312.4233,329.6002 306,337 302,333.5504 291,323 279.3491,332.5469 280,335.2205 272.7946,321.3658 284,330 291,327.4726 282,332.8095 296.7355,330 305.7281,328.3141 309.2967,324.4089 300,323.7091 295.7598,315.2376 302,314.2866 298.7121,312.1617 289.5207,308.2542 298.1804,302.5698 299,312.6626 291,304.5213 275.7713,315.7463 271.1522,316.2093 259,321.241 255.3421,308 254.5553,318 257.1639,330.7551 261.3299,328.5548 251.4277,326.6646 261.405,330 274.858,318.8107 270.829,319.8113 283.3854,317.2812 299.3169,327.5284 287.7875,315.4683 292.5451,308 287.5692,308.5122 285.674,319 283.247,321 275.6944,313.3456 267.7078,325.7128 264,337.6095 270,332.3019 267.6929,319.5463 267,308 264,321 279.7887,316.2968 295.6969,311.8068 301,297.5221 312.6665,301 313.1656,306.4236 318,312.5644 313.2589,320.428 320,320 334,315 334,324.3693 319.7674,331.2455 327,328.429 318.6546,339.8161 304.3294,336 309.8409,343.1865 309.7985,353 312,343 315.5054,344.298 308.439,340.739 293,330.4989 296.3827,322 307.4513,332.2918 293.7906,345.3833 292,332.1888 307,324.6876 292.1624,319.8308 277.4503,316.359 292.5299,324.5637 285,327 283.349,332.7357 294,328.2135 297.606,317.3577 293.4774,319 305,329.4461 318.6498,326 328.5811,333.4758 339,321 328.5384,317 320.3885,323.2566 308.1999,319 298.2487,319.4401 287.6672,313 300.4777,317 286.7485,311.4689 284.8458,313.766 298.6308,317.173 289.2314,311.6485 305.3227,307 308,310 318.7111,297 306,298.4978 308.1948,306.5848 321.7536,312 310.6586,309 314,321 325.1886,325 325.3152,325 320.7335,327.2926 315,320 306.6122,318.5016 314.7348,308.7009 306.4062,321 294,329.2078 278.8327,343 277.6036,349.4143 291.3941,336 304.2404,339.4977 289.4416,338.7528 275.7739,330 269.3261,334 281.3214,328.502 274.1713,329.3236 267.4816,329.4102 256.7396,332 254.28,341.6338 242.5548,346 226.3207,350 214,350.7429 203.6541,346.6503 206.2363,352 192.6993,362 180.2733,366.2358 166.6168,380.4446 178,374.2032 183.7519,373.4433 173,384.5392 168.6274,372 172.2649,377.4302 160.181,367 148.1169,376 138.344,380.2392 122,387 124,401 123.4,414.6134 121.1857,422.5793 114.5302,409 127,420 141.7433,418 140.218,428.5295 149.4665,423.7601 138" fill="none" stroke="gray" stroke-width="2" />
    </g>
  </g>
</svg>