<?xml version="1.0"?>
<svg xmlns="http://www.w3.org/2000/svg" width="301" height="737" viewBox="0 0 301 737" transform="translate(0.5, 0.5)">
  <desc>Chysl 0.2.10 board</desc>
  <g stroke="black" fill="white" font-family="sans-serif" font-size="14">
    <g transform="scale(1.5) translate(0, 0)">
      <g stroke="black" fill="white" font-family="sans-serif" font-size="14">
        <g transform="translate(0, 0)">
          <g stroke="black" fill="white" font-family="sans-serif" font-size="14">
            <text x="100" y="18" stroke="none" fill="black" font-size="18" text-anchor="middle">Header</text>
            <rect x="2.5" y="2.5" rx="10" ry="10" width="195" fill="lightyellow" stroke="gold" stroke-width="5" height="68.4" />
            <g stroke="none" fill="black" text-anchor="middle" transform="translate(102.5, 20)">
              <text x="0" y="0">Header</text>
            </g>
            <line x1="0" y1="24.8" x2="200" y2="24.8" stroke="gold" stroke-width="1" />
            <g stroke="none" fill="black" text-anchor="middle" transform="translate(102.5, 40.8)">
              <text x="0" y="0">Body</text>
            </g>
            <line x1="0" y1="46.6" x2="200" y2="46.6" stroke="gold" stroke-width="1" />
            <g stroke="none" fill="black" text-anchor="middle" transform="translate(102.5, 62.6)">
              <text x="0" y="0">Footer</text>
            </g>
          </g>
        </g>
        <g transform="translate(0, 83.4)">
          <g stroke="black" fill="white" font-family="sans-serif" font-size="14">
            <text x="100" y="18" stroke="none" fill="black" font-size="18" text-anchor="middle">Header</text>
            <rect x="2.5" y="2.5" rx="10" ry="10" width="195" fill="lightyellow" stroke="gold" stroke-width="5" height="46.6" />
            <g stroke="none" fill="black" text-anchor="middle" transform="translate(102.5, 20)">
              <text x="0" y="0">Header</text>
            </g>
            <line x1="0" y1="24.8" x2="200" y2="24.8" stroke="gold" stroke-width="1" />
            <g stroke="none" fill="black" text-anchor="middle" transform="translate(102.5, 40.8)">
              <text x="0" y="0">Body</text>
            </g>
          </g>
        </g>
        <g transform="translate(0, 145)">
          <g stroke="black" fill="white" font-family="sans-serif" font-size="14">
            <rect x="2.5" y="2.5" rx="10" ry="10" width="195" fill="lightyellow" stroke="gold" stroke-width="5" height="46.6" />
            <g stroke="none" fill="black" text-anchor="middle" transform="translate(102.5, 20)">
              <text x="0" y="0">Body</text>
            </g>
            <line x1="0" y1="24.8" x2="200" y2="24.8" stroke="gold" stroke-width="1" />
            <g stroke="none" fill="black" text-anchor="middle" transform="translate(102.5, 40.8)">
              <text x="0" y="0">Footer</text>
            </g>
          </g>
        </g>
        <g transform="translate(0, 206.6)">
          <g stroke="black" fill="white" font-family="sans-serif" font-size="14">
            <text x="100" y="18" stroke="none" fill="black" font-size="18" text-anchor="middle">Header</text>
            <rect x="2.5" y="2.5" rx="10" ry="10" width="195" fill="lightyellow" stroke="gold" stroke-width="5" height="24.8" />
            <g stroke="none" fill="black" text-anchor="middle" transform="translate(102.5, 20)">
              <text x="0" y="0">Header</text>
            </g>
          </g>
        </g>
        <g transform="translate(0, 246.4)">
          <g stroke="black" fill="white" font-family="sans-serif" font-size="14">
            <rect x="2.5" y="2.5" rx="10" ry="10" width="195" fill="lightyellow" stroke="gold" stroke-width="5" height="24.8" />
            <g stroke="none" fill="black" text-anchor="middle" transform="translate(102.5, 20)">
              <text x="0" y="0">Body</text>
            </g>
          </g>
        </g>
        <g transform="translate(0, 286.2)">
          <g stroke="black" fill="white" font-family="sans-serif" font-size="14">
            <rect x="2.5" y="2.5" rx="10" ry="10" width="195" fill="lightyellow" stroke="gold" stroke-width="5" height="24.8" />
            <g stroke="none" fill="black" text-anchor="middle" transform="translate(102.5, 20)">
              <text x="0" y="0">Footer</text>
            </g>
          </g>
        </g>
        <g transform="translate(0, 326)">
          <g stroke="black" fill="white" font-family="sans-serif" font-size="14">
            <text x="100" y="18" stroke="none" fill="black" font-size="18" text-anchor="middle">Header</text>
            <rect x="2.5" y="2.5" rx="10" ry="10" width="195" fill="lightyellow" stroke="gold" stroke-width="5" height="62.4" />
            <g stroke="none" fill="black" text-anchor="middle" transform="translate(102.5, 20)">
              <text x="0" y="0">Header</text>
            </g>
            <g stroke="none" fill="black" text-anchor="middle" transform="translate(102.5, 38.8)">
              <text x="0" y="0">Body</text>
            </g>
            <g stroke="none" fill="black" text-anchor="middle" transform="translate(102.5, 57.6)">
              <text x="0" y="0">Footer</text>
            </g>
          </g>
        </g>
        <g transform="translate(0, 403.4)">
          <g stroke="black" fill="white" font-family="sans-serif" font-size="14">
            <text x="100" y="18" stroke="none" fill="black" font-size="18" text-anchor="middle" font-weight="bold">Declaration</text>
            <rect x="2.5" y="2.5" rx="10" ry="10" width="195" fill="lightyellow" stroke="gold" stroke-width="5" height="82.4" />
            <g stroke="none" fill="black" text-anchor="middle" font-weight="bold" transform="translate(102.5, 20)">
              <text x="0" y="0">Declaration</text>
            </g>
            <line x1="0" y1="24.8" x2="200" y2="24.8" stroke="gold" stroke-width="1" />
            <g stroke="none" fill="black" text-anchor="middle" transform="translate(102.5, 40.8)">
              <text x="0" y="0">This software was</text>
              <text x="0" y="14">written by me.</text>
            </g>
            <line x1="0" y1="60.6" x2="200" y2="60.6" stroke="gold" stroke-width="1" />
            <g stroke="none" fill="black" text-anchor="middle" font-style="italic" transform="translate(102.5, 76.6)">
              <text x="0" y="0">Copyright 2025 Per Kraulis</text>
            </g>
          </g>
        </g>
      </g>
    </g>
  </g>
</svg>