<?xml version="1.0"?>
<svg xmlns="http://www.w3.org/2000/svg" width="515" height="363.8" viewBox="0 0 515 363.8" transform="translate(0.5, 0.5)">
  <title>Pies in row</title>
  <g class="layout">
    <g fill="black" font-family="sans-serif" font-size="22" text-anchor="middle" transform="translate(195.136,0)">
      <text y="22" x="61.864">Pies in row</text>
    </g>
    <g transform="translate(0,35.2)">
      <g class="layout">
        <g fill="black" font-family="sans-serif" font-size="16" text-anchor="middle" transform="translate(91.644,0)">
          <text y="16" x="59.356">Strawberry pie</text>
        </g>
        <g transform="translate(0,25.6)">
          <g class="plot" clip-path="url(#id3)" transform="translate(151,151)">
            <circle r="150.5" stroke="black" fill="none" class="frame" stroke-width="1" />
            <defs>
              <clipPath>
                <rect x="-151" y="-151" width="302" height="302" id="id3" />
              </clipPath>
            </defs>
            <g class="graphics">
              <circle r="150.0" fill="white" />
              <path d="M 0 0 L 0 -150 A 150 150 0 0 1 31.187 146.722 Z" class="slice" fill="white" />
              <path d="M 0 0 L 31.187 146.722 A 150 150 0 0 1 -88.168 121.353 Z" class="slice" fill="yellow" />
              <path d="M 0 0 L -88.168 121.353 A 150 150 0 0 1 -142.658 -46.353 Z" class="slice" fill="gold" />
              <a href="https://en.wikipedia.org/wiki/Strawberry">
                <path d="M 0 0 L -142.658 -46.353 A 150 150 0 0 1 0 -150 Z" class="slice" fill="red" />
              </a>
            </g>
            <g class="labels" font-family="sans-serif" font-size="12" text-anchor="middle">
              <text x="104.425" y="-10.975" fill="black">Flour</text>
              <text x="-21.831" y="102.705" fill="black">Eggs</text>
              <text x="-99.861" y="32.447" fill="black">Butter</text>
              <text x="-61.717" y="-84.947" fill="white">Strawberries</text>
            </g>
          </g>
        </g>
      </g>
    </g>
    <g transform="translate(312,85.2)">
      <g class="layout">
        <g fill="black" font-family="sans-serif" font-size="16" text-anchor="middle" transform="translate(51.296,0)">
          <text y="16" x="49.704">Rhubarb pie</text>
        </g>
        <g transform="translate(0,25.6)">
          <g class="plot" clip-path="url(#id4)" transform="translate(101,101)">
            <circle r="100.5" stroke="black" fill="none" class="frame" stroke-width="1" />
            <defs>
              <clipPath>
                <rect x="-101" y="-101" width="202" height="202" id="id4" />
              </clipPath>
            </defs>
            <g class="graphics">
              <circle r="100.0" fill="white" />
              <path d="M 0 0 L 0 -100 A 100 100 0 0 1 20.791 97.815 Z" class="slice" fill="white" />
              <path d="M 0 0 L 20.791 97.815 A 100 100 0 0 1 -58.779 80.902 Z" class="slice" fill="yellow" />
              <path d="M 0 0 L -58.779 80.902 A 100 100 0 0 1 -95.106 -30.902 Z" class="slice" fill="gold" />
              <a href="https://en.wikipedia.org/wiki/Rhubarb">
                <path d="M 0 0 L -95.106 -30.902 A 100 100 0 0 1 0 -100 Z" class="slice" fill="green" />
              </a>
            </g>
            <g class="labels" font-family="sans-serif" font-size="12" text-anchor="middle">
              <text x="69.617" y="-7.317" fill="black">Flour</text>
              <text x="-14.554" y="68.47" fill="black">Eggs</text>
              <text x="-66.574" y="21.631" fill="black">Butter</text>
              <text x="-41.145" y="-56.631" fill="white">Rhubarb</text>
            </g>
          </g>
        </g>
      </g>
    </g>
  </g>
</svg>