<?xml version="1.0"?>
<svg xmlns="http://www.w3.org/2000/svg" width="255" height="516.6" viewBox="0 0 255 516.6" transform="translate(0.5, 0.5)">
  <title>Pies in column</title>
  <g class="layout">
    <g transform="translate(127,130.8)">
      <g class="layout">
        <g transform="translate(102,121.2)">
          <g class="area">
            <circle r="101.0" stroke="black" fill="none" class="frame" stroke-width="2" />
            <circle r="100.0" fill="white" class="area" />
            <g stroke="black" stroke-width="1">
              <path d="M 0 0 L 0 -100 A 100 100 0 0 1 20.791 97.815 Z" class="slice" fill="white" />
              <path d="M 0 0 L 20.791 97.815 A 100 100 0 0 1 -58.779 80.902 Z" class="slice" fill="yellow" />
              <path d="M 0 0 L -58.779 80.902 A 100 100 0 0 1 -95.106 -30.902 Z" class="slice" fill="gold" />
              <a href="https://en.wikipedia.org/wiki/Strawberry">
                <path d="M 0 0 L -95.106 -30.902 A 100 100 0 0 1 0 -100 Z" class="slice" fill="orangered" />
              </a>
            </g>
            <g class="labels" font-family="sans-serif" font-size="12" text-anchor="middle">
              <text x="69.617" y="-7.317" fill="black">Flour</text>
              <text x="-14.554" y="68.47" fill="black">Eggs</text>
              <text x="-66.574" y="21.631" fill="black">Butter</text>
              <text x="-41.145" y="-56.631" fill="white">Strawberries</text>
            </g>
          </g>
        </g>
        <g transform="translate(102,9.6)">
          <text y="4.8" fill="black" class="title" text-anchor="middle" font-family="sans-serif" font-size="16">Strawberry pie</text>
        </g>
      </g>
    </g>
    <g transform="translate(127,379)">
      <g class="layout">
        <g transform="translate(127,146.2)">
          <g class="area">
            <circle r="126.0" stroke="black" fill="none" class="frame" stroke-width="2" />
            <circle r="125.0" fill="white" class="area" />
            <g stroke="black" stroke-width="1">
              <path d="M 0 0 L 0 -125 A 125 125 0 0 1 25.989 122.268 Z" class="slice" fill="white" />
              <path d="M 0 0 L 25.989 122.268 A 125 125 0 0 1 -73.473 101.127 Z" class="slice" fill="yellow" />
              <path d="M 0 0 L -73.473 101.127 A 125 125 0 0 1 -118.882 -38.627 Z" class="slice" fill="gold" />
              <a href="https://en.wikipedia.org/wiki/Rhubarb">
                <path d="M 0 0 L -118.882 -38.627 A 125 125 0 0 1 0 -125 Z" class="slice" fill="green" />
              </a>
            </g>
            <g class="labels" font-family="sans-serif" font-size="12" text-anchor="middle">
              <text x="87.021" y="-9.146" fill="black">Flour</text>
              <text x="-18.192" y="85.588" fill="black">Eggs</text>
              <text x="-83.217" y="27.039" fill="black">Butter</text>
              <text x="-51.431" y="-70.789" fill="white">Rhubarb</text>
            </g>
          </g>
        </g>
        <g transform="translate(127,9.6)">
          <text y="4.8" fill="black" class="title" text-anchor="middle" font-family="sans-serif" font-size="16">Rhubarb pie</text>
        </g>
      </g>
    </g>
    <g transform="translate(127,9.6)">
      <text y="4.8" fill="black" class="title" text-anchor="middle" font-family="sans-serif" font-size="16">Pies in column</text>
    </g>
  </g>
</svg>