<?xml version="1.0"?>
<svg xmlns="http://www.w3.org/2000/svg" width="519" height="367" viewBox="0 0 519 367" transform="translate(0.5, 0.5)">
  <desc>Chysl 0.2.11 row</desc>
  <g stroke="black" fill="white" font-family="sans-serif" font-size="14">
    <text x="259" y="22" stroke="none" fill="black" font-size="22" text-anchor="middle">Pies in row</text>
    <g transform="translate(0, 38.4)">
      <g stroke="black" fill="white" font-family="sans-serif" font-size="14">
        <text x="152" y="18" stroke="none" fill="black" font-size="18" text-anchor="middle">Strawberry pie</text>
        <g transform="translate(152, 175.6)">
          <circle r="150.0" />
          <g stroke="black" stroke-width="1">
            <path d="M 0 0 L 0. -150 A 150 150 0 0 1 31.1868 146.7221 Z" fill="white" />
            <path d="M 0 0 L 31.1868 146.7221 A 150 150 0 0 1 -88.1678 121.3525 Z" fill="yellow" />
            <path d="M 0 0 L -88.1678 121.3525 A 150 150 0 0 1 -142.6585 -46.3525 Z" fill="gold" />
            <path d="M 0 0 L -142.6585 -46.3525 A 150 150 0 0 1 -0. -150 Z" fill="red" />
          </g>
          <g stroke="none" fill="black" text-anchor="middle">
            <text x="104.4248" y="-10.9755" fill="black">Flour</text>
            <text x="-21.8307" y="102.7055" fill="black">Eggs</text>
            <text x="-99.8609" y="32.4468" fill="black">Butter</text>
            <text x="-61.7175" y="-84.9468" fill="white">Strawberries</text>
          </g>
        </g>
      </g>
    </g>
    <g transform="translate(314, 88.4)">
      <g stroke="black" fill="white" font-family="sans-serif" font-size="14">
        <text x="102" y="18" stroke="none" fill="black" font-size="18" text-anchor="middle">Rhubarb pie</text>
        <g transform="translate(102, 125.6)">
          <circle r="100.0" />
          <g stroke="black" stroke-width="1">
            <path d="M 0 0 L 0. -100 A 100 100 0 0 1 20.7912 97.8148 Z" fill="white" />
            <path d="M 0 0 L 20.7912 97.8148 A 100 100 0 0 1 -58.7785 80.9017 Z" fill="yellow" />
            <path d="M 0 0 L -58.7785 80.9017 A 100 100 0 0 1 -95.1057 -30.9017 Z" fill="gold" />
            <path d="M 0 0 L -95.1057 -30.9017 A 100 100 0 0 1 -0. -100 Z" fill="green" />
          </g>
          <g stroke="none" fill="black" text-anchor="middle">
            <text x="69.6165" y="-7.317" fill="black">Flour</text>
            <text x="-14.5538" y="68.4703" fill="black">Eggs</text>
            <text x="-66.574" y="21.6312" fill="black">Butter</text>
            <text x="-41.145" y="-56.6312" fill="white">Rhubarb</text>
          </g>
        </g>
      </g>
    </g>
  </g>
</svg>