<?xml version="1.0"?>
<svg xmlns="http://www.w3.org/2000/svg" width="205" height="478" viewBox="0 0 205 478" transform="translate(0.5, 0.5)">
  <desc>Chysl 0.2.10 column</desc>
  <g stroke="black" fill="white" font-family="sans-serif" font-size="14">
    <text x="102" y="22" stroke="none" fill="black" font-size="22" text-anchor="middle">Pies in column</text>
    <g transform="translate(50, 28.4)">
      <g stroke="black" fill="white" font-family="sans-serif" font-size="14">
        <text x="52" y="18" stroke="none" fill="black" font-size="18" text-anchor="middle">Strawberry pie</text>
        <g transform="translate(52, 75.6)">
          <circle r="50.0" />
          <g stroke="black" stroke-width="1">
            <path d="M 0 0 L 0. -50 A 50 50 0 0 1 10.3956 48.9074 Z" fill="white" />
            <path d="M 0 0 L 10.3956 48.9074 A 50 50 0 0 1 -29.3893 40.4508 Z" fill="yellow" />
            <path d="M 0 0 L -29.3893 40.4508 A 50 50 0 0 1 -47.5528 -15.4508 Z" fill="gold" />
            <path d="M 0 0 L -47.5528 -15.4508 A 50 50 0 0 1 -0. -50 Z" fill="orangered" />
          </g>
          <g stroke="none" fill="black" text-anchor="middle">
            <text x="34.8083" y="-3.6585" fill="black">Flour</text>
            <text x="-7.2769" y="34.2352" fill="black">Eggs</text>
            <text x="-33.287" y="10.8156" fill="black">Butter</text>
            <text x="-20.5725" y="-28.3156" fill="white">Strawberries</text>
          </g>
        </g>
      </g>
    </g>
    <g transform="translate(0, 166)">
      <g stroke="black" fill="white" font-family="sans-serif" font-size="14">
        <text x="102" y="18" stroke="none" fill="black" font-size="18" text-anchor="middle">Rhubarb pie</text>
        <g transform="translate(102, 125.6)">
          <circle r="100.0" />
          <g stroke="black" stroke-width="1">
            <path d="M 0 0 L 0. -100 A 100 100 0 0 1 20.7912 97.8148 Z" fill="white" />
            <path d="M 0 0 L 20.7912 97.8148 A 100 100 0 0 1 -58.7785 80.9017 Z" fill="yellow" />
            <path d="M 0 0 L -58.7785 80.9017 A 100 100 0 0 1 -95.1057 -30.9017 Z" fill="gold" />
            <path d="M 0 0 L -95.1057 -30.9017 A 100 100 0 0 1 -0. -100 Z" fill="green" />
          </g>
          <g stroke="none" fill="black" text-anchor="middle">
            <text x="69.6165" y="-7.317" fill="black">Flour</text>
            <text x="-14.5538" y="68.4703" fill="black">Eggs</text>
            <text x="-66.574" y="21.6312" fill="black">Butter</text>
            <text x="-41.145" y="-56.6312" fill="white">Rhubarb</text>
          </g>
        </g>
      </g>
    </g>
    <g transform="translate(2, 403.6)">
      <g stroke="black" fill="white" font-family="sans-serif" font-size="14">
        <text x="100" y="18" stroke="none" fill="black" font-size="18" text-anchor="middle">Comment</text>
        <rect x="2.5" y="2.5" rx="10" ry="10" width="195" fill="lightyellow" stroke="gold" stroke-width="5" height="68.4" />
        <g stroke="none" fill="black" text-anchor="middle" transform="translate(102.5, 20)">
          <text x="0" y="0">Comment</text>
        </g>
        <line x1="0" y1="24.8" x2="200" y2="24.8" stroke="gold" stroke-width="1" />
        <g stroke="none" fill="black" text-anchor="middle" transform="translate(102.5, 40.8)">
          <text x="0" y="0">Strawberry pie is good.</text>
        </g>
        <line x1="0" y1="46.6" x2="200" y2="46.6" stroke="gold" stroke-width="1" />
        <g stroke="none" fill="black" text-anchor="middle" font-style="italic" transform="translate(102.5, 62.6)">
          <text x="0" y="0">Copyright 2025 Per Kraulis</text>
        </g>
      </g>
    </g>
  </g>
</svg>