<?xml version="1.0"?>
<svg xmlns="http://www.w3.org/2000/svg" width="253" height="627.8" viewBox="0 0 253 627.8" transform="translate(0.5, 0.5)">
  <title>Pies in column</title>
  <g class="layout">
    <g fill="black" font-family="sans-serif" font-size="16" text-anchor="middle" transform="translate(66.568,0)">
      <text y="16" x="59.432">Pies in column</text>
    </g>
    <g transform="translate(25,25.6)">
      <g class="layout">
        <g fill="black" font-family="sans-serif" font-size="16" text-anchor="middle" transform="translate(41.644,0)">
          <text y="16" x="59.356">Strawberry pie</text>
        </g>
        <g transform="translate(0,25.6)">
          <g class="plot" clip-path="url(#id2)" transform="translate(101,101)">
            <circle r="100.5" stroke="black" fill="none" class="frame" stroke-width="1" />
            <defs>
              <clipPath>
                <rect x="-101" y="-101" width="202" height="202" id="id2" />
              </clipPath>
            </defs>
            <g class="graphics">
              <circle r="100.0" fill="white" />
              <path d="M 0 0 L 0 -100 A 100 100 0 0 1 20.791 97.815 Z" class="slice" fill="white" />
              <path d="M 0 0 L 20.791 97.815 A 100 100 0 0 1 -58.779 80.902 Z" class="slice" fill="yellow" />
              <path d="M 0 0 L -58.779 80.902 A 100 100 0 0 1 -95.106 -30.902 Z" class="slice" fill="gold" />
              <a href="https://en.wikipedia.org/wiki/Strawberry">
                <path d="M 0 0 L -95.106 -30.902 A 100 100 0 0 1 0 -100 Z" class="slice" fill="orangered" />
              </a>
            </g>
            <g class="labels" font-family="sans-serif" font-size="12" text-anchor="middle">
              <text x="69.617" y="-7.317" fill="black">Flour</text>
              <text x="-14.554" y="68.47" fill="black">Eggs</text>
              <text x="-66.574" y="21.631" fill="black">Butter</text>
              <text x="-41.145" y="-56.631" fill="white">Strawberries</text>
            </g>
          </g>
        </g>
      </g>
    </g>
    <g transform="translate(0,263.2)">
      <g class="layout">
        <g fill="black" font-family="sans-serif" font-size="16" text-anchor="middle" transform="translate(76.296,0)">
          <text y="16" x="49.704">Rhubarb pie</text>
        </g>
        <g transform="translate(0,25.6)">
          <g class="plot" clip-path="url(#id3)" transform="translate(126,126)">
            <circle r="125.5" stroke="black" fill="none" class="frame" stroke-width="1" />
            <defs>
              <clipPath>
                <rect x="-126" y="-126" width="252" height="252" id="id3" />
              </clipPath>
            </defs>
            <g class="graphics">
              <circle r="125.0" fill="white" />
              <path d="M 0 0 L 0 -125 A 125 125 0 0 1 25.989 122.268 Z" class="slice" fill="white" />
              <path d="M 0 0 L 25.989 122.268 A 125 125 0 0 1 -73.473 101.127 Z" class="slice" fill="yellow" />
              <path d="M 0 0 L -73.473 101.127 A 125 125 0 0 1 -118.882 -38.627 Z" class="slice" fill="gold" />
              <a href="https://en.wikipedia.org/wiki/Rhubarb">
                <path d="M 0 0 L -118.882 -38.627 A 125 125 0 0 1 0 -125 Z" class="slice" fill="green" />
              </a>
            </g>
            <g class="labels" font-family="sans-serif" font-size="12" text-anchor="middle">
              <text x="87.021" y="-9.146" fill="black">Flour</text>
              <text x="-18.192" y="85.588" fill="black">Eggs</text>
              <text x="-83.217" y="27.039" fill="black">Butter</text>
              <text x="-51.431" y="-70.789" fill="white">Rhubarb</text>
            </g>
          </g>
        </g>
      </g>
    </g>
    <g transform="translate(39.376,550.8)">
      <g class="layout">
        <g transform="translate(0,0)">
          <rect x="2.5" y="2.5" width="168.248" height="71" stroke="gold" fill="none" class="frame" rx="10" ry="10" stroke-width="5" />
        </g>
        <g transform="translate(5,5)">
          <g>
            <g fill="black" font-family="sans-serif" font-size="16" text-anchor="middle" transform="translate(41.8,0)">
              <text y="16" x="39.824">Comment</text>
            </g>
            <g fill="black" font-family="sans-serif" font-size="12" text-anchor="middle" transform="translate(11.799,26.6)">
              <text y="12" x="69.825">Strawberry pie is good.</text>
            </g>
            <g fill="black" font-family="sans-serif" font-size="12" font-style="italic" text-anchor="middle" transform="translate(0,46.8)">
              <text y="12" x="81.624">Copyright 2025 Per Kraulis</text>
            </g>
            <line x1="0" y1="26.6" x2="163.248" y2="26.6" stroke="gold" stroke-width="1" />
            <line x1="0" y1="46.8" x2="163.248" y2="46.8" stroke="gold" stroke-width="1" />
          </g>
        </g>
      </g>
    </g>
  </g>
</svg>