<?xml version="1.0"?>
<svg xmlns="http://www.w3.org/2000/svg" width="624.038" height="644.2" viewBox="0 0 624.038 644.2" transform="translate(0.5, 0.5)">
  <title>One scatterplot on top of another</title>
  <g class="layout">
    <g fill="black" font-family="sans-serif" font-size="16" text-anchor="middle" transform="translate(178.595,0)">
      <text y="16" x="132.924">One scatterplot on top of another</text>
    </g>
    <g transform="translate(0,25.6)">
      <g class="subchart">
        <g class="layout">
          <g transform="translate(0,1)">
            <g class="y-axis-labels" font-family="sans-serif" font-size="12" text-anchor="end" stroke="none" fill="black" transform="translate(21.038,0)">
              <text x="-2" y="600">0.5</text>
              <text x="-2" y="504">1.0</text>
              <text x="-2" y="404">1.5</text>
              <text x="-2" y="304">2.0</text>
              <text x="-2" y="204">2.5</text>
              <text x="-2" y="104">3.0</text>
              <text x="-2" y="9">3.5</text>
            </g>
          </g>
          <g transform="translate(21.038,0)">
            <rect x="0.5" y="0.5" width="601" height="601" stroke="black" fill="none" class="frame" stroke-width="1" />
          </g>
          <g transform="translate(22.038,1)">
            <g class="plot" clip-path="url(#id11)">
              <defs>
                <clipPath id="id11">
                  <rect width="600" height="600" />
                </clipPath>
              </defs>
              <path d="M 0 0 V 600 M 100 0 V 600 M 200 0 V 600 M 300 0 V 600 M 400 0 V 600 M 500 0 V 600 M 600 0 V 600" stroke="lightgray" class="x-grid" />
              <path d="M 0 600 H 600 M 0 500 H 600 M 0 400 H 600 M 0 300 H 600 M 0 200 H 600 M 0 100 H 600 M 0 0 H 600" stroke="lightgray" class="y-grid" />
              <g class="graphics">
                <a href="https://en.wikipedia.org/wiki/Gold">
                  <circle cx="100" cy="500" r="30" fill="gold" stroke="none" class="marker disc" />
                </a>
                <circle cx="300" cy="300" r="30" fill="blue" stroke="none" class="marker disc" />
                <circle cx="500" cy="100" r="30" fill="red" stroke="none" class="marker disc" />
              </g>
              <g class="labels" font-family="sans-serif" font-size="12" text-anchor="start" />
            </g>
          </g>
          <g transform="translate(22.038,602)">
            <g class="x-axis-labels" font-family="sans-serif" font-size="12" text-anchor="middle" stroke="none" fill="black">
              <text x="0" y="12" text-anchor="start">0.5</text>
              <text x="100" y="12">1.0</text>
              <text x="200" y="12">1.5</text>
              <text x="300" y="12">2.0</text>
              <text x="400" y="12">2.5</text>
              <text x="500" y="12">3.0</text>
              <text x="600" y="12" text-anchor="end">3.5</text>
            </g>
          </g>
        </g>
      </g>
    </g>
    <g transform="translate(0,25.6)">
      <g class="subchart" opacity="0.5">
        <g class="layout">
          <g transform="translate(0,1)">
            <g class="y-axis-labels" font-family="sans-serif" font-size="12" text-anchor="end" stroke="none" fill="black" transform="translate(21.038,0)">
              <text x="-2" y="600">0.5</text>
              <text x="-2" y="504">1.0</text>
              <text x="-2" y="404">1.5</text>
              <text x="-2" y="304">2.0</text>
              <text x="-2" y="204">2.5</text>
              <text x="-2" y="104">3.0</text>
              <text x="-2" y="9">3.5</text>
            </g>
          </g>
          <g transform="translate(21.038,0)">
            <rect x="0.5" y="0.5" width="601" height="601" stroke="black" fill="none" class="frame" stroke-width="1" />
          </g>
          <g transform="translate(22.038,1)">
            <g class="plot" clip-path="url(#id12)">
              <defs>
                <clipPath id="id12">
                  <rect width="600" height="600" />
                </clipPath>
              </defs>
              <path d="M 0 0 V 600 M 100 0 V 600 M 200 0 V 600 M 300 0 V 600 M 400 0 V 600 M 500 0 V 600 M 600 0 V 600" stroke="lightgray" class="x-grid" />
              <path d="M 0 600 H 600 M 0 500 H 600 M 0 400 H 600 M 0 300 H 600 M 0 200 H 600 M 0 100 H 600 M 0 0 H 600" stroke="lightgray" class="y-grid" />
              <g class="graphics">
                <path transform="translate(100, 500) scale(0.098) translate(-200,-200)" d="m239.84 120.88h31.498l-19.084 85.787q-5.5604 24.458-7.5968 30.016 7.4117 34.093 21.493 34.093 16.676 0 17.232-22.975h6.6701q-0.5282 21.493-7.9671 34.834-7.2262 13.155-19.084 13.155-9.8203 0-14.637-7.9673-4.8147-7.9673-10.376-32.61-19.27 40.578-62.997 40.578-29.831 0-47.433-23.161-17.602-23.346-17.602-66.702 0-42.616 19.27-66.332 19.269-23.716 46.321-23.716 19.084 0 31.313 13.526 12.229 13.526 21.679 44.098zm-16.305 72.632q-8.7082-29.831-19.455-46.507-10.746-16.861-25.755-16.861-33.907 0-33.907 79.302 0 75.226 32.425 75.226 28.163 0 41.689-66.332z" fill="black" stroke="none" class="marker alpha" />
                <path transform="translate(300, 300) scale(0.098) translate(-200,-200)" d="m150.53 371.75h-30.572q6.6701-31.313 6.6701-56.697v-201.78q0-31.498 5.5604-46.877 5.7425-15.379 22.048-27.052 16.49-11.858 41.134-11.858 29.275 0 49.101 15.564 20.01 15.379 20.01 43.913 0 33.351-31.684 54.659 47.248 22.234 47.248 69.852 0 25.94-12.599 46.507-12.414 20.381-28.904 29.09-16.305 8.7085-39.096 8.7085-25.94 0-42.245-19.455v34.463q0 35.575-6.6701 60.959zm6.6702-112.1q14.452 23.902 40.393 23.902 25.013 0 36.686-18.158 11.673-18.343 11.673-44.469 0-20.011-7.7822-40.763-7.5966-20.937-19.64-31.869-11.117 2.7791-20.011 2.7791-18.713 0-18.713-9.8202 0-8.8936 15.749-8.8936 9.8203 0 24.458 4.4471 13.155-22.234 13.155-48.359 0-23.346-10.376-35.76-10.191-12.414-26.681-12.414-13.155 0-22.604 7.4113-9.2642 7.4116-12.785 17.787-3.5229 10.191-3.5229 33.537z" fill="white" stroke="none" class="marker beta" />
                <path transform="translate(500, 100) scale(0.098) translate(-200,-200)" d="m244.01 120.88h38.169l-74.299 155.82q2.7774 25.014 2.7774 43.727 0 52.065-19.455 52.065-14.081 0-14.081-21.864 0-28.534 20.751-71.52-4.0749-26.681-11.487-64.294-7.2261-37.613-15.008-53.918-7.5968-16.305-21.864-16.305-23.346 0-25.014 34.834h-6.6702q0-61.144 36.316-61.144 20.937 0 31.128 24.828 10.191 24.643 20.938 107.47z" fill="black" stroke="none" class="marker gamma" />
              </g>
              <g class="labels" font-family="sans-serif" font-size="12" text-anchor="start" />
            </g>
          </g>
          <g transform="translate(22.038,602)">
            <g class="x-axis-labels" font-family="sans-serif" font-size="12" text-anchor="middle" stroke="none" fill="black">
              <text x="0" y="12" text-anchor="start">0.5</text>
              <text x="100" y="12">1.0</text>
              <text x="200" y="12">1.5</text>
              <text x="300" y="12">2.0</text>
              <text x="400" y="12">2.5</text>
              <text x="500" y="12">3.0</text>
              <text x="600" y="12" text-anchor="end">3.5</text>
            </g>
          </g>
        </g>
      </g>
    </g>
  </g>
</svg>