<?xml version="1.0"?>
<svg xmlns="http://www.w3.org/2000/svg" width="748.604" height="477.4" viewBox="0 0 748.604 477.4" transform="translate(0.5, 0.5)">
  <title>Poster</title>
  <g class="layout">
    <g fill="black" font-family="sans-serif" font-size="16" text-anchor="middle" transform="translate(348.418,0)">
      <text y="16" x="25.384">Poster</text>
    </g>
    <g transform="translate(0,25.6)">
      <g>
        <g class="subchart" transform="translate(150,10) scale(1.5)">
          <g class="layout">
            <g transform="translate(0,0)">
              <rect x="2.5" y="2.5" width="136.67" height="71" stroke="gold" fill="none" class="frame" rx="10" ry="10" stroke-width="5" />
            </g>
            <g transform="translate(5,5)">
              <g>
                <g fill="black" font-family="sans-serif" font-size="16" text-anchor="middle" transform="translate(6.631,0)">
                  <text y="16" x="59.204">By Per Kraulis</text>
                </g>
                <g fill="black" font-family="sans-serif" font-size="12" text-anchor="middle" transform="translate(48.45,26.6)">
                  <text y="12" x="17.385">Ph.D.</text>
                </g>
                <g fill="black" font-family="sans-serif" font-size="12" text-anchor="middle" transform="translate(0,46.8)">
                  <text y="12" x="65.835">Stockholm University</text>
                </g>
                <line x1="0" y1="26.6" x2="131.67" y2="26.6" stroke="gold" stroke-width="1" />
                <line x1="0" y1="46.8" x2="131.67" y2="46.8" stroke="gold" stroke-width="1" />
              </g>
            </g>
          </g>
        </g>
        <g class="subchart" transform="translate(0,150)">
          <g class="layout">
            <g fill="darkorchid" font-family="sans-serif" font-size="24" font-weight="bold" text-anchor="middle" transform="translate(273.505,0)">
              <text y="24" x="57.456">Universe</text>
            </g>
            <g transform="translate(0,39.4)">
              <g class="legend" font-family="sans-serif" font-size="12" text-anchor="end" transform="translate(53.922, 0)">
                <text y="14.2">Universe</text>
                <text y="34.2">Earth</text>
              </g>
            </g>
            <g transform="translate(59.922,38.4)">
              <rect x="0.5" y="0.5" width="601" height="41" stroke="black" fill="none" class="frame" stroke-width="1" />
            </g>
            <g transform="translate(60.922,39.4)">
              <g class="plot" clip-path="url(#id1)">
                <defs>
                  <clipPath id="id1">
                    <rect width="600" height="40" />
                  </clipPath>
                </defs>
                <path d="M 0 0 V 40 M 85.409 0 V 40 M 170.819 0 V 40 M 256.228 0 V 40 M 341.637 0 V 40 M 427.046 0 V 40 M 512.456 0 V 40 M 597.865 0 V 40" stroke="lightgray" class="x-grid" />
                <path d="M 0.096 10 h 18 M 9.096 1 v 18 M 2.732 3.636 L 15.46 16.364 M 15.46 3.636 L 2.732 16.364" fill="none" stroke="red" stroke-width="2" stroke-linecap="round" class="event" />
                <a href="https://en.wikipedia.org/wiki/Milky_Way">
                  <g stroke="black" stroke-width="1" class="period">
                    <rect x="277.33" y="1" width="320.785" height="18" fill="dodgerblue" stroke="none" />
                    <path d="M 277.33 1 H 598.365 m 0 18 H 277.33" />
                    <defs>
                      <linearGradient id="id2">
                        <stop offset="0" stop-color="dodgerblue" stop-opacity="0" />
                        <stop offset="1" stop-color="dodgerblue" stop-opacity="1" />
                      </linearGradient>
                      <linearGradient id="id3">
                        <stop offset="0" stop-color="black" stop-opacity="0" />
                        <stop offset="1" stop-color="black" stop-opacity="1" />
                      </linearGradient>
                    </defs>
                    <rect x="234.875" y="1" width="42.705" height="18" fill="url(#id2)" stroke="none" />
                    <path d="M 234.875 1 H 277.58 m 0 18 H 234.875" stroke="url(#id3)" />
                    <line x1="597.865" y1="1" x2="597.865" y2="19" />
                  </g>
                </a>
                <a href="https://en.wikipedia.org/wiki/Milky_Way" class="event">
                  <path transform="translate(277.58, 10) scale(1.5) translate(-6,-6)" d="M8.316 1a5.553 5.553 0 0 1 1.629 3.94A3.443 3.443 0 0 1 6.5 8.378 2.127 2.127 0 0 1 4.375 6.25 1.315 1.315 0 0 1 5.69 4.936c.45 0 .813.365.812.813a.503.503 0 0 1-.147.355l-.71-.208a.502.502 0 0 0-.147.355c0 .449.363.813.812.813A1.315 1.315 0 0 0 7.625 5.75 2.127 2.127 0 0 0 5.5 3.622 3.443 3.443 0 0 0 2.055 7.06c0 1.538.622 2.93 1.629 3.939" fill="none" stroke="white" stroke-width="1" stroke-linecap="round" class="marker galaxy" />
                </a>
                <g stroke="black" stroke-width="1" class="period">
                  <rect x="402.833" y="21" width="195.032" height="18" fill="lightgreen" />
                </g>
                <g class="labels" font-family="sans-serif" font-size="12" text-anchor="middle">
                  <text x="20.096" y="14.2" class="event-label" text-anchor="start">Big Bang</text>
                  <text x="437.722" y="14.2" fill="white" class="period-label" text-anchor="middle">Milky Way galaxy</text>
                  <text x="500.349" y="34.2" fill="black" class="period-label" text-anchor="middle">Earth</text>
                </g>
              </g>
            </g>
            <g transform="translate(60.922,80.4)">
              <g class="x-axis-labels" font-family="sans-serif" font-size="12" text-anchor="middle" stroke="none" fill="black">
                <text x="0" y="12" text-anchor="start">14</text>
                <text x="85.409" y="12">12</text>
                <text x="170.819" y="12">10</text>
                <text x="256.228" y="12">8</text>
                <text x="341.637" y="12">6</text>
                <text x="427.046" y="12">4</text>
                <text x="512.456" y="12">2</text>
                <text x="597.865" y="12">0</text>
                <text x="300" y="27.6" class="x-axis-caption">Billion years ago</text>
              </g>
            </g>
          </g>
        </g>
        <g class="subchart" transform="translate(50,290)">
          <g class="layout">
            <g fill="black" font-family="sans-serif" font-size="16" text-anchor="middle" transform="translate(326.838,0)">
              <text y="16" x="21.964">Earth</text>
            </g>
            <g transform="translate(0,26.6)">
              <g class="legend" font-family="sans-serif" font-size="12" text-anchor="end" transform="translate(89.604, 0)">
                <text y="14.2">Earth</text>
                <text y="34.2">Archean</text>
                <text y="54.2">Unicellular</text>
                <text y="74.2">Eukaryotes</text>
                <text y="94.2">Photosynthesis</text>
              </g>
            </g>
            <g transform="translate(95.604,25.6)">
              <rect x="0.5" y="0.5" width="601" height="101" stroke="black" fill="none" class="frame" stroke-width="1" />
            </g>
            <g transform="translate(96.604,26.6)">
              <g class="plot" clip-path="url(#id4)">
                <defs>
                  <clipPath id="id4">
                    <rect width="600" height="100" />
                  </clipPath>
                </defs>
                <path d="M 0 0 V 100 M 119.522 0 V 100 M 239.044 0 V 100 M 358.566 0 V 100 M 478.088 0 V 100 M 597.61 0 V 100" stroke="lightgray" class="x-grid" />
                <g stroke="black" stroke-width="1" class="period">
                  <rect x="51.753" y="1" width="545.857" height="18" fill="skyblue" />
                </g>
                <g stroke="black" stroke-width="1" class="period">
                  <rect x="125.248" y="21" width="149.902" height="18" fill="wheat" stroke="none" />
                  <path d="M 125.248 21 H 275.4 m 0 18 H 125.248" />
                  <defs>
                    <linearGradient id="id5">
                      <stop offset="0" stop-color="wheat" stop-opacity="0" />
                      <stop offset="1" stop-color="wheat" stop-opacity="1" />
                    </linearGradient>
                    <linearGradient id="id6">
                      <stop offset="0" stop-color="black" stop-opacity="0" />
                      <stop offset="1" stop-color="black" stop-opacity="1" />
                    </linearGradient>
                  </defs>
                  <rect x="107.57" y="21" width="17.928" height="18" fill="url(#id5)" stroke="none" />
                  <path d="M 107.57 21 H 125.498 m 0 18 H 107.57" stroke="url(#id6)" />
                  <defs>
                    <linearGradient id="id7">
                      <stop offset="0" stop-color="wheat" stop-opacity="1" />
                      <stop offset="1" stop-color="wheat" stop-opacity="0" />
                    </linearGradient>
                    <linearGradient id="id8">
                      <stop offset="0" stop-color="black" stop-opacity="1" />
                      <stop offset="1" stop-color="black" stop-opacity="0" />
                    </linearGradient>
                  </defs>
                  <rect x="274.9" y="21" width="47.809" height="18" fill="url(#id7)" stroke="none" />
                  <path d="M 274.9 21 H 322.709 m 0 18 H 274.9" stroke="url(#id8)" />
                </g>
                <ellipse cx="95.618" cy="50" rx="3.6" ry="9" fill="black" stroke="none" class="event" />
                <g stroke="black" stroke-width="1" class="period">
                  <rect x="181.423" y="41" width="416.436" height="18" fill="white" stroke="none" />
                  <path d="M 181.423 41 H 598.11 m 0 18 H 181.423" />
                  <defs>
                    <linearGradient id="id9">
                      <stop offset="0" stop-color="white" stop-opacity="0" />
                      <stop offset="1" stop-color="white" stop-opacity="1" />
                    </linearGradient>
                    <linearGradient id="id10">
                      <stop offset="0" stop-color="black" stop-opacity="0" />
                      <stop offset="1" stop-color="black" stop-opacity="1" />
                    </linearGradient>
                  </defs>
                  <rect x="95.618" y="41" width="86.056" height="18" fill="url(#id9)" stroke="none" />
                  <path d="M 95.618 41 H 181.673 m 0 18 H 95.618" stroke="url(#id10)" />
                  <line x1="597.61" y1="41" x2="597.61" y2="59" />
                </g>
                <g stroke="black" stroke-width="1" class="period">
                  <rect x="400.398" y="61" width="197.211" height="18" fill="white" />
                  <g stroke="black">
                    <path d="M 376.494 65.5 v 9 m 0 -4.5 H 400.398" />
                    <path d="M 424.303 65.5 v 9 m 0 -4.5 H 400.398" />
                  </g>
                </g>
                <g stroke="black" stroke-width="1" class="period">
                  <rect x="286.603" y="81" width="311.257" height="18" fill="springgreen" stroke="none" />
                  <path d="M 286.603 81 H 598.11 m 0 18 H 286.603" />
                  <defs>
                    <linearGradient id="id11">
                      <stop offset="0" stop-color="springgreen" stop-opacity="0" />
                      <stop offset="1" stop-color="springgreen" stop-opacity="1" />
                    </linearGradient>
                    <linearGradient id="id12">
                      <stop offset="0" stop-color="black" stop-opacity="0" />
                      <stop offset="1" stop-color="black" stop-opacity="1" />
                    </linearGradient>
                  </defs>
                  <rect x="191.235" y="81" width="95.618" height="18" fill="url(#id11)" stroke="none" />
                  <path d="M 191.235 81 H 286.853 m 0 18 H 191.235" stroke="url(#id12)" />
                  <line x1="597.61" y1="81" x2="597.61" y2="99" />
                </g>
                <g stroke="black" stroke-width="1" class="period">
                  <path d="M 547.41 81 L 535.458 90 547.41 99 H 597.61 L 597.61 90 597.61 81 Z" fill="green" />
                </g>
                <g class="labels" font-family="sans-serif" font-size="12" text-anchor="middle">
                  <text x="324.681" y="14.2" fill="black" class="period-label" text-anchor="middle">Earth</text>
                  <text x="209.163" y="34.2" fill="black" class="period-label" text-anchor="middle">Archean</text>
                  <text x="101.218" y="54.2" class="event-label" text-anchor="start">LUCA?</text>
                  <text x="389.641" y="54.2" fill="black" class="period-label" text-anchor="middle">Unicellular organisms</text>
                  <text x="499" y="74.2" fill="black" class="period-label" text-anchor="middle">Eukaryotes</text>
                  <text x="394.422" y="94.2" fill="black" class="period-label" text-anchor="middle">Photosynthesis</text>
                  <text x="533.458" y="94.2" fill="black" class="period-label" text-anchor="end">Plants</text>
                </g>
              </g>
            </g>
            <g transform="translate(96.604,127.6)">
              <g class="x-axis-labels" font-family="sans-serif" font-size="12" text-anchor="middle" stroke="none" fill="black">
                <text x="0" y="12" text-anchor="start">5</text>
                <text x="119.522" y="12">4</text>
                <text x="239.044" y="12">3</text>
                <text x="358.566" y="12">2</text>
                <text x="478.088" y="12">1</text>
                <text x="597.61" y="12">0</text>
                <text x="300" y="27.6" class="x-axis-caption">Billion years ago</text>
              </g>
            </g>
          </g>
        </g>
      </g>
    </g>
  </g>
</svg>