<?xml version="1.0"?>
<svg xmlns="http://www.w3.org/2000/svg" width="651" height="465.400" viewBox="0 0 651 465.400" transform="translate(0.5, 0.5)">
  <desc>Chysl 0.2.1 board</desc>
  <g stroke="black" fill="white" font-family="sans-serif" font-size="14">
    <text x="325" y="36" stroke="none" fill="black" font-size="36" text-anchor="middle">Poster</text>
    <g transform="scale(1) translate(250, 55.2)">
      <g stroke="black" fill="white" font-family="sans-serif" font-size="14">
        <text x="100" y="18" stroke="none" fill="black" font-size="18" text-anchor="middle">By Per Kraulis</text>
        <rect x="2.5" y="2.5" rx="10" ry="10" width="195" fill="lightyellow" stroke="gold" stroke-width="5" height="68.400" />
        <g stroke="none" fill="black" text-anchor="middle" transform="translate(102.500, 20)">
          <text x="0" y="0">By Per Kraulis</text>
        </g>
        <line x1="0" y1="24.800" x2="200" y2="24.800" stroke="gold" stroke-width="1" />
        <g stroke="none" fill="black" text-anchor="middle" transform="translate(102.500, 40.800)">
          <text x="0" y="0">Ph.D.</text>
        </g>
        <line x1="0" y1="46.600" x2="200" y2="46.600" stroke="gold" stroke-width="1" />
        <g stroke="none" fill="black" text-anchor="middle" transform="translate(102.500, 62.600)">
          <text x="0" y="0">Stockholm University</text>
        </g>
      </g>
    </g>
    <g transform="scale(1) translate(0, 145.2)">
      <g stroke="black" fill="white" font-family="sans-serif" font-size="14">
        <text x="300" y="18" stroke="none" fill="blue" font-size="18" text-anchor="middle" font-weight="bold">Universe</text>
        <g>
          <path d="M 66.220 23.600 V 89.600 M 142.189 23.600 V 89.600 M 218.157 23.600 V 89.600 M 294.126 23.600 V 89.600 M 370.094 23.600 V 89.600 M 446.063 23.600 V 89.600 M 522.031 23.600 V 89.600 M 598 23.600 V 89.600 M 66.220 23.600 H 600 M 66.220 89.600 H 600" stroke="gray" />
          <g text-anchor="middle" stroke="none" fill="black">
            <text x="66.220" y="103.600" text-anchor="start">14</text>
            <text x="142.189" y="103.600">12</text>
            <text x="218.157" y="103.600">10</text>
            <text x="294.126" y="103.600">8</text>
            <text x="370.094" y="103.600">6</text>
            <text x="446.063" y="103.600">4</text>
            <text x="522.031" y="103.600">2</text>
            <text x="598" y="103.600" text-anchor="end">0</text>
            <text x="332.110" y="120.39999999999999">Billion years ago</text>
          </g>
        </g>
        <g>
          <path d="M 65.311 34.600 h 18 M 74.311 25.600 v 18 M 67.947 28.236 L 80.675 40.964 M 80.675 28.236 L 67.947 40.964" fill="none" stroke="red" stroke-width="2" />
          <g>
            <rect x="313.11785714285713" y="25.600" width="284.882" height="18" stroke="none" fill="navy" />
            <path d="M 313.118 25.600 H 598 m 0 18 H 313.118" stroke="black" />
            <defs>
              <linearGradient id="id17">
                <stop offset="0" stop-color="navy" stop-opacity="0" />
                <stop offset="1" stop-color="navy" stop-opacity="1" />
              </linearGradient>
              <linearGradient id="id18">
                <stop offset="0" stop-color="black" stop-opacity="0" />
                <stop offset="1" stop-color="black" stop-opacity="1" />
              </linearGradient>
            </defs>
            <rect x="275.1335714285714" y="25.600" width="37.984" height="18" stroke="none" fill="url(#id17)" />
            <path d="M 275.134 25.600 H 313.118 m 0 18 H 275.134" stroke="url(#id18)" />
            <line x1="598" y1="25.600" x2="598" y2="43.600" stroke="black" />
          </g>
          <g>
            <rect x="424.526" y="47.600" width="173.474" height="18" fill="lightgreen" />
          </g>
          <g>
            <g stroke="black">
              <path d="M 119.398 74.100 v 9 m 0 -4.500 H 142.189" />
              <path d="M 164.979 74.100 v 9 m 0 -4.500 H 142.189" />
            </g>
            <rect x="133.189" y="69.600" width="18" height="18" fill="black" stroke="none" stroke-width="2" />
          </g>
          <circle cx="218.157" cy="78.600" r="9.0" fill="none" stroke="cyan" stroke-width="2" />
          <ellipse cx="294.126" cy="78.600" rx="3.6" ry="9.0" fill="none" stroke="blue" stroke-width="2" />
          <g>
            <g stroke="black">
              <path d="M 351.102 74.100 v 9 m 0 -4.500 H 362.497" />
              <path d="M 389.086 74.100 v 9 m 0 -4.500 H 362.497" />
            </g>
            <ellipse cx="362.497" cy="78.600" rx="3.6" ry="9.0" fill="orange" stroke="none" stroke-width="2" />
          </g>
          <path d="M 446.063 69.600 L 437.063 87.600 h 18 Z" fill="gold" stroke="none" stroke-width="2" />
          <path d="M 522.031 87.600 L 513.031 69.600 h 18 Z" fill="purple" stroke="none" stroke-width="2" />
        </g>
        <g text-anchor="middle" stroke="none" fill="black">
          <text x="85.311" y="38.800" text-anchor="start">Big Bang</text>
          <text x="455.559" y="38.800" fill="white" text-anchor="middle">Milky Way galaxy</text>
          <text x="511.263" y="60.800" fill="black" text-anchor="middle">Earth</text>
          <text x="117.398" y="82.800" text-anchor="end">Block</text>
          <text x="218.157" y="82.800" text-anchor="middle">Circle</text>
          <text x="288.526" y="82.800" text-anchor="end">Ellipse</text>
          <text x="349.102" y="82.800" text-anchor="end">Oval</text>
          <text x="446.063" y="82.800" text-anchor="middle">Pyramid</text>
          <text x="533.031" y="82.800" text-anchor="start">Triangle</text>
        </g>
        <g stroke="none" fill="black">
          <text x="2" y="38.800">Universe</text>
          <text x="2" y="60.800">Earth</text>
          <text x="2" y="82.800">markers</text>
        </g>
      </g>
    </g>
    <g transform="scale(1) translate(50, 275.2)">
      <g stroke="black" fill="white" font-family="sans-serif" font-size="14">
        <text x="300" y="18" stroke="none" fill="black" font-size="18" text-anchor="middle">Earth</text>
        <g>
          <path d="M 110.040 23.600 V 155.600 M 207.632 23.600 V 155.600 M 305.224 23.600 V 155.600 M 402.816 23.600 V 155.600 M 500.408 23.600 V 155.600 M 598 23.600 V 155.600 M 110.040 23.600 H 600 M 110.040 155.600 H 600" stroke="gray" />
          <g text-anchor="middle" stroke="none" fill="black">
            <text x="110.040" y="169.600" text-anchor="start">5</text>
            <text x="207.632" y="169.600">4</text>
            <text x="305.224" y="169.600">3</text>
            <text x="402.816" y="169.600">2</text>
            <text x="500.408" y="169.600">1</text>
            <text x="598" y="169.600" text-anchor="end">0</text>
            <text x="354.020" y="186.4">Billion years ago</text>
          </g>
        </g>
        <g>
          <g>
            <rect x="152.297" y="25.600" width="445.703" height="18" fill="white" />
          </g>
          <g>
            <rect x="212.5116" y="47.600" width="121.990" height="18" stroke="none" fill="wheat" />
            <path d="M 212.512 47.600 H 334.502 m 0 18 H 212.512" stroke="black" />
            <defs>
              <linearGradient id="id19">
                <stop offset="0" stop-color="wheat" stop-opacity="0" />
                <stop offset="1" stop-color="wheat" stop-opacity="1" />
              </linearGradient>
              <linearGradient id="id20">
                <stop offset="0" stop-color="black" stop-opacity="0" />
                <stop offset="1" stop-color="black" stop-opacity="1" />
              </linearGradient>
            </defs>
            <rect x="197.87279999999998" y="47.600" width="14.639" height="18" stroke="none" fill="url(#id19)" />
            <path d="M 197.873 47.600 H 212.512 m 0 18 H 197.873" stroke="url(#id20)" />
            <defs>
              <linearGradient id="id21">
                <stop offset="0" stop-color="wheat" stop-opacity="1" />
                <stop offset="1" stop-color="wheat" stop-opacity="0" />
              </linearGradient>
              <linearGradient id="id22">
                <stop offset="0" stop-color="black" stop-opacity="1" />
                <stop offset="1" stop-color="black" stop-opacity="0" />
              </linearGradient>
            </defs>
            <rect x="334.502" y="47.600" width="39.037" height="18" stroke="none" fill="url(#id21)" />
            <path d="M 334.502 47.600 H 373.538 m 0 18 H 334.502" stroke="url(#id22)" />
          </g>
          <ellipse cx="188.114" cy="78.600" rx="3.6" ry="9.0" fill="black" stroke="none" stroke-width="2" />
          <g>
            <rect x="258.37984" y="69.600" width="339.620" height="18" stroke="none" fill="white" />
            <path d="M 258.380 69.600 H 598 m 0 18 H 258.380" stroke="black" />
            <defs>
              <linearGradient id="id23">
                <stop offset="0" stop-color="white" stop-opacity="0" />
                <stop offset="1" stop-color="white" stop-opacity="1" />
              </linearGradient>
              <linearGradient id="id24">
                <stop offset="0" stop-color="black" stop-opacity="0" />
                <stop offset="1" stop-color="black" stop-opacity="1" />
              </linearGradient>
            </defs>
            <rect x="188.11360000000002" y="69.600" width="70.266" height="18" stroke="none" fill="url(#id23)" />
            <path d="M 188.114 69.600 H 258.380 m 0 18 H 188.114" stroke="url(#id24)" />
            <line x1="598" y1="69.600" x2="598" y2="87.600" stroke="black" />
          </g>
          <g>
            <rect x="436.973" y="91.600" width="161.027" height="18" fill="white" />
          </g>
          <g>
            <path d="M 295.465 113.600 L 256.428 122.600 295.465 131.600 H 436.973 L 436.973 122.600 436.973 113.600 Z" fill="lightgray" />
          </g>
          <g>
            <rect x="266.187" y="135.600" width="331.813" height="18" fill="springgreen" />
          </g>
          <g>
            <rect x="552.132" y="135.600" width="45.868" height="18" fill="green" />
          </g>
        </g>
        <g text-anchor="middle" stroke="none" fill="black">
          <text x="375.149" y="38.800" fill="black" text-anchor="middle">Earth</text>
          <text x="280.826" y="60.800" fill="black" text-anchor="middle">Archean</text>
          <text x="193.714" y="82.800" text-anchor="start">LUCA?</text>
          <text x="428.190" y="82.800" fill="black" text-anchor="middle">Unicellular organisms</text>
          <text x="517.487" y="104.800" fill="black" text-anchor="middle">Eukaryotes</text>
          <text x="356.460" y="126.800" fill="black" text-anchor="middle">Engineers</text>
          <text x="432.094" y="148.800" fill="black" text-anchor="middle">Photosynthesis</text>
          <text x="550.132" y="148.800" fill="black" text-anchor="end">Plants</text>
        </g>
        <g stroke="none" fill="black">
          <text x="2" y="38.800">Earth</text>
          <text x="2" y="60.800">Archean</text>
          <text x="2" y="82.800">Unicellular</text>
          <text x="2" y="104.800">Eukaryotes</text>
          <text x="2" y="126.800">Engineers</text>
          <text x="2" y="148.800">Photosynthesis</text>
        </g>
      </g>
    </g>
  </g>
</svg>