<?xml version="1.0"?>
<svg xmlns="http://www.w3.org/2000/svg" width="651" height="465.4" viewBox="0 0 651 465.4" transform="translate(0.5, 0.5)">
  <desc>board; Chysl 0.2.12</desc>
  <g stroke="black" fill="white" font-family="sans-serif" font-size="14">
    <text x="325" y="36" stroke="none" fill="black" font-size="36" text-anchor="middle">Poster</text>
    <g transform="scale(1) translate(250, 55.2)">
      <g stroke="black" fill="white" font-family="sans-serif" font-size="14">
        <text x="100" y="18" stroke="none" fill="black" font-size="18" text-anchor="middle">By Per Kraulis</text>
        <rect x="2.5" y="2.5" rx="10" ry="10" width="195" fill="lightyellow" stroke="gold" stroke-width="5" height="68.4" />
        <g stroke="none" fill="black" text-anchor="middle" transform="translate(102.5, 20)">
          <text x="0" y="0">By Per Kraulis</text>
        </g>
        <line x1="0" y1="24.8" x2="200" y2="24.8" stroke="gold" stroke-width="1" />
        <g stroke="none" fill="black" text-anchor="middle" transform="translate(102.5, 40.8)">
          <text x="0" y="0">Ph.D.</text>
        </g>
        <line x1="0" y1="46.6" x2="200" y2="46.6" stroke="gold" stroke-width="1" />
        <g stroke="none" fill="black" text-anchor="middle" transform="translate(102.5, 62.6)">
          <text x="0" y="0">Stockholm University</text>
        </g>
      </g>
    </g>
    <g transform="scale(1) translate(0, 145.2)">
      <g stroke="black" fill="white" font-family="sans-serif" font-size="14">
        <text x="300" y="18" stroke="none" fill="blue" font-size="18" text-anchor="middle" font-weight="bold">Universe</text>
        <rect x="66.22" y="23.6" width="532" height="44" stroke="black" stroke-width="1" />
        <g>
          <path d="M 66.22 23.6 V 67.6 M 142.1886 23.6 V 67.6 M 218.1571 23.6 V 67.6 M 294 23.6 V 67.6 M 370 23.6 V 67.6 M 446 23.6 V 67.6 M 522 23.6 V 67.6 M 598 23.6 V 67.6 M 66.22 23.6 H 600 M 66.22 67.6 H 600" stroke="gray" />
          <g text-anchor="middle" stroke="none" fill="black">
            <text x="66.22" y="81.6" text-anchor="start">14</text>
            <text x="142.1886" y="81.6">12</text>
            <text x="218.1571" y="81.6">10</text>
            <text x="294" y="81.6">8</text>
            <text x="370" y="81.6">6</text>
            <text x="446" y="81.6">4</text>
            <text x="522" y="81.6">2</text>
            <text x="598" y="81.6" text-anchor="end">0</text>
            <text x="332" y="98.4">Billion years ago</text>
          </g>
        </g>
        <g>
          <path d="M 65.3107 34.6 h 18 M 74.3107 25.6 v 18 M 67.9467 28.236 L 80.6746 40.964 M 80.6746 28.236 L 67.9467 40.964" fill="none" stroke="red" stroke-width="2" stroke-linecap="round" />
          <g>
            <rect x="312.6179" y="25.6" width="286" height="18" stroke="none" fill="dodgerblue" />
            <path d="M 312.6179 25.6 H 599 m 0 18 H 312.6179" stroke="black" />
            <defs>
              <linearGradient id="id17">
                <stop offset="0" stop-color="dodgerblue" stop-opacity="0" />
                <stop offset="1" stop-color="dodgerblue" stop-opacity="1" />
              </linearGradient>
              <linearGradient id="id18">
                <stop offset="0" stop-color="black" stop-opacity="0" />
                <stop offset="1" stop-color="black" stop-opacity="1" />
              </linearGradient>
            </defs>
            <rect x="275" y="25.6" width="38" height="18" stroke="none" fill="url(#id17)" />
            <path d="M 275 25.6 H 313 m 0 18 H 275" stroke="url(#id18)" />
            <line x1="598" y1="25.6" x2="598" y2="43.6" stroke="black" />
          </g>
          <path transform="translate(275, 34.6) scale(1.5) translate(-6,-6)" d="M8.316 1a5.553 5.553 0 0 1 1.629 3.94A3.443 3.443 0 0 1 6.5 8.378 2.127 2.127 0 0 1 4.375 6.25 1.315 1.315 0 0 1 5.69 4.936c.45 0 .813.365.812.813a.503.503 0 0 1-.147.355l-.71-.208a.502.502 0 0 0-.147.355c0 .449.363.813.812.813A1.315 1.315 0 0 0 7.625 5.75 2.127 2.127 0 0 0 5.5 3.622 3.443 3.443 0 0 0 2.055 7.06c0 1.538.622 2.93 1.629 3.939" fill="none" stroke="navy" stroke-width="1" stroke-linecap="round" />
          <g>
            <rect x="424.5258" y="47.6" width="173.4742" height="18" fill="lightgreen" />
          </g>
        </g>
        <g text-anchor="middle" stroke="none" fill="black">
          <text x="85.3107" y="38.8" text-anchor="start">Big Bang</text>
          <text x="455.5589" y="38.8" fill="white" text-anchor="middle">Milky Way galaxy</text>
          <text x="511.2629" y="60.8" fill="black" text-anchor="middle">Earth</text>
        </g>
        <g stroke="none" fill="black">
          <text x="2" y="38.8">Universe</text>
          <text x="2" y="60.8">Earth</text>
        </g>
      </g>
    </g>
    <g transform="scale(1) translate(50, 275.2)">
      <g stroke="black" fill="white" font-family="sans-serif" font-size="14">
        <text x="300" y="18" stroke="none" fill="black" font-size="18" text-anchor="middle">Earth</text>
        <rect x="110" y="23.6" width="488" height="132" stroke="black" stroke-width="1" />
        <g>
          <path d="M 110 23.6 V 155.6 M 207.632 23.6 V 155.6 M 305.224 23.6 V 155.6 M 403 23.6 V 155.6 M 500.408 23.6 V 155.6 M 598 23.6 V 155.6 M 110 23.6 H 600 M 110 155.6 H 600" stroke="gray" />
          <g text-anchor="middle" stroke="none" fill="black">
            <text x="110" y="169.6" text-anchor="start">5</text>
            <text x="207.632" y="169.6">4</text>
            <text x="305.224" y="169.6">3</text>
            <text x="403" y="169.6">2</text>
            <text x="500.408" y="169.6">1</text>
            <text x="598" y="169.6" text-anchor="end">0</text>
            <text x="354" y="186.4">Billion years ago</text>
          </g>
        </g>
        <g>
          <g>
            <rect x="152.2973" y="25.6" width="445.7027" height="18" fill="white" />
          </g>
          <g>
            <rect x="212" y="47.6" width="123" height="18" stroke="none" fill="wheat" />
            <path d="M 212 47.6 H 335.5016 m 0 18 H 212" stroke="black" />
            <defs>
              <linearGradient id="id19">
                <stop offset="0" stop-color="wheat" stop-opacity="0" />
                <stop offset="1" stop-color="wheat" stop-opacity="1" />
              </linearGradient>
              <linearGradient id="id20">
                <stop offset="0" stop-color="black" stop-opacity="0" />
                <stop offset="1" stop-color="black" stop-opacity="1" />
              </linearGradient>
            </defs>
            <rect x="197.8728" y="47.6" width="14.6388" height="18" stroke="none" fill="url(#id19)" />
            <path d="M 197.8728 47.6 H 212.5116 m 0 18 H 197.8728" stroke="url(#id20)" />
            <defs>
              <linearGradient id="id21">
                <stop offset="0" stop-color="wheat" stop-opacity="1" />
                <stop offset="1" stop-color="wheat" stop-opacity="0" />
              </linearGradient>
              <linearGradient id="id22">
                <stop offset="0" stop-color="black" stop-opacity="1" />
                <stop offset="1" stop-color="black" stop-opacity="0" />
              </linearGradient>
            </defs>
            <rect x="334.5016" y="47.6" width="39.0368" height="18" stroke="none" fill="url(#id21)" />
            <path d="M 334.5016 47.6 H 373.5384 m 0 18 H 334.5016" stroke="url(#id22)" />
          </g>
          <ellipse cx="188.1136" cy="78.6" rx="3.6" ry="9" fill="black" stroke="none" />
          <g>
            <rect x="258" y="69.6" width="340.6202" height="18" stroke="none" fill="white" />
            <path d="M 258 69.6 H 599 m 0 18 H 258" stroke="black" />
            <defs>
              <linearGradient id="id23">
                <stop offset="0" stop-color="white" stop-opacity="0" />
                <stop offset="1" stop-color="white" stop-opacity="1" />
              </linearGradient>
              <linearGradient id="id24">
                <stop offset="0" stop-color="black" stop-opacity="0" />
                <stop offset="1" stop-color="black" stop-opacity="1" />
              </linearGradient>
            </defs>
            <rect x="188.1136" y="69.6" width="70.2662" height="18" stroke="none" fill="url(#id23)" />
            <path d="M 188.1136 69.6 H 258.3798 m 0 18 H 188.1136" stroke="url(#id24)" />
            <line x1="598" y1="69.6" x2="598" y2="87.6" stroke="black" />
          </g>
          <g>
            <rect x="437" y="91.6" width="161" height="18" fill="white" />
          </g>
          <g>
            <path d="M 295.4648 113.6 L 256.428 122.6 295.4648 131.6 H 437 L 437 122.6 437 113.6 Z" fill="lightgray" />
          </g>
          <g>
            <rect x="266.1872" y="135.6" width="331.8128" height="18" fill="springgreen" />
          </g>
          <g>
            <rect x="552" y="135.6" width="45.8682" height="18" fill="green" />
          </g>
        </g>
        <g text-anchor="middle" stroke="none" fill="black">
          <text x="375" y="38.8" fill="black" text-anchor="middle">Earth</text>
          <text x="280.826" y="60.8" fill="black" text-anchor="middle">Archean</text>
          <text x="193.7136" y="82.8" text-anchor="start">LUCA?</text>
          <text x="428" y="82.8" fill="black" text-anchor="middle">Unicellular organisms</text>
          <text x="517.4866" y="104.8" fill="black" text-anchor="middle">Eukaryotes</text>
          <text x="356.4598" y="126.8" fill="black" text-anchor="middle">Engineers</text>
          <text x="432" y="148.8" fill="black" text-anchor="middle">Photosynthesis</text>
          <text x="550" y="148.8" fill="black" text-anchor="end">Plants</text>
        </g>
        <g stroke="none" fill="black">
          <text x="2" y="38.8">Earth</text>
          <text x="2" y="60.8">Archean</text>
          <text x="2" y="82.8">Unicellular</text>
          <text x="2" y="104.8">Eukaryotes</text>
          <text x="2" y="126.8">Engineers</text>
          <text x="2" y="148.8">Photosynthesis</text>
        </g>
      </g>
    </g>
  </g>
</svg>