<?xml version="1.0"?>
<svg xmlns="http://www.w3.org/2000/svg" width="651" height="443.8" viewBox="0 0 651 443.8" transform="translate(0.5, 0.5)">
  <desc>board; Chysl 0.3.4</desc>
  <g stroke="black" fill="white" font-family="sans-serif" font-size="14">
    <text x="325" y="18" stroke="none" fill="black" font-size="18" text-anchor="middle">Poster</text>
    <g transform="scale(None) translate(250, 33.6)">
      <g stroke="black" fill="white" font-family="sans-serif" font-size="14">
        <text x="100" y="18" stroke="none" fill="black" font-size="18" text-anchor="middle">By Per Kraulis</text>
        <rect x="2.5" y="2.5" rx="10" ry="10" width="195" fill="lightyellow" stroke="gold" stroke-width="5" height="68.4" />
        <g stroke="none" fill="black" text-anchor="middle" transform="translate(102.5, 20)">
          <text x="0" y="0">By Per Kraulis</text>
        </g>
        <line x1="0" y1="24.8" x2="200" y2="24.8" stroke="gold" stroke-width="1" />
        <g stroke="none" fill="black" text-anchor="middle" transform="translate(102.5, 40.8)">
          <text x="0" y="0">Ph.D.</text>
        </g>
        <line x1="0" y1="46.6" x2="200" y2="46.6" stroke="gold" stroke-width="1" />
        <g stroke="none" fill="black" text-anchor="middle" transform="translate(102.5, 62.6)">
          <text x="0" y="0">Stockholm University</text>
        </g>
      </g>
    </g>
    <g transform="scale(None) translate(0, 123.6)">
      <g stroke="black" fill="white" font-family="sans-serif" font-size="14">
        <text x="300" y="18" stroke="none" fill="blue" font-size="18" text-anchor="middle" font-weight="bold">Universe</text>
        <rect x="66.22" y="23.6" width="531.78" height="44" stroke="black" stroke-width="1" />
        <g>
          <g text-anchor="middle" stroke="none" fill="black" font-size="14">
            <text x="66.22" y="81.6" text-anchor="start">15</text>
            <text x="243.48" y="81.6">10</text>
            <text x="420.74" y="81.6">5</text>
            <text x="598" y="81.6" text-anchor="end">0</text>
            <text x="332.11" y="98.4">Billion years ago</text>
          </g>
        </g>
        <defs>
          <clipPath id="id1">
            <rect x="66.22" y="23.6" width="531.78" height="44" />
          </clipPath>
        </defs>
        <g clip-path="url(#id1)">
          <path d="M 100.223 34.6 h 18 M 109.223 25.6 v 18 M 102.859 28.236 L 115.587 40.964 M 115.587 28.236 L 102.859 40.964" fill="none" stroke="red" stroke-width="2" stroke-linecap="round" />
          <a href="https://en.wikipedia.org/wiki/Milky_Way">
            <g>
              <rect x="331.61" y="25.6" width="266.89" height="18" stroke="none" fill="dodgerblue" />
              <path d="M 331.61 25.6 H 599 m 0 18 H 331.61" stroke="black" />
              <defs>
                <linearGradient id="id2">
                  <stop offset="0" stop-color="dodgerblue" stop-opacity="0" />
                  <stop offset="1" stop-color="dodgerblue" stop-opacity="1" />
                </linearGradient>
                <linearGradient id="id3">
                  <stop offset="0" stop-color="black" stop-opacity="0" />
                  <stop offset="1" stop-color="black" stop-opacity="1" />
                </linearGradient>
              </defs>
              <rect x="296.658" y="25.6" width="35.452" height="18" stroke="none" fill="url(#id2)" />
              <path d="M 296.658 25.6 H 332.11 m 0 18 H 296.658" stroke="url(#id3)" />
              <line x1="598" y1="25.6" x2="598" y2="43.6" stroke="black" />
            </g>
          </a>
          <a>
            <path transform="translate(332.11, 34.6) scale(1.5) translate(-6,-6)" d="M8.316 1a5.553 5.553 0 0 1 1.629 3.94A3.443 3.443 0 0 1 6.5 8.378 2.127 2.127 0 0 1 4.375 6.25 1.315 1.315 0 0 1 5.69 4.936c.45 0 .813.365.812.813a.503.503 0 0 1-.147.355l-.71-.208a.502.502 0 0 0-.147.355c0 .449.363.813.812.813A1.315 1.315 0 0 0 7.625 5.75 2.127 2.127 0 0 0 5.5 3.622 3.443 3.443 0 0 0 2.055 7.06c0 1.538.622 2.93 1.629 3.939" fill="none" stroke="white" stroke-width="1" stroke-linecap="round" />https://en.wikipedia.org/wiki/Milky_Way</a>
          <g>
            <rect x="436.091" y="47.6" width="161.909" height="18" fill="lightgreen" />
          </g>
        </g>
        <g clip-path="url(#id1)" text-anchor="middle" stroke="none" fill="black">
          <text x="120.223" y="38.8" text-anchor="start">Big Bang</text>
          <text x="465.055" y="38.8" fill="white" text-anchor="middle">Milky Way galaxy</text>
          <text x="517.045" y="60.8" fill="black" text-anchor="middle">Earth</text>
        </g>
        <g stroke="none" fill="black">
          <text x="2" y="38.8">Universe</text>
          <text x="2" y="60.8">Earth</text>
        </g>
      </g>
    </g>
    <g transform="scale(None) translate(50, 253.6)">
      <g stroke="black" fill="white" font-family="sans-serif" font-size="14">
        <text x="300" y="18" stroke="none" fill="black" font-size="18" text-anchor="middle">Earth</text>
        <rect x="110.04" y="23.6" width="487.96" height="132" stroke="black" stroke-width="1" />
        <g>
          <g text-anchor="middle" stroke="none" fill="black" font-size="14">
            <text x="110.04" y="169.6" text-anchor="start">5</text>
            <text x="207.632" y="169.6">4</text>
            <text x="305.224" y="169.6">3</text>
            <text x="402.816" y="169.6">2</text>
            <text x="500.408" y="169.6">1</text>
            <text x="598" y="169.6" text-anchor="end">0</text>
            <text x="354.02" y="186.4">Billion years ago</text>
          </g>
        </g>
        <defs>
          <clipPath id="id4">
            <rect x="110.04" y="23.6" width="487.96" height="132" />
          </clipPath>
        </defs>
        <g clip-path="url(#id4)">
          <g>
            <rect x="152.297" y="25.6" width="445.703" height="18" fill="white" />
          </g>
          <g>
            <rect x="212.012" y="47.6" width="122.99" height="18" stroke="none" fill="wheat" />
            <path d="M 212.012 47.6 H 335.502 m 0 18 H 212.012" stroke="black" />
            <defs>
              <linearGradient id="id5">
                <stop offset="0" stop-color="wheat" stop-opacity="0" />
                <stop offset="1" stop-color="wheat" stop-opacity="1" />
              </linearGradient>
              <linearGradient id="id6">
                <stop offset="0" stop-color="black" stop-opacity="0" />
                <stop offset="1" stop-color="black" stop-opacity="1" />
              </linearGradient>
            </defs>
            <rect x="197.873" y="47.6" width="14.639" height="18" stroke="none" fill="url(#id5)" />
            <path d="M 197.873 47.6 H 212.512 m 0 18 H 197.873" stroke="url(#id6)" />
            <defs>
              <linearGradient id="id7">
                <stop offset="0" stop-color="wheat" stop-opacity="1" />
                <stop offset="1" stop-color="wheat" stop-opacity="0" />
              </linearGradient>
              <linearGradient id="id8">
                <stop offset="0" stop-color="black" stop-opacity="1" />
                <stop offset="1" stop-color="black" stop-opacity="0" />
              </linearGradient>
            </defs>
            <rect x="334.502" y="47.6" width="39.037" height="18" stroke="none" fill="url(#id7)" />
            <path d="M 334.502 47.6 H 373.538 m 0 18 H 334.502" stroke="url(#id8)" />
          </g>
          <ellipse cx="188.114" cy="78.6" rx="3.6" ry="9" fill="black" stroke="none" />
          <g>
            <rect x="257.88" y="69.6" width="340.62" height="18" stroke="none" fill="white" />
            <path d="M 257.88 69.6 H 599 m 0 18 H 257.88" stroke="black" />
            <defs>
              <linearGradient id="id9">
                <stop offset="0" stop-color="white" stop-opacity="0" />
                <stop offset="1" stop-color="white" stop-opacity="1" />
              </linearGradient>
              <linearGradient id="id10">
                <stop offset="0" stop-color="black" stop-opacity="0" />
                <stop offset="1" stop-color="black" stop-opacity="1" />
              </linearGradient>
            </defs>
            <rect x="188.114" y="69.6" width="70.266" height="18" stroke="none" fill="url(#id9)" />
            <path d="M 188.114 69.6 H 258.38 m 0 18 H 188.114" stroke="url(#id10)" />
            <line x1="598" y1="69.6" x2="598" y2="87.6" stroke="black" />
          </g>
          <g>
            <rect x="436.973" y="91.6" width="161.027" height="18" fill="white" />
          </g>
          <g>
            <path d="M 295.465 113.6 L 256.428 122.6 295.465 131.6 H 436.973 L 436.973 122.6 436.973 113.6 Z" fill="lightgray" />
          </g>
          <g>
            <rect x="266.187" y="135.6" width="331.813" height="18" fill="springgreen" />
          </g>
          <g>
            <rect x="552.132" y="135.6" width="45.868" height="18" fill="green" />
          </g>
        </g>
        <g clip-path="url(#id4)" text-anchor="middle" stroke="none" fill="black">
          <text x="375.149" y="38.8" fill="black" text-anchor="middle">Earth</text>
          <text x="280.826" y="60.8" fill="black" text-anchor="middle">Archean</text>
          <text x="193.714" y="82.8" text-anchor="start">LUCA?</text>
          <text x="428.19" y="82.8" fill="black" text-anchor="middle">Unicellular organisms</text>
          <text x="517.487" y="104.8" fill="black" text-anchor="middle">Eukaryotes</text>
          <text x="356.46" y="126.8" fill="black" text-anchor="middle">Engineers</text>
          <text x="432.094" y="148.8" fill="black" text-anchor="middle">Photosynthesis</text>
          <text x="550.132" y="148.8" fill="black" text-anchor="end">Plants</text>
        </g>
        <g stroke="none" fill="black">
          <text x="2" y="38.8">Earth</text>
          <text x="2" y="60.8">Archean</text>
          <text x="2" y="82.8">Unicellular</text>
          <text x="2" y="104.8">Eukaryotes</text>
          <text x="2" y="126.8">Engineers</text>
          <text x="2" y="148.8">Photosynthesis</text>
        </g>
      </g>
    </g>
  </g>
</svg>