<?xml version="1.0"?>
<svg xmlns="http://www.w3.org/2000/svg" width="601" height="618" viewBox="0 0 601 618" transform="translate(0.5, 0.5)">
  <desc>Chysl 0.2.8 plot</desc>
  <g stroke="black" fill="white" font-family="sans-serif" font-size="14">
    <text x="300" y="18" stroke="none" fill="black" font-size="18" text-anchor="middle">Scattered points from CSV</text>
    <g>
      <path d="M 20.76 600 V 23.6 M 103.2229 600 V 23.6 M 185.6857 600 V 23.6 M 268.1486 600 V 23.6 M 350.6114 600 V 23.6 M 433 600 V 23.6 M 515.5371 600 V 23.6 M 598 600 V 23.6" stroke="gray" />
      <g text-anchor="middle" stroke="none" fill="black">
        <text x="20.76" y="614" text-anchor="start">0</text>
        <text x="103.2229" y="614">2</text>
        <text x="185.6857" y="614">4</text>
        <text x="268.1486" y="614">6</text>
        <text x="350.6114" y="614">8</text>
        <text x="433" y="614">10</text>
        <text x="515.5371" y="614">12</text>
        <text x="598" y="614" text-anchor="end">14</text>
      </g>
    </g>
    <g>
      <path d="M 20.76 600 H 598 M 20.76 517.6571 H 598 M 20.76 435.3143 H 598 M 20.76 353 H 598 M 20.76 270.6286 H 598 M 20.76 188.2857 H 598 M 20.76 105.9429 H 598 M 20.76 23.6 H 598" stroke="gray" />
      <g text-anchor="end" stroke="none" fill="black">
        <text x="18.76" y="600">0</text>
        <text x="18.76" y="522.3238">2</text>
        <text x="18.76" y="440">4</text>
        <text x="18.76" y="357.6381">6</text>
        <text x="18.76" y="275.2952">8</text>
        <text x="18.76" y="193">10</text>
        <text x="18.76" y="110.6095">12</text>
        <text x="18.76" y="37.6">14</text>
      </g>
    </g>
    <g>
      <g>
        <path transform="translate(62, 517.6571) scale(0.065) translate(-200,-200)" d="m283.93 237.24h6.6701q0 29.275-9.6347 42.616-9.4498 13.34-23.717 13.34-11.673 0-22.42-8.7085-10.746-8.8936-19.269-47.248l-15.935-71.891-55.215 125.25h-35.019l79.302-170.83q-6.2996-33.166-15.193-49.101-8.8936-15.934-22.048-15.934-10.561 0-18.528 8.1525-7.7823 7.9673-8.7088 24.828h-6.6701q0.5282-27.237 10.932-43.542 10.376-16.49 25.94-16.49 10.005 0 18.899 8.3378 9.0788 8.1526 15.564 28.163 6.6702 19.826 20.567 82.452l13.155 58.735q7.9673 36.501 16.676 48.915 8.893 12.229 21.122 12.229 20.751 0 23.531-29.275z" fill="black" stroke="none" />
        <path transform="translate(103.2229, 105.9429) scale(8.3333) translate(-6,-6)" d="M8.316 1a5.553 5.553 0 0 1 1.629 3.94A3.443 3.443 0 0 1 6.5 8.378 2.127 2.127 0 0 1 4.375 6.25 1.315 1.315 0 0 1 5.69 4.936c.45 0 .813.365.812.813a.503.503 0 0 1-.147.355l-.71-.208a.502.502 0 0 0-.147.355c0 .449.363.813.812.813A1.315 1.315 0 0 0 7.625 5.75 2.127 2.127 0 0 0 5.5 3.622 3.443 3.443 0 0 0 2.055 7.06c0 1.538.622 2.93 1.629 3.939" fill="none" stroke="navy" stroke-width="1" stroke-linecap="round" />
        <circle cx="144.4543" cy="435.3143" r="9.0" fill="red" stroke="none" />
        <circle cx="227" cy="311.8" r="9.0" fill="black" stroke="none" />
        <g transform="translate(309.38, 311.8) scale(4.1667) translate(-6,-6)">
          <path d="M6 5.102a.899.899 0 1 0 0 1.797.899.899 0 0 0 0-1.797Z" fill="orange" stroke="none" />
          <path d="M110 60c0 27.617-22.383 50-50 50S10 87.617 10 60s22.383-50 50-50 50 22.383 50 50z" transform="matrix(0.1 0 0 -0.1 0 12)" fill="none" stroke="orange" stroke-width="9" stroke-linecap="round" />
        </g>
        <path transform="translate(371.2271, 435.3143) scale(6.6667) translate(-6,-6)" d="M8 5a1.999 1.999 0 1 0-4 0 1.999 1.999 0 1 0 4 0ZM4 1a1.999 1.999 0 1 0 4 0M6 11V7M4 9h4" fill="none" stroke="orange" stroke-width="1" stroke-linecap="round" />
        <path transform="translate(392, 291.2143) scale(10) translate(-6,-6)" d="M3 3h4M5 1v5a1.999 1.999 0 1 1 3.414 1.414C7.508 8.32 7 9.72 7 11" fill="none" stroke="purple" stroke-width="0.8" stroke-linecap="round" />
        <path transform="translate(433, 64.7714) scale(7.0833) translate(-6,-6)" d="M11 6A5 5 0 1 0 1 6a5 5 0 0 0 10 0zm-5 5V1M1 6h10" fill="none" stroke="green" stroke-width="1" stroke-linecap="round" />
        <circle cx="515.5371" cy="311.8" r="9.0" fill="cyan" stroke="none" />
        <text x="441.3206" y="179.1286" fill="coral" stroke="none" font-family="sans-serif" font-weight="bold" text-anchor="middle" font-size="40.0">?</text>
      </g>
    </g>
  </g>
</svg>