<?xml version="1.0"?>
<svg xmlns="http://www.w3.org/2000/svg" width="601" height="617.800" viewBox="0 0 601 617.800" transform="translate(0.5, 0.5)">
  <desc>Chysl 0.2.2 plot</desc>
  <g stroke="black" fill="white" font-family="sans-serif" font-size="14">
    <text x="300" y="18" stroke="none" fill="black" font-size="18" text-anchor="middle">Scattered points from CSV</text>
    <g>
      <path d="M 20.760 600 V 23.600 M 103.223 600 V 23.600 M 185.686 600 V 23.600 M 268.149 600 V 23.600 M 350.611 600 V 23.600 M 433.074 600 V 23.600 M 515.537 600 V 23.600 M 598 600 V 23.600" stroke="gray" />
      <g text-anchor="middle" stroke="none" fill="black">
        <text x="20.760" y="614" text-anchor="start">0</text>
        <text x="103.223" y="614">2</text>
        <text x="185.686" y="614">4</text>
        <text x="268.149" y="614">6</text>
        <text x="350.611" y="614">8</text>
        <text x="433.074" y="614">10</text>
        <text x="515.537" y="614">12</text>
        <text x="598" y="614" text-anchor="end">14</text>
      </g>
    </g>
    <g>
      <path d="M 20.760 600 H 598 M 20.760 517.657 H 598 M 20.760 435.314 H 598 M 20.760 352.971 H 598 M 20.760 270.629 H 598 M 20.760 188.286 H 598 M 20.760 105.943 H 598 M 20.760 23.600 H 598" stroke="gray" />
      <g text-anchor="end" stroke="none" fill="black">
        <text x="18.760" y="600">0</text>
        <text x="18.760" y="522.324">2</text>
        <text x="18.760" y="439.981">4</text>
        <text x="18.760" y="357.638">6</text>
        <text x="18.760" y="275.295">8</text>
        <text x="18.760" y="192.952">10</text>
        <text x="18.760" y="110.610">12</text>
        <text x="18.760" y="37.600">14</text>
      </g>
    </g>
    <g>
      <g stroke="none" fill="black">
        <circle cx="144.4542857142857" cy="435.31428571428575" r="5" fill="red" />
        <circle cx="61.99142857142857" cy="517.6571428571428" r="5" fill="black" />
        <circle cx="433.07428571428574" cy="64.77142857142857" r="5" fill="green" />
        <circle cx="515.5371428571428" cy="311.8" r="5" fill="cyan" />
        <circle cx="391.84285714285716" cy="105.94285714285715" r="5" fill="purple" />
        <circle cx="61.99142857142857" cy="105.94285714285715" r="5" fill="navy" />
        <circle cx="309.38" cy="270.62857142857143" r="5" fill="orange" />
        <circle cx="350.6114285714286" cy="311.8" r="5" fill="orange" />
        <circle cx="309.38" cy="311.8" r="5" fill="orange" />
      </g>
    </g>
  </g>
</svg>