<?xml version="1.0"?>
<svg xmlns="http://www.w3.org/2000/svg" width="655.514" height="661.8" viewBox="0 0 655.514 661.8" transform="translate(0.5, 0.5)">
  <title>Scattered points inline</title>
  <g class="layout">
    <g fill="black" font-family="sans-serif" font-size="16" text-anchor="middle" transform="translate(237.653,0)">
      <text y="16" x="89.604">Scattered points inline</text>
    </g>
    <g transform="translate(0,26.6)">
      <g class="y-axis-labels" font-family="sans-serif" font-size="12" text-anchor="end" stroke="none" fill="black" transform="translate(52.514,0)">
        <text x="-2" y="600">-20</text>
        <text x="-2" y="518.286">0</text>
        <text x="-2" y="432.571">20</text>
        <text x="-2" y="346.857">40</text>
        <text x="-2" y="261.143">60</text>
        <text x="-2" y="175.429">80</text>
        <text x="-2" y="89.714">100</text>
        <text x="-2" y="9">120</text>
        <text x="-40.514" y="300" transform="translate(-40.514,300) rotate(270) translate(40.514,-300)" text-anchor="middle">Y dimension</text>
      </g>
    </g>
    <g transform="translate(52.514,25.6)">
      <rect x="0.5" y="0.5" width="601" height="601" stroke="black" fill="none" class="frame" stroke-width="1" />
    </g>
    <g transform="translate(53.514,26.6)">
      <g class="plot" clip-path="url(#id1)">
        <defs>
          <clipPath id="id1">
            <rect width="600" height="600" />
          </clipPath>
        </defs>
        <path d="M 0 0 V 600 M 85.714 0 V 600 M 171.429 0 V 600 M 257.143 0 V 600 M 342.857 0 V 600 M 428.571 0 V 600 M 514.286 0 V 600 M 600 0 V 600" stroke="lightgray" class="x-grid" />
        <path d="M 0 600 H 600 M 0 514.286 H 600 M 0 428.571 H 600 M 0 342.857 H 600 M 0 257.143 H 600 M 0 171.429 H 600 M 0 85.714 H 600 M 0 0 H 600" stroke="lightgray" class="y-grid" />
        <g class="graphics">
          <circle cx="264.266" cy="509.927" r="44.756" fill="blue" stroke="none" class="marker disc" opacity="0.449" />
          <path transform="translate(243.605, 431.288) scale(0.24) translate(-200,-200)" d="m239.84 120.88h31.498l-19.084 85.787q-5.5604 24.458-7.5968 30.016 7.4117 34.093 21.493 34.093 16.676 0 17.232-22.975h6.6701q-0.5282 21.493-7.9671 34.834-7.2262 13.155-19.084 13.155-9.8203 0-14.637-7.9673-4.8147-7.9673-10.376-32.61-19.27 40.578-62.997 40.578-29.831 0-47.433-23.161-17.602-23.346-17.602-66.702 0-42.616 19.27-66.332 19.269-23.716 46.321-23.716 19.084 0 31.313 13.526 12.229 13.526 21.679 44.098zm-16.305 72.632q-8.7082-29.831-19.455-46.507-10.746-16.861-25.755-16.861-33.907 0-33.907 79.302 0 75.226 32.425 75.226 28.163 0 41.689-66.332z" fill="red" stroke="none" class="marker alpha" opacity="0.381" />
          <path transform="translate(138.972, 328.742) scale(6.144) translate(-6,-6)" d="M9 7c0-2.207-1.793-4-4-4S1 4.793 1 7s1.793 4 4 4 4-1.793 4-4ZM7.828 4.172 11 1M9.23 1H11v1.77" fill="none" stroke="green" stroke-width="1" stroke-linecap="round" class="marker mars" opacity="0.387" />
          <circle cx="322.809" cy="362.185" r="48.742" fill="purple" stroke="none" class="marker disc" opacity="0.346" />
          <path transform="translate(505.131, 337.663) scale(0.228) translate(-200,-200)" d="m239.84 120.88h31.498l-19.084 85.787q-5.5604 24.458-7.5968 30.016 7.4117 34.093 21.493 34.093 16.676 0 17.232-22.975h6.6701q-0.5282 21.493-7.9671 34.834-7.2262 13.155-19.084 13.155-9.8203 0-14.637-7.9673-4.8147-7.9673-10.376-32.61-19.27 40.578-62.997 40.578-29.831 0-47.433-23.161-17.602-23.346-17.602-66.702 0-42.616 19.27-66.332 19.269-23.716 46.321-23.716 19.084 0 31.313 13.526 12.229 13.526 21.679 44.098zm-16.305 72.632q-8.7082-29.831-19.455-46.507-10.746-16.861-25.755-16.861-33.907 0-33.907 79.302 0 75.226 32.425 75.226 28.163 0 41.689-66.332z" fill="cyan" stroke="none" class="marker alpha" opacity="0.374" />
          <path transform="translate(393.843, 432.869) scale(5.041) translate(-6,-6)" d="M9 7c0-2.207-1.793-4-4-4S1 4.793 1 7s1.793 4 4 4 4-1.793 4-4ZM7.828 4.172 11 1M9.23 1H11v1.77" fill="none" stroke="orange" stroke-width="1" stroke-linecap="round" class="marker mars" opacity="0.312" />
          <circle cx="231.222" cy="99.65" r="49.364" fill="lime" stroke="none" class="marker disc" opacity="0.672" />
          <path transform="translate(87.195, 111.326) scale(0.3) translate(-200,-200)" d="m239.84 120.88h31.498l-19.084 85.787q-5.5604 24.458-7.5968 30.016 7.4117 34.093 21.493 34.093 16.676 0 17.232-22.975h6.6701q-0.5282 21.493-7.9671 34.834-7.2262 13.155-19.084 13.155-9.8203 0-14.637-7.9673-4.8147-7.9673-10.376-32.61-19.27 40.578-62.997 40.578-29.831 0-47.433-23.161-17.602-23.346-17.602-66.702 0-42.616 19.27-66.332 19.269-23.716 46.321-23.716 19.084 0 31.313 13.526 12.229 13.526 21.679 44.098zm-16.305 72.632q-8.7082-29.831-19.455-46.507-10.746-16.861-25.755-16.861-33.907 0-33.907 79.302 0 75.226 32.425 75.226 28.163 0 41.689-66.332z" fill="black" stroke="none" class="marker alpha" opacity="0.685" />
          <path transform="translate(162.374, 471.643) scale(5.406) translate(-6,-6)" d="M9 7c0-2.207-1.793-4-4-4S1 4.793 1 7s1.793 4 4 4 4-1.793 4-4ZM7.828 4.172 11 1M9.23 1H11v1.77" fill="none" stroke="blue" stroke-width="1" stroke-linecap="round" class="marker mars" opacity="0.743" />
          <circle cx="333.465" cy="198.608" r="26.979" fill="red" stroke="none" class="marker disc" opacity="0.562" />
          <path transform="translate(389.737, 160.785) scale(0.287) translate(-200,-200)" d="m239.84 120.88h31.498l-19.084 85.787q-5.5604 24.458-7.5968 30.016 7.4117 34.093 21.493 34.093 16.676 0 17.232-22.975h6.6701q-0.5282 21.493-7.9671 34.834-7.2262 13.155-19.084 13.155-9.8203 0-14.637-7.9673-4.8147-7.9673-10.376-32.61-19.27 40.578-62.997 40.578-29.831 0-47.433-23.161-17.602-23.346-17.602-66.702 0-42.616 19.27-66.332 19.269-23.716 46.321-23.716 19.084 0 31.313 13.526 12.229 13.526 21.679 44.098zm-16.305 72.632q-8.7082-29.831-19.455-46.507-10.746-16.861-25.755-16.861-33.907 0-33.907 79.302 0 75.226 32.425 75.226 28.163 0 41.689-66.332z" fill="green" stroke="none" class="marker alpha" opacity="0.416" />
          <path transform="translate(459.939, 421.551) scale(7.343) translate(-6,-6)" d="M9 7c0-2.207-1.793-4-4-4S1 4.793 1 7s1.793 4 4 4 4-1.793 4-4ZM7.828 4.172 11 1M9.23 1H11v1.77" fill="none" stroke="purple" stroke-width="1" stroke-linecap="round" class="marker mars" opacity="0.578" />
          <circle cx="165.355" cy="262.025" r="35.547" fill="cyan" stroke="none" class="marker disc" opacity="0.779" />
          <path transform="translate(103.517, 443.941) scale(0.322) translate(-200,-200)" d="m239.84 120.88h31.498l-19.084 85.787q-5.5604 24.458-7.5968 30.016 7.4117 34.093 21.493 34.093 16.676 0 17.232-22.975h6.6701q-0.5282 21.493-7.9671 34.834-7.2262 13.155-19.084 13.155-9.8203 0-14.637-7.9673-4.8147-7.9673-10.376-32.61-19.27 40.578-62.997 40.578-29.831 0-47.433-23.161-17.602-23.346-17.602-66.702 0-42.616 19.27-66.332 19.269-23.716 46.321-23.716 19.084 0 31.313 13.526 12.229 13.526 21.679 44.098zm-16.305 72.632q-8.7082-29.831-19.455-46.507-10.746-16.861-25.755-16.861-33.907 0-33.907 79.302 0 75.226 32.425 75.226 28.163 0 41.689-66.332z" fill="orange" stroke="none" class="marker alpha" opacity="0.716" />
          <path transform="translate(150.117, 416.094) scale(6.029) translate(-6,-6)" d="M9 7c0-2.207-1.793-4-4-4S1 4.793 1 7s1.793 4 4 4 4-1.793 4-4ZM7.828 4.172 11 1M9.23 1H11v1.77" fill="none" stroke="lime" stroke-width="1" stroke-linecap="round" class="marker mars" opacity="0.378" />
          <circle cx="224.469" cy="493.149" r="41.35" fill="black" stroke="none" class="marker disc" opacity="0.339" />
          <path transform="translate(511.973, 119.756) scale(0.284) translate(-200,-200)" d="m239.84 120.88h31.498l-19.084 85.787q-5.5604 24.458-7.5968 30.016 7.4117 34.093 21.493 34.093 16.676 0 17.232-22.975h6.6701q-0.5282 21.493-7.9671 34.834-7.2262 13.155-19.084 13.155-9.8203 0-14.637-7.9673-4.8147-7.9673-10.376-32.61-19.27 40.578-62.997 40.578-29.831 0-47.433-23.161-17.602-23.346-17.602-66.702 0-42.616 19.27-66.332 19.269-23.716 46.321-23.716 19.084 0 31.313 13.526 12.229 13.526 21.679 44.098zm-16.305 72.632q-8.7082-29.831-19.455-46.507-10.746-16.861-25.755-16.861-33.907 0-33.907 79.302 0 75.226 32.425 75.226 28.163 0 41.689-66.332z" fill="blue" stroke="none" class="marker alpha" opacity="0.686" />
          <path transform="translate(243.322, 223.412) scale(7.14) translate(-6,-6)" d="M9 7c0-2.207-1.793-4-4-4S1 4.793 1 7s1.793 4 4 4 4-1.793 4-4ZM7.828 4.172 11 1M9.23 1H11v1.77" fill="none" stroke="red" stroke-width="1" stroke-linecap="round" class="marker mars" opacity="0.54" />
          <circle cx="112.082" cy="245.955" r="29.773" fill="green" stroke="none" class="marker disc" opacity="0.605" />
          <path transform="translate(266.069, 106.058) scale(0.169) translate(-200,-200)" d="m239.84 120.88h31.498l-19.084 85.787q-5.5604 24.458-7.5968 30.016 7.4117 34.093 21.493 34.093 16.676 0 17.232-22.975h6.6701q-0.5282 21.493-7.9671 34.834-7.2262 13.155-19.084 13.155-9.8203 0-14.637-7.9673-4.8147-7.9673-10.376-32.61-19.27 40.578-62.997 40.578-29.831 0-47.433-23.161-17.602-23.346-17.602-66.702 0-42.616 19.27-66.332 19.269-23.716 46.321-23.716 19.084 0 31.313 13.526 12.229 13.526 21.679 44.098zm-16.305 72.632q-8.7082-29.831-19.455-46.507-10.746-16.861-25.755-16.861-33.907 0-33.907 79.302 0 75.226 32.425 75.226 28.163 0 41.689-66.332z" fill="purple" stroke="none" class="marker alpha" opacity="0.684" />
          <path transform="translate(385.098, 275.759) scale(3.734) translate(-6,-6)" d="M9 7c0-2.207-1.793-4-4-4S1 4.793 1 7s1.793 4 4 4 4-1.793 4-4ZM7.828 4.172 11 1M9.23 1H11v1.77" fill="none" stroke="cyan" stroke-width="1" stroke-linecap="round" class="marker mars" opacity="0.382" />
          <circle cx="500.264" cy="415.439" r="24.906" fill="orange" stroke="none" class="marker disc" opacity="0.444" />
          <path transform="translate(315.909, 291.594) scale(0.131) translate(-200,-200)" d="m239.84 120.88h31.498l-19.084 85.787q-5.5604 24.458-7.5968 30.016 7.4117 34.093 21.493 34.093 16.676 0 17.232-22.975h6.6701q-0.5282 21.493-7.9671 34.834-7.2262 13.155-19.084 13.155-9.8203 0-14.637-7.9673-4.8147-7.9673-10.376-32.61-19.27 40.578-62.997 40.578-29.831 0-47.433-23.161-17.602-23.346-17.602-66.702 0-42.616 19.27-66.332 19.269-23.716 46.321-23.716 19.084 0 31.313 13.526 12.229 13.526 21.679 44.098zm-16.305 72.632q-8.7082-29.831-19.455-46.507-10.746-16.861-25.755-16.861-33.907 0-33.907 79.302 0 75.226 32.425 75.226 28.163 0 41.689-66.332z" fill="lime" stroke="none" class="marker alpha" opacity="0.302" />
          <path transform="translate(298.314, 435.062) scale(6.371) translate(-6,-6)" d="M9 7c0-2.207-1.793-4-4-4S1 4.793 1 7s1.793 4 4 4 4-1.793 4-4ZM7.828 4.172 11 1M9.23 1H11v1.77" fill="none" stroke="black" stroke-width="1" stroke-linecap="round" class="marker mars" opacity="0.699" />
          <circle cx="126.803" cy="297.785" r="32.184" fill="blue" stroke="none" class="marker disc" opacity="0.695" />
        </g>
        <g class="labels" font-family="sans-serif" font-size="12" text-anchor="start" />
      </g>
    </g>
    <g transform="translate(53.514,627.6)">
      <g class="x-axis-labels" font-family="sans-serif" font-size="12" text-anchor="middle" stroke="none" fill="black">
        <text x="0" y="12" text-anchor="start">-20</text>
        <text x="85.714" y="12">0</text>
        <text x="171.429" y="12">20</text>
        <text x="257.143" y="12">40</text>
        <text x="342.857" y="12">60</text>
        <text x="428.571" y="12">80</text>
        <text x="514.286" y="12">100</text>
        <text x="600" y="12" text-anchor="end">120</text>
        <text x="300" y="27.6" class="x-axis-caption">X dimension</text>
      </g>
    </g>
  </g>
</svg>