<?xml version="1.0"?>
<svg xmlns="http://www.w3.org/2000/svg" width="601" height="620.6" viewBox="0 0 601 620.6" transform="translate(0.5, 0.5)">
  <desc>scatter2d; Chysl 0.3.5</desc>
  <g stroke="black" fill="white" font-family="sans-serif" font-size="14">
    <text x="300" y="18" stroke="none" fill="black" font-size="18" text-anchor="middle">Scattered points inline</text>
    <path d="M 30.14 23.6 V 600 M 111.263 23.6 V 600 M 192.386 23.6 V 600 M 273.509 23.6 V 600 M 354.631 23.6 V 600 M 435.754 23.6 V 600 M 516.877 23.6 V 600 M 598 23.6 V 600" stroke="lightgray" />
    <path d="M 30.14 600 H 598 M 30.14 517.657 H 598 M 30.14 435.314 H 598 M 30.14 352.971 H 598 M 30.14 270.629 H 598 M 30.14 188.286 H 598 M 30.14 105.943 H 598 M 30.14 23.6 H 598" stroke="lightgray" />
    <rect x="30.14" y="23.6" width="567.86" height="576.4" stroke="black" fill="none" stroke-width="1" />
    <g>
      <g text-anchor="middle" stroke="none" fill="black" font-size="14">
        <text x="30.14" y="614" text-anchor="start">-20</text>
        <text x="111.263" y="614">0</text>
        <text x="192.386" y="614">20</text>
        <text x="273.509" y="614">40</text>
        <text x="354.631" y="614">60</text>
        <text x="435.754" y="614">80</text>
        <text x="516.877" y="614">100</text>
        <text x="598" y="614" text-anchor="end">120</text>
      </g>
    </g>
    <g>
      <g text-anchor="end" stroke="none" fill="black" font-size="14">
        <text x="28.14" y="600">-20</text>
        <text x="28.14" y="522.324">0</text>
        <text x="28.14" y="440">20</text>
        <text x="28.14" y="357.638">40</text>
        <text x="28.14" y="275.295">60</text>
        <text x="28.14" y="192.952">80</text>
        <text x="28.14" y="110.61">100</text>
        <text x="28.14" y="34.1">120</text>
      </g>
    </g>
    <defs>
      <clipPath id="id1">
        <rect x="30.14" y="23.6" width="567.86" height="576.4" />
      </clipPath>
    </defs>
    <g clip-path="url(#id1)">
      <circle cx="280.25" cy="513.47" r="44.756" fill="blue" stroke="none" opacity="0.4493199275997964" />
      <path transform="translate(260.696, 437.924) scale(0.24) translate(-200,-200)" d="m239.84 120.88h31.498l-19.084 85.787q-5.5604 24.458-7.5968 30.016 7.4117 34.093 21.493 34.093 16.676 0 17.232-22.975h6.6701q-0.5282 21.493-7.9671 34.834-7.2262 13.155-19.084 13.155-9.8203 0-14.637-7.9673-4.8147-7.9673-10.376-32.61-19.27 40.578-62.997 40.578-29.831 0-47.433-23.161-17.602-23.346-17.602-66.702 0-42.616 19.27-66.332 19.269-23.716 46.321-23.716 19.084 0 31.313 13.526 12.229 13.526 21.679 44.098zm-16.305 72.632q-8.7082-29.831-19.455-46.507-10.746-16.861-25.755-16.861-33.907 0-33.907 79.302 0 75.226 32.425 75.226 28.163 0 41.689-66.332z" fill="red" stroke="none" opacity="0.3808439119646841" />
      <path transform="translate(161.667, 339.411) scale(6.144) translate(-6,-6)" d="M9 7c0-2.207-1.793-4-4-4S1 4.793 1 7s1.793 4 4 4 4-1.793 4-4ZM7.828 4.172 11 1M9.23 1H11v1.77" fill="none" stroke="green" stroke-width="1" stroke-linecap="round" opacity="0.3871717803618659" />
      <circle cx="335.657" cy="371.539" r="48.742" fill="purple" stroke="none" opacity="0.34564704943836755" />
      <path transform="translate(508.213, 347.982) scale(0.228) translate(-200,-200)" d="m239.84 120.88h31.498l-19.084 85.787q-5.5604 24.458-7.5968 30.016 7.4117 34.093 21.493 34.093 16.676 0 17.232-22.975h6.6701q-0.5282 21.493-7.9671 34.834-7.2262 13.155-19.084 13.155-9.8203 0-14.637-7.9673-4.8147-7.9673-10.376-32.61-19.27 40.578-62.997 40.578-29.831 0-47.433-23.161-17.602-23.346-17.602-66.702 0-42.616 19.27-66.332 19.269-23.716 46.321-23.716 19.084 0 31.313 13.526 12.229 13.526 21.679 44.098zm-16.305 72.632q-8.7082-29.831-19.455-46.507-10.746-16.861-25.755-16.861-33.907 0-33.907 79.302 0 75.226 32.425 75.226 28.163 0 41.689-66.332z" fill="cyan" stroke="none" opacity="0.3740730844650946" />
      <path transform="translate(402.886, 439.443) scale(5.041) translate(-6,-6)" d="M9 7c0-2.207-1.793-4-4-4S1 4.793 1 7s1.793 4 4 4 4-1.793 4-4ZM7.828 4.172 11 1M9.23 1H11v1.77" fill="none" stroke="orange" stroke-width="1" stroke-linecap="round" opacity="0.31176060907110026" />
      <circle cx="248.976" cy="119.331" r="49.364" fill="lime" stroke="none" opacity="0.6722650200705174" />
      <path transform="translate(112.664, 130.548) scale(0.3) translate(-200,-200)" d="m239.84 120.88h31.498l-19.084 85.787q-5.5604 24.458-7.5968 30.016 7.4117 34.093 21.493 34.093 16.676 0 17.232-22.975h6.6701q-0.5282 21.493-7.9671 34.834-7.2262 13.155-19.084 13.155-9.8203 0-14.637-7.9673-4.8147-7.9673-10.376-32.61-19.27 40.578-62.997 40.578-29.831 0-47.433-23.161-17.602-23.346-17.602-66.702 0-42.616 19.27-66.332 19.269-23.716 46.321-23.716 19.084 0 31.313 13.526 12.229 13.526 21.679 44.098zm-16.305 72.632q-8.7082-29.831-19.455-46.507-10.746-16.861-25.755-16.861-33.907 0-33.907 79.302 0 75.226 32.425 75.226 28.163 0 41.689-66.332z" fill="black" stroke="none" opacity="0.6854171692584055" />
      <path transform="translate(183.817, 476.692) scale(5.406) translate(-6,-6)" d="M9 7c0-2.207-1.793-4-4-4S1 4.793 1 7s1.793 4 4 4 4-1.793 4-4ZM7.828 4.172 11 1M9.23 1H11v1.77" fill="none" stroke="blue" stroke-width="1" stroke-linecap="round" opacity="0.7427682335727397" />
      <circle cx="345.743" cy="214.396" r="26.979" fill="red" stroke="none" opacity="0.5617987900823291" />
      <path transform="translate(399, 178.061) scale(0.287) translate(-200,-200)" d="m239.84 120.88h31.498l-19.084 85.787q-5.5604 24.458-7.5968 30.016 7.4117 34.093 21.493 34.093 16.676 0 17.232-22.975h6.6701q-0.5282 21.493-7.9671 34.834-7.2262 13.155-19.084 13.155-9.8203 0-14.637-7.9673-4.8147-7.9673-10.376-32.61-19.27 40.578-62.997 40.578-29.831 0-47.433-23.161-17.602-23.346-17.602-66.702 0-42.616 19.27-66.332 19.269-23.716 46.321-23.716 19.084 0 31.313 13.526 12.229 13.526 21.679 44.098zm-16.305 72.632q-8.7082-29.831-19.455-46.507-10.746-16.861-25.755-16.861-33.907 0-33.907 79.302 0 75.226 32.425 75.226 28.163 0 41.689-66.332z" fill="green" stroke="none" opacity="0.41615405648873105" />
      <path transform="translate(465.441, 428.57) scale(7.343) translate(-6,-6)" d="M9 7c0-2.207-1.793-4-4-4S1 4.793 1 7s1.793 4 4 4 4-1.793 4-4ZM7.828 4.172 11 1M9.23 1H11v1.77" fill="none" stroke="purple" stroke-width="1" stroke-linecap="round" opacity="0.5775426494691887" />
      <circle cx="186.637" cy="275.319" r="35.547" fill="cyan" stroke="none" opacity="0.7793312517176161" />
      <path transform="translate(128.112, 450.079) scale(0.322) translate(-200,-200)" d="m239.84 120.88h31.498l-19.084 85.787q-5.5604 24.458-7.5968 30.016 7.4117 34.093 21.493 34.093 16.676 0 17.232-22.975h6.6701q-0.5282 21.493-7.9671 34.834-7.2262 13.155-19.084 13.155-9.8203 0-14.637-7.9673-4.8147-7.9673-10.376-32.61-19.27 40.578-62.997 40.578-29.831 0-47.433-23.161-17.602-23.346-17.602-66.702 0-42.616 19.27-66.332 19.269-23.716 46.321-23.716 19.084 0 31.313 13.526 12.229 13.526 21.679 44.098zm-16.305 72.632q-8.7082-29.831-19.455-46.507-10.746-16.861-25.755-16.861-33.907 0-33.907 79.302 0 75.226 32.425 75.226 28.163 0 41.689-66.332z" fill="orange" stroke="none" opacity="0.7161024429252615" />
      <path transform="translate(172.216, 423.328) scale(6.029) translate(-6,-6)" d="M9 7c0-2.207-1.793-4-4-4S1 4.793 1 7s1.793 4 4 4 4-1.793 4-4ZM7.828 4.172 11 1M9.23 1H11v1.77" fill="none" stroke="lime" stroke-width="1" stroke-linecap="round" opacity="0.3784904151633868" />
      <circle cx="242.585" cy="497.352" r="41.35" fill="black" stroke="none" opacity="0.3392813734266923" />
      <path transform="translate(514.689, 138.645) scale(0.284) translate(-200,-200)" d="m239.84 120.88h31.498l-19.084 85.787q-5.5604 24.458-7.5968 30.016 7.4117 34.093 21.493 34.093 16.676 0 17.232-22.975h6.6701q-0.5282 21.493-7.9671 34.834-7.2262 13.155-19.084 13.155-9.8203 0-14.637-7.9673-4.8147-7.9673-10.376-32.61-19.27 40.578-62.997 40.578-29.831 0-47.433-23.161-17.602-23.346-17.602-66.702 0-42.616 19.27-66.332 19.269-23.716 46.321-23.716 19.084 0 31.313 13.526 12.229 13.526 21.679 44.098zm-16.305 72.632q-8.7082-29.831-19.455-46.507-10.746-16.861-25.755-16.861-33.907 0-33.907 79.302 0 75.226 32.425 75.226 28.163 0 41.689-66.332z" fill="blue" stroke="none" opacity="0.686202945233638" />
      <path transform="translate(260.428, 238.224) scale(7.14) translate(-6,-6)" d="M9 7c0-2.207-1.793-4-4-4S1 4.793 1 7s1.793 4 4 4 4-1.793 4-4ZM7.828 4.172 11 1M9.23 1H11v1.77" fill="none" stroke="red" stroke-width="1" stroke-linecap="round" opacity="0.5403881274977664" />
      <circle cx="136.218" cy="259.881" r="29.773" fill="green" stroke="none" opacity="0.6050445354210666" />
      <path transform="translate(281.957, 125.487) scale(0.169) translate(-200,-200)" d="m239.84 120.88h31.498l-19.084 85.787q-5.5604 24.458-7.5968 30.016 7.4117 34.093 21.493 34.093 16.676 0 17.232-22.975h6.6701q-0.5282 21.493-7.9671 34.834-7.2262 13.155-19.084 13.155-9.8203 0-14.637-7.9673-4.8147-7.9673-10.376-32.61-19.27 40.578-62.997 40.578-29.831 0-47.433-23.161-17.602-23.346-17.602-66.702 0-42.616 19.27-66.332 19.269-23.716 46.321-23.716 19.084 0 31.313 13.526 12.229 13.526 21.679 44.098zm-16.305 72.632q-8.7082-29.831-19.455-46.507-10.746-16.861-25.755-16.861-33.907 0-33.907 79.302 0 75.226 32.425 75.226 28.163 0 41.689-66.332z" fill="purple" stroke="none" opacity="0.6844281832234802" />
      <path transform="translate(394.61, 288.512) scale(3.734) translate(-6,-6)" d="M9 7c0-2.207-1.793-4-4-4S1 4.793 1 7s1.793 4 4 4 4-1.793 4-4ZM7.828 4.172 11 1M9.23 1H11v1.77" fill="none" stroke="cyan" stroke-width="1" stroke-linecap="round" opacity="0.3824758555460905" />
      <circle cx="503.606" cy="422.698" r="24.906" fill="orange" stroke="none" opacity="0.44414783623123366" />
      <path transform="translate(329.127, 303.725) scale(0.131) translate(-200,-200)" d="m239.84 120.88h31.498l-19.084 85.787q-5.5604 24.458-7.5968 30.016 7.4117 34.093 21.493 34.093 16.676 0 17.232-22.975h6.6701q-0.5282 21.493-7.9671 34.834-7.2262 13.155-19.084 13.155-9.8203 0-14.637-7.9673-4.8147-7.9673-10.376-32.61-19.27 40.578-62.997 40.578-29.831 0-47.433-23.161-17.602-23.346-17.602-66.702 0-42.616 19.27-66.332 19.269-23.716 46.321-23.716 19.084 0 31.313 13.526 12.229 13.526 21.679 44.098zm-16.305 72.632q-8.7082-29.831-19.455-46.507-10.746-16.861-25.755-16.861-33.907 0-33.907 79.302 0 75.226 32.425 75.226 28.163 0 41.689-66.332z" fill="lime" stroke="none" opacity="0.3015924820962709" />
      <path transform="translate(312.475, 441.55) scale(6.371) translate(-6,-6)" d="M9 7c0-2.207-1.793-4-4-4S1 4.793 1 7s1.793 4 4 4 4-1.793 4-4ZM7.828 4.172 11 1M9.23 1H11v1.77" fill="none" stroke="black" stroke-width="1" stroke-linecap="round" opacity="0.6992315152682786" />
      <circle cx="150.15" cy="309.673" r="32.184" fill="blue" stroke="none" opacity="0.6952266415635342" />
    </g>
  </g>
</svg>