<?xml version="1.0"?>
<svg xmlns="http://www.w3.org/2000/svg" width="601" height="617.800" viewBox="0 0 601 617.800" transform="translate(0.5, 0.5)">
  <desc>Chysl 0.2.1 plot</desc>
  <g stroke="black" fill="white" font-family="sans-serif" font-size="14">
    <text x="300" y="18" stroke="none" fill="black" font-size="18" text-anchor="middle">Scatter</text>
    <g>
      <path d="M 20.760 600 V 23.600 M 116.967 600 V 23.600 M 213.173 600 V 23.600 M 309.380 600 V 23.600 M 405.587 600 V 23.600 M 501.793 600 V 23.600 M 598 600 V 23.600" stroke="gray" />
      <g text-anchor="middle" stroke="none" fill="black">
        <text x="20.760" y="614" text-anchor="start">-5</text>
        <text x="116.967" y="614">0</text>
        <text x="213.173" y="614">5</text>
        <text x="309.380" y="614">10</text>
        <text x="405.587" y="614">15</text>
        <text x="501.793" y="614">20</text>
        <text x="598" y="614" text-anchor="end">25</text>
      </g>
    </g>
    <g>
      <path d="M 20.760 600 H 598 M 20.760 503.933 H 598 M 20.760 407.867 H 598 M 20.760 311.800 H 598 M 20.760 215.733 H 598 M 20.760 119.667 H 598 M 20.760 23.600 H 598" stroke="gray" />
      <g text-anchor="end" stroke="none" fill="black">
        <text x="18.760" y="600">-5</text>
        <text x="18.760" y="508.600">0</text>
        <text x="18.760" y="412.533">5</text>
        <text x="18.760" y="316.467">10</text>
        <text x="18.760" y="220.400">15</text>
        <text x="18.760" y="124.333">20</text>
        <text x="18.760" y="37.600">25</text>
      </g>
    </g>
    <g>
      <g stroke="none" fill="black">
        <circle cx="213.17333333333332" cy="119.66666666666666" r="5" />
        <circle cx="501.79333333333335" cy="311.8" r="5" />
        <circle cx="116.96666666666667" cy="503.9333333333333" r="5" />
        <circle cx="136.208" cy="484.71999999999997" r="5" />
        <circle cx="213.17333333333332" cy="407.8666666666667" r="5" />
      </g>
    </g>
  </g>
</svg>