<?xml version="1.0"?>
<svg xmlns="http://www.w3.org/2000/svg" width="601" height="618" viewBox="0 0 601 618" transform="translate(0.5, 0.5)">
  <desc>Chysl 0.2.7 plot</desc>
  <g stroke="black" fill="white" font-family="sans-serif" font-size="14">
    <text x="300" y="18" stroke="none" fill="black" font-size="18" text-anchor="middle">Scattered points from CSV</text>
    <g>
      <path d="M 20.760 600 V 23.600 M 103.223 600 V 23.600 M 185.686 600 V 23.600 M 268.149 600 V 23.600 M 350.611 600 V 23.600 M 433 600 V 23.600 M 515.537 600 V 23.600 M 598 600 V 23.600" stroke="gray" />
      <g text-anchor="middle" stroke="none" fill="black">
        <text x="20.760" y="614" text-anchor="start">0</text>
        <text x="103.223" y="614">2</text>
        <text x="185.686" y="614">4</text>
        <text x="268.149" y="614">6</text>
        <text x="350.611" y="614">8</text>
        <text x="433" y="614">10</text>
        <text x="515.537" y="614">12</text>
        <text x="598" y="614" text-anchor="end">14</text>
      </g>
    </g>
    <g>
      <path d="M 20.760 600 H 598 M 20.760 517.657 H 598 M 20.760 435.314 H 598 M 20.760 353 H 598 M 20.760 270.629 H 598 M 20.760 188.286 H 598 M 20.760 105.943 H 598 M 20.760 23.600 H 598" stroke="gray" />
      <g text-anchor="end" stroke="none" fill="black">
        <text x="18.760" y="600">0</text>
        <text x="18.760" y="522.324">2</text>
        <text x="18.760" y="440">4</text>
        <text x="18.760" y="357.638">6</text>
        <text x="18.760" y="275.295">8</text>
        <text x="18.760" y="193">10</text>
        <text x="18.760" y="110.610">12</text>
        <text x="18.760" y="37.600">14</text>
      </g>
    </g>
    <g>
      <g>
        <path transform="translate(62, 517.657) scale(0.065) translate(-200,-200)" d="m283.93 237.24h6.6701q0 29.275-9.6347 42.616-9.4498 13.34-23.717 13.34-11.673 0-22.42-8.7085-10.746-8.8936-19.269-47.248l-15.935-71.891-55.215 125.25h-35.019l79.302-170.83q-6.2996-33.166-15.193-49.101-8.8936-15.934-22.048-15.934-10.561 0-18.528 8.1525-7.7823 7.9673-8.7088 24.828h-6.6701q0.5282-27.237 10.932-43.542 10.376-16.49 25.94-16.49 10.005 0 18.899 8.3378 9.0788 8.1526 15.564 28.163 6.6702 19.826 20.567 82.452l13.155 58.735q7.9673 36.501 16.676 48.915 8.893 12.229 21.122 12.229 20.751 0 23.531-29.275z" fill="black" stroke="none" />
        <path transform="translate(103.223, 105.943) scale(8.333) translate(-6,-6)" d="M8.316 1a5.553 5.553 0 0 1 1.629 3.94A3.443 3.443 0 0 1 6.5 8.378 2.127 2.127 0 0 1 4.375 6.25 1.315 1.315 0 0 1 5.69 4.936c.45 0 .813.365.812.813a.503.503 0 0 1-.147.355l-.71-.208a.502.502 0 0 0-.147.355c0 .449.363.813.812.813A1.315 1.315 0 0 0 7.625 5.75 2.127 2.127 0 0 0 5.5 3.622 3.443 3.443 0 0 0 2.055 7.06c0 1.538.622 2.93 1.629 3.939" fill="none" stroke="navy" stroke-width="1" stroke-linecap="round" />
        <circle cx="144.454" cy="435.314" r="9.0" fill="red" stroke="none" />
        <circle cx="268.149" cy="311.800" r="9.0" fill="black" stroke="none" />
        <g transform="translate(309.380, 270.629) scale(1.500) translate(-6,-6)">
          <path d="M6 5.102a.899.899 0 1 0 0 1.797.899.899 0 0 0 0-1.797Z" fill="orange" stroke="none" />
          <path d="M110 60c0 27.617-22.383 50-50 50S10 87.617 10 60s22.383-50 50-50 50 22.383 50 50z" transform="matrix(0.1 0 0 -0.1 0 12)" fill="none" stroke="orange" stroke-width="9" stroke-linecap="round" />
        </g>
        <path transform="translate(350.611, 311.800) scale(1.500) translate(-6,-6)" d="M8 5a1.999 1.999 0 1 0-4 0 1.999 1.999 0 1 0 4 0ZM4 1a1.999 1.999 0 1 0 4 0M6 11V7M4 9h4" fill="none" stroke="orange" stroke-width="1" stroke-linecap="round" />
        <path transform="translate(392, 105.943) scale(1.500) translate(-6,-6)" d="M3 3h4M5 1v5a1.999 1.999 0 1 1 3.414 1.414C7.508 8.32 7 9.72 7 11" fill="none" stroke="purple" stroke-width="1" stroke-linecap="round" />
        <text x="433" y="69.914" fill="green" stroke="none" font-family="sans-serif" font-weight="bold" text-anchor="middle" font-size="18">?</text>
        <circle cx="515.537" cy="311.800" r="9.0" fill="cyan" stroke="none" />
      </g>
    </g>
  </g>
</svg>