<?xml version="1.0"?>
<svg xmlns="http://www.w3.org/2000/svg" width="1" height="253.8" viewBox="0 0 1 253.8" transform="translate(0.5, 0.5)">
  <title>Universe and Earth</title>
  <g>
    <g transform="translate(0, 0)">
      <g>
        <defs>
          <clipPath id="id10">
            <rect width="600" height="40" />
          </clipPath>
        </defs>
        <g transform="translate(302,50.8)">
          <rect x="-1" y="-1" width="602" height="42" stroke="black" fill="none" class="frame" stroke-width="2" transform="translate(-300,-20)" />
        </g>
        <g transform="translate(302,50.8)">
          <g class="area" clip-path="url(#id10)" transform="translate(-300,-20)">
            <path stroke="lightgray" class="x-grid" d="M 0 0 V 40 M 85.106 0 V 40 M 170.213 0 V 40 M 255.319 0 V 40 M 340.426 0 V 40 M 425.532 0 V 40 M 510.638 0 V 40 M 595.745 0 V 40" />
            <path d="M 0.064 10 h 18 M 9.064 1 v 18 M 2.7 3.636 L 15.428 16.364 M 15.428 3.636 L 2.7 16.364" fill="none" stroke="red" stroke-width="2" stroke-linecap="round" class="event" />
            <a href="https://en.wikipedia.org/wiki/Milky_Way">
              <g stroke="black" stroke-width="1" class="period">
                <rect x="276.096" y="1" width="320.149" height="18" fill="dodgerblue" stroke="none" />
                <path d="M 276.096 1 H 596.745 m 0 18 H 276.096" />
                <defs>
                  <linearGradient id="id11">
                    <stop offset="0" stop-color="dodgerblue" stop-opacity="0" />
                    <stop offset="1" stop-color="dodgerblue" stop-opacity="1" />
                  </linearGradient>
                  <linearGradient id="id12">
                    <stop offset="0" stop-color="black" stop-opacity="0" />
                    <stop offset="1" stop-color="black" stop-opacity="1" />
                  </linearGradient>
                </defs>
                <rect x="234.043" y="1" width="42.553" height="18" fill="url(#id11)" stroke="none" />
                <path d="M 234.043 1 H 276.596 m 0 18 H 234.043" stroke="url(#id12)" />
                <line x1="595.745" y1="1" x2="595.745" y2="19" />
              </g>
            </a>
            <a href="https://en.wikipedia.org/wiki/Milky_Way" class="event">
              <path transform="translate(276.596, 10) scale(1.5) translate(-6,-6)" d="M8.316 1a5.553 5.553 0 0 1 1.629 3.94A3.443 3.443 0 0 1 6.5 8.378 2.127 2.127 0 0 1 4.375 6.25 1.315 1.315 0 0 1 5.69 4.936c.45 0 .813.365.812.813a.503.503 0 0 1-.147.355l-.71-.208a.502.502 0 0 0-.147.355c0 .449.363.813.812.813A1.315 1.315 0 0 0 7.625 5.75 2.127 2.127 0 0 0 5.5 3.622 3.443 3.443 0 0 0 2.055 7.06c0 1.538.622 2.93 1.629 3.939" fill="none" stroke="white" stroke-width="1" stroke-linecap="round" />
            </a>
            <g stroke="black" stroke-width="1" class="period">
              <rect x="401.404" y="21" width="194.34" height="18" fill="lightgreen" />
            </g>
            <g class="labels" font-family="sans-serif" font-size="12" text-anchor="middle">
              <text x="20.064" y="13.6" class="event-label" text-anchor="start">Big Bang</text>
              <text x="436.17" y="13.6" fill="white" class="period-label" text-anchor="middle">Milky Way galaxy</text>
              <text x="498.574" y="33.6" fill="black" class="period-label" text-anchor="middle">Earth</text>
            </g>
          </g>
        </g>
        <g transform="translate(302,87)">
          <g class="x-axis-labels" font-family="sans-serif" font-size="12" text-anchor="middle" stroke="none" fill="black" transform="translate(-300,-14.2)">
            <text x="0" y="10.8" text-anchor="start">14</text>
            <text x="85.106" y="10.8">12</text>
            <text x="170.213" y="10.8">10</text>
            <text x="255.319" y="10.8">8</text>
            <text x="340.426" y="10.8">6</text>
            <text x="425.532" y="10.8">4</text>
            <text x="510.638" y="10.8">2</text>
            <text x="595.745" y="10.8">0</text>
            <text x="300" y="24" class="x-axis-caption">Billion years ago</text>
          </g>
        </g>
        <g transform="translate(302,14.4)">
          <text y="7.2" fill="darkorchid" class="title" text-anchor="middle" font-family="sans-serif" font-size="24" font-weight="bold">Universe</text>
        </g>
      </g>
    </g>
    <g transform="translate(0, 101.2)">
      <g>
        <defs>
          <clipPath id="id13">
            <rect width="600" height="100" />
          </clipPath>
        </defs>
        <g transform="translate(302,71.2)">
          <rect x="-1" y="-1" width="602" height="102" stroke="black" fill="none" class="frame" stroke-width="2" transform="translate(-300,-50)" />
        </g>
        <g transform="translate(302,71.2)">
          <g class="area" clip-path="url(#id13)" transform="translate(-300,-50)">
            <path stroke="lightgray" class="x-grid" d="M 0 0 V 100 M 120 0 V 100 M 240 0 V 100 M 360 0 V 100 M 480 0 V 100 M 600 0 V 100" />
            <g stroke="black" stroke-width="1" class="period">
              <rect x="51.96" y="1" width="548.04" height="18" fill="skyblue" />
            </g>
            <g stroke="black" stroke-width="1" class="period">
              <rect x="125.5" y="21" width="151" height="18" fill="wheat" stroke="none" />
              <path d="M 125.5 21 H 277 m 0 18 H 125.5" />
              <defs>
                <linearGradient id="id14">
                  <stop offset="0" stop-color="wheat" stop-opacity="0" />
                  <stop offset="1" stop-color="wheat" stop-opacity="1" />
                </linearGradient>
                <linearGradient id="id15">
                  <stop offset="0" stop-color="black" stop-opacity="0" />
                  <stop offset="1" stop-color="black" stop-opacity="1" />
                </linearGradient>
              </defs>
              <rect x="108" y="21" width="18" height="18" fill="url(#id14)" stroke="none" />
              <path d="M 108 21 H 126 m 0 18 H 108" stroke="url(#id15)" />
              <defs>
                <linearGradient id="id16">
                  <stop offset="0" stop-color="wheat" stop-opacity="1" />
                  <stop offset="1" stop-color="wheat" stop-opacity="0" />
                </linearGradient>
                <linearGradient id="id17">
                  <stop offset="0" stop-color="black" stop-opacity="1" />
                  <stop offset="1" stop-color="black" stop-opacity="0" />
                </linearGradient>
              </defs>
              <rect x="276" y="21" width="48" height="18" fill="url(#id16)" stroke="none" />
              <path d="M 276 21 H 324 m 0 18 H 276" stroke="url(#id17)" />
            </g>
            <ellipse cx="96" cy="50" rx="3.6" ry="9" fill="black" stroke="none" class="event" />
            <g stroke="black" stroke-width="1" class="period">
              <rect x="181.9" y="41" width="418.6" height="18" fill="white" stroke="none" />
              <path d="M 181.9 41 H 601 m 0 18 H 181.9" />
              <defs>
                <linearGradient id="id18">
                  <stop offset="0" stop-color="white" stop-opacity="0" />
                  <stop offset="1" stop-color="white" stop-opacity="1" />
                </linearGradient>
                <linearGradient id="id19">
                  <stop offset="0" stop-color="black" stop-opacity="0" />
                  <stop offset="1" stop-color="black" stop-opacity="1" />
                </linearGradient>
              </defs>
              <rect x="96" y="41" width="86.4" height="18" fill="url(#id18)" stroke="none" />
              <path d="M 96 41 H 182.4 m 0 18 H 96" stroke="url(#id19)" />
              <line x1="600" y1="41" x2="600" y2="59" />
            </g>
            <g stroke="black" stroke-width="1" class="period">
              <rect x="402" y="61" width="198" height="18" fill="white" />
              <g stroke="black">
                <path d="M 378 65.5 v 9 m 0 -4.5 H 402" />
                <path d="M 426 65.5 v 9 m 0 -4.5 H 402" />
              </g>
            </g>
            <g stroke="black" stroke-width="1" class="period">
              <rect x="287.5" y="81" width="313" height="18" fill="springgreen" stroke="none" />
              <path d="M 287.5 81 H 601 m 0 18 H 287.5" />
              <defs>
                <linearGradient id="id20">
                  <stop offset="0" stop-color="springgreen" stop-opacity="0" />
                  <stop offset="1" stop-color="springgreen" stop-opacity="1" />
                </linearGradient>
                <linearGradient id="id21">
                  <stop offset="0" stop-color="black" stop-opacity="0" />
                  <stop offset="1" stop-color="black" stop-opacity="1" />
                </linearGradient>
              </defs>
              <rect x="192" y="81" width="96" height="18" fill="url(#id20)" stroke="none" />
              <path d="M 192 81 H 288 m 0 18 H 192" stroke="url(#id21)" />
              <line x1="600" y1="81" x2="600" y2="99" />
            </g>
            <g stroke="black" stroke-width="1" class="period">
              <path d="M 549.6 81 L 537.6 90 549.6 99 H 600 L 600 90 600 81 Z" fill="green" />
            </g>
            <g class="labels" font-family="sans-serif" font-size="12" text-anchor="middle">
              <text x="325.98" y="13.6" fill="black" class="period-label" text-anchor="middle">Earth</text>
              <text x="210" y="33.6" fill="black" class="period-label" text-anchor="middle">Archean</text>
              <text x="101.6" y="53.6" class="event-label" text-anchor="start">LUCA?</text>
              <text x="391.2" y="53.6" fill="black" class="period-label" text-anchor="middle">Unicellular organisms</text>
              <text x="501" y="73.6" fill="black" class="period-label" text-anchor="middle">Eukaryotes</text>
              <text x="396" y="93.6" fill="black" class="period-label" text-anchor="middle">Photosynthesis</text>
              <text x="535.6" y="93.6" fill="black" class="period-label" text-anchor="end">Plants</text>
            </g>
          </g>
        </g>
        <g transform="translate(302,137.4)">
          <g class="x-axis-labels" font-family="sans-serif" font-size="12" text-anchor="middle" stroke="none" fill="black" transform="translate(-300,-14.2)">
            <text x="0" y="10.8" text-anchor="start">5</text>
            <text x="120" y="10.8">4</text>
            <text x="240" y="10.8">3</text>
            <text x="360" y="10.8">2</text>
            <text x="480" y="10.8">1</text>
            <text x="600" y="10.8" text-anchor="end">0</text>
            <text x="300" y="24" class="x-axis-caption">Billion years ago</text>
          </g>
        </g>
        <g transform="translate(302,9.6)">
          <text y="4.8" fill="black" class="title" text-anchor="middle" font-family="sans-serif" font-size="16">Earth</text>
        </g>
      </g>
    </g>
  </g>
</svg>