<?xml version="1.0"?>
<svg xmlns="http://www.w3.org/2000/svg" width="601" height="351.800" viewBox="0 0 601 351.800" transform="translate(0.5, 0.5)">
  <desc>Chysl 0.2.2 column</desc>
  <g stroke="black" fill="white" font-family="sans-serif" font-size="14">
    <text x="300" y="22" stroke="none" fill="black" font-size="22" text-anchor="middle">Universe and Earth</text>
    <g transform="translate(0.0, 28.4)">
      <g stroke="black" fill="white" font-family="sans-serif" font-size="14">
        <text x="300" y="18" stroke="none" fill="blue" font-size="18" text-anchor="middle" font-weight="bold">Universe</text>
        <g>
          <path d="M 0 23.600 V 89.600 M 85.429 23.600 V 89.600 M 170.857 23.600 V 89.600 M 256.286 23.600 V 89.600 M 341.714 23.600 V 89.600 M 427.143 23.600 V 89.600 M 512.571 23.600 V 89.600 M 598 23.600 V 89.600 M 0 23.600 H 600 M 0 89.600 H 600" stroke="gray" />
          <g text-anchor="middle" stroke="none" fill="black">
            <text x="0" y="103.600" text-anchor="start">14</text>
            <text x="85.429" y="103.600">12</text>
            <text x="170.857" y="103.600">10</text>
            <text x="256.286" y="103.600">8</text>
            <text x="341.714" y="103.600">6</text>
            <text x="427.143" y="103.600">4</text>
            <text x="512.571" y="103.600">2</text>
            <text x="598" y="103.600" text-anchor="end">0</text>
            <text x="299" y="120.39999999999999">Billion years ago</text>
          </g>
        </g>
        <g>
          <path d="M 0.098 34.600 h 18 M 9.098 25.600 v 18 M 2.734 28.236 L 15.462 40.964 M 15.462 28.236 L 2.734 40.964" fill="none" stroke="red" stroke-width="2" />
          <g>
            <rect x="277.64285714285717" y="25.600" width="320.357" height="18" stroke="none" fill="navy" />
            <path d="M 277.643 25.600 H 598 m 0 18 H 277.643" stroke="black" />
            <defs>
              <linearGradient id="id9">
                <stop offset="0" stop-color="navy" stop-opacity="0" />
                <stop offset="1" stop-color="navy" stop-opacity="1" />
              </linearGradient>
              <linearGradient id="id10">
                <stop offset="0" stop-color="black" stop-opacity="0" />
                <stop offset="1" stop-color="black" stop-opacity="1" />
              </linearGradient>
            </defs>
            <rect x="234.92857142857144" y="25.600" width="42.714" height="18" stroke="none" fill="url(#id9)" />
            <path d="M 234.929 25.600 H 277.643 m 0 18 H 234.929" stroke="url(#id10)" />
            <line x1="598" y1="25.600" x2="598" y2="43.600" stroke="black" />
          </g>
          <g>
            <rect x="402.924" y="47.600" width="195.076" height="18" fill="lightgreen" />
          </g>
          <g>
            <g stroke="black">
              <path d="M 59.800 74.100 v 9 m 0 -4.500 H 85.429" />
              <path d="M 111.057 74.100 v 9 m 0 -4.500 H 85.429" />
            </g>
            <rect x="76.429" y="69.600" width="18" height="18" fill="black" stroke="none" stroke-width="2" />
          </g>
          <circle cx="170.857" cy="78.600" r="9.0" fill="none" stroke="cyan" stroke-width="2" />
          <ellipse cx="256.286" cy="78.600" rx="3.6" ry="9.0" fill="none" stroke="blue" stroke-width="2" />
          <g>
            <g stroke="black">
              <path d="M 320.357 74.100 v 9 m 0 -4.500 H 333.171" />
              <path d="M 363.071 74.100 v 9 m 0 -4.500 H 333.171" />
            </g>
            <ellipse cx="333.171" cy="78.600" rx="3.6" ry="9.0" fill="orange" stroke="none" stroke-width="2" />
          </g>
          <path d="M 427.143 69.600 L 418.143 87.600 h 18 Z" fill="gold" stroke="none" stroke-width="2" />
          <path d="M 512.571 87.600 L 503.571 69.600 h 18 Z" fill="purple" stroke="none" stroke-width="2" />
        </g>
        <g text-anchor="middle" stroke="none" fill="black">
          <text x="20.098" y="38.800" text-anchor="start">Big Bang</text>
          <text x="437.821" y="38.800" fill="white" text-anchor="middle">Milky Way galaxy</text>
          <text x="500.462" y="60.800" fill="black" text-anchor="middle">Earth</text>
          <text x="57.800" y="82.800" text-anchor="end">Block</text>
          <text x="170.857" y="82.800" text-anchor="middle">Circle</text>
          <text x="250.686" y="82.800" text-anchor="end">Ellipse</text>
          <text x="318.357" y="82.800" text-anchor="end">Oval</text>
          <text x="427.143" y="82.800" text-anchor="middle">Pyramid</text>
          <text x="523.571" y="82.800" text-anchor="start">Triangle</text>
        </g>
      </g>
    </g>
    <g transform="translate(0.0, 161.6)">
      <g stroke="black" fill="white" font-family="sans-serif" font-size="14">
        <text x="300" y="18" stroke="none" fill="black" font-size="18" text-anchor="middle">Earth</text>
        <g>
          <path d="M 0 23.600 V 155.600 M 119.600 23.600 V 155.600 M 239.200 23.600 V 155.600 M 358.800 23.600 V 155.600 M 478.400 23.600 V 155.600 M 598 23.600 V 155.600 M 0 23.600 H 600 M 0 155.600 H 600" stroke="gray" />
          <g text-anchor="middle" stroke="none" fill="black">
            <text x="0" y="169.600" text-anchor="start">5</text>
            <text x="119.600" y="169.600">4</text>
            <text x="239.200" y="169.600">3</text>
            <text x="358.800" y="169.600">2</text>
            <text x="478.400" y="169.600">1</text>
            <text x="598" y="169.600" text-anchor="end">0</text>
            <text x="299" y="186.4">Billion years ago</text>
          </g>
        </g>
        <g>
          <g>
            <rect x="51.787" y="25.600" width="546.213" height="18" fill="white" />
          </g>
          <g>
            <rect x="125.58000000000001" y="47.600" width="149.500" height="18" stroke="none" fill="wheat" />
            <path d="M 125.580 47.600 H 275.080 m 0 18 H 125.580" stroke="black" />
            <defs>
              <linearGradient id="id11">
                <stop offset="0" stop-color="wheat" stop-opacity="0" />
                <stop offset="1" stop-color="wheat" stop-opacity="1" />
              </linearGradient>
              <linearGradient id="id12">
                <stop offset="0" stop-color="black" stop-opacity="0" />
                <stop offset="1" stop-color="black" stop-opacity="1" />
              </linearGradient>
            </defs>
            <rect x="107.64000000000001" y="47.600" width="17.940" height="18" stroke="none" fill="url(#id11)" />
            <path d="M 107.640 47.600 H 125.580 m 0 18 H 107.640" stroke="url(#id12)" />
            <defs>
              <linearGradient id="id13">
                <stop offset="0" stop-color="wheat" stop-opacity="1" />
                <stop offset="1" stop-color="wheat" stop-opacity="0" />
              </linearGradient>
              <linearGradient id="id14">
                <stop offset="0" stop-color="black" stop-opacity="1" />
                <stop offset="1" stop-color="black" stop-opacity="0" />
              </linearGradient>
            </defs>
            <rect x="275.080" y="47.600" width="47.840" height="18" stroke="none" fill="url(#id13)" />
            <path d="M 275.080 47.600 H 322.920 m 0 18 H 275.080" stroke="url(#id14)" />
          </g>
          <ellipse cx="95.680" cy="78.600" rx="3.6" ry="9.0" fill="black" stroke="none" stroke-width="2" />
          <g>
            <rect x="181.79200000000003" y="69.600" width="416.208" height="18" stroke="none" fill="white" />
            <path d="M 181.792 69.600 H 598 m 0 18 H 181.792" stroke="black" />
            <defs>
              <linearGradient id="id15">
                <stop offset="0" stop-color="white" stop-opacity="0" />
                <stop offset="1" stop-color="white" stop-opacity="1" />
              </linearGradient>
              <linearGradient id="id16">
                <stop offset="0" stop-color="black" stop-opacity="0" />
                <stop offset="1" stop-color="black" stop-opacity="1" />
              </linearGradient>
            </defs>
            <rect x="95.68" y="69.600" width="86.112" height="18" stroke="none" fill="url(#id15)" />
            <path d="M 95.680 69.600 H 181.792 m 0 18 H 95.680" stroke="url(#id16)" />
            <line x1="598" y1="69.600" x2="598" y2="87.600" stroke="black" />
          </g>
          <g>
            <rect x="400.660" y="91.600" width="197.340" height="18" fill="white" />
          </g>
          <g>
            <path d="M 227.240 113.600 L 179.400 122.600 227.240 131.600 H 400.660 L 400.660 122.600 400.660 113.600 Z" fill="lightgray" />
          </g>
          <g>
            <rect x="191.360" y="135.600" width="406.640" height="18" fill="springgreen" />
          </g>
          <g>
            <rect x="541.788" y="135.600" width="56.212" height="18" fill="green" />
          </g>
        </g>
        <g text-anchor="middle" stroke="none" fill="black">
          <text x="324.893" y="38.800" fill="black" text-anchor="middle">Earth</text>
          <text x="209.300" y="60.800" fill="black" text-anchor="middle">Archean</text>
          <text x="101.280" y="82.800" text-anchor="start">LUCA?</text>
          <text x="389.896" y="82.800" fill="black" text-anchor="middle">Unicellular organisms</text>
          <text x="499.330" y="104.800" fill="black" text-anchor="middle">Eukaryotes</text>
          <text x="301.990" y="126.800" fill="black" text-anchor="middle">Engineers</text>
          <text x="394.680" y="148.800" fill="black" text-anchor="middle">Photosynthesis</text>
          <text x="539.788" y="148.800" fill="black" text-anchor="end">Plants</text>
        </g>
      </g>
    </g>
  </g>
</svg>