<?xml version="1.0"?>
<svg xmlns="http://www.w3.org/2000/svg" width="601" height="124.200" viewBox="0 0 601 124.200" transform="translate(0.5, 0.5)">
  <desc>Chysl 0.1.0 timelines</desc>
  <g stroke="black" fill="white" font-family="sans-serif" font-size="14">
    <text x="300" y="18" stroke="none" fill="blue" font-size="18" text-anchor="middle" font-weight="bold">Universe</text>
    <g>
      <path d="M 66.220 23.600 V 89.600 M 142.189 23.600 V 89.600 M 218.157 23.600 V 89.600 M 294.126 23.600 V 89.600 M 370.094 23.600 V 89.600 M 446.063 23.600 V 89.600 M 522.031 23.600 V 89.600 M 598 23.600 V 89.600 M 66.220 23.600 H 600 M 66.220 89.600 H 600" stroke="gray" />
      <g text-anchor="middle" stroke="none" fill="black">
        <text x="66.220" y="103.600" text-anchor="start">14</text>
        <text x="142.189" y="103.600">12</text>
        <text x="218.157" y="103.600">10</text>
        <text x="294.126" y="103.600">8</text>
        <text x="370.094" y="103.600">6</text>
        <text x="446.063" y="103.600">4</text>
        <text x="522.031" y="103.600">2</text>
        <text x="598" y="103.600" text-anchor="end">0</text>
        <text x="332.110" y="120.39999999999999">Billion years ago</text>
      </g>
    </g>
    <g>
      <path d="M 65.311 34.600 h 18 M 74.311 25.600 v 18 M 67.947 28.236 L 80.675 40.964 M 80.675 28.236 L 67.947 40.964" fill="none" stroke="red" stroke-width="2" />
      <g>
        <rect x="313.11785714285713" y="25.600" width="284.882" height="18" stroke="none" fill="navy" />
        <path d="M 313.118 25.600 H 598 m 0 18 H 313.118" stroke="black" />
        <defs>
          <linearGradient id="id1">
            <stop offset="0" stop-color="navy" stop-opacity="0" />
            <stop offset="1" stop-color="navy" stop-opacity="1" />
          </linearGradient>
          <linearGradient id="id2">
            <stop offset="0" stop-color="black" stop-opacity="0" />
            <stop offset="1" stop-color="black" stop-opacity="1" />
          </linearGradient>
        </defs>
        <rect x="275.1335714285714" y="25.600" width="37.984" height="18" stroke="none" fill="url(#id1)" />
        <path d="M 275.134 25.600 H 313.118 m 0 18 H 275.134" stroke="url(#id2)" />
        <line x1="598" y1="25.600" x2="598" y2="43.600" stroke="black" />
      </g>
      <g>
        <rect x="424.526" y="47.600" width="173.474" height="18" fill="lightgreen" />
      </g>
      <g>
        <g stroke="black">
          <path d="M 119.398 74.100 v 9 m 0 -4.500 H 142.189" />
          <path d="M 164.979 74.100 v 9 m 0 -4.500 H 142.189" />
        </g>
        <rect x="133.189" y="69.600" width="18" height="18" fill="black" stroke="none" stroke-width="2" />
      </g>
      <circle cx="218.157" cy="78.600" r="9.0" fill="none" stroke="cyan" stroke-width="2" />
      <ellipse cx="294.126" cy="78.600" rx="3.6" ry="9.0" fill="none" stroke="blue" stroke-width="2" />
      <g>
        <g stroke="black">
          <path d="M 351.102 74.100 v 9 m 0 -4.500 H 362.497" />
          <path d="M 389.086 74.100 v 9 m 0 -4.500 H 362.497" />
        </g>
        <ellipse cx="362.497" cy="78.600" rx="3.6" ry="9.0" fill="orange" stroke="none" stroke-width="2" />
      </g>
      <path d="M 446.063 69.600 L 437.063 87.600 h 18 Z" fill="gold" stroke="none" stroke-width="2" />
      <path d="M 522.031 87.600 L 513.031 69.600 h 18 Z" fill="purple" stroke="none" stroke-width="2" />
    </g>
    <g text-anchor="middle" stroke="none" fill="black">
      <text x="85.311" y="38.800" text-anchor="start">Big Bang</text>
      <text x="455.559" y="38.800" fill="white" text-anchor="middle">Milky Way galaxy</text>
      <text x="511.263" y="60.800" fill="black" text-anchor="middle">Earth</text>
      <text x="117.398" y="82.800" text-anchor="end">Block</text>
      <text x="218.157" y="82.800" text-anchor="middle">Circle</text>
      <text x="288.526" y="82.800" text-anchor="end">Ellipse</text>
      <text x="349.102" y="82.800" text-anchor="end">Oval</text>
      <text x="446.063" y="82.800" text-anchor="middle">Pyramid</text>
      <text x="533.031" y="82.800" text-anchor="start">Triangle</text>
    </g>
    <g stroke="none" fill="black">
      <text x="2" y="38.800">Universe</text>
      <text x="2" y="60.800">Earth</text>
      <text x="2" y="82.800">markers</text>
    </g>
  </g>
</svg>