<?xml version="1.0"?>
<svg xmlns="http://www.w3.org/2000/svg" width="601" height="102.200" viewBox="0 0 601 102.200" transform="translate(0.5, 0.5)">
  <desc>Chysl 0.2.7 timelines</desc>
  <g stroke="black" fill="white" font-family="sans-serif" font-size="14">
    <text x="300" y="18" stroke="none" fill="blue" font-size="18" text-anchor="middle" font-weight="bold">Universe</text>
    <rect x="66.220" y="23.600" width="532" height="44" stroke="black" stroke-width="1" />
    <g>
      <path d="M 66.220 23.600 V 67.600 M 142.189 23.600 V 67.600 M 218.157 23.600 V 67.600 M 294 23.600 V 67.600 M 370 23.600 V 67.600 M 446 23.600 V 67.600 M 522 23.600 V 67.600 M 598 23.600 V 67.600 M 66.220 23.600 H 600 M 66.220 67.600 H 600" stroke="gray" />
      <g text-anchor="middle" stroke="none" fill="black">
        <text x="66.220" y="81.600" text-anchor="start">14</text>
        <text x="142.189" y="81.600">12</text>
        <text x="218.157" y="81.600">10</text>
        <text x="294" y="81.600">8</text>
        <text x="370" y="81.600">6</text>
        <text x="446" y="81.600">4</text>
        <text x="522" y="81.600">2</text>
        <text x="598" y="81.600" text-anchor="end">0</text>
        <text x="332" y="98.39999999999999">Billion years ago</text>
      </g>
    </g>
    <g>
      <path d="M 65.311 34.600 h 18 M 74.311 25.600 v 18 M 67.947 28.236 L 80.675 40.964 M 80.675 28.236 L 67.947 40.964" fill="none" stroke="red" stroke-width="2" stroke-linecap="round" />
      <g>
        <rect x="312.61785714285713" y="25.600" width="286" height="18" stroke="none" fill="dodgerblue" />
        <path d="M 312.618 25.600 H 599 m 0 18 H 312.618" stroke="black" />
        <defs>
          <linearGradient id="id1">
            <stop offset="0" stop-color="dodgerblue" stop-opacity="0" />
            <stop offset="1" stop-color="dodgerblue" stop-opacity="1" />
          </linearGradient>
          <linearGradient id="id2">
            <stop offset="0" stop-color="black" stop-opacity="0" />
            <stop offset="1" stop-color="black" stop-opacity="1" />
          </linearGradient>
        </defs>
        <rect x="275.1335714285714" y="25.600" width="38" height="18" stroke="none" fill="url(#id1)" />
        <path d="M 275 25.600 H 313 m 0 18 H 275" stroke="url(#id2)" />
        <line x1="598" y1="25.600" x2="598" y2="43.600" stroke="black" />
      </g>
      <path transform="translate(275, 34.600) scale(1.500) translate(-6,-6)" d="M8.316 1a5.553 5.553 0 0 1 1.629 3.94A3.443 3.443 0 0 1 6.5 8.378 2.127 2.127 0 0 1 4.375 6.25 1.315 1.315 0 0 1 5.69 4.936c.45 0 .813.365.812.813a.503.503 0 0 1-.147.355l-.71-.208a.502.502 0 0 0-.147.355c0 .449.363.813.812.813A1.315 1.315 0 0 0 7.625 5.75 2.127 2.127 0 0 0 5.5 3.622 3.443 3.443 0 0 0 2.055 7.06c0 1.538.622 2.93 1.629 3.939" fill="none" stroke="navy" stroke-width="1" stroke-linecap="round" />
      <g>
        <rect x="424.526" y="47.600" width="173.474" height="18" fill="lightgreen" />
      </g>
    </g>
    <g text-anchor="middle" stroke="none" fill="black">
      <text x="85.311" y="38.800" text-anchor="start">Big Bang</text>
      <text x="455.559" y="38.800" fill="white" text-anchor="middle">Milky Way galaxy</text>
      <text x="511.263" y="60.800" fill="black" text-anchor="middle">Earth</text>
    </g>
    <g stroke="none" fill="black">
      <text x="2" y="38.800">Universe</text>
      <text x="2" y="60.800">Earth</text>
    </g>
  </g>
</svg>