<?xml version="1.0"?>
<svg xmlns="http://www.w3.org/2000/svg" width="601" height="325" viewBox="0 0 601 325" transform="translate(0.5, 0.5)">
  <desc>column; Chysl 0.3.2</desc>
  <g stroke="black" fill="white" font-family="sans-serif" font-size="14">
    <text x="300" y="18" stroke="none" fill="black" font-size="18" text-anchor="middle">Universe and Earth</text>
    <g transform="translate(0, 23.6)">
      <g stroke="black" fill="white" font-family="sans-serif" font-size="14">
        <text x="300" y="18" stroke="none" fill="blue" font-size="18" text-anchor="middle" font-weight="bold">Universe</text>
        <rect x="0" y="23.6" width="598" height="44" stroke="black" stroke-width="1" />
        <g>
          <path d="M 0 23.6 V 67.6 M 85.429 23.6 V 67.6 M 170.857 23.6 V 67.6 M 256.286 23.6 V 67.6 M 341.714 23.6 V 67.6 M 427.143 23.6 V 67.6 M 512.571 23.6 V 67.6 M 598 23.6 V 67.6 M 0 23.6 H 600 M 0 67.6 H 600" stroke="gray" />
          <g text-anchor="middle" stroke="none" fill="black">
            <text x="0" y="81.6" text-anchor="start">14</text>
            <text x="85.429" y="81.6">12</text>
            <text x="170.857" y="81.6">10</text>
            <text x="256.286" y="81.6">8</text>
            <text x="341.714" y="81.6">6</text>
            <text x="427.143" y="81.6">4</text>
            <text x="512.571" y="81.6">2</text>
            <text x="598" y="81.6" text-anchor="end">0</text>
            <text x="299" y="98.4">Billion years ago</text>
          </g>
        </g>
        <g>
          <path d="M 0.098 34.6 h 18 M 9.098 25.6 v 18 M 2.734 28.236 L 15.462 40.964 M 15.462 28.236 L 2.734 40.964" fill="none" stroke="red" stroke-width="2" stroke-linecap="round" />
          <g href="https://en.wikipedia.org/wiki/Milky_Way">
            <rect x="277.143" y="25.6" width="321.357" height="18" stroke="none" fill="dodgerblue" />
            <path d="M 277.143 25.6 H 599 m 0 18 H 277.143" stroke="black" />
            <defs>
              <linearGradient id="id7">
                <stop offset="0" stop-color="dodgerblue" stop-opacity="0" />
                <stop offset="1" stop-color="dodgerblue" stop-opacity="1" />
              </linearGradient>
              <linearGradient id="id8">
                <stop offset="0" stop-color="black" stop-opacity="0" />
                <stop offset="1" stop-color="black" stop-opacity="1" />
              </linearGradient>
            </defs>
            <rect x="234.929" y="25.6" width="42.714" height="18" stroke="none" fill="url(#id7)" />
            <path d="M 234.929 25.6 H 277.643 m 0 18 H 234.929" stroke="url(#id8)" />
            <line x1="598" y1="25.6" x2="598" y2="43.6" stroke="black" />
          </g>
          <path transform="translate(234.929, 34.6) scale(1.5) translate(-6,-6)" d="M8.316 1a5.553 5.553 0 0 1 1.629 3.94A3.443 3.443 0 0 1 6.5 8.378 2.127 2.127 0 0 1 4.375 6.25 1.315 1.315 0 0 1 5.69 4.936c.45 0 .813.365.812.813a.503.503 0 0 1-.147.355l-.71-.208a.502.502 0 0 0-.147.355c0 .449.363.813.812.813A1.315 1.315 0 0 0 7.625 5.75 2.127 2.127 0 0 0 5.5 3.622 3.443 3.443 0 0 0 2.055 7.06c0 1.538.622 2.93 1.629 3.939" fill="none" stroke="navy" stroke-width="1" stroke-linecap="round" href="https://en.wikipedia.org/wiki/Milky_Way" />
          <g>
            <rect x="402.924" y="47.6" width="195.076" height="18" fill="lightgreen" />
          </g>
        </g>
        <g text-anchor="middle" stroke="none" fill="black">
          <text x="20.098" y="38.8" text-anchor="start">Big Bang</text>
          <text x="437.821" y="38.8" fill="white" text-anchor="middle">Milky Way galaxy</text>
          <text x="500.462" y="60.8" fill="black" text-anchor="middle">Earth</text>
        </g>
      </g>
    </g>
    <g transform="translate(0, 134.8)">
      <g stroke="black" fill="white" font-family="sans-serif" font-size="14">
        <text x="300" y="18" stroke="none" fill="black" font-size="18" text-anchor="middle">Earth</text>
        <rect x="0" y="23.6" width="598" height="132" stroke="black" stroke-width="1" />
        <g>
          <path d="M 0 23.6 V 155.6 M 119.6 23.6 V 155.6 M 239.2 23.6 V 155.6 M 358.8 23.6 V 155.6 M 478.4 23.6 V 155.6 M 598 23.6 V 155.6 M 0 23.6 H 600 M 0 155.6 H 600" stroke="gray" />
          <g text-anchor="middle" stroke="none" fill="black">
            <text x="0" y="169.6" text-anchor="start">5</text>
            <text x="119.6" y="169.6">4</text>
            <text x="239.2" y="169.6">3</text>
            <text x="358.8" y="169.6">2</text>
            <text x="478.4" y="169.6">1</text>
            <text x="598" y="169.6" text-anchor="end">0</text>
            <text x="299" y="186.4">Billion years ago</text>
          </g>
        </g>
        <g>
          <g>
            <rect x="51.787" y="25.6" width="546.213" height="18" fill="white" />
          </g>
          <g>
            <rect x="125.08" y="47.6" width="150.5" height="18" stroke="none" fill="wheat" />
            <path d="M 125.08 47.6 H 276.08 m 0 18 H 125.08" stroke="black" />
            <defs>
              <linearGradient id="id9">
                <stop offset="0" stop-color="wheat" stop-opacity="0" />
                <stop offset="1" stop-color="wheat" stop-opacity="1" />
              </linearGradient>
              <linearGradient id="id10">
                <stop offset="0" stop-color="black" stop-opacity="0" />
                <stop offset="1" stop-color="black" stop-opacity="1" />
              </linearGradient>
            </defs>
            <rect x="107.64" y="47.6" width="17.94" height="18" stroke="none" fill="url(#id9)" />
            <path d="M 107.64 47.6 H 125.58 m 0 18 H 107.64" stroke="url(#id10)" />
            <defs>
              <linearGradient id="id11">
                <stop offset="0" stop-color="wheat" stop-opacity="1" />
                <stop offset="1" stop-color="wheat" stop-opacity="0" />
              </linearGradient>
              <linearGradient id="id12">
                <stop offset="0" stop-color="black" stop-opacity="1" />
                <stop offset="1" stop-color="black" stop-opacity="0" />
              </linearGradient>
            </defs>
            <rect x="275.08" y="47.6" width="47.84" height="18" stroke="none" fill="url(#id11)" />
            <path d="M 275.08 47.6 H 322.92 m 0 18 H 275.08" stroke="url(#id12)" />
          </g>
          <ellipse cx="95.68" cy="78.6" rx="3.6" ry="9" fill="black" stroke="none" />
          <g>
            <rect x="181.292" y="69.6" width="417.208" height="18" stroke="none" fill="white" />
            <path d="M 181.292 69.6 H 599 m 0 18 H 181.292" stroke="black" />
            <defs>
              <linearGradient id="id13">
                <stop offset="0" stop-color="white" stop-opacity="0" />
                <stop offset="1" stop-color="white" stop-opacity="1" />
              </linearGradient>
              <linearGradient id="id14">
                <stop offset="0" stop-color="black" stop-opacity="0" />
                <stop offset="1" stop-color="black" stop-opacity="1" />
              </linearGradient>
            </defs>
            <rect x="95.68" y="69.6" width="86.112" height="18" stroke="none" fill="url(#id13)" />
            <path d="M 95.68 69.6 H 181.792 m 0 18 H 95.68" stroke="url(#id14)" />
            <line x1="598" y1="69.6" x2="598" y2="87.6" stroke="black" />
          </g>
          <g>
            <rect x="400.66" y="91.6" width="197.34" height="18" fill="white" />
          </g>
          <g>
            <path d="M 227.24 113.6 L 179.4 122.6 227.24 131.6 H 400.66 L 400.66 122.6 400.66 113.6 Z" fill="lightgray" />
          </g>
          <g>
            <rect x="191.36" y="135.6" width="406.64" height="18" fill="springgreen" />
          </g>
          <g>
            <rect x="541.788" y="135.6" width="56.212" height="18" fill="green" />
          </g>
        </g>
        <g text-anchor="middle" stroke="none" fill="black">
          <text x="324.893" y="38.8" fill="black" text-anchor="middle">Earth</text>
          <text x="209.3" y="60.8" fill="black" text-anchor="middle">Archean</text>
          <text x="101.28" y="82.8" text-anchor="start">LUCA?</text>
          <text x="389.896" y="82.8" fill="black" text-anchor="middle">Unicellular organisms</text>
          <text x="499.33" y="104.8" fill="black" text-anchor="middle">Eukaryotes</text>
          <text x="302" y="126.8" fill="black" text-anchor="middle">Engineers</text>
          <text x="394.68" y="148.8" fill="black" text-anchor="middle">Photosynthesis</text>
          <text x="539.788" y="148.8" fill="black" text-anchor="end">Plants</text>
        </g>
      </g>
    </g>
  </g>
</svg>