<?xml version="1.0"?>
<svg xmlns="http://www.w3.org/2000/svg" width="601" height="102.2" viewBox="0 0 601 102.2" transform="translate(0.5, 0.5)">
  <title>Universe</title>
  <g stroke="black" fill="white" font-family="sans-serif" font-size="14">
    <text x="300" y="18" stroke="none" fill="blue" font-size="18" text-anchor="middle" font-weight="bold">Universe</text>
    <rect x="66.22" y="23.6" width="531.78" height="44" stroke="black" fill="none" stroke-width="1" />
    <g>
      <g text-anchor="middle" stroke="none" fill="black" font-size="14">
        <text x="66.22" y="81.6" text-anchor="start">14</text>
        <text x="142.189" y="81.6">12</text>
        <text x="218.157" y="81.6">10</text>
        <text x="294.126" y="81.6">8</text>
        <text x="370.094" y="81.6">6</text>
        <text x="446.063" y="81.6">4</text>
        <text x="522.031" y="81.6">2</text>
        <text x="598" y="81.6" text-anchor="end">0</text>
        <text x="332.11" y="98.4">Billion years ago</text>
      </g>
    </g>
    <defs>
      <clipPath id="id1">
        <rect x="66.22" y="23.6" width="531.78" height="44" />
      </clipPath>
    </defs>
    <g clip-path="url(#id1)">
      <path d="M 65.311 34.6 h 18 M 74.311 25.6 v 18 M 67.947 28.236 L 80.675 40.964 M 80.675 28.236 L 67.947 40.964" fill="none" stroke="red" stroke-width="2" stroke-linecap="round" />
      <a href="https://en.wikipedia.org/wiki/Milky_Way">
        <g>
          <rect x="312.618" y="25.6" width="285.882" height="18" stroke="none" fill="dodgerblue" />
          <path d="M 312.618 25.6 H 599 m 0 18 H 312.618" stroke="black" />
          <defs>
            <linearGradient id="id2">
              <stop offset="0" stop-color="dodgerblue" stop-opacity="0" />
              <stop offset="1" stop-color="dodgerblue" stop-opacity="1" />
            </linearGradient>
            <linearGradient id="id3">
              <stop offset="0" stop-color="black" stop-opacity="0" />
              <stop offset="1" stop-color="black" stop-opacity="1" />
            </linearGradient>
          </defs>
          <rect x="275.134" y="25.6" width="37.984" height="18" stroke="none" fill="url(#id2)" />
          <path d="M 275.134 25.6 H 313.118 m 0 18 H 275.134" stroke="url(#id3)" />
          <line x1="598" y1="25.6" x2="598" y2="43.6" stroke="black" />
        </g>
      </a>
      <a>
        <path transform="translate(313.118, 34.6) scale(1.5) translate(-6,-6)" d="M8.316 1a5.553 5.553 0 0 1 1.629 3.94A3.443 3.443 0 0 1 6.5 8.378 2.127 2.127 0 0 1 4.375 6.25 1.315 1.315 0 0 1 5.69 4.936c.45 0 .813.365.812.813a.503.503 0 0 1-.147.355l-.71-.208a.502.502 0 0 0-.147.355c0 .449.363.813.812.813A1.315 1.315 0 0 0 7.625 5.75 2.127 2.127 0 0 0 5.5 3.622 3.443 3.443 0 0 0 2.055 7.06c0 1.538.622 2.93 1.629 3.939" fill="none" stroke="white" stroke-width="1" stroke-linecap="round" />https://en.wikipedia.org/wiki/Milky_Way</a>
      <g>
        <rect x="424.526" y="47.6" width="173.474" height="18" fill="lightgreen" />
      </g>
    </g>
    <g clip-path="url(#id1)" text-anchor="middle" stroke="none" fill="black">
      <text x="85.311" y="38.8" text-anchor="start">Big Bang</text>
      <text x="455.559" y="38.8" fill="white" text-anchor="middle">Milky Way galaxy</text>
      <text x="511.263" y="60.8" fill="black" text-anchor="middle">Earth</text>
    </g>
    <g stroke="none" fill="black">
      <text x="2" y="38.8">Universe</text>
      <text x="2" y="60.8">Earth</text>
    </g>
  </g>
</svg>